G04 #@! TF.GenerationSoftware,KiCad,Pcbnew,8.0.1*
G04 #@! TF.CreationDate,2024-04-28T13:44:55+02:00*
G04 #@! TF.ProjectId,ETH1ISO224,45544831-4953-44f3-9232-342e6b696361,rev?*
G04 #@! TF.SameCoordinates,Original*
G04 #@! TF.FileFunction,Soldermask,Top*
G04 #@! TF.FilePolarity,Negative*
%FSLAX46Y46*%
G04 Gerber Fmt 4.6, Leading zero omitted, Abs format (unit mm)*
G04 Created by KiCad (PCBNEW 8.0.1) date 2024-04-28 13:44:55*
%MOMM*%
%LPD*%
G01*
G04 APERTURE LIST*
G04 Aperture macros list*
%AMRoundRect*
0 Rectangle with rounded corners*
0 $1 Rounding radius*
0 $2 $3 $4 $5 $6 $7 $8 $9 X,Y pos of 4 corners*
0 Add a 4 corners polygon primitive as box body*
4,1,4,$2,$3,$4,$5,$6,$7,$8,$9,$2,$3,0*
0 Add four circle primitives for the rounded corners*
1,1,$1+$1,$2,$3*
1,1,$1+$1,$4,$5*
1,1,$1+$1,$6,$7*
1,1,$1+$1,$8,$9*
0 Add four rect primitives between the rounded corners*
20,1,$1+$1,$2,$3,$4,$5,0*
20,1,$1+$1,$4,$5,$6,$7,0*
20,1,$1+$1,$6,$7,$8,$9,0*
20,1,$1+$1,$8,$9,$2,$3,0*%
%AMFreePoly0*
4,1,29,0.178017,0.779942,0.347107,0.720775,0.498792,0.625465,0.625465,0.498792,0.720775,0.347107,0.779942,0.178017,0.800000,0.000000,0.779942,-0.178017,0.720775,-0.347107,0.625465,-0.498792,0.498792,-0.625465,0.347107,-0.720775,0.178017,-0.779942,0.000000,-0.800000,-0.178017,-0.779942,-0.347107,-0.720775,-0.498792,-0.625465,-0.625465,-0.498792,-0.720775,-0.347107,-0.779942,-0.178017,
-0.800000,0.000000,-0.779942,0.178017,-0.720775,0.347107,-0.625465,0.498792,-0.498792,0.625465,-0.347107,0.720775,-0.178017,0.779942,0.000000,0.800000,0.178017,0.779942,0.178017,0.779942,$1*%
G04 Aperture macros list end*
%ADD10RoundRect,0.150000X-0.512500X-0.150000X0.512500X-0.150000X0.512500X0.150000X-0.512500X0.150000X0*%
%ADD11RoundRect,0.237500X0.237500X-0.250000X0.237500X0.250000X-0.237500X0.250000X-0.237500X-0.250000X0*%
%ADD12R,0.400000X0.900000*%
%ADD13C,3.000000*%
%ADD14R,0.900000X0.400000*%
%ADD15RoundRect,0.250000X-0.400000X-0.625000X0.400000X-0.625000X0.400000X0.625000X-0.400000X0.625000X0*%
%ADD16R,2.600000X2.600000*%
%ADD17C,2.600000*%
%ADD18R,2.000000X2.400000*%
%ADD19RoundRect,0.250001X0.924999X-0.499999X0.924999X0.499999X-0.924999X0.499999X-0.924999X-0.499999X0*%
%ADD20RoundRect,0.250000X0.275000X0.350000X-0.275000X0.350000X-0.275000X-0.350000X0.275000X-0.350000X0*%
%ADD21C,4.000000*%
%ADD22RoundRect,0.150000X0.150000X-0.587500X0.150000X0.587500X-0.150000X0.587500X-0.150000X-0.587500X0*%
%ADD23R,1.500000X1.000000*%
%ADD24RoundRect,0.162500X0.162500X-0.617500X0.162500X0.617500X-0.162500X0.617500X-0.162500X-0.617500X0*%
%ADD25C,1.400000*%
%ADD26R,1.400000X1.400000*%
%ADD27C,1.600000*%
%ADD28RoundRect,0.222222X-0.577778X0.577778X-0.577778X-0.577778X0.577778X-0.577778X0.577778X0.577778X0*%
%ADD29R,1.000000X1.000000*%
%ADD30O,1.000000X1.000000*%
%ADD31R,1.500000X1.100000*%
%ADD32RoundRect,0.237500X-0.300000X-0.237500X0.300000X-0.237500X0.300000X0.237500X-0.300000X0.237500X0*%
%ADD33C,3.250000*%
%ADD34RoundRect,0.248000X0.552000X-0.552000X0.552000X0.552000X-0.552000X0.552000X-0.552000X-0.552000X0*%
%ADD35C,1.720000*%
%ADD36C,2.200000*%
%ADD37C,3.200000*%
%ADD38RoundRect,0.150000X0.150000X-0.825000X0.150000X0.825000X-0.150000X0.825000X-0.150000X-0.825000X0*%
%ADD39RoundRect,0.237500X-0.237500X0.300000X-0.237500X-0.300000X0.237500X-0.300000X0.237500X0.300000X0*%
%ADD40RoundRect,0.250000X-0.350000X0.275000X-0.350000X-0.275000X0.350000X-0.275000X0.350000X0.275000X0*%
%ADD41RoundRect,0.075000X-0.075000X0.725000X-0.075000X-0.725000X0.075000X-0.725000X0.075000X0.725000X0*%
%ADD42RoundRect,0.075000X-0.725000X0.075000X-0.725000X-0.075000X0.725000X-0.075000X0.725000X0.075000X0*%
%ADD43RoundRect,0.237500X0.300000X0.237500X-0.300000X0.237500X-0.300000X-0.237500X0.300000X-0.237500X0*%
%ADD44R,1.500000X2.500000*%
%ADD45O,1.500000X2.500000*%
%ADD46RoundRect,0.237500X0.250000X0.237500X-0.250000X0.237500X-0.250000X-0.237500X0.250000X-0.237500X0*%
%ADD47RoundRect,0.250000X-0.412500X-0.650000X0.412500X-0.650000X0.412500X0.650000X-0.412500X0.650000X0*%
%ADD48RoundRect,0.237500X-0.237500X0.250000X-0.237500X-0.250000X0.237500X-0.250000X0.237500X0.250000X0*%
%ADD49R,1.905000X0.640000*%
%ADD50FreePoly0,270.000000*%
%ADD51R,3.000000X3.000000*%
%ADD52RoundRect,0.150000X-0.150000X0.587500X-0.150000X-0.587500X0.150000X-0.587500X0.150000X0.587500X0*%
%ADD53C,5.600000*%
%ADD54RoundRect,0.237500X-0.250000X-0.237500X0.250000X-0.237500X0.250000X0.237500X-0.250000X0.237500X0*%
%ADD55RoundRect,0.237500X0.237500X-0.300000X0.237500X0.300000X-0.237500X0.300000X-0.237500X-0.300000X0*%
%ADD56RoundRect,0.250001X0.499999X0.924999X-0.499999X0.924999X-0.499999X-0.924999X0.499999X-0.924999X0*%
%ADD57RoundRect,0.375000X0.375000X-0.625000X0.375000X0.625000X-0.375000X0.625000X-0.375000X-0.625000X0*%
%ADD58RoundRect,0.500000X1.400000X-0.500000X1.400000X0.500000X-1.400000X0.500000X-1.400000X-0.500000X0*%
%ADD59RoundRect,0.225000X-0.225000X-0.375000X0.225000X-0.375000X0.225000X0.375000X-0.225000X0.375000X0*%
%ADD60RoundRect,0.250001X-0.924999X0.499999X-0.924999X-0.499999X0.924999X-0.499999X0.924999X0.499999X0*%
%ADD61RoundRect,0.062500X-0.062500X0.375000X-0.062500X-0.375000X0.062500X-0.375000X0.062500X0.375000X0*%
%ADD62RoundRect,0.062500X-0.375000X0.062500X-0.375000X-0.062500X0.375000X-0.062500X0.375000X0.062500X0*%
%ADD63R,2.500000X2.500000*%
%ADD64RoundRect,0.400000X0.400000X2.350000X-0.400000X2.350000X-0.400000X-2.350000X0.400000X-2.350000X0*%
%ADD65RoundRect,0.100000X-0.712500X-0.100000X0.712500X-0.100000X0.712500X0.100000X-0.712500X0.100000X0*%
%ADD66RoundRect,0.250000X-1.250000X1.000000X-1.250000X-1.000000X1.250000X-1.000000X1.250000X1.000000X0*%
%ADD67RoundRect,0.100000X0.100000X-0.637500X0.100000X0.637500X-0.100000X0.637500X-0.100000X-0.637500X0*%
G04 APERTURE END LIST*
D10*
G04 #@! TO.C,U208*
X159771500Y-68646000D03*
X159771500Y-69596000D03*
X159771500Y-70546000D03*
X162046500Y-70546000D03*
X162046500Y-68646000D03*
G04 #@! TD*
D11*
G04 #@! TO.C,R214*
X157988000Y-70508500D03*
X157988000Y-68683500D03*
G04 #@! TD*
D12*
G04 #@! TO.C,RN401*
X155251000Y-97956000D03*
X154451000Y-97956000D03*
X153651000Y-97956000D03*
X152851000Y-97956000D03*
X152851000Y-99656000D03*
X153651000Y-99656000D03*
X154451000Y-99656000D03*
X155251000Y-99656000D03*
G04 #@! TD*
D13*
G04 #@! TO.C,FID103*
X190500000Y-68453000D03*
G04 #@! TD*
D14*
G04 #@! TO.C,RN501*
X164250000Y-79699000D03*
X164250000Y-80499000D03*
X164250000Y-81299000D03*
X164250000Y-82099000D03*
X165950000Y-82099000D03*
X165950000Y-81299000D03*
X165950000Y-80499000D03*
X165950000Y-79699000D03*
G04 #@! TD*
D15*
G04 #@! TO.C,R204*
X119354000Y-68834000D03*
X122454000Y-68834000D03*
G04 #@! TD*
D16*
G04 #@! TO.C,J301*
X195250000Y-98893000D03*
D17*
X195250000Y-93893000D03*
G04 #@! TD*
D18*
G04 #@! TO.C,Y501*
X171672000Y-74295000D03*
X167672000Y-74295000D03*
G04 #@! TD*
D19*
G04 #@! TO.C,C219*
X139319000Y-104495000D03*
X139319000Y-101245000D03*
G04 #@! TD*
D20*
G04 #@! TO.C,FB201*
X140074000Y-107061000D03*
X142374000Y-107061000D03*
G04 #@! TD*
D21*
G04 #@! TO.C,HS101*
X159863000Y-101552000D03*
X147223000Y-75232000D03*
G04 #@! TD*
D22*
G04 #@! TO.C,Q302*
X181422000Y-103934500D03*
X183322000Y-103934500D03*
X182372000Y-102059500D03*
G04 #@! TD*
D23*
G04 #@! TO.C,JP401*
X164846000Y-72756000D03*
X164846000Y-74056000D03*
G04 #@! TD*
D24*
G04 #@! TO.C,U402*
X160340000Y-75645000D03*
X161290000Y-75645000D03*
X162240000Y-75645000D03*
X162240000Y-72945000D03*
X160340000Y-72945000D03*
G04 #@! TD*
D13*
G04 #@! TO.C,FID101*
X109474000Y-107950000D03*
G04 #@! TD*
D25*
G04 #@! TO.C,U202*
X118618000Y-107366000D03*
X123698000Y-107366000D03*
X131318000Y-107366000D03*
D26*
X133858000Y-107366000D03*
G04 #@! TD*
D27*
G04 #@! TO.C,RN201*
X116713000Y-100076000D03*
X116713000Y-97536000D03*
X116713000Y-94996000D03*
X116713000Y-92456000D03*
X116713000Y-89916000D03*
D28*
X116713000Y-77216000D03*
G04 #@! TD*
D29*
G04 #@! TO.C,J401*
X145151000Y-102733000D03*
D30*
X145151000Y-101463000D03*
X146421000Y-102733000D03*
X146421000Y-101463000D03*
X147691000Y-102733000D03*
X147691000Y-101463000D03*
X148961000Y-102733000D03*
X148961000Y-101463000D03*
X150231000Y-102733000D03*
X150231000Y-101463000D03*
G04 #@! TD*
D31*
G04 #@! TO.C,D401*
X157583000Y-107684000D03*
X154583000Y-107684000D03*
X154583000Y-106184000D03*
X157583000Y-106184000D03*
G04 #@! TD*
D32*
G04 #@! TO.C,C216*
X141123500Y-68326000D03*
X142848500Y-68326000D03*
G04 #@! TD*
D33*
G04 #@! TO.C,J501*
X189342000Y-75438000D03*
X189342000Y-86868000D03*
D34*
X180452000Y-76708000D03*
D27*
X182992000Y-77978000D03*
X180452000Y-79248000D03*
X182992000Y-80518000D03*
X180452000Y-81788000D03*
X182992000Y-83058000D03*
X180452000Y-84328000D03*
X182992000Y-85598000D03*
D35*
X175622000Y-75688000D03*
X175622000Y-78228000D03*
X175622000Y-84078000D03*
X175622000Y-86618000D03*
D36*
X186292000Y-73253000D03*
X186292000Y-89053000D03*
G04 #@! TD*
D37*
G04 #@! TO.C,H102*
X104000000Y-106500000D03*
G04 #@! TD*
D11*
G04 #@! TO.C,R405*
X152908000Y-103655500D03*
X152908000Y-101830500D03*
G04 #@! TD*
D38*
G04 #@! TO.C,U203*
X138430000Y-83882000D03*
X139700000Y-83882000D03*
X140970000Y-83882000D03*
X142240000Y-83882000D03*
X142240000Y-78932000D03*
X140970000Y-78932000D03*
X139700000Y-78932000D03*
X138430000Y-78932000D03*
G04 #@! TD*
D39*
G04 #@! TO.C,C415*
X154432000Y-101880500D03*
X154432000Y-103605500D03*
G04 #@! TD*
D40*
G04 #@! TO.C,FB501*
X172212000Y-88512000D03*
X172212000Y-90812000D03*
G04 #@! TD*
D39*
G04 #@! TO.C,C205*
X122809000Y-88037500D03*
X122809000Y-89762500D03*
G04 #@! TD*
D10*
G04 #@! TO.C,U207*
X147949500Y-68646000D03*
X147949500Y-70546000D03*
X145674500Y-70546000D03*
X145674500Y-69596000D03*
X145674500Y-68646000D03*
G04 #@! TD*
D41*
G04 #@! TO.C,U403*
X159543000Y-80717000D03*
X159043000Y-80717000D03*
X158543000Y-80717000D03*
X158043000Y-80717000D03*
X157543000Y-80717000D03*
X157043000Y-80717000D03*
X156543000Y-80717000D03*
X156043000Y-80717000D03*
X155543000Y-80717000D03*
X155043000Y-80717000D03*
X154543000Y-80717000D03*
X154043000Y-80717000D03*
X153543000Y-80717000D03*
X153043000Y-80717000D03*
X152543000Y-80717000D03*
X152043000Y-80717000D03*
X151543000Y-80717000D03*
X151043000Y-80717000D03*
X150543000Y-80717000D03*
X150043000Y-80717000D03*
X149543000Y-80717000D03*
X149043000Y-80717000D03*
X148543000Y-80717000D03*
X148043000Y-80717000D03*
X147543000Y-80717000D03*
D42*
X145868000Y-82392000D03*
X145868000Y-82892000D03*
X145868000Y-83392000D03*
X145868000Y-83892000D03*
X145868000Y-84392000D03*
X145868000Y-84892000D03*
X145868000Y-85392000D03*
X145868000Y-85892000D03*
X145868000Y-86392000D03*
X145868000Y-86892000D03*
X145868000Y-87392000D03*
X145868000Y-87892000D03*
X145868000Y-88392000D03*
X145868000Y-88892000D03*
X145868000Y-89392000D03*
X145868000Y-89892000D03*
X145868000Y-90392000D03*
X145868000Y-90892000D03*
X145868000Y-91392000D03*
X145868000Y-91892000D03*
X145868000Y-92392000D03*
X145868000Y-92892000D03*
X145868000Y-93392000D03*
X145868000Y-93892000D03*
X145868000Y-94392000D03*
D41*
X147543000Y-96067000D03*
X148043000Y-96067000D03*
X148543000Y-96067000D03*
X149043000Y-96067000D03*
X149543000Y-96067000D03*
X150043000Y-96067000D03*
X150543000Y-96067000D03*
X151043000Y-96067000D03*
X151543000Y-96067000D03*
X152043000Y-96067000D03*
X152543000Y-96067000D03*
X153043000Y-96067000D03*
X153543000Y-96067000D03*
X154043000Y-96067000D03*
X154543000Y-96067000D03*
X155043000Y-96067000D03*
X155543000Y-96067000D03*
X156043000Y-96067000D03*
X156543000Y-96067000D03*
X157043000Y-96067000D03*
X157543000Y-96067000D03*
X158043000Y-96067000D03*
X158543000Y-96067000D03*
X159043000Y-96067000D03*
X159543000Y-96067000D03*
D42*
X161218000Y-94392000D03*
X161218000Y-93892000D03*
X161218000Y-93392000D03*
X161218000Y-92892000D03*
X161218000Y-92392000D03*
X161218000Y-91892000D03*
X161218000Y-91392000D03*
X161218000Y-90892000D03*
X161218000Y-90392000D03*
X161218000Y-89892000D03*
X161218000Y-89392000D03*
X161218000Y-88892000D03*
X161218000Y-88392000D03*
X161218000Y-87892000D03*
X161218000Y-87392000D03*
X161218000Y-86892000D03*
X161218000Y-86392000D03*
X161218000Y-85892000D03*
X161218000Y-85392000D03*
X161218000Y-84892000D03*
X161218000Y-84392000D03*
X161218000Y-83892000D03*
X161218000Y-83392000D03*
X161218000Y-82892000D03*
X161218000Y-82392000D03*
G04 #@! TD*
D37*
G04 #@! TO.C,H101*
X104000000Y-68500000D03*
G04 #@! TD*
D43*
G04 #@! TO.C,C503*
X165962500Y-77216000D03*
X164237500Y-77216000D03*
G04 #@! TD*
D44*
G04 #@! TO.C,U301*
X185566500Y-93948500D03*
D45*
X183026500Y-93948500D03*
X180486500Y-93948500D03*
G04 #@! TD*
D46*
G04 #@! TO.C,R403*
X153947500Y-76581000D03*
X152122500Y-76581000D03*
G04 #@! TD*
D47*
G04 #@! TO.C,C201*
X119341500Y-72771000D03*
X122466500Y-72771000D03*
G04 #@! TD*
D48*
G04 #@! TO.C,R220*
X136652000Y-70588500D03*
X136652000Y-72413500D03*
G04 #@! TD*
D39*
G04 #@! TO.C,C413*
X155575000Y-76607500D03*
X155575000Y-78332500D03*
G04 #@! TD*
D49*
G04 #@! TO.C,U201*
X123430500Y-91948000D03*
X123430500Y-93218000D03*
X123430500Y-94488000D03*
X123430500Y-95758000D03*
X134125500Y-95758000D03*
X134125500Y-94488000D03*
X134125500Y-93218000D03*
X134125500Y-91948000D03*
G04 #@! TD*
D50*
G04 #@! TO.C,J201*
X112770000Y-87500000D03*
X102270000Y-87500000D03*
D51*
X109170000Y-82740000D03*
D13*
X109170000Y-92260000D03*
G04 #@! TD*
D52*
G04 #@! TO.C,Q301*
X187005000Y-102059500D03*
X185105000Y-102059500D03*
X186055000Y-103934500D03*
G04 #@! TD*
D53*
G04 #@! TO.C,H104*
X197000000Y-106500000D03*
G04 #@! TD*
D22*
G04 #@! TO.C,RN202*
X140909000Y-97434000D03*
X142809000Y-97434000D03*
X141859000Y-95559000D03*
G04 #@! TD*
D54*
G04 #@! TO.C,R219*
X151233500Y-70866000D03*
X153058500Y-70866000D03*
G04 #@! TD*
D43*
G04 #@! TO.C,C213*
X139419500Y-68326000D03*
X137694500Y-68326000D03*
G04 #@! TD*
D46*
G04 #@! TO.C,R215*
X138580500Y-85852000D03*
X136755500Y-85852000D03*
G04 #@! TD*
D55*
G04 #@! TO.C,C407*
X151257000Y-74649500D03*
X151257000Y-72924500D03*
G04 #@! TD*
D53*
G04 #@! TO.C,H103*
X197000000Y-68500000D03*
G04 #@! TD*
D56*
G04 #@! TO.C,C303*
X173837000Y-103251000D03*
X170587000Y-103251000D03*
G04 #@! TD*
D57*
G04 #@! TO.C,U302*
X169912000Y-99162000D03*
X172212000Y-99162000D03*
D58*
X172212000Y-92862000D03*
D57*
X174512000Y-99162000D03*
G04 #@! TD*
D59*
G04 #@! TO.C,D201*
X149861000Y-68834000D03*
X153161000Y-68834000D03*
G04 #@! TD*
D60*
G04 #@! TO.C,C305*
X166878000Y-93371000D03*
X166878000Y-96621000D03*
G04 #@! TD*
D46*
G04 #@! TO.C,R301*
X177696500Y-106426000D03*
X175871500Y-106426000D03*
G04 #@! TD*
D61*
G04 #@! TO.C,U501*
X171430000Y-79088500D03*
X170930000Y-79088500D03*
X170430000Y-79088500D03*
X169930000Y-79088500D03*
X169430000Y-79088500D03*
X168930000Y-79088500D03*
D62*
X168242500Y-79776000D03*
X168242500Y-80276000D03*
X168242500Y-80776000D03*
X168242500Y-81276000D03*
X168242500Y-81776000D03*
X168242500Y-82276000D03*
D61*
X168930000Y-82963500D03*
X169430000Y-82963500D03*
X169930000Y-82963500D03*
X170430000Y-82963500D03*
X170930000Y-82963500D03*
X171430000Y-82963500D03*
D62*
X172117500Y-82276000D03*
X172117500Y-81776000D03*
X172117500Y-81276000D03*
X172117500Y-80776000D03*
X172117500Y-80276000D03*
X172117500Y-79776000D03*
D63*
X170180000Y-81026000D03*
G04 #@! TD*
D46*
G04 #@! TO.C,R404*
X153947500Y-78359000D03*
X152122500Y-78359000D03*
G04 #@! TD*
D64*
G04 #@! TO.C,E201*
X116912000Y-70993000D03*
X113212000Y-70993000D03*
G04 #@! TD*
D65*
G04 #@! TO.C,U401*
X153843500Y-72939000D03*
X153843500Y-73589000D03*
X153843500Y-74239000D03*
X153843500Y-74889000D03*
X158068500Y-74889000D03*
X158068500Y-74239000D03*
X158068500Y-73589000D03*
X158068500Y-72939000D03*
G04 #@! TD*
D48*
G04 #@! TO.C,R401*
X157861000Y-76557500D03*
X157861000Y-78382500D03*
G04 #@! TD*
D66*
G04 #@! TO.C,RV201*
X122809000Y-78038000D03*
X122809000Y-85538000D03*
G04 #@! TD*
D38*
G04 #@! TO.C,U205*
X138430000Y-93026000D03*
X139700000Y-93026000D03*
X140970000Y-93026000D03*
X142240000Y-93026000D03*
X142240000Y-88076000D03*
X140970000Y-88076000D03*
X139700000Y-88076000D03*
X138430000Y-88076000D03*
G04 #@! TD*
D22*
G04 #@! TO.C,RN203*
X137226000Y-97434000D03*
X139126000Y-97434000D03*
X138176000Y-95559000D03*
G04 #@! TD*
D43*
G04 #@! TO.C,C508*
X169899500Y-88392000D03*
X168174500Y-88392000D03*
G04 #@! TD*
D54*
G04 #@! TO.C,R501*
X164187500Y-84074000D03*
X166012500Y-84074000D03*
G04 #@! TD*
D43*
G04 #@! TO.C,C507*
X169899500Y-86868000D03*
X168174500Y-86868000D03*
G04 #@! TD*
D67*
G04 #@! TO.C,U204*
X138060000Y-76208000D03*
X138710000Y-76208000D03*
X139360000Y-76208000D03*
X140010000Y-76208000D03*
X140660000Y-76208000D03*
X141310000Y-76208000D03*
X141960000Y-76208000D03*
X142610000Y-76208000D03*
X142610000Y-70483000D03*
X141960000Y-70483000D03*
X141310000Y-70483000D03*
X140660000Y-70483000D03*
X140010000Y-70483000D03*
X139360000Y-70483000D03*
X138710000Y-70483000D03*
X138060000Y-70483000D03*
G04 #@! TD*
M02*
