G04 #@! TF.GenerationSoftware,KiCad,Pcbnew,8.0.1*
G04 #@! TF.CreationDate,2024-04-28T13:44:54+02:00*
G04 #@! TF.ProjectId,ETH1ISO224,45544831-4953-44f3-9232-342e6b696361,rev?*
G04 #@! TF.SameCoordinates,Original*
G04 #@! TF.FileFunction,Paste,Top*
G04 #@! TF.FilePolarity,Positive*
%FSLAX46Y46*%
G04 Gerber Fmt 4.6, Leading zero omitted, Abs format (unit mm)*
G04 Created by KiCad (PCBNEW 8.0.1) date 2024-04-28 13:44:54*
%MOMM*%
%LPD*%
G01*
G04 APERTURE LIST*
G04 Aperture macros list*
%AMRoundRect*
0 Rectangle with rounded corners*
0 $1 Rounding radius*
0 $2 $3 $4 $5 $6 $7 $8 $9 X,Y pos of 4 corners*
0 Add a 4 corners polygon primitive as box body*
4,1,4,$2,$3,$4,$5,$6,$7,$8,$9,$2,$3,0*
0 Add four circle primitives for the rounded corners*
1,1,$1+$1,$2,$3*
1,1,$1+$1,$4,$5*
1,1,$1+$1,$6,$7*
1,1,$1+$1,$8,$9*
0 Add four rect primitives between the rounded corners*
20,1,$1+$1,$2,$3,$4,$5,0*
20,1,$1+$1,$4,$5,$6,$7,0*
20,1,$1+$1,$6,$7,$8,$9,0*
20,1,$1+$1,$8,$9,$2,$3,0*%
%AMFreePoly0*
4,1,25,0.266375,0.443630,0.297109,0.420047,0.420047,0.297109,0.458455,0.230584,0.463512,0.192176,0.463512,-0.192176,0.443630,-0.266375,0.420047,-0.297109,0.297109,-0.420047,0.230584,-0.458455,0.192176,-0.463512,-0.192176,-0.463512,-0.266375,-0.443630,-0.297109,-0.420047,-0.420047,-0.297109,-0.458455,-0.230584,-0.463512,-0.192176,-0.463512,0.192176,-0.443630,0.266375,-0.420047,0.297109,
-0.297109,0.420047,-0.230584,0.458455,-0.192176,0.463512,0.192176,0.463512,0.266375,0.443630,0.266375,0.443630,$1*%
G04 Aperture macros list end*
%ADD10RoundRect,0.150000X-0.512500X-0.150000X0.512500X-0.150000X0.512500X0.150000X-0.512500X0.150000X0*%
%ADD11RoundRect,0.237500X0.237500X-0.250000X0.237500X0.250000X-0.237500X0.250000X-0.237500X-0.250000X0*%
%ADD12R,0.400000X0.900000*%
%ADD13R,0.900000X0.400000*%
%ADD14RoundRect,0.250000X-0.400000X-0.625000X0.400000X-0.625000X0.400000X0.625000X-0.400000X0.625000X0*%
%ADD15R,2.000000X2.400000*%
%ADD16RoundRect,0.250001X0.924999X-0.499999X0.924999X0.499999X-0.924999X0.499999X-0.924999X-0.499999X0*%
%ADD17RoundRect,0.250000X0.275000X0.350000X-0.275000X0.350000X-0.275000X-0.350000X0.275000X-0.350000X0*%
%ADD18RoundRect,0.150000X0.150000X-0.587500X0.150000X0.587500X-0.150000X0.587500X-0.150000X-0.587500X0*%
%ADD19RoundRect,0.162500X0.162500X-0.617500X0.162500X0.617500X-0.162500X0.617500X-0.162500X-0.617500X0*%
%ADD20R,1.500000X1.100000*%
%ADD21RoundRect,0.237500X-0.300000X-0.237500X0.300000X-0.237500X0.300000X0.237500X-0.300000X0.237500X0*%
%ADD22RoundRect,0.150000X0.150000X-0.825000X0.150000X0.825000X-0.150000X0.825000X-0.150000X-0.825000X0*%
%ADD23RoundRect,0.237500X-0.237500X0.300000X-0.237500X-0.300000X0.237500X-0.300000X0.237500X0.300000X0*%
%ADD24RoundRect,0.250000X-0.350000X0.275000X-0.350000X-0.275000X0.350000X-0.275000X0.350000X0.275000X0*%
%ADD25RoundRect,0.075000X-0.075000X0.725000X-0.075000X-0.725000X0.075000X-0.725000X0.075000X0.725000X0*%
%ADD26RoundRect,0.075000X-0.725000X0.075000X-0.725000X-0.075000X0.725000X-0.075000X0.725000X0.075000X0*%
%ADD27RoundRect,0.237500X0.300000X0.237500X-0.300000X0.237500X-0.300000X-0.237500X0.300000X-0.237500X0*%
%ADD28RoundRect,0.237500X0.250000X0.237500X-0.250000X0.237500X-0.250000X-0.237500X0.250000X-0.237500X0*%
%ADD29RoundRect,0.250000X-0.412500X-0.650000X0.412500X-0.650000X0.412500X0.650000X-0.412500X0.650000X0*%
%ADD30RoundRect,0.237500X-0.237500X0.250000X-0.237500X-0.250000X0.237500X-0.250000X0.237500X0.250000X0*%
%ADD31R,1.905000X0.640000*%
%ADD32RoundRect,0.150000X-0.150000X0.587500X-0.150000X-0.587500X0.150000X-0.587500X0.150000X0.587500X0*%
%ADD33RoundRect,0.237500X-0.250000X-0.237500X0.250000X-0.237500X0.250000X0.237500X-0.250000X0.237500X0*%
%ADD34RoundRect,0.237500X0.237500X-0.300000X0.237500X0.300000X-0.237500X0.300000X-0.237500X-0.300000X0*%
%ADD35RoundRect,0.250001X0.499999X0.924999X-0.499999X0.924999X-0.499999X-0.924999X0.499999X-0.924999X0*%
%ADD36RoundRect,0.375000X0.375000X-0.625000X0.375000X0.625000X-0.375000X0.625000X-0.375000X-0.625000X0*%
%ADD37RoundRect,0.500000X1.400000X-0.500000X1.400000X0.500000X-1.400000X0.500000X-1.400000X-0.500000X0*%
%ADD38RoundRect,0.225000X-0.225000X-0.375000X0.225000X-0.375000X0.225000X0.375000X-0.225000X0.375000X0*%
%ADD39RoundRect,0.250001X-0.924999X0.499999X-0.924999X-0.499999X0.924999X-0.499999X0.924999X0.499999X0*%
%ADD40FreePoly0,270.000000*%
%ADD41RoundRect,0.062500X-0.062500X0.375000X-0.062500X-0.375000X0.062500X-0.375000X0.062500X0.375000X0*%
%ADD42RoundRect,0.062500X-0.375000X0.062500X-0.375000X-0.062500X0.375000X-0.062500X0.375000X0.062500X0*%
%ADD43RoundRect,0.400000X0.400000X2.350000X-0.400000X2.350000X-0.400000X-2.350000X0.400000X-2.350000X0*%
%ADD44RoundRect,0.100000X-0.712500X-0.100000X0.712500X-0.100000X0.712500X0.100000X-0.712500X0.100000X0*%
%ADD45RoundRect,0.250000X-1.250000X1.000000X-1.250000X-1.000000X1.250000X-1.000000X1.250000X1.000000X0*%
%ADD46RoundRect,0.100000X0.100000X-0.637500X0.100000X0.637500X-0.100000X0.637500X-0.100000X-0.637500X0*%
G04 APERTURE END LIST*
D10*
G04 #@! TO.C,U208*
X159771500Y-68646000D03*
X159771500Y-69596000D03*
X159771500Y-70546000D03*
X162046500Y-70546000D03*
X162046500Y-68646000D03*
G04 #@! TD*
D11*
G04 #@! TO.C,R214*
X157988000Y-70508500D03*
X157988000Y-68683500D03*
G04 #@! TD*
D12*
G04 #@! TO.C,RN401*
X155251000Y-97956000D03*
X154451000Y-97956000D03*
X153651000Y-97956000D03*
X152851000Y-97956000D03*
X152851000Y-99656000D03*
X153651000Y-99656000D03*
X154451000Y-99656000D03*
X155251000Y-99656000D03*
G04 #@! TD*
D13*
G04 #@! TO.C,RN501*
X164250000Y-79699000D03*
X164250000Y-80499000D03*
X164250000Y-81299000D03*
X164250000Y-82099000D03*
X165950000Y-82099000D03*
X165950000Y-81299000D03*
X165950000Y-80499000D03*
X165950000Y-79699000D03*
G04 #@! TD*
D14*
G04 #@! TO.C,R204*
X119354000Y-68834000D03*
X122454000Y-68834000D03*
G04 #@! TD*
D15*
G04 #@! TO.C,Y501*
X171672000Y-74295000D03*
X167672000Y-74295000D03*
G04 #@! TD*
D16*
G04 #@! TO.C,C219*
X139319000Y-104495000D03*
X139319000Y-101245000D03*
G04 #@! TD*
D17*
G04 #@! TO.C,FB201*
X140074000Y-107061000D03*
X142374000Y-107061000D03*
G04 #@! TD*
D18*
G04 #@! TO.C,Q302*
X181422000Y-103934500D03*
X183322000Y-103934500D03*
X182372000Y-102059500D03*
G04 #@! TD*
D19*
G04 #@! TO.C,U402*
X160340000Y-75645000D03*
X161290000Y-75645000D03*
X162240000Y-75645000D03*
X162240000Y-72945000D03*
X160340000Y-72945000D03*
G04 #@! TD*
D20*
G04 #@! TO.C,D401*
X157583000Y-107684000D03*
X154583000Y-107684000D03*
X154583000Y-106184000D03*
X157583000Y-106184000D03*
G04 #@! TD*
D21*
G04 #@! TO.C,C216*
X141123500Y-68326000D03*
X142848500Y-68326000D03*
G04 #@! TD*
D11*
G04 #@! TO.C,R405*
X152908000Y-103655500D03*
X152908000Y-101830500D03*
G04 #@! TD*
D22*
G04 #@! TO.C,U203*
X138430000Y-83882000D03*
X139700000Y-83882000D03*
X140970000Y-83882000D03*
X142240000Y-83882000D03*
X142240000Y-78932000D03*
X140970000Y-78932000D03*
X139700000Y-78932000D03*
X138430000Y-78932000D03*
G04 #@! TD*
D23*
G04 #@! TO.C,C415*
X154432000Y-101880500D03*
X154432000Y-103605500D03*
G04 #@! TD*
D24*
G04 #@! TO.C,FB501*
X172212000Y-88512000D03*
X172212000Y-90812000D03*
G04 #@! TD*
D23*
G04 #@! TO.C,C205*
X122809000Y-88037500D03*
X122809000Y-89762500D03*
G04 #@! TD*
D10*
G04 #@! TO.C,U207*
X147949500Y-68646000D03*
X147949500Y-70546000D03*
X145674500Y-70546000D03*
X145674500Y-69596000D03*
X145674500Y-68646000D03*
G04 #@! TD*
D25*
G04 #@! TO.C,U403*
X159543000Y-80717000D03*
X159043000Y-80717000D03*
X158543000Y-80717000D03*
X158043000Y-80717000D03*
X157543000Y-80717000D03*
X157043000Y-80717000D03*
X156543000Y-80717000D03*
X156043000Y-80717000D03*
X155543000Y-80717000D03*
X155043000Y-80717000D03*
X154543000Y-80717000D03*
X154043000Y-80717000D03*
X153543000Y-80717000D03*
X153043000Y-80717000D03*
X152543000Y-80717000D03*
X152043000Y-80717000D03*
X151543000Y-80717000D03*
X151043000Y-80717000D03*
X150543000Y-80717000D03*
X150043000Y-80717000D03*
X149543000Y-80717000D03*
X149043000Y-80717000D03*
X148543000Y-80717000D03*
X148043000Y-80717000D03*
X147543000Y-80717000D03*
D26*
X145868000Y-82392000D03*
X145868000Y-82892000D03*
X145868000Y-83392000D03*
X145868000Y-83892000D03*
X145868000Y-84392000D03*
X145868000Y-84892000D03*
X145868000Y-85392000D03*
X145868000Y-85892000D03*
X145868000Y-86392000D03*
X145868000Y-86892000D03*
X145868000Y-87392000D03*
X145868000Y-87892000D03*
X145868000Y-88392000D03*
X145868000Y-88892000D03*
X145868000Y-89392000D03*
X145868000Y-89892000D03*
X145868000Y-90392000D03*
X145868000Y-90892000D03*
X145868000Y-91392000D03*
X145868000Y-91892000D03*
X145868000Y-92392000D03*
X145868000Y-92892000D03*
X145868000Y-93392000D03*
X145868000Y-93892000D03*
X145868000Y-94392000D03*
D25*
X147543000Y-96067000D03*
X148043000Y-96067000D03*
X148543000Y-96067000D03*
X149043000Y-96067000D03*
X149543000Y-96067000D03*
X150043000Y-96067000D03*
X150543000Y-96067000D03*
X151043000Y-96067000D03*
X151543000Y-96067000D03*
X152043000Y-96067000D03*
X152543000Y-96067000D03*
X153043000Y-96067000D03*
X153543000Y-96067000D03*
X154043000Y-96067000D03*
X154543000Y-96067000D03*
X155043000Y-96067000D03*
X155543000Y-96067000D03*
X156043000Y-96067000D03*
X156543000Y-96067000D03*
X157043000Y-96067000D03*
X157543000Y-96067000D03*
X158043000Y-96067000D03*
X158543000Y-96067000D03*
X159043000Y-96067000D03*
X159543000Y-96067000D03*
D26*
X161218000Y-94392000D03*
X161218000Y-93892000D03*
X161218000Y-93392000D03*
X161218000Y-92892000D03*
X161218000Y-92392000D03*
X161218000Y-91892000D03*
X161218000Y-91392000D03*
X161218000Y-90892000D03*
X161218000Y-90392000D03*
X161218000Y-89892000D03*
X161218000Y-89392000D03*
X161218000Y-88892000D03*
X161218000Y-88392000D03*
X161218000Y-87892000D03*
X161218000Y-87392000D03*
X161218000Y-86892000D03*
X161218000Y-86392000D03*
X161218000Y-85892000D03*
X161218000Y-85392000D03*
X161218000Y-84892000D03*
X161218000Y-84392000D03*
X161218000Y-83892000D03*
X161218000Y-83392000D03*
X161218000Y-82892000D03*
X161218000Y-82392000D03*
G04 #@! TD*
D27*
G04 #@! TO.C,C503*
X165962500Y-77216000D03*
X164237500Y-77216000D03*
G04 #@! TD*
D28*
G04 #@! TO.C,R403*
X153947500Y-76581000D03*
X152122500Y-76581000D03*
G04 #@! TD*
D29*
G04 #@! TO.C,C201*
X119341500Y-72771000D03*
X122466500Y-72771000D03*
G04 #@! TD*
D30*
G04 #@! TO.C,R220*
X136652000Y-70588500D03*
X136652000Y-72413500D03*
G04 #@! TD*
D23*
G04 #@! TO.C,C413*
X155575000Y-76607500D03*
X155575000Y-78332500D03*
G04 #@! TD*
D31*
G04 #@! TO.C,U201*
X123430500Y-91948000D03*
X123430500Y-93218000D03*
X123430500Y-94488000D03*
X123430500Y-95758000D03*
X134125500Y-95758000D03*
X134125500Y-94488000D03*
X134125500Y-93218000D03*
X134125500Y-91948000D03*
G04 #@! TD*
D32*
G04 #@! TO.C,Q301*
X187005000Y-102059500D03*
X185105000Y-102059500D03*
X186055000Y-103934500D03*
G04 #@! TD*
D18*
G04 #@! TO.C,RN202*
X140909000Y-97434000D03*
X142809000Y-97434000D03*
X141859000Y-95559000D03*
G04 #@! TD*
D33*
G04 #@! TO.C,R219*
X151233500Y-70866000D03*
X153058500Y-70866000D03*
G04 #@! TD*
D27*
G04 #@! TO.C,C213*
X139419500Y-68326000D03*
X137694500Y-68326000D03*
G04 #@! TD*
D28*
G04 #@! TO.C,R215*
X138580500Y-85852000D03*
X136755500Y-85852000D03*
G04 #@! TD*
D34*
G04 #@! TO.C,C407*
X151257000Y-74649500D03*
X151257000Y-72924500D03*
G04 #@! TD*
D35*
G04 #@! TO.C,C303*
X173837000Y-103251000D03*
X170587000Y-103251000D03*
G04 #@! TD*
D36*
G04 #@! TO.C,U302*
X169912000Y-99162000D03*
X172212000Y-99162000D03*
D37*
X172212000Y-92862000D03*
D36*
X174512000Y-99162000D03*
G04 #@! TD*
D38*
G04 #@! TO.C,D201*
X149861000Y-68834000D03*
X153161000Y-68834000D03*
G04 #@! TD*
D39*
G04 #@! TO.C,C305*
X166878000Y-93371000D03*
X166878000Y-96621000D03*
G04 #@! TD*
D28*
G04 #@! TO.C,R301*
X177696500Y-106426000D03*
X175871500Y-106426000D03*
G04 #@! TD*
D40*
G04 #@! TO.C,U501*
X170750000Y-80456000D03*
X169610000Y-80456000D03*
X170750000Y-81596000D03*
X169610000Y-81596000D03*
D41*
X171430000Y-79088500D03*
X170930000Y-79088500D03*
X170430000Y-79088500D03*
X169930000Y-79088500D03*
X169430000Y-79088500D03*
X168930000Y-79088500D03*
D42*
X168242500Y-79776000D03*
X168242500Y-80276000D03*
X168242500Y-80776000D03*
X168242500Y-81276000D03*
X168242500Y-81776000D03*
X168242500Y-82276000D03*
D41*
X168930000Y-82963500D03*
X169430000Y-82963500D03*
X169930000Y-82963500D03*
X170430000Y-82963500D03*
X170930000Y-82963500D03*
X171430000Y-82963500D03*
D42*
X172117500Y-82276000D03*
X172117500Y-81776000D03*
X172117500Y-81276000D03*
X172117500Y-80776000D03*
X172117500Y-80276000D03*
X172117500Y-79776000D03*
G04 #@! TD*
D28*
G04 #@! TO.C,R404*
X153947500Y-78359000D03*
X152122500Y-78359000D03*
G04 #@! TD*
D43*
G04 #@! TO.C,E201*
X116912000Y-70993000D03*
X113212000Y-70993000D03*
G04 #@! TD*
D44*
G04 #@! TO.C,U401*
X153843500Y-72939000D03*
X153843500Y-73589000D03*
X153843500Y-74239000D03*
X153843500Y-74889000D03*
X158068500Y-74889000D03*
X158068500Y-74239000D03*
X158068500Y-73589000D03*
X158068500Y-72939000D03*
G04 #@! TD*
D30*
G04 #@! TO.C,R401*
X157861000Y-76557500D03*
X157861000Y-78382500D03*
G04 #@! TD*
D45*
G04 #@! TO.C,RV201*
X122809000Y-78038000D03*
X122809000Y-85538000D03*
G04 #@! TD*
D22*
G04 #@! TO.C,U205*
X138430000Y-93026000D03*
X139700000Y-93026000D03*
X140970000Y-93026000D03*
X142240000Y-93026000D03*
X142240000Y-88076000D03*
X140970000Y-88076000D03*
X139700000Y-88076000D03*
X138430000Y-88076000D03*
G04 #@! TD*
D18*
G04 #@! TO.C,RN203*
X137226000Y-97434000D03*
X139126000Y-97434000D03*
X138176000Y-95559000D03*
G04 #@! TD*
D27*
G04 #@! TO.C,C508*
X169899500Y-88392000D03*
X168174500Y-88392000D03*
G04 #@! TD*
D33*
G04 #@! TO.C,R501*
X164187500Y-84074000D03*
X166012500Y-84074000D03*
G04 #@! TD*
D27*
G04 #@! TO.C,C507*
X169899500Y-86868000D03*
X168174500Y-86868000D03*
G04 #@! TD*
D46*
G04 #@! TO.C,U204*
X138060000Y-76208000D03*
X138710000Y-76208000D03*
X139360000Y-76208000D03*
X140010000Y-76208000D03*
X140660000Y-76208000D03*
X141310000Y-76208000D03*
X141960000Y-76208000D03*
X142610000Y-76208000D03*
X142610000Y-70483000D03*
X141960000Y-70483000D03*
X141310000Y-70483000D03*
X140660000Y-70483000D03*
X140010000Y-70483000D03*
X139360000Y-70483000D03*
X138710000Y-70483000D03*
X138060000Y-70483000D03*
G04 #@! TD*
M02*
