%TF.GenerationSoftware,KiCad,Pcbnew,8.0.1*%
%TF.CreationDate,2024-04-28T13:44:50+02:00*%
%TF.ProjectId,ETH1ISO224,45544831-4953-44f3-9232-342e6b696361,rev?*%
%TF.SameCoordinates,Original*%
%TF.FileFunction,Drillmap*%
%TF.FilePolarity,Positive*%
%FSLAX45Y45*%
G04 Gerber Fmt 4.5, Leading zero omitted, Abs format (unit mm)*
G04 Created by KiCad (PCBNEW 8.0.1) date 2024-04-28 13:44:50*
%MOMM*%
%LPD*%
G01*
G04 APERTURE LIST*
%ADD10C,0.050000*%
%ADD11C,0.200000*%
%ADD12C,0.100000*%
%ADD13C,0.102000*%
%ADD14C,0.130000*%
%ADD15C,0.140000*%
%ADD16C,0.160000*%
%ADD17C,0.318000*%
%ADD18C,0.320000*%
G04 APERTURE END LIST*
D10*
X10050000Y-6500000D02*
X20050000Y-6500000D01*
X20050000Y-11000000D01*
X10050000Y-11000000D01*
X10050000Y-6500000D01*
D11*
D12*
X12321700Y-6873400D02*
X12341700Y-6893400D01*
X12341700Y-6873400D02*
X12321700Y-6893400D01*
X12372500Y-7267100D02*
X12392500Y-7287100D01*
X12392500Y-7267100D02*
X12372500Y-7287100D01*
X12372500Y-8442200D02*
X12392500Y-8462200D01*
X12392500Y-8442200D02*
X12372500Y-8462200D01*
X13402550Y-9642000D02*
X13422550Y-9662000D01*
X13422550Y-9642000D02*
X13402550Y-9662000D01*
X13540900Y-9184800D02*
X13560900Y-9204800D01*
X13560900Y-9184800D02*
X13540900Y-9204800D01*
X13591700Y-9819800D02*
X13611700Y-9839800D01*
X13611700Y-9819800D02*
X13591700Y-9839800D01*
X13667900Y-6822600D02*
X13687900Y-6842600D01*
X13687900Y-6822600D02*
X13667900Y-6842600D01*
X13776700Y-9545900D02*
X13796700Y-9565900D01*
X13796700Y-9545900D02*
X13776700Y-9565900D01*
X13788400Y-9292600D02*
X13808400Y-9312600D01*
X13808400Y-9292600D02*
X13788400Y-9312600D01*
X13796000Y-7521100D02*
X13816000Y-7541100D01*
X13816000Y-7521100D02*
X13796000Y-7541100D01*
X13807600Y-7419500D02*
X13827600Y-7439500D01*
X13827600Y-7419500D02*
X13807600Y-7439500D01*
X13833000Y-7991000D02*
X13853000Y-8011000D01*
X13853000Y-7991000D02*
X13833000Y-8011000D01*
X13833000Y-8918100D02*
X13853000Y-8938100D01*
X13853000Y-8918100D02*
X13833000Y-8938100D01*
X13833000Y-10581800D02*
X13853000Y-10601800D01*
X13853000Y-10581800D02*
X13833000Y-10601800D01*
X13871100Y-6822600D02*
X13891100Y-6842600D01*
X13891100Y-6822600D02*
X13871100Y-6842600D01*
X13871100Y-7324550D02*
X13891100Y-7344550D01*
X13891100Y-7324550D02*
X13871100Y-7344550D01*
X13883800Y-9134000D02*
X13903800Y-9154000D01*
X13903800Y-9134000D02*
X13883800Y-9154000D01*
X13902600Y-9813200D02*
X13922600Y-9833200D01*
X13922600Y-9813200D02*
X13902600Y-9833200D01*
X13921900Y-10581800D02*
X13941900Y-10601800D01*
X13941900Y-10581800D02*
X13921900Y-10601800D01*
X13926000Y-7527350D02*
X13946000Y-7547350D01*
X13946000Y-7527350D02*
X13926000Y-7547350D01*
X13960000Y-8702200D02*
X13980000Y-8722200D01*
X13980000Y-8702200D02*
X13960000Y-8722200D01*
X14010800Y-10581800D02*
X14030800Y-10601800D01*
X14030800Y-10581800D02*
X14010800Y-10601800D01*
X14023500Y-8130700D02*
X14043500Y-8150700D01*
X14043500Y-8130700D02*
X14023500Y-8150700D01*
X14087000Y-8270400D02*
X14107000Y-8290400D01*
X14107000Y-8270400D02*
X14087000Y-8290400D01*
X14112400Y-9692800D02*
X14132400Y-9712800D01*
X14132400Y-9692800D02*
X14112400Y-9712800D01*
X14150500Y-6822600D02*
X14170500Y-6842600D01*
X14170500Y-6822600D02*
X14150500Y-6842600D01*
X14157150Y-7324550D02*
X14177150Y-7344550D01*
X14177150Y-7324550D02*
X14157150Y-7344550D01*
X14208500Y-9545900D02*
X14228500Y-9565900D01*
X14228500Y-9545900D02*
X14208500Y-9565900D01*
X14211350Y-8273050D02*
X14231350Y-8293050D01*
X14231350Y-8273050D02*
X14211350Y-8293050D01*
X14214000Y-7991000D02*
X14234000Y-8011000D01*
X14234000Y-7991000D02*
X14214000Y-8011000D01*
X14214000Y-9146700D02*
X14234000Y-9166700D01*
X14234000Y-9146700D02*
X14214000Y-9166700D01*
X14270900Y-9826400D02*
X14290900Y-9846400D01*
X14290900Y-9826400D02*
X14270900Y-9846400D01*
X14341000Y-10607200D02*
X14361000Y-10627200D01*
X14361000Y-10607200D02*
X14341000Y-10627200D01*
X14341000Y-10696100D02*
X14361000Y-10716100D01*
X14361000Y-10696100D02*
X14341000Y-10716100D01*
X14341000Y-10785000D02*
X14361000Y-10805000D01*
X14361000Y-10785000D02*
X14341000Y-10805000D01*
X14379100Y-6822600D02*
X14399100Y-6842600D01*
X14399100Y-6822600D02*
X14379100Y-6842600D01*
X14404500Y-9375300D02*
X14424500Y-9395300D01*
X14424500Y-9375300D02*
X14404500Y-9395300D01*
X14518800Y-7825900D02*
X14538800Y-7845900D01*
X14538800Y-7825900D02*
X14518800Y-7845900D01*
X14620400Y-9489600D02*
X14640400Y-9509600D01*
X14640400Y-9489600D02*
X14620400Y-9509600D01*
X14658500Y-6949600D02*
X14678500Y-6969600D01*
X14678500Y-6949600D02*
X14658500Y-6969600D01*
X14709300Y-8219600D02*
X14729300Y-8239600D01*
X14729300Y-8219600D02*
X14709300Y-8239600D01*
X14722000Y-8410100D02*
X14742000Y-8430100D01*
X14742000Y-8410100D02*
X14722000Y-8430100D01*
X14734700Y-8321200D02*
X14754700Y-8341200D01*
X14754700Y-8321200D02*
X14734700Y-8341200D01*
X14810900Y-9070500D02*
X14830900Y-9090500D01*
X14830900Y-9070500D02*
X14810900Y-9090500D01*
X14810900Y-9311800D02*
X14830900Y-9331800D01*
X14830900Y-9311800D02*
X14810900Y-9331800D01*
X14857750Y-6854600D02*
X14877750Y-6874600D01*
X14877750Y-6854600D02*
X14857750Y-6874600D01*
X14874400Y-7895750D02*
X14894400Y-7915750D01*
X14894400Y-7895750D02*
X14874400Y-7915750D01*
X14976000Y-8257700D02*
X14996000Y-8277700D01*
X14996000Y-8257700D02*
X14976000Y-8277700D01*
X15090300Y-7584600D02*
X15110300Y-7604600D01*
X15110300Y-7584600D02*
X15090300Y-7604600D01*
X15115700Y-7216300D02*
X15135700Y-7236300D01*
X15135700Y-7216300D02*
X15115700Y-7236300D01*
X15160900Y-8950600D02*
X15180900Y-8970600D01*
X15180900Y-8950600D02*
X15160900Y-8970600D01*
X15242700Y-6873400D02*
X15262700Y-6893400D01*
X15262700Y-6873400D02*
X15242700Y-6893400D01*
X15280800Y-10302400D02*
X15300800Y-10322400D01*
X15300800Y-10302400D02*
X15280800Y-10322400D01*
X15293500Y-8168800D02*
X15313500Y-8188800D01*
X15313500Y-8168800D02*
X15293500Y-8188800D01*
X15293500Y-8289850D02*
X15313500Y-8309850D01*
X15313500Y-8289850D02*
X15293500Y-8309850D01*
X15433200Y-10442100D02*
X15453200Y-10462100D01*
X15453200Y-10442100D02*
X15433200Y-10462100D01*
X15445900Y-8181500D02*
X15465900Y-8201500D01*
X15465900Y-8181500D02*
X15445900Y-8201500D01*
X15445900Y-8289850D02*
X15465900Y-8309850D01*
X15465900Y-8289850D02*
X15445900Y-8309850D01*
X15484000Y-7428500D02*
X15504000Y-7448500D01*
X15504000Y-7428500D02*
X15484000Y-7448500D01*
X15491100Y-7348900D02*
X15511100Y-7368900D01*
X15511100Y-7348900D02*
X15491100Y-7368900D01*
X15494300Y-7952900D02*
X15514300Y-7972900D01*
X15514300Y-7952900D02*
X15494300Y-7972900D01*
X15496700Y-9235600D02*
X15516700Y-9255600D01*
X15516700Y-9235600D02*
X15496700Y-9255600D01*
X15534800Y-8206900D02*
X15554800Y-8226900D01*
X15554800Y-8206900D02*
X15534800Y-8226900D01*
X15547500Y-9299100D02*
X15567500Y-9319100D01*
X15567500Y-9299100D02*
X15547500Y-9319100D01*
X15560200Y-9159400D02*
X15580200Y-9179400D01*
X15580200Y-9159400D02*
X15560200Y-9179400D01*
X15585600Y-6886100D02*
X15605600Y-6906100D01*
X15605600Y-6886100D02*
X15585600Y-6906100D01*
X15585600Y-7114700D02*
X15605600Y-7134700D01*
X15605600Y-7114700D02*
X15585600Y-7134700D01*
X15649100Y-8778400D02*
X15669100Y-8798400D01*
X15669100Y-8778400D02*
X15649100Y-8798400D01*
X15672283Y-7348900D02*
X15692283Y-7368900D01*
X15692283Y-7348900D02*
X15672283Y-7368900D01*
X15674500Y-7432200D02*
X15694500Y-7452200D01*
X15694500Y-7432200D02*
X15674500Y-7452200D01*
X15674500Y-8181500D02*
X15694500Y-8201500D01*
X15694500Y-8181500D02*
X15674500Y-8201500D01*
X15732920Y-8311040D02*
X15752920Y-8331040D01*
X15752920Y-8311040D02*
X15732920Y-8331040D01*
X15735390Y-8496390D02*
X15755390Y-8516390D01*
X15755390Y-8496390D02*
X15735390Y-8516390D01*
X15748300Y-10444500D02*
X15768300Y-10464500D01*
X15768300Y-10444500D02*
X15748300Y-10464500D01*
X15776100Y-8549800D02*
X15796100Y-8569800D01*
X15796100Y-8549800D02*
X15776100Y-8569800D01*
X15788800Y-9451500D02*
X15808800Y-9471500D01*
X15808800Y-9451500D02*
X15788800Y-9471500D01*
X15801500Y-8778400D02*
X15821500Y-8798400D01*
X15821500Y-8778400D02*
X15801500Y-8798400D01*
X15890400Y-8473600D02*
X15910400Y-8493600D01*
X15910400Y-8473600D02*
X15890400Y-8493600D01*
X15894300Y-9743600D02*
X15914300Y-9763600D01*
X15914300Y-9743600D02*
X15894300Y-9763600D01*
X15915800Y-8778400D02*
X15935800Y-8798400D01*
X15935800Y-8778400D02*
X15915800Y-8798400D01*
X15915800Y-9438800D02*
X15935800Y-9458800D01*
X15935800Y-9438800D02*
X15915800Y-9458800D01*
X15922900Y-7413900D02*
X15942900Y-7433900D01*
X15942900Y-7413900D02*
X15922900Y-7433900D01*
X15979300Y-8219600D02*
X15999300Y-8239600D01*
X15999300Y-8219600D02*
X15979300Y-8239600D01*
X15979300Y-8372000D02*
X15999300Y-8392000D01*
X15999300Y-8372000D02*
X15979300Y-8392000D01*
X15979300Y-8448200D02*
X15999300Y-8468200D01*
X15999300Y-8448200D02*
X15979300Y-8468200D01*
X15985250Y-8529200D02*
X16005250Y-8549200D01*
X16005250Y-8529200D02*
X15985250Y-8549200D01*
X16004700Y-9603900D02*
X16024700Y-9623900D01*
X16024700Y-9603900D02*
X16004700Y-9623900D01*
X16024000Y-7375300D02*
X16044000Y-7395300D01*
X16044000Y-7375300D02*
X16024000Y-7395300D01*
X16024000Y-7476900D02*
X16044000Y-7496900D01*
X16044000Y-7476900D02*
X16024000Y-7496900D01*
X16080900Y-7876700D02*
X16100900Y-7896700D01*
X16100900Y-7876700D02*
X16080900Y-7896700D01*
X16111800Y-8176000D02*
X16131800Y-8196000D01*
X16131800Y-8176000D02*
X16111800Y-8196000D01*
X16119000Y-7432200D02*
X16139000Y-7452200D01*
X16139000Y-7432200D02*
X16119000Y-7452200D01*
X16125100Y-6854600D02*
X16145100Y-6874600D01*
X16145100Y-6854600D02*
X16125100Y-6874600D01*
X16131700Y-6949600D02*
X16151700Y-6969600D01*
X16151700Y-6949600D02*
X16131700Y-6969600D01*
X16214000Y-7388000D02*
X16234000Y-7408000D01*
X16234000Y-7388000D02*
X16214000Y-7408000D01*
X16271400Y-7959900D02*
X16291400Y-7979900D01*
X16291400Y-7959900D02*
X16271400Y-7979900D01*
X16284100Y-8039900D02*
X16304100Y-8059900D01*
X16304100Y-8039900D02*
X16284100Y-8059900D01*
X16284100Y-8119900D02*
X16304100Y-8139900D01*
X16304100Y-8119900D02*
X16284100Y-8139900D01*
X16332779Y-8225891D02*
X16352779Y-8245891D01*
X16352779Y-8225891D02*
X16332779Y-8245891D01*
X16373000Y-7610000D02*
X16393000Y-7630000D01*
X16393000Y-7610000D02*
X16373000Y-7630000D01*
X16474600Y-7178200D02*
X16494600Y-7198200D01*
X16494600Y-7178200D02*
X16474600Y-7198200D01*
X16474600Y-7495700D02*
X16494600Y-7515700D01*
X16494600Y-7495700D02*
X16474600Y-7515700D01*
X16585000Y-8245000D02*
X16605000Y-8265000D01*
X16605000Y-8245000D02*
X16585000Y-8265000D01*
X16588900Y-9083200D02*
X16608900Y-9103200D01*
X16608900Y-9083200D02*
X16588900Y-9103200D01*
X16588900Y-9172100D02*
X16608900Y-9192100D01*
X16608900Y-9172100D02*
X16588900Y-9192100D01*
X16639700Y-8124900D02*
X16659700Y-8144900D01*
X16659700Y-8124900D02*
X16639700Y-8144900D01*
X16652400Y-7959900D02*
X16672400Y-7979900D01*
X16672400Y-7959900D02*
X16652400Y-7979900D01*
X16652400Y-8036800D02*
X16672400Y-8056800D01*
X16672400Y-8036800D02*
X16652400Y-8056800D01*
X16665100Y-7711600D02*
X16685100Y-7731600D01*
X16685100Y-7711600D02*
X16665100Y-7731600D01*
X16677800Y-9083200D02*
X16697800Y-9103200D01*
X16697800Y-9083200D02*
X16677800Y-9103200D01*
X16677800Y-9172100D02*
X16697800Y-9192100D01*
X16697800Y-9172100D02*
X16677800Y-9192100D01*
X16721250Y-8237650D02*
X16741250Y-8257650D01*
X16741250Y-8237650D02*
X16721250Y-8257650D01*
X16734548Y-8061652D02*
X16754548Y-8081652D01*
X16754548Y-8061652D02*
X16734548Y-8081652D01*
X16754000Y-7165500D02*
X16774000Y-7185500D01*
X16774000Y-7165500D02*
X16754000Y-7185500D01*
X16754000Y-7533800D02*
X16774000Y-7553800D01*
X16774000Y-7533800D02*
X16754000Y-7553800D01*
X16766700Y-9083200D02*
X16786700Y-9103200D01*
X16786700Y-9083200D02*
X16766700Y-9103200D01*
X16766700Y-9172100D02*
X16786700Y-9192100D01*
X16786700Y-9172100D02*
X16766700Y-9192100D01*
X16883000Y-8344600D02*
X16903000Y-8364600D01*
X16903000Y-8344600D02*
X16883000Y-8364600D01*
X16931800Y-9565800D02*
X16951800Y-9585800D01*
X16951800Y-9565800D02*
X16931800Y-9585800D01*
X16931800Y-9654700D02*
X16951800Y-9674700D01*
X16951800Y-9654700D02*
X16931800Y-9674700D01*
X16931800Y-9743600D02*
X16951800Y-9763600D01*
X16951800Y-9743600D02*
X16931800Y-9763600D01*
X16982600Y-8359300D02*
X17002600Y-8379300D01*
X17002600Y-8359300D02*
X16982600Y-8379300D01*
X17020700Y-8422800D02*
X17040700Y-8442800D01*
X17040700Y-8422800D02*
X17020700Y-8442800D01*
X17033400Y-9565800D02*
X17053400Y-9585800D01*
X17053400Y-9565800D02*
X17033400Y-9585800D01*
X17033400Y-9654700D02*
X17053400Y-9674700D01*
X17053400Y-9654700D02*
X17033400Y-9674700D01*
X17033400Y-9743600D02*
X17053400Y-9763600D01*
X17053400Y-9743600D02*
X17033400Y-9763600D01*
X17083000Y-8370800D02*
X17103000Y-8390800D01*
X17103000Y-8370800D02*
X17083000Y-8390800D01*
X17122300Y-8651400D02*
X17142300Y-8671400D01*
X17142300Y-8651400D02*
X17122300Y-8671400D01*
X17122300Y-8740300D02*
X17142300Y-8760300D01*
X17142300Y-8740300D02*
X17122300Y-8760300D01*
X17133000Y-8422800D02*
X17153000Y-8442800D01*
X17153000Y-8422800D02*
X17133000Y-8442800D01*
X17160400Y-7165500D02*
X17180400Y-7185500D01*
X17180400Y-7165500D02*
X17160400Y-7185500D01*
X17160400Y-7533800D02*
X17180400Y-7553800D01*
X17180400Y-7533800D02*
X17160400Y-7553800D01*
X17160400Y-7813200D02*
X17180400Y-7833200D01*
X17180400Y-7813200D02*
X17160400Y-7833200D01*
X17211200Y-8651400D02*
X17231200Y-8671400D01*
X17231200Y-8651400D02*
X17211200Y-8671400D01*
X17211200Y-8740300D02*
X17231200Y-8760300D01*
X17231200Y-8740300D02*
X17211200Y-8760300D01*
X17325500Y-8232300D02*
X17345500Y-8252300D01*
X17345500Y-8232300D02*
X17325500Y-8252300D01*
X17382650Y-7908450D02*
X17402650Y-7928450D01*
X17402650Y-7908450D02*
X17382650Y-7928450D01*
X17401700Y-7787800D02*
X17421700Y-7807800D01*
X17421700Y-7787800D02*
X17401700Y-7807800D01*
X17506596Y-8148993D02*
X17526596Y-8168993D01*
X17526596Y-8148993D02*
X17506596Y-8168993D01*
X17506596Y-8223993D02*
X17526596Y-8243993D01*
X17526596Y-8223993D02*
X17506596Y-8243993D01*
X17528700Y-10226200D02*
X17548700Y-10246200D01*
X17548700Y-10226200D02*
X17528700Y-10246200D01*
X17528700Y-10315100D02*
X17548700Y-10335100D01*
X17548700Y-10315100D02*
X17528700Y-10335100D01*
X17528700Y-10404000D02*
X17548700Y-10424000D01*
X17548700Y-10404000D02*
X17528700Y-10424000D01*
X17833500Y-10632600D02*
X17853500Y-10652600D01*
X17853500Y-10632600D02*
X17833500Y-10652600D01*
X18132200Y-10283600D02*
X18152200Y-10303600D01*
X18152200Y-10283600D02*
X18132200Y-10303600D01*
X18392300Y-10048400D02*
X18412300Y-10068400D01*
X18412300Y-10048400D02*
X18392300Y-10068400D01*
X18481200Y-10048400D02*
X18501200Y-10068400D01*
X18501200Y-10048400D02*
X18481200Y-10068400D01*
X18570100Y-10048400D02*
X18590100Y-10068400D01*
X18590100Y-10048400D02*
X18570100Y-10068400D01*
X18938400Y-10264300D02*
X18958400Y-10284300D01*
X18958400Y-10264300D02*
X18938400Y-10284300D01*
X19027300Y-10264300D02*
X19047300Y-10284300D01*
X19047300Y-10264300D02*
X19027300Y-10284300D01*
X19116200Y-10264300D02*
X19136200Y-10284300D01*
X19136200Y-10264300D02*
X19116200Y-10284300D01*
X16928000Y-8002600D02*
G75*
G02*
X16908000Y-8002600I-10000J0D01*
G01*
X16908000Y-8002600D02*
G75*
G02*
X16928000Y-8002600I10000J0D01*
G01*
X16928000Y-8102600D02*
G75*
G02*
X16908000Y-8102600I-10000J0D01*
G01*
X16908000Y-8102600D02*
G75*
G02*
X16928000Y-8102600I10000J0D01*
G01*
X16928000Y-8202600D02*
G75*
G02*
X16908000Y-8202600I-10000J0D01*
G01*
X16908000Y-8202600D02*
G75*
G02*
X16928000Y-8202600I10000J0D01*
G01*
X17028000Y-8002600D02*
G75*
G02*
X17008000Y-8002600I-10000J0D01*
G01*
X17008000Y-8002600D02*
G75*
G02*
X17028000Y-8002600I10000J0D01*
G01*
X17028000Y-8102600D02*
G75*
G02*
X17008000Y-8102600I-10000J0D01*
G01*
X17008000Y-8102600D02*
G75*
G02*
X17028000Y-8102600I10000J0D01*
G01*
X17028000Y-8202600D02*
G75*
G02*
X17008000Y-8202600I-10000J0D01*
G01*
X17008000Y-8202600D02*
G75*
G02*
X17028000Y-8202600I10000J0D01*
G01*
X17128000Y-8002600D02*
G75*
G02*
X17108000Y-8002600I-10000J0D01*
G01*
X17108000Y-8002600D02*
G75*
G02*
X17128000Y-8002600I10000J0D01*
G01*
X17128000Y-8102600D02*
G75*
G02*
X17108000Y-8102600I-10000J0D01*
G01*
X17108000Y-8102600D02*
G75*
G02*
X17128000Y-8102600I10000J0D01*
G01*
X17128000Y-8202600D02*
G75*
G02*
X17108000Y-8202600I-10000J0D01*
G01*
X17108000Y-8202600D02*
G75*
G02*
X17128000Y-8202600I10000J0D01*
G01*
X14515100Y-10113800D02*
X14515100Y-10178800D01*
X14482600Y-10146300D02*
X14547600Y-10146300D01*
X14515100Y-10240800D02*
X14515100Y-10305800D01*
X14482600Y-10273300D02*
X14547600Y-10273300D01*
X14642100Y-10113800D02*
X14642100Y-10178800D01*
X14609600Y-10146300D02*
X14674600Y-10146300D01*
X14642100Y-10240800D02*
X14642100Y-10305800D01*
X14609600Y-10273300D02*
X14674600Y-10273300D01*
X14769100Y-10113800D02*
X14769100Y-10178800D01*
X14736600Y-10146300D02*
X14801600Y-10146300D01*
X14769100Y-10240800D02*
X14769100Y-10305800D01*
X14736600Y-10273300D02*
X14801600Y-10273300D01*
X14896100Y-10113800D02*
X14896100Y-10178800D01*
X14863600Y-10146300D02*
X14928600Y-10146300D01*
X14896100Y-10240800D02*
X14896100Y-10305800D01*
X14863600Y-10273300D02*
X14928600Y-10273300D01*
X15023100Y-10113800D02*
X15023100Y-10178800D01*
X14990600Y-10146300D02*
X15055600Y-10146300D01*
X15023100Y-10240800D02*
X15023100Y-10305800D01*
X14990600Y-10273300D02*
X15055600Y-10273300D01*
X11699584Y-7749884D02*
X11699584Y-7693315D01*
X11643015Y-7693315D01*
X11643015Y-7749884D01*
X11699584Y-7749884D01*
X11699584Y-9019885D02*
X11699584Y-8963316D01*
X11643015Y-8963316D01*
X11643015Y-9019885D01*
X11699584Y-9019885D01*
X11699584Y-9273885D02*
X11699584Y-9217316D01*
X11643015Y-9217316D01*
X11643015Y-9273885D01*
X11699584Y-9273885D01*
X11699584Y-9527885D02*
X11699584Y-9471316D01*
X11643015Y-9471316D01*
X11643015Y-9527885D01*
X11699584Y-9527885D01*
X11699584Y-9781885D02*
X11699584Y-9725316D01*
X11643015Y-9725316D01*
X11643015Y-9781885D01*
X11699584Y-9781885D01*
X11699584Y-10035885D02*
X11699584Y-9979316D01*
X11643015Y-9979316D01*
X11643015Y-10035885D01*
X11699584Y-10035885D01*
X11890084Y-10764885D02*
X11890084Y-10708316D01*
X11833515Y-10708316D01*
X11833515Y-10764885D01*
X11890084Y-10764885D01*
X12398084Y-10764885D02*
X12398084Y-10708316D01*
X12341515Y-10708316D01*
X12341515Y-10764885D01*
X12398084Y-10764885D01*
X13160084Y-10764885D02*
X13160084Y-10708316D01*
X13103515Y-10708316D01*
X13103515Y-10764885D01*
X13160084Y-10764885D01*
X13414084Y-10764885D02*
X13414084Y-10708316D01*
X13357515Y-10708316D01*
X13357515Y-10764885D01*
X13414084Y-10764885D01*
X18045200Y-7715800D02*
X18090200Y-7670800D01*
X18045200Y-7625800D01*
X18000200Y-7670800D01*
X18045200Y-7715800D01*
X18045200Y-7969800D02*
X18090200Y-7924800D01*
X18045200Y-7879800D01*
X18000200Y-7924800D01*
X18045200Y-7969800D01*
X18045200Y-8223800D02*
X18090200Y-8178800D01*
X18045200Y-8133800D01*
X18000200Y-8178800D01*
X18045200Y-8223800D01*
X18045200Y-8477800D02*
X18090200Y-8432800D01*
X18045200Y-8387800D01*
X18000200Y-8432800D01*
X18045200Y-8477800D01*
X18299200Y-7842800D02*
X18344200Y-7797800D01*
X18299200Y-7752800D01*
X18254200Y-7797800D01*
X18299200Y-7842800D01*
X18299200Y-8096800D02*
X18344200Y-8051800D01*
X18299200Y-8006800D01*
X18254200Y-8051800D01*
X18299200Y-8096800D01*
X18299200Y-8350800D02*
X18344200Y-8305800D01*
X18299200Y-8260800D01*
X18254200Y-8305800D01*
X18299200Y-8350800D01*
X18299200Y-8604800D02*
X18344200Y-8559800D01*
X18299200Y-8514800D01*
X18254200Y-8559800D01*
X18299200Y-8604800D01*
X17998650Y-9344850D02*
X18098650Y-9444850D01*
X18098650Y-9344850D02*
X17998650Y-9444850D01*
X18098650Y-9394850D02*
G75*
G02*
X17998650Y-9394850I-50000J0D01*
G01*
X17998650Y-9394850D02*
G75*
G02*
X18098650Y-9394850I50000J0D01*
G01*
X18252650Y-9344850D02*
X18352650Y-9444850D01*
X18352650Y-9344850D02*
X18252650Y-9444850D01*
X18352650Y-9394850D02*
G75*
G02*
X18252650Y-9394850I-50000J0D01*
G01*
X18252650Y-9394850D02*
G75*
G02*
X18352650Y-9394850I50000J0D01*
G01*
X18506650Y-9344850D02*
X18606650Y-9444850D01*
X18606650Y-9344850D02*
X18506650Y-9444850D01*
X18606650Y-9394850D02*
G75*
G02*
X18506650Y-9394850I-50000J0D01*
G01*
X18506650Y-9394850D02*
G75*
G02*
X18606650Y-9394850I50000J0D01*
G01*
D13*
X17511200Y-7517800D02*
X17613200Y-7619800D01*
X17613200Y-7517800D02*
X17511200Y-7619800D01*
X17562200Y-7517800D02*
X17562200Y-7619800D01*
X17511200Y-7568800D02*
X17613200Y-7568800D01*
X17511200Y-7771800D02*
X17613200Y-7873800D01*
X17613200Y-7771800D02*
X17511200Y-7873800D01*
X17562200Y-7771800D02*
X17562200Y-7873800D01*
X17511200Y-7822800D02*
X17613200Y-7822800D01*
X17511200Y-8356800D02*
X17613200Y-8458800D01*
X17613200Y-8356800D02*
X17511200Y-8458800D01*
X17562200Y-8356800D02*
X17562200Y-8458800D01*
X17511200Y-8407800D02*
X17613200Y-8407800D01*
X17511200Y-8610800D02*
X17613200Y-8712800D01*
X17613200Y-8610800D02*
X17511200Y-8712800D01*
X17562200Y-8610800D02*
X17562200Y-8712800D01*
X17511200Y-8661800D02*
X17613200Y-8661800D01*
D14*
X19460000Y-9324300D02*
X19590000Y-9454300D01*
X19590000Y-9324300D02*
X19460000Y-9454300D01*
X19570962Y-9435262D02*
X19570962Y-9343338D01*
X19479038Y-9343338D01*
X19479038Y-9435262D01*
X19570962Y-9435262D01*
X19460000Y-9824300D02*
X19590000Y-9954300D01*
X19590000Y-9824300D02*
X19460000Y-9954300D01*
X19570962Y-9935262D02*
X19570962Y-9843338D01*
X19479038Y-9843338D01*
X19479038Y-9935262D01*
X19570962Y-9935262D01*
D15*
X10847000Y-8204000D02*
X10987000Y-8344000D01*
X10987000Y-8204000D02*
X10847000Y-8344000D01*
X10917000Y-8344000D02*
X10987000Y-8274000D01*
X10917000Y-8204000D01*
X10847000Y-8274000D01*
X10917000Y-8344000D01*
X10847000Y-9156000D02*
X10987000Y-9296000D01*
X10987000Y-9156000D02*
X10847000Y-9296000D01*
X10917000Y-9296000D02*
X10987000Y-9226000D01*
X10917000Y-9156000D01*
X10847000Y-9226000D01*
X10917000Y-9296000D01*
D16*
X18629200Y-7245300D02*
X18629200Y-7405300D01*
X18549200Y-7325300D02*
X18709200Y-7325300D01*
X18709200Y-7325300D02*
G75*
G02*
X18549200Y-7325300I-80000J0D01*
G01*
X18549200Y-7325300D02*
G75*
G02*
X18709200Y-7325300I80000J0D01*
G01*
X18629200Y-8825300D02*
X18629200Y-8985300D01*
X18549200Y-8905300D02*
X18709200Y-8905300D01*
X18709200Y-8905300D02*
G75*
G02*
X18549200Y-8905300I-80000J0D01*
G01*
X18549200Y-8905300D02*
G75*
G02*
X18709200Y-8905300I80000J0D01*
G01*
D17*
X14834731Y-7635631D02*
X14834731Y-7410769D01*
X14609869Y-7410769D01*
X14609869Y-7635631D01*
X14834731Y-7635631D01*
X14881300Y-7523200D02*
G75*
G02*
X14563300Y-7523200I-159000J0D01*
G01*
X14563300Y-7523200D02*
G75*
G02*
X14881300Y-7523200I159000J0D01*
G01*
X16098731Y-10267631D02*
X16098731Y-10042769D01*
X15873869Y-10042769D01*
X15873869Y-10267631D01*
X16098731Y-10267631D01*
X16145300Y-10155200D02*
G75*
G02*
X15827300Y-10155200I-159000J0D01*
G01*
X15827300Y-10155200D02*
G75*
G02*
X16145300Y-10155200I159000J0D01*
G01*
D18*
X19700000Y-7010000D02*
X19860000Y-6850000D01*
X19700000Y-6690000D01*
X19540000Y-6850000D01*
X19700000Y-7010000D01*
X19860000Y-6850000D02*
G75*
G02*
X19540000Y-6850000I-160000J0D01*
G01*
X19540000Y-6850000D02*
G75*
G02*
X19860000Y-6850000I160000J0D01*
G01*
X19700000Y-10810000D02*
X19860000Y-10650000D01*
X19700000Y-10490000D01*
X19540000Y-10650000D01*
X19700000Y-10810000D01*
X19860000Y-10650000D02*
G75*
G02*
X19540000Y-10650000I-160000J0D01*
G01*
X19540000Y-10650000D02*
G75*
G02*
X19860000Y-10650000I160000J0D01*
G01*
D11*
X10308277Y-11313984D02*
X10308277Y-11113984D01*
X10308277Y-11113984D02*
X10355896Y-11113984D01*
X10355896Y-11113984D02*
X10384467Y-11123508D01*
X10384467Y-11123508D02*
X10403515Y-11142555D01*
X10403515Y-11142555D02*
X10413039Y-11161603D01*
X10413039Y-11161603D02*
X10422563Y-11199698D01*
X10422563Y-11199698D02*
X10422563Y-11228269D01*
X10422563Y-11228269D02*
X10413039Y-11266365D01*
X10413039Y-11266365D02*
X10403515Y-11285412D01*
X10403515Y-11285412D02*
X10384467Y-11304460D01*
X10384467Y-11304460D02*
X10355896Y-11313984D01*
X10355896Y-11313984D02*
X10308277Y-11313984D01*
X10508277Y-11313984D02*
X10508277Y-11180650D01*
X10508277Y-11218746D02*
X10517801Y-11199698D01*
X10517801Y-11199698D02*
X10527324Y-11190174D01*
X10527324Y-11190174D02*
X10546372Y-11180650D01*
X10546372Y-11180650D02*
X10565420Y-11180650D01*
X10632086Y-11313984D02*
X10632086Y-11180650D01*
X10632086Y-11113984D02*
X10622563Y-11123508D01*
X10622563Y-11123508D02*
X10632086Y-11133031D01*
X10632086Y-11133031D02*
X10641610Y-11123508D01*
X10641610Y-11123508D02*
X10632086Y-11113984D01*
X10632086Y-11113984D02*
X10632086Y-11133031D01*
X10755896Y-11313984D02*
X10736848Y-11304460D01*
X10736848Y-11304460D02*
X10727324Y-11285412D01*
X10727324Y-11285412D02*
X10727324Y-11113984D01*
X10860658Y-11313984D02*
X10841610Y-11304460D01*
X10841610Y-11304460D02*
X10832086Y-11285412D01*
X10832086Y-11285412D02*
X10832086Y-11113984D01*
X11089229Y-11313984D02*
X11089229Y-11113984D01*
X11089229Y-11113984D02*
X11155896Y-11256841D01*
X11155896Y-11256841D02*
X11222562Y-11113984D01*
X11222562Y-11113984D02*
X11222562Y-11313984D01*
X11403515Y-11313984D02*
X11403515Y-11209222D01*
X11403515Y-11209222D02*
X11393991Y-11190174D01*
X11393991Y-11190174D02*
X11374943Y-11180650D01*
X11374943Y-11180650D02*
X11336848Y-11180650D01*
X11336848Y-11180650D02*
X11317801Y-11190174D01*
X11403515Y-11304460D02*
X11384467Y-11313984D01*
X11384467Y-11313984D02*
X11336848Y-11313984D01*
X11336848Y-11313984D02*
X11317801Y-11304460D01*
X11317801Y-11304460D02*
X11308277Y-11285412D01*
X11308277Y-11285412D02*
X11308277Y-11266365D01*
X11308277Y-11266365D02*
X11317801Y-11247317D01*
X11317801Y-11247317D02*
X11336848Y-11237793D01*
X11336848Y-11237793D02*
X11384467Y-11237793D01*
X11384467Y-11237793D02*
X11403515Y-11228269D01*
X11498753Y-11180650D02*
X11498753Y-11380650D01*
X11498753Y-11190174D02*
X11517801Y-11180650D01*
X11517801Y-11180650D02*
X11555896Y-11180650D01*
X11555896Y-11180650D02*
X11574943Y-11190174D01*
X11574943Y-11190174D02*
X11584467Y-11199698D01*
X11584467Y-11199698D02*
X11593991Y-11218746D01*
X11593991Y-11218746D02*
X11593991Y-11275888D01*
X11593991Y-11275888D02*
X11584467Y-11294936D01*
X11584467Y-11294936D02*
X11574943Y-11304460D01*
X11574943Y-11304460D02*
X11555896Y-11313984D01*
X11555896Y-11313984D02*
X11517801Y-11313984D01*
X11517801Y-11313984D02*
X11498753Y-11304460D01*
X11679705Y-11294936D02*
X11689229Y-11304460D01*
X11689229Y-11304460D02*
X11679705Y-11313984D01*
X11679705Y-11313984D02*
X11670182Y-11304460D01*
X11670182Y-11304460D02*
X11679705Y-11294936D01*
X11679705Y-11294936D02*
X11679705Y-11313984D01*
X11679705Y-11190174D02*
X11689229Y-11199698D01*
X11689229Y-11199698D02*
X11679705Y-11209222D01*
X11679705Y-11209222D02*
X11670182Y-11199698D01*
X11670182Y-11199698D02*
X11679705Y-11190174D01*
X11679705Y-11190174D02*
X11679705Y-11209222D01*
D12*
X10027500Y-11632500D02*
X10047500Y-11652500D01*
X10047500Y-11632500D02*
X10027500Y-11652500D01*
D11*
X10346372Y-11533984D02*
X10365420Y-11533984D01*
X10365420Y-11533984D02*
X10384467Y-11543508D01*
X10384467Y-11543508D02*
X10393991Y-11553031D01*
X10393991Y-11553031D02*
X10403515Y-11572079D01*
X10403515Y-11572079D02*
X10413039Y-11610174D01*
X10413039Y-11610174D02*
X10413039Y-11657793D01*
X10413039Y-11657793D02*
X10403515Y-11695888D01*
X10403515Y-11695888D02*
X10393991Y-11714936D01*
X10393991Y-11714936D02*
X10384467Y-11724460D01*
X10384467Y-11724460D02*
X10365420Y-11733984D01*
X10365420Y-11733984D02*
X10346372Y-11733984D01*
X10346372Y-11733984D02*
X10327324Y-11724460D01*
X10327324Y-11724460D02*
X10317801Y-11714936D01*
X10317801Y-11714936D02*
X10308277Y-11695888D01*
X10308277Y-11695888D02*
X10298753Y-11657793D01*
X10298753Y-11657793D02*
X10298753Y-11610174D01*
X10298753Y-11610174D02*
X10308277Y-11572079D01*
X10308277Y-11572079D02*
X10317801Y-11553031D01*
X10317801Y-11553031D02*
X10327324Y-11543508D01*
X10327324Y-11543508D02*
X10346372Y-11533984D01*
X10498753Y-11714936D02*
X10508277Y-11724460D01*
X10508277Y-11724460D02*
X10498753Y-11733984D01*
X10498753Y-11733984D02*
X10489229Y-11724460D01*
X10489229Y-11724460D02*
X10498753Y-11714936D01*
X10498753Y-11714936D02*
X10498753Y-11733984D01*
X10584467Y-11553031D02*
X10593991Y-11543508D01*
X10593991Y-11543508D02*
X10613039Y-11533984D01*
X10613039Y-11533984D02*
X10660658Y-11533984D01*
X10660658Y-11533984D02*
X10679705Y-11543508D01*
X10679705Y-11543508D02*
X10689229Y-11553031D01*
X10689229Y-11553031D02*
X10698753Y-11572079D01*
X10698753Y-11572079D02*
X10698753Y-11591127D01*
X10698753Y-11591127D02*
X10689229Y-11619698D01*
X10689229Y-11619698D02*
X10574944Y-11733984D01*
X10574944Y-11733984D02*
X10698753Y-11733984D01*
X10822563Y-11533984D02*
X10841610Y-11533984D01*
X10841610Y-11533984D02*
X10860658Y-11543508D01*
X10860658Y-11543508D02*
X10870182Y-11553031D01*
X10870182Y-11553031D02*
X10879705Y-11572079D01*
X10879705Y-11572079D02*
X10889229Y-11610174D01*
X10889229Y-11610174D02*
X10889229Y-11657793D01*
X10889229Y-11657793D02*
X10879705Y-11695888D01*
X10879705Y-11695888D02*
X10870182Y-11714936D01*
X10870182Y-11714936D02*
X10860658Y-11724460D01*
X10860658Y-11724460D02*
X10841610Y-11733984D01*
X10841610Y-11733984D02*
X10822563Y-11733984D01*
X10822563Y-11733984D02*
X10803515Y-11724460D01*
X10803515Y-11724460D02*
X10793991Y-11714936D01*
X10793991Y-11714936D02*
X10784467Y-11695888D01*
X10784467Y-11695888D02*
X10774944Y-11657793D01*
X10774944Y-11657793D02*
X10774944Y-11610174D01*
X10774944Y-11610174D02*
X10784467Y-11572079D01*
X10784467Y-11572079D02*
X10793991Y-11553031D01*
X10793991Y-11553031D02*
X10803515Y-11543508D01*
X10803515Y-11543508D02*
X10822563Y-11533984D01*
X11013039Y-11533984D02*
X11032086Y-11533984D01*
X11032086Y-11533984D02*
X11051134Y-11543508D01*
X11051134Y-11543508D02*
X11060658Y-11553031D01*
X11060658Y-11553031D02*
X11070182Y-11572079D01*
X11070182Y-11572079D02*
X11079705Y-11610174D01*
X11079705Y-11610174D02*
X11079705Y-11657793D01*
X11079705Y-11657793D02*
X11070182Y-11695888D01*
X11070182Y-11695888D02*
X11060658Y-11714936D01*
X11060658Y-11714936D02*
X11051134Y-11724460D01*
X11051134Y-11724460D02*
X11032086Y-11733984D01*
X11032086Y-11733984D02*
X11013039Y-11733984D01*
X11013039Y-11733984D02*
X10993991Y-11724460D01*
X10993991Y-11724460D02*
X10984467Y-11714936D01*
X10984467Y-11714936D02*
X10974944Y-11695888D01*
X10974944Y-11695888D02*
X10965420Y-11657793D01*
X10965420Y-11657793D02*
X10965420Y-11610174D01*
X10965420Y-11610174D02*
X10974944Y-11572079D01*
X10974944Y-11572079D02*
X10984467Y-11553031D01*
X10984467Y-11553031D02*
X10993991Y-11543508D01*
X10993991Y-11543508D02*
X11013039Y-11533984D01*
X11165420Y-11733984D02*
X11165420Y-11600650D01*
X11165420Y-11619698D02*
X11174944Y-11610174D01*
X11174944Y-11610174D02*
X11193991Y-11600650D01*
X11193991Y-11600650D02*
X11222563Y-11600650D01*
X11222563Y-11600650D02*
X11241610Y-11610174D01*
X11241610Y-11610174D02*
X11251134Y-11629222D01*
X11251134Y-11629222D02*
X11251134Y-11733984D01*
X11251134Y-11629222D02*
X11260658Y-11610174D01*
X11260658Y-11610174D02*
X11279705Y-11600650D01*
X11279705Y-11600650D02*
X11308277Y-11600650D01*
X11308277Y-11600650D02*
X11327324Y-11610174D01*
X11327324Y-11610174D02*
X11336848Y-11629222D01*
X11336848Y-11629222D02*
X11336848Y-11733984D01*
X11432086Y-11733984D02*
X11432086Y-11600650D01*
X11432086Y-11619698D02*
X11441610Y-11610174D01*
X11441610Y-11610174D02*
X11460658Y-11600650D01*
X11460658Y-11600650D02*
X11489229Y-11600650D01*
X11489229Y-11600650D02*
X11508277Y-11610174D01*
X11508277Y-11610174D02*
X11517801Y-11629222D01*
X11517801Y-11629222D02*
X11517801Y-11733984D01*
X11517801Y-11629222D02*
X11527324Y-11610174D01*
X11527324Y-11610174D02*
X11546372Y-11600650D01*
X11546372Y-11600650D02*
X11574943Y-11600650D01*
X11574943Y-11600650D02*
X11593991Y-11610174D01*
X11593991Y-11610174D02*
X11603515Y-11629222D01*
X11603515Y-11629222D02*
X11603515Y-11733984D01*
X11993991Y-11524460D02*
X11822563Y-11781603D01*
X12251134Y-11533984D02*
X12270182Y-11533984D01*
X12270182Y-11533984D02*
X12289229Y-11543508D01*
X12289229Y-11543508D02*
X12298753Y-11553031D01*
X12298753Y-11553031D02*
X12308277Y-11572079D01*
X12308277Y-11572079D02*
X12317801Y-11610174D01*
X12317801Y-11610174D02*
X12317801Y-11657793D01*
X12317801Y-11657793D02*
X12308277Y-11695888D01*
X12308277Y-11695888D02*
X12298753Y-11714936D01*
X12298753Y-11714936D02*
X12289229Y-11724460D01*
X12289229Y-11724460D02*
X12270182Y-11733984D01*
X12270182Y-11733984D02*
X12251134Y-11733984D01*
X12251134Y-11733984D02*
X12232086Y-11724460D01*
X12232086Y-11724460D02*
X12222563Y-11714936D01*
X12222563Y-11714936D02*
X12213039Y-11695888D01*
X12213039Y-11695888D02*
X12203515Y-11657793D01*
X12203515Y-11657793D02*
X12203515Y-11610174D01*
X12203515Y-11610174D02*
X12213039Y-11572079D01*
X12213039Y-11572079D02*
X12222563Y-11553031D01*
X12222563Y-11553031D02*
X12232086Y-11543508D01*
X12232086Y-11543508D02*
X12251134Y-11533984D01*
X12403515Y-11714936D02*
X12413039Y-11724460D01*
X12413039Y-11724460D02*
X12403515Y-11733984D01*
X12403515Y-11733984D02*
X12393991Y-11724460D01*
X12393991Y-11724460D02*
X12403515Y-11714936D01*
X12403515Y-11714936D02*
X12403515Y-11733984D01*
X12536848Y-11533984D02*
X12555896Y-11533984D01*
X12555896Y-11533984D02*
X12574944Y-11543508D01*
X12574944Y-11543508D02*
X12584467Y-11553031D01*
X12584467Y-11553031D02*
X12593991Y-11572079D01*
X12593991Y-11572079D02*
X12603515Y-11610174D01*
X12603515Y-11610174D02*
X12603515Y-11657793D01*
X12603515Y-11657793D02*
X12593991Y-11695888D01*
X12593991Y-11695888D02*
X12584467Y-11714936D01*
X12584467Y-11714936D02*
X12574944Y-11724460D01*
X12574944Y-11724460D02*
X12555896Y-11733984D01*
X12555896Y-11733984D02*
X12536848Y-11733984D01*
X12536848Y-11733984D02*
X12517801Y-11724460D01*
X12517801Y-11724460D02*
X12508277Y-11714936D01*
X12508277Y-11714936D02*
X12498753Y-11695888D01*
X12498753Y-11695888D02*
X12489229Y-11657793D01*
X12489229Y-11657793D02*
X12489229Y-11610174D01*
X12489229Y-11610174D02*
X12498753Y-11572079D01*
X12498753Y-11572079D02*
X12508277Y-11553031D01*
X12508277Y-11553031D02*
X12517801Y-11543508D01*
X12517801Y-11543508D02*
X12536848Y-11533984D01*
X12727325Y-11533984D02*
X12746372Y-11533984D01*
X12746372Y-11533984D02*
X12765420Y-11543508D01*
X12765420Y-11543508D02*
X12774944Y-11553031D01*
X12774944Y-11553031D02*
X12784467Y-11572079D01*
X12784467Y-11572079D02*
X12793991Y-11610174D01*
X12793991Y-11610174D02*
X12793991Y-11657793D01*
X12793991Y-11657793D02*
X12784467Y-11695888D01*
X12784467Y-11695888D02*
X12774944Y-11714936D01*
X12774944Y-11714936D02*
X12765420Y-11724460D01*
X12765420Y-11724460D02*
X12746372Y-11733984D01*
X12746372Y-11733984D02*
X12727325Y-11733984D01*
X12727325Y-11733984D02*
X12708277Y-11724460D01*
X12708277Y-11724460D02*
X12698753Y-11714936D01*
X12698753Y-11714936D02*
X12689229Y-11695888D01*
X12689229Y-11695888D02*
X12679706Y-11657793D01*
X12679706Y-11657793D02*
X12679706Y-11610174D01*
X12679706Y-11610174D02*
X12689229Y-11572079D01*
X12689229Y-11572079D02*
X12698753Y-11553031D01*
X12698753Y-11553031D02*
X12708277Y-11543508D01*
X12708277Y-11543508D02*
X12727325Y-11533984D01*
X12860658Y-11533984D02*
X12993991Y-11533984D01*
X12993991Y-11533984D02*
X12908277Y-11733984D01*
X13079706Y-11733984D02*
X13117801Y-11733984D01*
X13117801Y-11733984D02*
X13136848Y-11724460D01*
X13136848Y-11724460D02*
X13146372Y-11714936D01*
X13146372Y-11714936D02*
X13165420Y-11686365D01*
X13165420Y-11686365D02*
X13174944Y-11648269D01*
X13174944Y-11648269D02*
X13174944Y-11572079D01*
X13174944Y-11572079D02*
X13165420Y-11553031D01*
X13165420Y-11553031D02*
X13155896Y-11543508D01*
X13155896Y-11543508D02*
X13136848Y-11533984D01*
X13136848Y-11533984D02*
X13098753Y-11533984D01*
X13098753Y-11533984D02*
X13079706Y-11543508D01*
X13079706Y-11543508D02*
X13070182Y-11553031D01*
X13070182Y-11553031D02*
X13060658Y-11572079D01*
X13060658Y-11572079D02*
X13060658Y-11619698D01*
X13060658Y-11619698D02*
X13070182Y-11638746D01*
X13070182Y-11638746D02*
X13079706Y-11648269D01*
X13079706Y-11648269D02*
X13098753Y-11657793D01*
X13098753Y-11657793D02*
X13136848Y-11657793D01*
X13136848Y-11657793D02*
X13155896Y-11648269D01*
X13155896Y-11648269D02*
X13165420Y-11638746D01*
X13165420Y-11638746D02*
X13174944Y-11619698D01*
X13251134Y-11533984D02*
X13251134Y-11572079D01*
X13327325Y-11533984D02*
X13327325Y-11572079D01*
X13622563Y-11810174D02*
X13613039Y-11800650D01*
X13613039Y-11800650D02*
X13593991Y-11772079D01*
X13593991Y-11772079D02*
X13584468Y-11753031D01*
X13584468Y-11753031D02*
X13574944Y-11724460D01*
X13574944Y-11724460D02*
X13565420Y-11676841D01*
X13565420Y-11676841D02*
X13565420Y-11638746D01*
X13565420Y-11638746D02*
X13574944Y-11591127D01*
X13574944Y-11591127D02*
X13584468Y-11562555D01*
X13584468Y-11562555D02*
X13593991Y-11543508D01*
X13593991Y-11543508D02*
X13613039Y-11514936D01*
X13613039Y-11514936D02*
X13622563Y-11505412D01*
X13803515Y-11733984D02*
X13689229Y-11733984D01*
X13746372Y-11733984D02*
X13746372Y-11533984D01*
X13746372Y-11533984D02*
X13727325Y-11562555D01*
X13727325Y-11562555D02*
X13708277Y-11581603D01*
X13708277Y-11581603D02*
X13689229Y-11591127D01*
X13984468Y-11533984D02*
X13889229Y-11533984D01*
X13889229Y-11533984D02*
X13879706Y-11629222D01*
X13879706Y-11629222D02*
X13889229Y-11619698D01*
X13889229Y-11619698D02*
X13908277Y-11610174D01*
X13908277Y-11610174D02*
X13955896Y-11610174D01*
X13955896Y-11610174D02*
X13974944Y-11619698D01*
X13974944Y-11619698D02*
X13984468Y-11629222D01*
X13984468Y-11629222D02*
X13993991Y-11648269D01*
X13993991Y-11648269D02*
X13993991Y-11695888D01*
X13993991Y-11695888D02*
X13984468Y-11714936D01*
X13984468Y-11714936D02*
X13974944Y-11724460D01*
X13974944Y-11724460D02*
X13955896Y-11733984D01*
X13955896Y-11733984D02*
X13908277Y-11733984D01*
X13908277Y-11733984D02*
X13889229Y-11724460D01*
X13889229Y-11724460D02*
X13879706Y-11714936D01*
X14184468Y-11733984D02*
X14070182Y-11733984D01*
X14127325Y-11733984D02*
X14127325Y-11533984D01*
X14127325Y-11533984D02*
X14108277Y-11562555D01*
X14108277Y-11562555D02*
X14089229Y-11581603D01*
X14089229Y-11581603D02*
X14070182Y-11591127D01*
X14422563Y-11733984D02*
X14422563Y-11533984D01*
X14508277Y-11733984D02*
X14508277Y-11629222D01*
X14508277Y-11629222D02*
X14498753Y-11610174D01*
X14498753Y-11610174D02*
X14479706Y-11600650D01*
X14479706Y-11600650D02*
X14451134Y-11600650D01*
X14451134Y-11600650D02*
X14432087Y-11610174D01*
X14432087Y-11610174D02*
X14422563Y-11619698D01*
X14632087Y-11733984D02*
X14613039Y-11724460D01*
X14613039Y-11724460D02*
X14603515Y-11714936D01*
X14603515Y-11714936D02*
X14593991Y-11695888D01*
X14593991Y-11695888D02*
X14593991Y-11638746D01*
X14593991Y-11638746D02*
X14603515Y-11619698D01*
X14603515Y-11619698D02*
X14613039Y-11610174D01*
X14613039Y-11610174D02*
X14632087Y-11600650D01*
X14632087Y-11600650D02*
X14660658Y-11600650D01*
X14660658Y-11600650D02*
X14679706Y-11610174D01*
X14679706Y-11610174D02*
X14689230Y-11619698D01*
X14689230Y-11619698D02*
X14698753Y-11638746D01*
X14698753Y-11638746D02*
X14698753Y-11695888D01*
X14698753Y-11695888D02*
X14689230Y-11714936D01*
X14689230Y-11714936D02*
X14679706Y-11724460D01*
X14679706Y-11724460D02*
X14660658Y-11733984D01*
X14660658Y-11733984D02*
X14632087Y-11733984D01*
X14813039Y-11733984D02*
X14793991Y-11724460D01*
X14793991Y-11724460D02*
X14784468Y-11705412D01*
X14784468Y-11705412D02*
X14784468Y-11533984D01*
X14965420Y-11724460D02*
X14946372Y-11733984D01*
X14946372Y-11733984D02*
X14908277Y-11733984D01*
X14908277Y-11733984D02*
X14889230Y-11724460D01*
X14889230Y-11724460D02*
X14879706Y-11705412D01*
X14879706Y-11705412D02*
X14879706Y-11629222D01*
X14879706Y-11629222D02*
X14889230Y-11610174D01*
X14889230Y-11610174D02*
X14908277Y-11600650D01*
X14908277Y-11600650D02*
X14946372Y-11600650D01*
X14946372Y-11600650D02*
X14965420Y-11610174D01*
X14965420Y-11610174D02*
X14974944Y-11629222D01*
X14974944Y-11629222D02*
X14974944Y-11648269D01*
X14974944Y-11648269D02*
X14879706Y-11667317D01*
X15051134Y-11724460D02*
X15070182Y-11733984D01*
X15070182Y-11733984D02*
X15108277Y-11733984D01*
X15108277Y-11733984D02*
X15127325Y-11724460D01*
X15127325Y-11724460D02*
X15136849Y-11705412D01*
X15136849Y-11705412D02*
X15136849Y-11695888D01*
X15136849Y-11695888D02*
X15127325Y-11676841D01*
X15127325Y-11676841D02*
X15108277Y-11667317D01*
X15108277Y-11667317D02*
X15079706Y-11667317D01*
X15079706Y-11667317D02*
X15060658Y-11657793D01*
X15060658Y-11657793D02*
X15051134Y-11638746D01*
X15051134Y-11638746D02*
X15051134Y-11629222D01*
X15051134Y-11629222D02*
X15060658Y-11610174D01*
X15060658Y-11610174D02*
X15079706Y-11600650D01*
X15079706Y-11600650D02*
X15108277Y-11600650D01*
X15108277Y-11600650D02*
X15127325Y-11610174D01*
X15203515Y-11810174D02*
X15213039Y-11800650D01*
X15213039Y-11800650D02*
X15232087Y-11772079D01*
X15232087Y-11772079D02*
X15241611Y-11753031D01*
X15241611Y-11753031D02*
X15251134Y-11724460D01*
X15251134Y-11724460D02*
X15260658Y-11676841D01*
X15260658Y-11676841D02*
X15260658Y-11638746D01*
X15260658Y-11638746D02*
X15251134Y-11591127D01*
X15251134Y-11591127D02*
X15241611Y-11562555D01*
X15241611Y-11562555D02*
X15232087Y-11543508D01*
X15232087Y-11543508D02*
X15213039Y-11514936D01*
X15213039Y-11514936D02*
X15203515Y-11505412D01*
D12*
X10047500Y-11906500D02*
G75*
G02*
X10027500Y-11906500I-10000J0D01*
G01*
X10027500Y-11906500D02*
G75*
G02*
X10047500Y-11906500I10000J0D01*
G01*
D11*
X10346372Y-11797984D02*
X10365420Y-11797984D01*
X10365420Y-11797984D02*
X10384467Y-11807508D01*
X10384467Y-11807508D02*
X10393991Y-11817031D01*
X10393991Y-11817031D02*
X10403515Y-11836079D01*
X10403515Y-11836079D02*
X10413039Y-11874174D01*
X10413039Y-11874174D02*
X10413039Y-11921793D01*
X10413039Y-11921793D02*
X10403515Y-11959888D01*
X10403515Y-11959888D02*
X10393991Y-11978936D01*
X10393991Y-11978936D02*
X10384467Y-11988460D01*
X10384467Y-11988460D02*
X10365420Y-11997984D01*
X10365420Y-11997984D02*
X10346372Y-11997984D01*
X10346372Y-11997984D02*
X10327324Y-11988460D01*
X10327324Y-11988460D02*
X10317801Y-11978936D01*
X10317801Y-11978936D02*
X10308277Y-11959888D01*
X10308277Y-11959888D02*
X10298753Y-11921793D01*
X10298753Y-11921793D02*
X10298753Y-11874174D01*
X10298753Y-11874174D02*
X10308277Y-11836079D01*
X10308277Y-11836079D02*
X10317801Y-11817031D01*
X10317801Y-11817031D02*
X10327324Y-11807508D01*
X10327324Y-11807508D02*
X10346372Y-11797984D01*
X10498753Y-11978936D02*
X10508277Y-11988460D01*
X10508277Y-11988460D02*
X10498753Y-11997984D01*
X10498753Y-11997984D02*
X10489229Y-11988460D01*
X10489229Y-11988460D02*
X10498753Y-11978936D01*
X10498753Y-11978936D02*
X10498753Y-11997984D01*
X10584467Y-11817031D02*
X10593991Y-11807508D01*
X10593991Y-11807508D02*
X10613039Y-11797984D01*
X10613039Y-11797984D02*
X10660658Y-11797984D01*
X10660658Y-11797984D02*
X10679705Y-11807508D01*
X10679705Y-11807508D02*
X10689229Y-11817031D01*
X10689229Y-11817031D02*
X10698753Y-11836079D01*
X10698753Y-11836079D02*
X10698753Y-11855127D01*
X10698753Y-11855127D02*
X10689229Y-11883698D01*
X10689229Y-11883698D02*
X10574944Y-11997984D01*
X10574944Y-11997984D02*
X10698753Y-11997984D01*
X10822563Y-11797984D02*
X10841610Y-11797984D01*
X10841610Y-11797984D02*
X10860658Y-11807508D01*
X10860658Y-11807508D02*
X10870182Y-11817031D01*
X10870182Y-11817031D02*
X10879705Y-11836079D01*
X10879705Y-11836079D02*
X10889229Y-11874174D01*
X10889229Y-11874174D02*
X10889229Y-11921793D01*
X10889229Y-11921793D02*
X10879705Y-11959888D01*
X10879705Y-11959888D02*
X10870182Y-11978936D01*
X10870182Y-11978936D02*
X10860658Y-11988460D01*
X10860658Y-11988460D02*
X10841610Y-11997984D01*
X10841610Y-11997984D02*
X10822563Y-11997984D01*
X10822563Y-11997984D02*
X10803515Y-11988460D01*
X10803515Y-11988460D02*
X10793991Y-11978936D01*
X10793991Y-11978936D02*
X10784467Y-11959888D01*
X10784467Y-11959888D02*
X10774944Y-11921793D01*
X10774944Y-11921793D02*
X10774944Y-11874174D01*
X10774944Y-11874174D02*
X10784467Y-11836079D01*
X10784467Y-11836079D02*
X10793991Y-11817031D01*
X10793991Y-11817031D02*
X10803515Y-11807508D01*
X10803515Y-11807508D02*
X10822563Y-11797984D01*
X11013039Y-11797984D02*
X11032086Y-11797984D01*
X11032086Y-11797984D02*
X11051134Y-11807508D01*
X11051134Y-11807508D02*
X11060658Y-11817031D01*
X11060658Y-11817031D02*
X11070182Y-11836079D01*
X11070182Y-11836079D02*
X11079705Y-11874174D01*
X11079705Y-11874174D02*
X11079705Y-11921793D01*
X11079705Y-11921793D02*
X11070182Y-11959888D01*
X11070182Y-11959888D02*
X11060658Y-11978936D01*
X11060658Y-11978936D02*
X11051134Y-11988460D01*
X11051134Y-11988460D02*
X11032086Y-11997984D01*
X11032086Y-11997984D02*
X11013039Y-11997984D01*
X11013039Y-11997984D02*
X10993991Y-11988460D01*
X10993991Y-11988460D02*
X10984467Y-11978936D01*
X10984467Y-11978936D02*
X10974944Y-11959888D01*
X10974944Y-11959888D02*
X10965420Y-11921793D01*
X10965420Y-11921793D02*
X10965420Y-11874174D01*
X10965420Y-11874174D02*
X10974944Y-11836079D01*
X10974944Y-11836079D02*
X10984467Y-11817031D01*
X10984467Y-11817031D02*
X10993991Y-11807508D01*
X10993991Y-11807508D02*
X11013039Y-11797984D01*
X11165420Y-11997984D02*
X11165420Y-11864650D01*
X11165420Y-11883698D02*
X11174944Y-11874174D01*
X11174944Y-11874174D02*
X11193991Y-11864650D01*
X11193991Y-11864650D02*
X11222563Y-11864650D01*
X11222563Y-11864650D02*
X11241610Y-11874174D01*
X11241610Y-11874174D02*
X11251134Y-11893222D01*
X11251134Y-11893222D02*
X11251134Y-11997984D01*
X11251134Y-11893222D02*
X11260658Y-11874174D01*
X11260658Y-11874174D02*
X11279705Y-11864650D01*
X11279705Y-11864650D02*
X11308277Y-11864650D01*
X11308277Y-11864650D02*
X11327324Y-11874174D01*
X11327324Y-11874174D02*
X11336848Y-11893222D01*
X11336848Y-11893222D02*
X11336848Y-11997984D01*
X11432086Y-11997984D02*
X11432086Y-11864650D01*
X11432086Y-11883698D02*
X11441610Y-11874174D01*
X11441610Y-11874174D02*
X11460658Y-11864650D01*
X11460658Y-11864650D02*
X11489229Y-11864650D01*
X11489229Y-11864650D02*
X11508277Y-11874174D01*
X11508277Y-11874174D02*
X11517801Y-11893222D01*
X11517801Y-11893222D02*
X11517801Y-11997984D01*
X11517801Y-11893222D02*
X11527324Y-11874174D01*
X11527324Y-11874174D02*
X11546372Y-11864650D01*
X11546372Y-11864650D02*
X11574943Y-11864650D01*
X11574943Y-11864650D02*
X11593991Y-11874174D01*
X11593991Y-11874174D02*
X11603515Y-11893222D01*
X11603515Y-11893222D02*
X11603515Y-11997984D01*
X11993991Y-11788460D02*
X11822563Y-12045603D01*
X12251134Y-11797984D02*
X12270182Y-11797984D01*
X12270182Y-11797984D02*
X12289229Y-11807508D01*
X12289229Y-11807508D02*
X12298753Y-11817031D01*
X12298753Y-11817031D02*
X12308277Y-11836079D01*
X12308277Y-11836079D02*
X12317801Y-11874174D01*
X12317801Y-11874174D02*
X12317801Y-11921793D01*
X12317801Y-11921793D02*
X12308277Y-11959888D01*
X12308277Y-11959888D02*
X12298753Y-11978936D01*
X12298753Y-11978936D02*
X12289229Y-11988460D01*
X12289229Y-11988460D02*
X12270182Y-11997984D01*
X12270182Y-11997984D02*
X12251134Y-11997984D01*
X12251134Y-11997984D02*
X12232086Y-11988460D01*
X12232086Y-11988460D02*
X12222563Y-11978936D01*
X12222563Y-11978936D02*
X12213039Y-11959888D01*
X12213039Y-11959888D02*
X12203515Y-11921793D01*
X12203515Y-11921793D02*
X12203515Y-11874174D01*
X12203515Y-11874174D02*
X12213039Y-11836079D01*
X12213039Y-11836079D02*
X12222563Y-11817031D01*
X12222563Y-11817031D02*
X12232086Y-11807508D01*
X12232086Y-11807508D02*
X12251134Y-11797984D01*
X12403515Y-11978936D02*
X12413039Y-11988460D01*
X12413039Y-11988460D02*
X12403515Y-11997984D01*
X12403515Y-11997984D02*
X12393991Y-11988460D01*
X12393991Y-11988460D02*
X12403515Y-11978936D01*
X12403515Y-11978936D02*
X12403515Y-11997984D01*
X12536848Y-11797984D02*
X12555896Y-11797984D01*
X12555896Y-11797984D02*
X12574944Y-11807508D01*
X12574944Y-11807508D02*
X12584467Y-11817031D01*
X12584467Y-11817031D02*
X12593991Y-11836079D01*
X12593991Y-11836079D02*
X12603515Y-11874174D01*
X12603515Y-11874174D02*
X12603515Y-11921793D01*
X12603515Y-11921793D02*
X12593991Y-11959888D01*
X12593991Y-11959888D02*
X12584467Y-11978936D01*
X12584467Y-11978936D02*
X12574944Y-11988460D01*
X12574944Y-11988460D02*
X12555896Y-11997984D01*
X12555896Y-11997984D02*
X12536848Y-11997984D01*
X12536848Y-11997984D02*
X12517801Y-11988460D01*
X12517801Y-11988460D02*
X12508277Y-11978936D01*
X12508277Y-11978936D02*
X12498753Y-11959888D01*
X12498753Y-11959888D02*
X12489229Y-11921793D01*
X12489229Y-11921793D02*
X12489229Y-11874174D01*
X12489229Y-11874174D02*
X12498753Y-11836079D01*
X12498753Y-11836079D02*
X12508277Y-11817031D01*
X12508277Y-11817031D02*
X12517801Y-11807508D01*
X12517801Y-11807508D02*
X12536848Y-11797984D01*
X12727325Y-11797984D02*
X12746372Y-11797984D01*
X12746372Y-11797984D02*
X12765420Y-11807508D01*
X12765420Y-11807508D02*
X12774944Y-11817031D01*
X12774944Y-11817031D02*
X12784467Y-11836079D01*
X12784467Y-11836079D02*
X12793991Y-11874174D01*
X12793991Y-11874174D02*
X12793991Y-11921793D01*
X12793991Y-11921793D02*
X12784467Y-11959888D01*
X12784467Y-11959888D02*
X12774944Y-11978936D01*
X12774944Y-11978936D02*
X12765420Y-11988460D01*
X12765420Y-11988460D02*
X12746372Y-11997984D01*
X12746372Y-11997984D02*
X12727325Y-11997984D01*
X12727325Y-11997984D02*
X12708277Y-11988460D01*
X12708277Y-11988460D02*
X12698753Y-11978936D01*
X12698753Y-11978936D02*
X12689229Y-11959888D01*
X12689229Y-11959888D02*
X12679706Y-11921793D01*
X12679706Y-11921793D02*
X12679706Y-11874174D01*
X12679706Y-11874174D02*
X12689229Y-11836079D01*
X12689229Y-11836079D02*
X12698753Y-11817031D01*
X12698753Y-11817031D02*
X12708277Y-11807508D01*
X12708277Y-11807508D02*
X12727325Y-11797984D01*
X12860658Y-11797984D02*
X12993991Y-11797984D01*
X12993991Y-11797984D02*
X12908277Y-11997984D01*
X13079706Y-11997984D02*
X13117801Y-11997984D01*
X13117801Y-11997984D02*
X13136848Y-11988460D01*
X13136848Y-11988460D02*
X13146372Y-11978936D01*
X13146372Y-11978936D02*
X13165420Y-11950365D01*
X13165420Y-11950365D02*
X13174944Y-11912269D01*
X13174944Y-11912269D02*
X13174944Y-11836079D01*
X13174944Y-11836079D02*
X13165420Y-11817031D01*
X13165420Y-11817031D02*
X13155896Y-11807508D01*
X13155896Y-11807508D02*
X13136848Y-11797984D01*
X13136848Y-11797984D02*
X13098753Y-11797984D01*
X13098753Y-11797984D02*
X13079706Y-11807508D01*
X13079706Y-11807508D02*
X13070182Y-11817031D01*
X13070182Y-11817031D02*
X13060658Y-11836079D01*
X13060658Y-11836079D02*
X13060658Y-11883698D01*
X13060658Y-11883698D02*
X13070182Y-11902746D01*
X13070182Y-11902746D02*
X13079706Y-11912269D01*
X13079706Y-11912269D02*
X13098753Y-11921793D01*
X13098753Y-11921793D02*
X13136848Y-11921793D01*
X13136848Y-11921793D02*
X13155896Y-11912269D01*
X13155896Y-11912269D02*
X13165420Y-11902746D01*
X13165420Y-11902746D02*
X13174944Y-11883698D01*
X13251134Y-11797984D02*
X13251134Y-11836079D01*
X13327325Y-11797984D02*
X13327325Y-11836079D01*
X13622563Y-12074174D02*
X13613039Y-12064650D01*
X13613039Y-12064650D02*
X13593991Y-12036079D01*
X13593991Y-12036079D02*
X13584468Y-12017031D01*
X13584468Y-12017031D02*
X13574944Y-11988460D01*
X13574944Y-11988460D02*
X13565420Y-11940841D01*
X13565420Y-11940841D02*
X13565420Y-11902746D01*
X13565420Y-11902746D02*
X13574944Y-11855127D01*
X13574944Y-11855127D02*
X13584468Y-11826555D01*
X13584468Y-11826555D02*
X13593991Y-11807508D01*
X13593991Y-11807508D02*
X13613039Y-11778936D01*
X13613039Y-11778936D02*
X13622563Y-11769412D01*
X13708277Y-11997984D02*
X13746372Y-11997984D01*
X13746372Y-11997984D02*
X13765420Y-11988460D01*
X13765420Y-11988460D02*
X13774944Y-11978936D01*
X13774944Y-11978936D02*
X13793991Y-11950365D01*
X13793991Y-11950365D02*
X13803515Y-11912269D01*
X13803515Y-11912269D02*
X13803515Y-11836079D01*
X13803515Y-11836079D02*
X13793991Y-11817031D01*
X13793991Y-11817031D02*
X13784468Y-11807508D01*
X13784468Y-11807508D02*
X13765420Y-11797984D01*
X13765420Y-11797984D02*
X13727325Y-11797984D01*
X13727325Y-11797984D02*
X13708277Y-11807508D01*
X13708277Y-11807508D02*
X13698753Y-11817031D01*
X13698753Y-11817031D02*
X13689229Y-11836079D01*
X13689229Y-11836079D02*
X13689229Y-11883698D01*
X13689229Y-11883698D02*
X13698753Y-11902746D01*
X13698753Y-11902746D02*
X13708277Y-11912269D01*
X13708277Y-11912269D02*
X13727325Y-11921793D01*
X13727325Y-11921793D02*
X13765420Y-11921793D01*
X13765420Y-11921793D02*
X13784468Y-11912269D01*
X13784468Y-11912269D02*
X13793991Y-11902746D01*
X13793991Y-11902746D02*
X13803515Y-11883698D01*
X14041610Y-11997984D02*
X14041610Y-11797984D01*
X14127325Y-11997984D02*
X14127325Y-11893222D01*
X14127325Y-11893222D02*
X14117801Y-11874174D01*
X14117801Y-11874174D02*
X14098753Y-11864650D01*
X14098753Y-11864650D02*
X14070182Y-11864650D01*
X14070182Y-11864650D02*
X14051134Y-11874174D01*
X14051134Y-11874174D02*
X14041610Y-11883698D01*
X14251134Y-11997984D02*
X14232087Y-11988460D01*
X14232087Y-11988460D02*
X14222563Y-11978936D01*
X14222563Y-11978936D02*
X14213039Y-11959888D01*
X14213039Y-11959888D02*
X14213039Y-11902746D01*
X14213039Y-11902746D02*
X14222563Y-11883698D01*
X14222563Y-11883698D02*
X14232087Y-11874174D01*
X14232087Y-11874174D02*
X14251134Y-11864650D01*
X14251134Y-11864650D02*
X14279706Y-11864650D01*
X14279706Y-11864650D02*
X14298753Y-11874174D01*
X14298753Y-11874174D02*
X14308277Y-11883698D01*
X14308277Y-11883698D02*
X14317801Y-11902746D01*
X14317801Y-11902746D02*
X14317801Y-11959888D01*
X14317801Y-11959888D02*
X14308277Y-11978936D01*
X14308277Y-11978936D02*
X14298753Y-11988460D01*
X14298753Y-11988460D02*
X14279706Y-11997984D01*
X14279706Y-11997984D02*
X14251134Y-11997984D01*
X14432087Y-11997984D02*
X14413039Y-11988460D01*
X14413039Y-11988460D02*
X14403515Y-11969412D01*
X14403515Y-11969412D02*
X14403515Y-11797984D01*
X14584468Y-11988460D02*
X14565420Y-11997984D01*
X14565420Y-11997984D02*
X14527325Y-11997984D01*
X14527325Y-11997984D02*
X14508277Y-11988460D01*
X14508277Y-11988460D02*
X14498753Y-11969412D01*
X14498753Y-11969412D02*
X14498753Y-11893222D01*
X14498753Y-11893222D02*
X14508277Y-11874174D01*
X14508277Y-11874174D02*
X14527325Y-11864650D01*
X14527325Y-11864650D02*
X14565420Y-11864650D01*
X14565420Y-11864650D02*
X14584468Y-11874174D01*
X14584468Y-11874174D02*
X14593991Y-11893222D01*
X14593991Y-11893222D02*
X14593991Y-11912269D01*
X14593991Y-11912269D02*
X14498753Y-11931317D01*
X14670182Y-11988460D02*
X14689230Y-11997984D01*
X14689230Y-11997984D02*
X14727325Y-11997984D01*
X14727325Y-11997984D02*
X14746372Y-11988460D01*
X14746372Y-11988460D02*
X14755896Y-11969412D01*
X14755896Y-11969412D02*
X14755896Y-11959888D01*
X14755896Y-11959888D02*
X14746372Y-11940841D01*
X14746372Y-11940841D02*
X14727325Y-11931317D01*
X14727325Y-11931317D02*
X14698753Y-11931317D01*
X14698753Y-11931317D02*
X14679706Y-11921793D01*
X14679706Y-11921793D02*
X14670182Y-11902746D01*
X14670182Y-11902746D02*
X14670182Y-11893222D01*
X14670182Y-11893222D02*
X14679706Y-11874174D01*
X14679706Y-11874174D02*
X14698753Y-11864650D01*
X14698753Y-11864650D02*
X14727325Y-11864650D01*
X14727325Y-11864650D02*
X14746372Y-11874174D01*
X14822563Y-12074174D02*
X14832087Y-12064650D01*
X14832087Y-12064650D02*
X14851134Y-12036079D01*
X14851134Y-12036079D02*
X14860658Y-12017031D01*
X14860658Y-12017031D02*
X14870182Y-11988460D01*
X14870182Y-11988460D02*
X14879706Y-11940841D01*
X14879706Y-11940841D02*
X14879706Y-11902746D01*
X14879706Y-11902746D02*
X14870182Y-11855127D01*
X14870182Y-11855127D02*
X14860658Y-11826555D01*
X14860658Y-11826555D02*
X14851134Y-11807508D01*
X14851134Y-11807508D02*
X14832087Y-11778936D01*
X14832087Y-11778936D02*
X14822563Y-11769412D01*
D12*
X10015000Y-12138000D02*
X10015000Y-12203000D01*
X9982500Y-12170500D02*
X10047500Y-12170500D01*
D11*
X10346372Y-12061984D02*
X10365420Y-12061984D01*
X10365420Y-12061984D02*
X10384467Y-12071508D01*
X10384467Y-12071508D02*
X10393991Y-12081031D01*
X10393991Y-12081031D02*
X10403515Y-12100079D01*
X10403515Y-12100079D02*
X10413039Y-12138174D01*
X10413039Y-12138174D02*
X10413039Y-12185793D01*
X10413039Y-12185793D02*
X10403515Y-12223888D01*
X10403515Y-12223888D02*
X10393991Y-12242936D01*
X10393991Y-12242936D02*
X10384467Y-12252460D01*
X10384467Y-12252460D02*
X10365420Y-12261984D01*
X10365420Y-12261984D02*
X10346372Y-12261984D01*
X10346372Y-12261984D02*
X10327324Y-12252460D01*
X10327324Y-12252460D02*
X10317801Y-12242936D01*
X10317801Y-12242936D02*
X10308277Y-12223888D01*
X10308277Y-12223888D02*
X10298753Y-12185793D01*
X10298753Y-12185793D02*
X10298753Y-12138174D01*
X10298753Y-12138174D02*
X10308277Y-12100079D01*
X10308277Y-12100079D02*
X10317801Y-12081031D01*
X10317801Y-12081031D02*
X10327324Y-12071508D01*
X10327324Y-12071508D02*
X10346372Y-12061984D01*
X10498753Y-12242936D02*
X10508277Y-12252460D01*
X10508277Y-12252460D02*
X10498753Y-12261984D01*
X10498753Y-12261984D02*
X10489229Y-12252460D01*
X10489229Y-12252460D02*
X10498753Y-12242936D01*
X10498753Y-12242936D02*
X10498753Y-12261984D01*
X10679705Y-12061984D02*
X10641610Y-12061984D01*
X10641610Y-12061984D02*
X10622563Y-12071508D01*
X10622563Y-12071508D02*
X10613039Y-12081031D01*
X10613039Y-12081031D02*
X10593991Y-12109603D01*
X10593991Y-12109603D02*
X10584467Y-12147698D01*
X10584467Y-12147698D02*
X10584467Y-12223888D01*
X10584467Y-12223888D02*
X10593991Y-12242936D01*
X10593991Y-12242936D02*
X10603515Y-12252460D01*
X10603515Y-12252460D02*
X10622563Y-12261984D01*
X10622563Y-12261984D02*
X10660658Y-12261984D01*
X10660658Y-12261984D02*
X10679705Y-12252460D01*
X10679705Y-12252460D02*
X10689229Y-12242936D01*
X10689229Y-12242936D02*
X10698753Y-12223888D01*
X10698753Y-12223888D02*
X10698753Y-12176269D01*
X10698753Y-12176269D02*
X10689229Y-12157222D01*
X10689229Y-12157222D02*
X10679705Y-12147698D01*
X10679705Y-12147698D02*
X10660658Y-12138174D01*
X10660658Y-12138174D02*
X10622563Y-12138174D01*
X10622563Y-12138174D02*
X10603515Y-12147698D01*
X10603515Y-12147698D02*
X10593991Y-12157222D01*
X10593991Y-12157222D02*
X10584467Y-12176269D01*
X10879705Y-12061984D02*
X10784467Y-12061984D01*
X10784467Y-12061984D02*
X10774944Y-12157222D01*
X10774944Y-12157222D02*
X10784467Y-12147698D01*
X10784467Y-12147698D02*
X10803515Y-12138174D01*
X10803515Y-12138174D02*
X10851134Y-12138174D01*
X10851134Y-12138174D02*
X10870182Y-12147698D01*
X10870182Y-12147698D02*
X10879705Y-12157222D01*
X10879705Y-12157222D02*
X10889229Y-12176269D01*
X10889229Y-12176269D02*
X10889229Y-12223888D01*
X10889229Y-12223888D02*
X10879705Y-12242936D01*
X10879705Y-12242936D02*
X10870182Y-12252460D01*
X10870182Y-12252460D02*
X10851134Y-12261984D01*
X10851134Y-12261984D02*
X10803515Y-12261984D01*
X10803515Y-12261984D02*
X10784467Y-12252460D01*
X10784467Y-12252460D02*
X10774944Y-12242936D01*
X11013039Y-12061984D02*
X11032086Y-12061984D01*
X11032086Y-12061984D02*
X11051134Y-12071508D01*
X11051134Y-12071508D02*
X11060658Y-12081031D01*
X11060658Y-12081031D02*
X11070182Y-12100079D01*
X11070182Y-12100079D02*
X11079705Y-12138174D01*
X11079705Y-12138174D02*
X11079705Y-12185793D01*
X11079705Y-12185793D02*
X11070182Y-12223888D01*
X11070182Y-12223888D02*
X11060658Y-12242936D01*
X11060658Y-12242936D02*
X11051134Y-12252460D01*
X11051134Y-12252460D02*
X11032086Y-12261984D01*
X11032086Y-12261984D02*
X11013039Y-12261984D01*
X11013039Y-12261984D02*
X10993991Y-12252460D01*
X10993991Y-12252460D02*
X10984467Y-12242936D01*
X10984467Y-12242936D02*
X10974944Y-12223888D01*
X10974944Y-12223888D02*
X10965420Y-12185793D01*
X10965420Y-12185793D02*
X10965420Y-12138174D01*
X10965420Y-12138174D02*
X10974944Y-12100079D01*
X10974944Y-12100079D02*
X10984467Y-12081031D01*
X10984467Y-12081031D02*
X10993991Y-12071508D01*
X10993991Y-12071508D02*
X11013039Y-12061984D01*
X11165420Y-12261984D02*
X11165420Y-12128650D01*
X11165420Y-12147698D02*
X11174944Y-12138174D01*
X11174944Y-12138174D02*
X11193991Y-12128650D01*
X11193991Y-12128650D02*
X11222563Y-12128650D01*
X11222563Y-12128650D02*
X11241610Y-12138174D01*
X11241610Y-12138174D02*
X11251134Y-12157222D01*
X11251134Y-12157222D02*
X11251134Y-12261984D01*
X11251134Y-12157222D02*
X11260658Y-12138174D01*
X11260658Y-12138174D02*
X11279705Y-12128650D01*
X11279705Y-12128650D02*
X11308277Y-12128650D01*
X11308277Y-12128650D02*
X11327324Y-12138174D01*
X11327324Y-12138174D02*
X11336848Y-12157222D01*
X11336848Y-12157222D02*
X11336848Y-12261984D01*
X11432086Y-12261984D02*
X11432086Y-12128650D01*
X11432086Y-12147698D02*
X11441610Y-12138174D01*
X11441610Y-12138174D02*
X11460658Y-12128650D01*
X11460658Y-12128650D02*
X11489229Y-12128650D01*
X11489229Y-12128650D02*
X11508277Y-12138174D01*
X11508277Y-12138174D02*
X11517801Y-12157222D01*
X11517801Y-12157222D02*
X11517801Y-12261984D01*
X11517801Y-12157222D02*
X11527324Y-12138174D01*
X11527324Y-12138174D02*
X11546372Y-12128650D01*
X11546372Y-12128650D02*
X11574943Y-12128650D01*
X11574943Y-12128650D02*
X11593991Y-12138174D01*
X11593991Y-12138174D02*
X11603515Y-12157222D01*
X11603515Y-12157222D02*
X11603515Y-12261984D01*
X11993991Y-12052460D02*
X11822563Y-12309603D01*
X12251134Y-12061984D02*
X12270182Y-12061984D01*
X12270182Y-12061984D02*
X12289229Y-12071508D01*
X12289229Y-12071508D02*
X12298753Y-12081031D01*
X12298753Y-12081031D02*
X12308277Y-12100079D01*
X12308277Y-12100079D02*
X12317801Y-12138174D01*
X12317801Y-12138174D02*
X12317801Y-12185793D01*
X12317801Y-12185793D02*
X12308277Y-12223888D01*
X12308277Y-12223888D02*
X12298753Y-12242936D01*
X12298753Y-12242936D02*
X12289229Y-12252460D01*
X12289229Y-12252460D02*
X12270182Y-12261984D01*
X12270182Y-12261984D02*
X12251134Y-12261984D01*
X12251134Y-12261984D02*
X12232086Y-12252460D01*
X12232086Y-12252460D02*
X12222563Y-12242936D01*
X12222563Y-12242936D02*
X12213039Y-12223888D01*
X12213039Y-12223888D02*
X12203515Y-12185793D01*
X12203515Y-12185793D02*
X12203515Y-12138174D01*
X12203515Y-12138174D02*
X12213039Y-12100079D01*
X12213039Y-12100079D02*
X12222563Y-12081031D01*
X12222563Y-12081031D02*
X12232086Y-12071508D01*
X12232086Y-12071508D02*
X12251134Y-12061984D01*
X12403515Y-12242936D02*
X12413039Y-12252460D01*
X12413039Y-12252460D02*
X12403515Y-12261984D01*
X12403515Y-12261984D02*
X12393991Y-12252460D01*
X12393991Y-12252460D02*
X12403515Y-12242936D01*
X12403515Y-12242936D02*
X12403515Y-12261984D01*
X12536848Y-12061984D02*
X12555896Y-12061984D01*
X12555896Y-12061984D02*
X12574944Y-12071508D01*
X12574944Y-12071508D02*
X12584467Y-12081031D01*
X12584467Y-12081031D02*
X12593991Y-12100079D01*
X12593991Y-12100079D02*
X12603515Y-12138174D01*
X12603515Y-12138174D02*
X12603515Y-12185793D01*
X12603515Y-12185793D02*
X12593991Y-12223888D01*
X12593991Y-12223888D02*
X12584467Y-12242936D01*
X12584467Y-12242936D02*
X12574944Y-12252460D01*
X12574944Y-12252460D02*
X12555896Y-12261984D01*
X12555896Y-12261984D02*
X12536848Y-12261984D01*
X12536848Y-12261984D02*
X12517801Y-12252460D01*
X12517801Y-12252460D02*
X12508277Y-12242936D01*
X12508277Y-12242936D02*
X12498753Y-12223888D01*
X12498753Y-12223888D02*
X12489229Y-12185793D01*
X12489229Y-12185793D02*
X12489229Y-12138174D01*
X12489229Y-12138174D02*
X12498753Y-12100079D01*
X12498753Y-12100079D02*
X12508277Y-12081031D01*
X12508277Y-12081031D02*
X12517801Y-12071508D01*
X12517801Y-12071508D02*
X12536848Y-12061984D01*
X12679706Y-12081031D02*
X12689229Y-12071508D01*
X12689229Y-12071508D02*
X12708277Y-12061984D01*
X12708277Y-12061984D02*
X12755896Y-12061984D01*
X12755896Y-12061984D02*
X12774944Y-12071508D01*
X12774944Y-12071508D02*
X12784467Y-12081031D01*
X12784467Y-12081031D02*
X12793991Y-12100079D01*
X12793991Y-12100079D02*
X12793991Y-12119127D01*
X12793991Y-12119127D02*
X12784467Y-12147698D01*
X12784467Y-12147698D02*
X12670182Y-12261984D01*
X12670182Y-12261984D02*
X12793991Y-12261984D01*
X12974944Y-12061984D02*
X12879706Y-12061984D01*
X12879706Y-12061984D02*
X12870182Y-12157222D01*
X12870182Y-12157222D02*
X12879706Y-12147698D01*
X12879706Y-12147698D02*
X12898753Y-12138174D01*
X12898753Y-12138174D02*
X12946372Y-12138174D01*
X12946372Y-12138174D02*
X12965420Y-12147698D01*
X12965420Y-12147698D02*
X12974944Y-12157222D01*
X12974944Y-12157222D02*
X12984467Y-12176269D01*
X12984467Y-12176269D02*
X12984467Y-12223888D01*
X12984467Y-12223888D02*
X12974944Y-12242936D01*
X12974944Y-12242936D02*
X12965420Y-12252460D01*
X12965420Y-12252460D02*
X12946372Y-12261984D01*
X12946372Y-12261984D02*
X12898753Y-12261984D01*
X12898753Y-12261984D02*
X12879706Y-12252460D01*
X12879706Y-12252460D02*
X12870182Y-12242936D01*
X13155896Y-12061984D02*
X13117801Y-12061984D01*
X13117801Y-12061984D02*
X13098753Y-12071508D01*
X13098753Y-12071508D02*
X13089229Y-12081031D01*
X13089229Y-12081031D02*
X13070182Y-12109603D01*
X13070182Y-12109603D02*
X13060658Y-12147698D01*
X13060658Y-12147698D02*
X13060658Y-12223888D01*
X13060658Y-12223888D02*
X13070182Y-12242936D01*
X13070182Y-12242936D02*
X13079706Y-12252460D01*
X13079706Y-12252460D02*
X13098753Y-12261984D01*
X13098753Y-12261984D02*
X13136848Y-12261984D01*
X13136848Y-12261984D02*
X13155896Y-12252460D01*
X13155896Y-12252460D02*
X13165420Y-12242936D01*
X13165420Y-12242936D02*
X13174944Y-12223888D01*
X13174944Y-12223888D02*
X13174944Y-12176269D01*
X13174944Y-12176269D02*
X13165420Y-12157222D01*
X13165420Y-12157222D02*
X13155896Y-12147698D01*
X13155896Y-12147698D02*
X13136848Y-12138174D01*
X13136848Y-12138174D02*
X13098753Y-12138174D01*
X13098753Y-12138174D02*
X13079706Y-12147698D01*
X13079706Y-12147698D02*
X13070182Y-12157222D01*
X13070182Y-12157222D02*
X13060658Y-12176269D01*
X13251134Y-12061984D02*
X13251134Y-12100079D01*
X13327325Y-12061984D02*
X13327325Y-12100079D01*
X13622563Y-12338174D02*
X13613039Y-12328650D01*
X13613039Y-12328650D02*
X13593991Y-12300079D01*
X13593991Y-12300079D02*
X13584468Y-12281031D01*
X13584468Y-12281031D02*
X13574944Y-12252460D01*
X13574944Y-12252460D02*
X13565420Y-12204841D01*
X13565420Y-12204841D02*
X13565420Y-12166746D01*
X13565420Y-12166746D02*
X13574944Y-12119127D01*
X13574944Y-12119127D02*
X13584468Y-12090555D01*
X13584468Y-12090555D02*
X13593991Y-12071508D01*
X13593991Y-12071508D02*
X13613039Y-12042936D01*
X13613039Y-12042936D02*
X13622563Y-12033412D01*
X13803515Y-12261984D02*
X13689229Y-12261984D01*
X13746372Y-12261984D02*
X13746372Y-12061984D01*
X13746372Y-12061984D02*
X13727325Y-12090555D01*
X13727325Y-12090555D02*
X13708277Y-12109603D01*
X13708277Y-12109603D02*
X13689229Y-12119127D01*
X13927325Y-12061984D02*
X13946372Y-12061984D01*
X13946372Y-12061984D02*
X13965420Y-12071508D01*
X13965420Y-12071508D02*
X13974944Y-12081031D01*
X13974944Y-12081031D02*
X13984468Y-12100079D01*
X13984468Y-12100079D02*
X13993991Y-12138174D01*
X13993991Y-12138174D02*
X13993991Y-12185793D01*
X13993991Y-12185793D02*
X13984468Y-12223888D01*
X13984468Y-12223888D02*
X13974944Y-12242936D01*
X13974944Y-12242936D02*
X13965420Y-12252460D01*
X13965420Y-12252460D02*
X13946372Y-12261984D01*
X13946372Y-12261984D02*
X13927325Y-12261984D01*
X13927325Y-12261984D02*
X13908277Y-12252460D01*
X13908277Y-12252460D02*
X13898753Y-12242936D01*
X13898753Y-12242936D02*
X13889229Y-12223888D01*
X13889229Y-12223888D02*
X13879706Y-12185793D01*
X13879706Y-12185793D02*
X13879706Y-12138174D01*
X13879706Y-12138174D02*
X13889229Y-12100079D01*
X13889229Y-12100079D02*
X13898753Y-12081031D01*
X13898753Y-12081031D02*
X13908277Y-12071508D01*
X13908277Y-12071508D02*
X13927325Y-12061984D01*
X14232087Y-12261984D02*
X14232087Y-12061984D01*
X14317801Y-12261984D02*
X14317801Y-12157222D01*
X14317801Y-12157222D02*
X14308277Y-12138174D01*
X14308277Y-12138174D02*
X14289230Y-12128650D01*
X14289230Y-12128650D02*
X14260658Y-12128650D01*
X14260658Y-12128650D02*
X14241610Y-12138174D01*
X14241610Y-12138174D02*
X14232087Y-12147698D01*
X14441610Y-12261984D02*
X14422563Y-12252460D01*
X14422563Y-12252460D02*
X14413039Y-12242936D01*
X14413039Y-12242936D02*
X14403515Y-12223888D01*
X14403515Y-12223888D02*
X14403515Y-12166746D01*
X14403515Y-12166746D02*
X14413039Y-12147698D01*
X14413039Y-12147698D02*
X14422563Y-12138174D01*
X14422563Y-12138174D02*
X14441610Y-12128650D01*
X14441610Y-12128650D02*
X14470182Y-12128650D01*
X14470182Y-12128650D02*
X14489230Y-12138174D01*
X14489230Y-12138174D02*
X14498753Y-12147698D01*
X14498753Y-12147698D02*
X14508277Y-12166746D01*
X14508277Y-12166746D02*
X14508277Y-12223888D01*
X14508277Y-12223888D02*
X14498753Y-12242936D01*
X14498753Y-12242936D02*
X14489230Y-12252460D01*
X14489230Y-12252460D02*
X14470182Y-12261984D01*
X14470182Y-12261984D02*
X14441610Y-12261984D01*
X14622563Y-12261984D02*
X14603515Y-12252460D01*
X14603515Y-12252460D02*
X14593991Y-12233412D01*
X14593991Y-12233412D02*
X14593991Y-12061984D01*
X14774944Y-12252460D02*
X14755896Y-12261984D01*
X14755896Y-12261984D02*
X14717801Y-12261984D01*
X14717801Y-12261984D02*
X14698753Y-12252460D01*
X14698753Y-12252460D02*
X14689230Y-12233412D01*
X14689230Y-12233412D02*
X14689230Y-12157222D01*
X14689230Y-12157222D02*
X14698753Y-12138174D01*
X14698753Y-12138174D02*
X14717801Y-12128650D01*
X14717801Y-12128650D02*
X14755896Y-12128650D01*
X14755896Y-12128650D02*
X14774944Y-12138174D01*
X14774944Y-12138174D02*
X14784468Y-12157222D01*
X14784468Y-12157222D02*
X14784468Y-12176269D01*
X14784468Y-12176269D02*
X14689230Y-12195317D01*
X14860658Y-12252460D02*
X14879706Y-12261984D01*
X14879706Y-12261984D02*
X14917801Y-12261984D01*
X14917801Y-12261984D02*
X14936849Y-12252460D01*
X14936849Y-12252460D02*
X14946372Y-12233412D01*
X14946372Y-12233412D02*
X14946372Y-12223888D01*
X14946372Y-12223888D02*
X14936849Y-12204841D01*
X14936849Y-12204841D02*
X14917801Y-12195317D01*
X14917801Y-12195317D02*
X14889230Y-12195317D01*
X14889230Y-12195317D02*
X14870182Y-12185793D01*
X14870182Y-12185793D02*
X14860658Y-12166746D01*
X14860658Y-12166746D02*
X14860658Y-12157222D01*
X14860658Y-12157222D02*
X14870182Y-12138174D01*
X14870182Y-12138174D02*
X14889230Y-12128650D01*
X14889230Y-12128650D02*
X14917801Y-12128650D01*
X14917801Y-12128650D02*
X14936849Y-12138174D01*
X15013039Y-12338174D02*
X15022563Y-12328650D01*
X15022563Y-12328650D02*
X15041611Y-12300079D01*
X15041611Y-12300079D02*
X15051134Y-12281031D01*
X15051134Y-12281031D02*
X15060658Y-12252460D01*
X15060658Y-12252460D02*
X15070182Y-12204841D01*
X15070182Y-12204841D02*
X15070182Y-12166746D01*
X15070182Y-12166746D02*
X15060658Y-12119127D01*
X15060658Y-12119127D02*
X15051134Y-12090555D01*
X15051134Y-12090555D02*
X15041611Y-12071508D01*
X15041611Y-12071508D02*
X15022563Y-12042936D01*
X15022563Y-12042936D02*
X15013039Y-12033412D01*
D12*
X10035785Y-12462784D02*
X10035785Y-12406215D01*
X9979216Y-12406215D01*
X9979216Y-12462784D01*
X10035785Y-12462784D01*
D11*
X10346372Y-12325984D02*
X10365420Y-12325984D01*
X10365420Y-12325984D02*
X10384467Y-12335508D01*
X10384467Y-12335508D02*
X10393991Y-12345031D01*
X10393991Y-12345031D02*
X10403515Y-12364079D01*
X10403515Y-12364079D02*
X10413039Y-12402174D01*
X10413039Y-12402174D02*
X10413039Y-12449793D01*
X10413039Y-12449793D02*
X10403515Y-12487888D01*
X10403515Y-12487888D02*
X10393991Y-12506936D01*
X10393991Y-12506936D02*
X10384467Y-12516460D01*
X10384467Y-12516460D02*
X10365420Y-12525984D01*
X10365420Y-12525984D02*
X10346372Y-12525984D01*
X10346372Y-12525984D02*
X10327324Y-12516460D01*
X10327324Y-12516460D02*
X10317801Y-12506936D01*
X10317801Y-12506936D02*
X10308277Y-12487888D01*
X10308277Y-12487888D02*
X10298753Y-12449793D01*
X10298753Y-12449793D02*
X10298753Y-12402174D01*
X10298753Y-12402174D02*
X10308277Y-12364079D01*
X10308277Y-12364079D02*
X10317801Y-12345031D01*
X10317801Y-12345031D02*
X10327324Y-12335508D01*
X10327324Y-12335508D02*
X10346372Y-12325984D01*
X10498753Y-12506936D02*
X10508277Y-12516460D01*
X10508277Y-12516460D02*
X10498753Y-12525984D01*
X10498753Y-12525984D02*
X10489229Y-12516460D01*
X10489229Y-12516460D02*
X10498753Y-12506936D01*
X10498753Y-12506936D02*
X10498753Y-12525984D01*
X10622563Y-12411698D02*
X10603515Y-12402174D01*
X10603515Y-12402174D02*
X10593991Y-12392650D01*
X10593991Y-12392650D02*
X10584467Y-12373603D01*
X10584467Y-12373603D02*
X10584467Y-12364079D01*
X10584467Y-12364079D02*
X10593991Y-12345031D01*
X10593991Y-12345031D02*
X10603515Y-12335508D01*
X10603515Y-12335508D02*
X10622563Y-12325984D01*
X10622563Y-12325984D02*
X10660658Y-12325984D01*
X10660658Y-12325984D02*
X10679705Y-12335508D01*
X10679705Y-12335508D02*
X10689229Y-12345031D01*
X10689229Y-12345031D02*
X10698753Y-12364079D01*
X10698753Y-12364079D02*
X10698753Y-12373603D01*
X10698753Y-12373603D02*
X10689229Y-12392650D01*
X10689229Y-12392650D02*
X10679705Y-12402174D01*
X10679705Y-12402174D02*
X10660658Y-12411698D01*
X10660658Y-12411698D02*
X10622563Y-12411698D01*
X10622563Y-12411698D02*
X10603515Y-12421222D01*
X10603515Y-12421222D02*
X10593991Y-12430746D01*
X10593991Y-12430746D02*
X10584467Y-12449793D01*
X10584467Y-12449793D02*
X10584467Y-12487888D01*
X10584467Y-12487888D02*
X10593991Y-12506936D01*
X10593991Y-12506936D02*
X10603515Y-12516460D01*
X10603515Y-12516460D02*
X10622563Y-12525984D01*
X10622563Y-12525984D02*
X10660658Y-12525984D01*
X10660658Y-12525984D02*
X10679705Y-12516460D01*
X10679705Y-12516460D02*
X10689229Y-12506936D01*
X10689229Y-12506936D02*
X10698753Y-12487888D01*
X10698753Y-12487888D02*
X10698753Y-12449793D01*
X10698753Y-12449793D02*
X10689229Y-12430746D01*
X10689229Y-12430746D02*
X10679705Y-12421222D01*
X10679705Y-12421222D02*
X10660658Y-12411698D01*
X10822563Y-12325984D02*
X10841610Y-12325984D01*
X10841610Y-12325984D02*
X10860658Y-12335508D01*
X10860658Y-12335508D02*
X10870182Y-12345031D01*
X10870182Y-12345031D02*
X10879705Y-12364079D01*
X10879705Y-12364079D02*
X10889229Y-12402174D01*
X10889229Y-12402174D02*
X10889229Y-12449793D01*
X10889229Y-12449793D02*
X10879705Y-12487888D01*
X10879705Y-12487888D02*
X10870182Y-12506936D01*
X10870182Y-12506936D02*
X10860658Y-12516460D01*
X10860658Y-12516460D02*
X10841610Y-12525984D01*
X10841610Y-12525984D02*
X10822563Y-12525984D01*
X10822563Y-12525984D02*
X10803515Y-12516460D01*
X10803515Y-12516460D02*
X10793991Y-12506936D01*
X10793991Y-12506936D02*
X10784467Y-12487888D01*
X10784467Y-12487888D02*
X10774944Y-12449793D01*
X10774944Y-12449793D02*
X10774944Y-12402174D01*
X10774944Y-12402174D02*
X10784467Y-12364079D01*
X10784467Y-12364079D02*
X10793991Y-12345031D01*
X10793991Y-12345031D02*
X10803515Y-12335508D01*
X10803515Y-12335508D02*
X10822563Y-12325984D01*
X11013039Y-12325984D02*
X11032086Y-12325984D01*
X11032086Y-12325984D02*
X11051134Y-12335508D01*
X11051134Y-12335508D02*
X11060658Y-12345031D01*
X11060658Y-12345031D02*
X11070182Y-12364079D01*
X11070182Y-12364079D02*
X11079705Y-12402174D01*
X11079705Y-12402174D02*
X11079705Y-12449793D01*
X11079705Y-12449793D02*
X11070182Y-12487888D01*
X11070182Y-12487888D02*
X11060658Y-12506936D01*
X11060658Y-12506936D02*
X11051134Y-12516460D01*
X11051134Y-12516460D02*
X11032086Y-12525984D01*
X11032086Y-12525984D02*
X11013039Y-12525984D01*
X11013039Y-12525984D02*
X10993991Y-12516460D01*
X10993991Y-12516460D02*
X10984467Y-12506936D01*
X10984467Y-12506936D02*
X10974944Y-12487888D01*
X10974944Y-12487888D02*
X10965420Y-12449793D01*
X10965420Y-12449793D02*
X10965420Y-12402174D01*
X10965420Y-12402174D02*
X10974944Y-12364079D01*
X10974944Y-12364079D02*
X10984467Y-12345031D01*
X10984467Y-12345031D02*
X10993991Y-12335508D01*
X10993991Y-12335508D02*
X11013039Y-12325984D01*
X11165420Y-12525984D02*
X11165420Y-12392650D01*
X11165420Y-12411698D02*
X11174944Y-12402174D01*
X11174944Y-12402174D02*
X11193991Y-12392650D01*
X11193991Y-12392650D02*
X11222563Y-12392650D01*
X11222563Y-12392650D02*
X11241610Y-12402174D01*
X11241610Y-12402174D02*
X11251134Y-12421222D01*
X11251134Y-12421222D02*
X11251134Y-12525984D01*
X11251134Y-12421222D02*
X11260658Y-12402174D01*
X11260658Y-12402174D02*
X11279705Y-12392650D01*
X11279705Y-12392650D02*
X11308277Y-12392650D01*
X11308277Y-12392650D02*
X11327324Y-12402174D01*
X11327324Y-12402174D02*
X11336848Y-12421222D01*
X11336848Y-12421222D02*
X11336848Y-12525984D01*
X11432086Y-12525984D02*
X11432086Y-12392650D01*
X11432086Y-12411698D02*
X11441610Y-12402174D01*
X11441610Y-12402174D02*
X11460658Y-12392650D01*
X11460658Y-12392650D02*
X11489229Y-12392650D01*
X11489229Y-12392650D02*
X11508277Y-12402174D01*
X11508277Y-12402174D02*
X11517801Y-12421222D01*
X11517801Y-12421222D02*
X11517801Y-12525984D01*
X11517801Y-12421222D02*
X11527324Y-12402174D01*
X11527324Y-12402174D02*
X11546372Y-12392650D01*
X11546372Y-12392650D02*
X11574943Y-12392650D01*
X11574943Y-12392650D02*
X11593991Y-12402174D01*
X11593991Y-12402174D02*
X11603515Y-12421222D01*
X11603515Y-12421222D02*
X11603515Y-12525984D01*
X11993991Y-12316460D02*
X11822563Y-12573603D01*
X12251134Y-12325984D02*
X12270182Y-12325984D01*
X12270182Y-12325984D02*
X12289229Y-12335508D01*
X12289229Y-12335508D02*
X12298753Y-12345031D01*
X12298753Y-12345031D02*
X12308277Y-12364079D01*
X12308277Y-12364079D02*
X12317801Y-12402174D01*
X12317801Y-12402174D02*
X12317801Y-12449793D01*
X12317801Y-12449793D02*
X12308277Y-12487888D01*
X12308277Y-12487888D02*
X12298753Y-12506936D01*
X12298753Y-12506936D02*
X12289229Y-12516460D01*
X12289229Y-12516460D02*
X12270182Y-12525984D01*
X12270182Y-12525984D02*
X12251134Y-12525984D01*
X12251134Y-12525984D02*
X12232086Y-12516460D01*
X12232086Y-12516460D02*
X12222563Y-12506936D01*
X12222563Y-12506936D02*
X12213039Y-12487888D01*
X12213039Y-12487888D02*
X12203515Y-12449793D01*
X12203515Y-12449793D02*
X12203515Y-12402174D01*
X12203515Y-12402174D02*
X12213039Y-12364079D01*
X12213039Y-12364079D02*
X12222563Y-12345031D01*
X12222563Y-12345031D02*
X12232086Y-12335508D01*
X12232086Y-12335508D02*
X12251134Y-12325984D01*
X12403515Y-12506936D02*
X12413039Y-12516460D01*
X12413039Y-12516460D02*
X12403515Y-12525984D01*
X12403515Y-12525984D02*
X12393991Y-12516460D01*
X12393991Y-12516460D02*
X12403515Y-12506936D01*
X12403515Y-12506936D02*
X12403515Y-12525984D01*
X12536848Y-12325984D02*
X12555896Y-12325984D01*
X12555896Y-12325984D02*
X12574944Y-12335508D01*
X12574944Y-12335508D02*
X12584467Y-12345031D01*
X12584467Y-12345031D02*
X12593991Y-12364079D01*
X12593991Y-12364079D02*
X12603515Y-12402174D01*
X12603515Y-12402174D02*
X12603515Y-12449793D01*
X12603515Y-12449793D02*
X12593991Y-12487888D01*
X12593991Y-12487888D02*
X12584467Y-12506936D01*
X12584467Y-12506936D02*
X12574944Y-12516460D01*
X12574944Y-12516460D02*
X12555896Y-12525984D01*
X12555896Y-12525984D02*
X12536848Y-12525984D01*
X12536848Y-12525984D02*
X12517801Y-12516460D01*
X12517801Y-12516460D02*
X12508277Y-12506936D01*
X12508277Y-12506936D02*
X12498753Y-12487888D01*
X12498753Y-12487888D02*
X12489229Y-12449793D01*
X12489229Y-12449793D02*
X12489229Y-12402174D01*
X12489229Y-12402174D02*
X12498753Y-12364079D01*
X12498753Y-12364079D02*
X12508277Y-12345031D01*
X12508277Y-12345031D02*
X12517801Y-12335508D01*
X12517801Y-12335508D02*
X12536848Y-12325984D01*
X12670182Y-12325984D02*
X12793991Y-12325984D01*
X12793991Y-12325984D02*
X12727325Y-12402174D01*
X12727325Y-12402174D02*
X12755896Y-12402174D01*
X12755896Y-12402174D02*
X12774944Y-12411698D01*
X12774944Y-12411698D02*
X12784467Y-12421222D01*
X12784467Y-12421222D02*
X12793991Y-12440269D01*
X12793991Y-12440269D02*
X12793991Y-12487888D01*
X12793991Y-12487888D02*
X12784467Y-12506936D01*
X12784467Y-12506936D02*
X12774944Y-12516460D01*
X12774944Y-12516460D02*
X12755896Y-12525984D01*
X12755896Y-12525984D02*
X12698753Y-12525984D01*
X12698753Y-12525984D02*
X12679706Y-12516460D01*
X12679706Y-12516460D02*
X12670182Y-12506936D01*
X12984467Y-12525984D02*
X12870182Y-12525984D01*
X12927325Y-12525984D02*
X12927325Y-12325984D01*
X12927325Y-12325984D02*
X12908277Y-12354555D01*
X12908277Y-12354555D02*
X12889229Y-12373603D01*
X12889229Y-12373603D02*
X12870182Y-12383127D01*
X13165420Y-12325984D02*
X13070182Y-12325984D01*
X13070182Y-12325984D02*
X13060658Y-12421222D01*
X13060658Y-12421222D02*
X13070182Y-12411698D01*
X13070182Y-12411698D02*
X13089229Y-12402174D01*
X13089229Y-12402174D02*
X13136848Y-12402174D01*
X13136848Y-12402174D02*
X13155896Y-12411698D01*
X13155896Y-12411698D02*
X13165420Y-12421222D01*
X13165420Y-12421222D02*
X13174944Y-12440269D01*
X13174944Y-12440269D02*
X13174944Y-12487888D01*
X13174944Y-12487888D02*
X13165420Y-12506936D01*
X13165420Y-12506936D02*
X13155896Y-12516460D01*
X13155896Y-12516460D02*
X13136848Y-12525984D01*
X13136848Y-12525984D02*
X13089229Y-12525984D01*
X13089229Y-12525984D02*
X13070182Y-12516460D01*
X13070182Y-12516460D02*
X13060658Y-12506936D01*
X13251134Y-12325984D02*
X13251134Y-12364079D01*
X13327325Y-12325984D02*
X13327325Y-12364079D01*
X13622563Y-12602174D02*
X13613039Y-12592650D01*
X13613039Y-12592650D02*
X13593991Y-12564079D01*
X13593991Y-12564079D02*
X13584468Y-12545031D01*
X13584468Y-12545031D02*
X13574944Y-12516460D01*
X13574944Y-12516460D02*
X13565420Y-12468841D01*
X13565420Y-12468841D02*
X13565420Y-12430746D01*
X13565420Y-12430746D02*
X13574944Y-12383127D01*
X13574944Y-12383127D02*
X13584468Y-12354555D01*
X13584468Y-12354555D02*
X13593991Y-12335508D01*
X13593991Y-12335508D02*
X13613039Y-12306936D01*
X13613039Y-12306936D02*
X13622563Y-12297412D01*
X13803515Y-12525984D02*
X13689229Y-12525984D01*
X13746372Y-12525984D02*
X13746372Y-12325984D01*
X13746372Y-12325984D02*
X13727325Y-12354555D01*
X13727325Y-12354555D02*
X13708277Y-12373603D01*
X13708277Y-12373603D02*
X13689229Y-12383127D01*
X13927325Y-12325984D02*
X13946372Y-12325984D01*
X13946372Y-12325984D02*
X13965420Y-12335508D01*
X13965420Y-12335508D02*
X13974944Y-12345031D01*
X13974944Y-12345031D02*
X13984468Y-12364079D01*
X13984468Y-12364079D02*
X13993991Y-12402174D01*
X13993991Y-12402174D02*
X13993991Y-12449793D01*
X13993991Y-12449793D02*
X13984468Y-12487888D01*
X13984468Y-12487888D02*
X13974944Y-12506936D01*
X13974944Y-12506936D02*
X13965420Y-12516460D01*
X13965420Y-12516460D02*
X13946372Y-12525984D01*
X13946372Y-12525984D02*
X13927325Y-12525984D01*
X13927325Y-12525984D02*
X13908277Y-12516460D01*
X13908277Y-12516460D02*
X13898753Y-12506936D01*
X13898753Y-12506936D02*
X13889229Y-12487888D01*
X13889229Y-12487888D02*
X13879706Y-12449793D01*
X13879706Y-12449793D02*
X13879706Y-12402174D01*
X13879706Y-12402174D02*
X13889229Y-12364079D01*
X13889229Y-12364079D02*
X13898753Y-12345031D01*
X13898753Y-12345031D02*
X13908277Y-12335508D01*
X13908277Y-12335508D02*
X13927325Y-12325984D01*
X14232087Y-12525984D02*
X14232087Y-12325984D01*
X14317801Y-12525984D02*
X14317801Y-12421222D01*
X14317801Y-12421222D02*
X14308277Y-12402174D01*
X14308277Y-12402174D02*
X14289230Y-12392650D01*
X14289230Y-12392650D02*
X14260658Y-12392650D01*
X14260658Y-12392650D02*
X14241610Y-12402174D01*
X14241610Y-12402174D02*
X14232087Y-12411698D01*
X14441610Y-12525984D02*
X14422563Y-12516460D01*
X14422563Y-12516460D02*
X14413039Y-12506936D01*
X14413039Y-12506936D02*
X14403515Y-12487888D01*
X14403515Y-12487888D02*
X14403515Y-12430746D01*
X14403515Y-12430746D02*
X14413039Y-12411698D01*
X14413039Y-12411698D02*
X14422563Y-12402174D01*
X14422563Y-12402174D02*
X14441610Y-12392650D01*
X14441610Y-12392650D02*
X14470182Y-12392650D01*
X14470182Y-12392650D02*
X14489230Y-12402174D01*
X14489230Y-12402174D02*
X14498753Y-12411698D01*
X14498753Y-12411698D02*
X14508277Y-12430746D01*
X14508277Y-12430746D02*
X14508277Y-12487888D01*
X14508277Y-12487888D02*
X14498753Y-12506936D01*
X14498753Y-12506936D02*
X14489230Y-12516460D01*
X14489230Y-12516460D02*
X14470182Y-12525984D01*
X14470182Y-12525984D02*
X14441610Y-12525984D01*
X14622563Y-12525984D02*
X14603515Y-12516460D01*
X14603515Y-12516460D02*
X14593991Y-12497412D01*
X14593991Y-12497412D02*
X14593991Y-12325984D01*
X14774944Y-12516460D02*
X14755896Y-12525984D01*
X14755896Y-12525984D02*
X14717801Y-12525984D01*
X14717801Y-12525984D02*
X14698753Y-12516460D01*
X14698753Y-12516460D02*
X14689230Y-12497412D01*
X14689230Y-12497412D02*
X14689230Y-12421222D01*
X14689230Y-12421222D02*
X14698753Y-12402174D01*
X14698753Y-12402174D02*
X14717801Y-12392650D01*
X14717801Y-12392650D02*
X14755896Y-12392650D01*
X14755896Y-12392650D02*
X14774944Y-12402174D01*
X14774944Y-12402174D02*
X14784468Y-12421222D01*
X14784468Y-12421222D02*
X14784468Y-12440269D01*
X14784468Y-12440269D02*
X14689230Y-12459317D01*
X14860658Y-12516460D02*
X14879706Y-12525984D01*
X14879706Y-12525984D02*
X14917801Y-12525984D01*
X14917801Y-12525984D02*
X14936849Y-12516460D01*
X14936849Y-12516460D02*
X14946372Y-12497412D01*
X14946372Y-12497412D02*
X14946372Y-12487888D01*
X14946372Y-12487888D02*
X14936849Y-12468841D01*
X14936849Y-12468841D02*
X14917801Y-12459317D01*
X14917801Y-12459317D02*
X14889230Y-12459317D01*
X14889230Y-12459317D02*
X14870182Y-12449793D01*
X14870182Y-12449793D02*
X14860658Y-12430746D01*
X14860658Y-12430746D02*
X14860658Y-12421222D01*
X14860658Y-12421222D02*
X14870182Y-12402174D01*
X14870182Y-12402174D02*
X14889230Y-12392650D01*
X14889230Y-12392650D02*
X14917801Y-12392650D01*
X14917801Y-12392650D02*
X14936849Y-12402174D01*
X15013039Y-12602174D02*
X15022563Y-12592650D01*
X15022563Y-12592650D02*
X15041611Y-12564079D01*
X15041611Y-12564079D02*
X15051134Y-12545031D01*
X15051134Y-12545031D02*
X15060658Y-12516460D01*
X15060658Y-12516460D02*
X15070182Y-12468841D01*
X15070182Y-12468841D02*
X15070182Y-12430746D01*
X15070182Y-12430746D02*
X15060658Y-12383127D01*
X15060658Y-12383127D02*
X15051134Y-12354555D01*
X15051134Y-12354555D02*
X15041611Y-12335508D01*
X15041611Y-12335508D02*
X15022563Y-12306936D01*
X15022563Y-12306936D02*
X15013039Y-12297412D01*
D12*
X10002500Y-12743500D02*
X10047500Y-12698500D01*
X10002500Y-12653500D01*
X9957500Y-12698500D01*
X10002500Y-12743500D01*
D11*
X10346372Y-12589984D02*
X10365420Y-12589984D01*
X10365420Y-12589984D02*
X10384467Y-12599508D01*
X10384467Y-12599508D02*
X10393991Y-12609031D01*
X10393991Y-12609031D02*
X10403515Y-12628079D01*
X10403515Y-12628079D02*
X10413039Y-12666174D01*
X10413039Y-12666174D02*
X10413039Y-12713793D01*
X10413039Y-12713793D02*
X10403515Y-12751888D01*
X10403515Y-12751888D02*
X10393991Y-12770936D01*
X10393991Y-12770936D02*
X10384467Y-12780460D01*
X10384467Y-12780460D02*
X10365420Y-12789984D01*
X10365420Y-12789984D02*
X10346372Y-12789984D01*
X10346372Y-12789984D02*
X10327324Y-12780460D01*
X10327324Y-12780460D02*
X10317801Y-12770936D01*
X10317801Y-12770936D02*
X10308277Y-12751888D01*
X10308277Y-12751888D02*
X10298753Y-12713793D01*
X10298753Y-12713793D02*
X10298753Y-12666174D01*
X10298753Y-12666174D02*
X10308277Y-12628079D01*
X10308277Y-12628079D02*
X10317801Y-12609031D01*
X10317801Y-12609031D02*
X10327324Y-12599508D01*
X10327324Y-12599508D02*
X10346372Y-12589984D01*
X10498753Y-12770936D02*
X10508277Y-12780460D01*
X10508277Y-12780460D02*
X10498753Y-12789984D01*
X10498753Y-12789984D02*
X10489229Y-12780460D01*
X10489229Y-12780460D02*
X10498753Y-12770936D01*
X10498753Y-12770936D02*
X10498753Y-12789984D01*
X10603515Y-12789984D02*
X10641610Y-12789984D01*
X10641610Y-12789984D02*
X10660658Y-12780460D01*
X10660658Y-12780460D02*
X10670182Y-12770936D01*
X10670182Y-12770936D02*
X10689229Y-12742365D01*
X10689229Y-12742365D02*
X10698753Y-12704269D01*
X10698753Y-12704269D02*
X10698753Y-12628079D01*
X10698753Y-12628079D02*
X10689229Y-12609031D01*
X10689229Y-12609031D02*
X10679705Y-12599508D01*
X10679705Y-12599508D02*
X10660658Y-12589984D01*
X10660658Y-12589984D02*
X10622563Y-12589984D01*
X10622563Y-12589984D02*
X10603515Y-12599508D01*
X10603515Y-12599508D02*
X10593991Y-12609031D01*
X10593991Y-12609031D02*
X10584467Y-12628079D01*
X10584467Y-12628079D02*
X10584467Y-12675698D01*
X10584467Y-12675698D02*
X10593991Y-12694746D01*
X10593991Y-12694746D02*
X10603515Y-12704269D01*
X10603515Y-12704269D02*
X10622563Y-12713793D01*
X10622563Y-12713793D02*
X10660658Y-12713793D01*
X10660658Y-12713793D02*
X10679705Y-12704269D01*
X10679705Y-12704269D02*
X10689229Y-12694746D01*
X10689229Y-12694746D02*
X10698753Y-12675698D01*
X10822563Y-12589984D02*
X10841610Y-12589984D01*
X10841610Y-12589984D02*
X10860658Y-12599508D01*
X10860658Y-12599508D02*
X10870182Y-12609031D01*
X10870182Y-12609031D02*
X10879705Y-12628079D01*
X10879705Y-12628079D02*
X10889229Y-12666174D01*
X10889229Y-12666174D02*
X10889229Y-12713793D01*
X10889229Y-12713793D02*
X10879705Y-12751888D01*
X10879705Y-12751888D02*
X10870182Y-12770936D01*
X10870182Y-12770936D02*
X10860658Y-12780460D01*
X10860658Y-12780460D02*
X10841610Y-12789984D01*
X10841610Y-12789984D02*
X10822563Y-12789984D01*
X10822563Y-12789984D02*
X10803515Y-12780460D01*
X10803515Y-12780460D02*
X10793991Y-12770936D01*
X10793991Y-12770936D02*
X10784467Y-12751888D01*
X10784467Y-12751888D02*
X10774944Y-12713793D01*
X10774944Y-12713793D02*
X10774944Y-12666174D01*
X10774944Y-12666174D02*
X10784467Y-12628079D01*
X10784467Y-12628079D02*
X10793991Y-12609031D01*
X10793991Y-12609031D02*
X10803515Y-12599508D01*
X10803515Y-12599508D02*
X10822563Y-12589984D01*
X11013039Y-12589984D02*
X11032086Y-12589984D01*
X11032086Y-12589984D02*
X11051134Y-12599508D01*
X11051134Y-12599508D02*
X11060658Y-12609031D01*
X11060658Y-12609031D02*
X11070182Y-12628079D01*
X11070182Y-12628079D02*
X11079705Y-12666174D01*
X11079705Y-12666174D02*
X11079705Y-12713793D01*
X11079705Y-12713793D02*
X11070182Y-12751888D01*
X11070182Y-12751888D02*
X11060658Y-12770936D01*
X11060658Y-12770936D02*
X11051134Y-12780460D01*
X11051134Y-12780460D02*
X11032086Y-12789984D01*
X11032086Y-12789984D02*
X11013039Y-12789984D01*
X11013039Y-12789984D02*
X10993991Y-12780460D01*
X10993991Y-12780460D02*
X10984467Y-12770936D01*
X10984467Y-12770936D02*
X10974944Y-12751888D01*
X10974944Y-12751888D02*
X10965420Y-12713793D01*
X10965420Y-12713793D02*
X10965420Y-12666174D01*
X10965420Y-12666174D02*
X10974944Y-12628079D01*
X10974944Y-12628079D02*
X10984467Y-12609031D01*
X10984467Y-12609031D02*
X10993991Y-12599508D01*
X10993991Y-12599508D02*
X11013039Y-12589984D01*
X11165420Y-12789984D02*
X11165420Y-12656650D01*
X11165420Y-12675698D02*
X11174944Y-12666174D01*
X11174944Y-12666174D02*
X11193991Y-12656650D01*
X11193991Y-12656650D02*
X11222563Y-12656650D01*
X11222563Y-12656650D02*
X11241610Y-12666174D01*
X11241610Y-12666174D02*
X11251134Y-12685222D01*
X11251134Y-12685222D02*
X11251134Y-12789984D01*
X11251134Y-12685222D02*
X11260658Y-12666174D01*
X11260658Y-12666174D02*
X11279705Y-12656650D01*
X11279705Y-12656650D02*
X11308277Y-12656650D01*
X11308277Y-12656650D02*
X11327324Y-12666174D01*
X11327324Y-12666174D02*
X11336848Y-12685222D01*
X11336848Y-12685222D02*
X11336848Y-12789984D01*
X11432086Y-12789984D02*
X11432086Y-12656650D01*
X11432086Y-12675698D02*
X11441610Y-12666174D01*
X11441610Y-12666174D02*
X11460658Y-12656650D01*
X11460658Y-12656650D02*
X11489229Y-12656650D01*
X11489229Y-12656650D02*
X11508277Y-12666174D01*
X11508277Y-12666174D02*
X11517801Y-12685222D01*
X11517801Y-12685222D02*
X11517801Y-12789984D01*
X11517801Y-12685222D02*
X11527324Y-12666174D01*
X11527324Y-12666174D02*
X11546372Y-12656650D01*
X11546372Y-12656650D02*
X11574943Y-12656650D01*
X11574943Y-12656650D02*
X11593991Y-12666174D01*
X11593991Y-12666174D02*
X11603515Y-12685222D01*
X11603515Y-12685222D02*
X11603515Y-12789984D01*
X11993991Y-12580460D02*
X11822563Y-12837603D01*
X12251134Y-12589984D02*
X12270182Y-12589984D01*
X12270182Y-12589984D02*
X12289229Y-12599508D01*
X12289229Y-12599508D02*
X12298753Y-12609031D01*
X12298753Y-12609031D02*
X12308277Y-12628079D01*
X12308277Y-12628079D02*
X12317801Y-12666174D01*
X12317801Y-12666174D02*
X12317801Y-12713793D01*
X12317801Y-12713793D02*
X12308277Y-12751888D01*
X12308277Y-12751888D02*
X12298753Y-12770936D01*
X12298753Y-12770936D02*
X12289229Y-12780460D01*
X12289229Y-12780460D02*
X12270182Y-12789984D01*
X12270182Y-12789984D02*
X12251134Y-12789984D01*
X12251134Y-12789984D02*
X12232086Y-12780460D01*
X12232086Y-12780460D02*
X12222563Y-12770936D01*
X12222563Y-12770936D02*
X12213039Y-12751888D01*
X12213039Y-12751888D02*
X12203515Y-12713793D01*
X12203515Y-12713793D02*
X12203515Y-12666174D01*
X12203515Y-12666174D02*
X12213039Y-12628079D01*
X12213039Y-12628079D02*
X12222563Y-12609031D01*
X12222563Y-12609031D02*
X12232086Y-12599508D01*
X12232086Y-12599508D02*
X12251134Y-12589984D01*
X12403515Y-12770936D02*
X12413039Y-12780460D01*
X12413039Y-12780460D02*
X12403515Y-12789984D01*
X12403515Y-12789984D02*
X12393991Y-12780460D01*
X12393991Y-12780460D02*
X12403515Y-12770936D01*
X12403515Y-12770936D02*
X12403515Y-12789984D01*
X12536848Y-12589984D02*
X12555896Y-12589984D01*
X12555896Y-12589984D02*
X12574944Y-12599508D01*
X12574944Y-12599508D02*
X12584467Y-12609031D01*
X12584467Y-12609031D02*
X12593991Y-12628079D01*
X12593991Y-12628079D02*
X12603515Y-12666174D01*
X12603515Y-12666174D02*
X12603515Y-12713793D01*
X12603515Y-12713793D02*
X12593991Y-12751888D01*
X12593991Y-12751888D02*
X12584467Y-12770936D01*
X12584467Y-12770936D02*
X12574944Y-12780460D01*
X12574944Y-12780460D02*
X12555896Y-12789984D01*
X12555896Y-12789984D02*
X12536848Y-12789984D01*
X12536848Y-12789984D02*
X12517801Y-12780460D01*
X12517801Y-12780460D02*
X12508277Y-12770936D01*
X12508277Y-12770936D02*
X12498753Y-12751888D01*
X12498753Y-12751888D02*
X12489229Y-12713793D01*
X12489229Y-12713793D02*
X12489229Y-12666174D01*
X12489229Y-12666174D02*
X12498753Y-12628079D01*
X12498753Y-12628079D02*
X12508277Y-12609031D01*
X12508277Y-12609031D02*
X12517801Y-12599508D01*
X12517801Y-12599508D02*
X12536848Y-12589984D01*
X12670182Y-12589984D02*
X12793991Y-12589984D01*
X12793991Y-12589984D02*
X12727325Y-12666174D01*
X12727325Y-12666174D02*
X12755896Y-12666174D01*
X12755896Y-12666174D02*
X12774944Y-12675698D01*
X12774944Y-12675698D02*
X12784467Y-12685222D01*
X12784467Y-12685222D02*
X12793991Y-12704269D01*
X12793991Y-12704269D02*
X12793991Y-12751888D01*
X12793991Y-12751888D02*
X12784467Y-12770936D01*
X12784467Y-12770936D02*
X12774944Y-12780460D01*
X12774944Y-12780460D02*
X12755896Y-12789984D01*
X12755896Y-12789984D02*
X12698753Y-12789984D01*
X12698753Y-12789984D02*
X12679706Y-12780460D01*
X12679706Y-12780460D02*
X12670182Y-12770936D01*
X12974944Y-12589984D02*
X12879706Y-12589984D01*
X12879706Y-12589984D02*
X12870182Y-12685222D01*
X12870182Y-12685222D02*
X12879706Y-12675698D01*
X12879706Y-12675698D02*
X12898753Y-12666174D01*
X12898753Y-12666174D02*
X12946372Y-12666174D01*
X12946372Y-12666174D02*
X12965420Y-12675698D01*
X12965420Y-12675698D02*
X12974944Y-12685222D01*
X12974944Y-12685222D02*
X12984467Y-12704269D01*
X12984467Y-12704269D02*
X12984467Y-12751888D01*
X12984467Y-12751888D02*
X12974944Y-12770936D01*
X12974944Y-12770936D02*
X12965420Y-12780460D01*
X12965420Y-12780460D02*
X12946372Y-12789984D01*
X12946372Y-12789984D02*
X12898753Y-12789984D01*
X12898753Y-12789984D02*
X12879706Y-12780460D01*
X12879706Y-12780460D02*
X12870182Y-12770936D01*
X13155896Y-12656650D02*
X13155896Y-12789984D01*
X13108277Y-12580460D02*
X13060658Y-12723317D01*
X13060658Y-12723317D02*
X13184467Y-12723317D01*
X13251134Y-12589984D02*
X13251134Y-12628079D01*
X13327325Y-12589984D02*
X13327325Y-12628079D01*
X13622563Y-12866174D02*
X13613039Y-12856650D01*
X13613039Y-12856650D02*
X13593991Y-12828079D01*
X13593991Y-12828079D02*
X13584468Y-12809031D01*
X13584468Y-12809031D02*
X13574944Y-12780460D01*
X13574944Y-12780460D02*
X13565420Y-12732841D01*
X13565420Y-12732841D02*
X13565420Y-12694746D01*
X13565420Y-12694746D02*
X13574944Y-12647127D01*
X13574944Y-12647127D02*
X13584468Y-12618555D01*
X13584468Y-12618555D02*
X13593991Y-12599508D01*
X13593991Y-12599508D02*
X13613039Y-12570936D01*
X13613039Y-12570936D02*
X13622563Y-12561412D01*
X13727325Y-12675698D02*
X13708277Y-12666174D01*
X13708277Y-12666174D02*
X13698753Y-12656650D01*
X13698753Y-12656650D02*
X13689229Y-12637603D01*
X13689229Y-12637603D02*
X13689229Y-12628079D01*
X13689229Y-12628079D02*
X13698753Y-12609031D01*
X13698753Y-12609031D02*
X13708277Y-12599508D01*
X13708277Y-12599508D02*
X13727325Y-12589984D01*
X13727325Y-12589984D02*
X13765420Y-12589984D01*
X13765420Y-12589984D02*
X13784468Y-12599508D01*
X13784468Y-12599508D02*
X13793991Y-12609031D01*
X13793991Y-12609031D02*
X13803515Y-12628079D01*
X13803515Y-12628079D02*
X13803515Y-12637603D01*
X13803515Y-12637603D02*
X13793991Y-12656650D01*
X13793991Y-12656650D02*
X13784468Y-12666174D01*
X13784468Y-12666174D02*
X13765420Y-12675698D01*
X13765420Y-12675698D02*
X13727325Y-12675698D01*
X13727325Y-12675698D02*
X13708277Y-12685222D01*
X13708277Y-12685222D02*
X13698753Y-12694746D01*
X13698753Y-12694746D02*
X13689229Y-12713793D01*
X13689229Y-12713793D02*
X13689229Y-12751888D01*
X13689229Y-12751888D02*
X13698753Y-12770936D01*
X13698753Y-12770936D02*
X13708277Y-12780460D01*
X13708277Y-12780460D02*
X13727325Y-12789984D01*
X13727325Y-12789984D02*
X13765420Y-12789984D01*
X13765420Y-12789984D02*
X13784468Y-12780460D01*
X13784468Y-12780460D02*
X13793991Y-12770936D01*
X13793991Y-12770936D02*
X13803515Y-12751888D01*
X13803515Y-12751888D02*
X13803515Y-12713793D01*
X13803515Y-12713793D02*
X13793991Y-12694746D01*
X13793991Y-12694746D02*
X13784468Y-12685222D01*
X13784468Y-12685222D02*
X13765420Y-12675698D01*
X14041610Y-12789984D02*
X14041610Y-12589984D01*
X14127325Y-12789984D02*
X14127325Y-12685222D01*
X14127325Y-12685222D02*
X14117801Y-12666174D01*
X14117801Y-12666174D02*
X14098753Y-12656650D01*
X14098753Y-12656650D02*
X14070182Y-12656650D01*
X14070182Y-12656650D02*
X14051134Y-12666174D01*
X14051134Y-12666174D02*
X14041610Y-12675698D01*
X14251134Y-12789984D02*
X14232087Y-12780460D01*
X14232087Y-12780460D02*
X14222563Y-12770936D01*
X14222563Y-12770936D02*
X14213039Y-12751888D01*
X14213039Y-12751888D02*
X14213039Y-12694746D01*
X14213039Y-12694746D02*
X14222563Y-12675698D01*
X14222563Y-12675698D02*
X14232087Y-12666174D01*
X14232087Y-12666174D02*
X14251134Y-12656650D01*
X14251134Y-12656650D02*
X14279706Y-12656650D01*
X14279706Y-12656650D02*
X14298753Y-12666174D01*
X14298753Y-12666174D02*
X14308277Y-12675698D01*
X14308277Y-12675698D02*
X14317801Y-12694746D01*
X14317801Y-12694746D02*
X14317801Y-12751888D01*
X14317801Y-12751888D02*
X14308277Y-12770936D01*
X14308277Y-12770936D02*
X14298753Y-12780460D01*
X14298753Y-12780460D02*
X14279706Y-12789984D01*
X14279706Y-12789984D02*
X14251134Y-12789984D01*
X14432087Y-12789984D02*
X14413039Y-12780460D01*
X14413039Y-12780460D02*
X14403515Y-12761412D01*
X14403515Y-12761412D02*
X14403515Y-12589984D01*
X14584468Y-12780460D02*
X14565420Y-12789984D01*
X14565420Y-12789984D02*
X14527325Y-12789984D01*
X14527325Y-12789984D02*
X14508277Y-12780460D01*
X14508277Y-12780460D02*
X14498753Y-12761412D01*
X14498753Y-12761412D02*
X14498753Y-12685222D01*
X14498753Y-12685222D02*
X14508277Y-12666174D01*
X14508277Y-12666174D02*
X14527325Y-12656650D01*
X14527325Y-12656650D02*
X14565420Y-12656650D01*
X14565420Y-12656650D02*
X14584468Y-12666174D01*
X14584468Y-12666174D02*
X14593991Y-12685222D01*
X14593991Y-12685222D02*
X14593991Y-12704269D01*
X14593991Y-12704269D02*
X14498753Y-12723317D01*
X14670182Y-12780460D02*
X14689230Y-12789984D01*
X14689230Y-12789984D02*
X14727325Y-12789984D01*
X14727325Y-12789984D02*
X14746372Y-12780460D01*
X14746372Y-12780460D02*
X14755896Y-12761412D01*
X14755896Y-12761412D02*
X14755896Y-12751888D01*
X14755896Y-12751888D02*
X14746372Y-12732841D01*
X14746372Y-12732841D02*
X14727325Y-12723317D01*
X14727325Y-12723317D02*
X14698753Y-12723317D01*
X14698753Y-12723317D02*
X14679706Y-12713793D01*
X14679706Y-12713793D02*
X14670182Y-12694746D01*
X14670182Y-12694746D02*
X14670182Y-12685222D01*
X14670182Y-12685222D02*
X14679706Y-12666174D01*
X14679706Y-12666174D02*
X14698753Y-12656650D01*
X14698753Y-12656650D02*
X14727325Y-12656650D01*
X14727325Y-12656650D02*
X14746372Y-12666174D01*
X14822563Y-12866174D02*
X14832087Y-12856650D01*
X14832087Y-12856650D02*
X14851134Y-12828079D01*
X14851134Y-12828079D02*
X14860658Y-12809031D01*
X14860658Y-12809031D02*
X14870182Y-12780460D01*
X14870182Y-12780460D02*
X14879706Y-12732841D01*
X14879706Y-12732841D02*
X14879706Y-12694746D01*
X14879706Y-12694746D02*
X14870182Y-12647127D01*
X14870182Y-12647127D02*
X14860658Y-12618555D01*
X14860658Y-12618555D02*
X14851134Y-12599508D01*
X14851134Y-12599508D02*
X14832087Y-12570936D01*
X14832087Y-12570936D02*
X14822563Y-12561412D01*
D12*
X9947500Y-12912500D02*
X10047500Y-13012500D01*
X10047500Y-12912500D02*
X9947500Y-13012500D01*
X10047500Y-12962500D02*
G75*
G02*
X9947500Y-12962500I-50000J0D01*
G01*
X9947500Y-12962500D02*
G75*
G02*
X10047500Y-12962500I50000J0D01*
G01*
D11*
X10413039Y-13053984D02*
X10298753Y-13053984D01*
X10355896Y-13053984D02*
X10355896Y-12853984D01*
X10355896Y-12853984D02*
X10336848Y-12882555D01*
X10336848Y-12882555D02*
X10317801Y-12901603D01*
X10317801Y-12901603D02*
X10298753Y-12911127D01*
X10498753Y-13034936D02*
X10508277Y-13044460D01*
X10508277Y-13044460D02*
X10498753Y-13053984D01*
X10498753Y-13053984D02*
X10489229Y-13044460D01*
X10489229Y-13044460D02*
X10498753Y-13034936D01*
X10498753Y-13034936D02*
X10498753Y-13053984D01*
X10632086Y-12853984D02*
X10651134Y-12853984D01*
X10651134Y-12853984D02*
X10670182Y-12863508D01*
X10670182Y-12863508D02*
X10679705Y-12873031D01*
X10679705Y-12873031D02*
X10689229Y-12892079D01*
X10689229Y-12892079D02*
X10698753Y-12930174D01*
X10698753Y-12930174D02*
X10698753Y-12977793D01*
X10698753Y-12977793D02*
X10689229Y-13015888D01*
X10689229Y-13015888D02*
X10679705Y-13034936D01*
X10679705Y-13034936D02*
X10670182Y-13044460D01*
X10670182Y-13044460D02*
X10651134Y-13053984D01*
X10651134Y-13053984D02*
X10632086Y-13053984D01*
X10632086Y-13053984D02*
X10613039Y-13044460D01*
X10613039Y-13044460D02*
X10603515Y-13034936D01*
X10603515Y-13034936D02*
X10593991Y-13015888D01*
X10593991Y-13015888D02*
X10584467Y-12977793D01*
X10584467Y-12977793D02*
X10584467Y-12930174D01*
X10584467Y-12930174D02*
X10593991Y-12892079D01*
X10593991Y-12892079D02*
X10603515Y-12873031D01*
X10603515Y-12873031D02*
X10613039Y-12863508D01*
X10613039Y-12863508D02*
X10632086Y-12853984D01*
X10822563Y-12853984D02*
X10841610Y-12853984D01*
X10841610Y-12853984D02*
X10860658Y-12863508D01*
X10860658Y-12863508D02*
X10870182Y-12873031D01*
X10870182Y-12873031D02*
X10879705Y-12892079D01*
X10879705Y-12892079D02*
X10889229Y-12930174D01*
X10889229Y-12930174D02*
X10889229Y-12977793D01*
X10889229Y-12977793D02*
X10879705Y-13015888D01*
X10879705Y-13015888D02*
X10870182Y-13034936D01*
X10870182Y-13034936D02*
X10860658Y-13044460D01*
X10860658Y-13044460D02*
X10841610Y-13053984D01*
X10841610Y-13053984D02*
X10822563Y-13053984D01*
X10822563Y-13053984D02*
X10803515Y-13044460D01*
X10803515Y-13044460D02*
X10793991Y-13034936D01*
X10793991Y-13034936D02*
X10784467Y-13015888D01*
X10784467Y-13015888D02*
X10774944Y-12977793D01*
X10774944Y-12977793D02*
X10774944Y-12930174D01*
X10774944Y-12930174D02*
X10784467Y-12892079D01*
X10784467Y-12892079D02*
X10793991Y-12873031D01*
X10793991Y-12873031D02*
X10803515Y-12863508D01*
X10803515Y-12863508D02*
X10822563Y-12853984D01*
X11013039Y-12853984D02*
X11032086Y-12853984D01*
X11032086Y-12853984D02*
X11051134Y-12863508D01*
X11051134Y-12863508D02*
X11060658Y-12873031D01*
X11060658Y-12873031D02*
X11070182Y-12892079D01*
X11070182Y-12892079D02*
X11079705Y-12930174D01*
X11079705Y-12930174D02*
X11079705Y-12977793D01*
X11079705Y-12977793D02*
X11070182Y-13015888D01*
X11070182Y-13015888D02*
X11060658Y-13034936D01*
X11060658Y-13034936D02*
X11051134Y-13044460D01*
X11051134Y-13044460D02*
X11032086Y-13053984D01*
X11032086Y-13053984D02*
X11013039Y-13053984D01*
X11013039Y-13053984D02*
X10993991Y-13044460D01*
X10993991Y-13044460D02*
X10984467Y-13034936D01*
X10984467Y-13034936D02*
X10974944Y-13015888D01*
X10974944Y-13015888D02*
X10965420Y-12977793D01*
X10965420Y-12977793D02*
X10965420Y-12930174D01*
X10965420Y-12930174D02*
X10974944Y-12892079D01*
X10974944Y-12892079D02*
X10984467Y-12873031D01*
X10984467Y-12873031D02*
X10993991Y-12863508D01*
X10993991Y-12863508D02*
X11013039Y-12853984D01*
X11165420Y-13053984D02*
X11165420Y-12920650D01*
X11165420Y-12939698D02*
X11174944Y-12930174D01*
X11174944Y-12930174D02*
X11193991Y-12920650D01*
X11193991Y-12920650D02*
X11222563Y-12920650D01*
X11222563Y-12920650D02*
X11241610Y-12930174D01*
X11241610Y-12930174D02*
X11251134Y-12949222D01*
X11251134Y-12949222D02*
X11251134Y-13053984D01*
X11251134Y-12949222D02*
X11260658Y-12930174D01*
X11260658Y-12930174D02*
X11279705Y-12920650D01*
X11279705Y-12920650D02*
X11308277Y-12920650D01*
X11308277Y-12920650D02*
X11327324Y-12930174D01*
X11327324Y-12930174D02*
X11336848Y-12949222D01*
X11336848Y-12949222D02*
X11336848Y-13053984D01*
X11432086Y-13053984D02*
X11432086Y-12920650D01*
X11432086Y-12939698D02*
X11441610Y-12930174D01*
X11441610Y-12930174D02*
X11460658Y-12920650D01*
X11460658Y-12920650D02*
X11489229Y-12920650D01*
X11489229Y-12920650D02*
X11508277Y-12930174D01*
X11508277Y-12930174D02*
X11517801Y-12949222D01*
X11517801Y-12949222D02*
X11517801Y-13053984D01*
X11517801Y-12949222D02*
X11527324Y-12930174D01*
X11527324Y-12930174D02*
X11546372Y-12920650D01*
X11546372Y-12920650D02*
X11574943Y-12920650D01*
X11574943Y-12920650D02*
X11593991Y-12930174D01*
X11593991Y-12930174D02*
X11603515Y-12949222D01*
X11603515Y-12949222D02*
X11603515Y-13053984D01*
X11993991Y-12844460D02*
X11822563Y-13101603D01*
X12251134Y-12853984D02*
X12270182Y-12853984D01*
X12270182Y-12853984D02*
X12289229Y-12863508D01*
X12289229Y-12863508D02*
X12298753Y-12873031D01*
X12298753Y-12873031D02*
X12308277Y-12892079D01*
X12308277Y-12892079D02*
X12317801Y-12930174D01*
X12317801Y-12930174D02*
X12317801Y-12977793D01*
X12317801Y-12977793D02*
X12308277Y-13015888D01*
X12308277Y-13015888D02*
X12298753Y-13034936D01*
X12298753Y-13034936D02*
X12289229Y-13044460D01*
X12289229Y-13044460D02*
X12270182Y-13053984D01*
X12270182Y-13053984D02*
X12251134Y-13053984D01*
X12251134Y-13053984D02*
X12232086Y-13044460D01*
X12232086Y-13044460D02*
X12222563Y-13034936D01*
X12222563Y-13034936D02*
X12213039Y-13015888D01*
X12213039Y-13015888D02*
X12203515Y-12977793D01*
X12203515Y-12977793D02*
X12203515Y-12930174D01*
X12203515Y-12930174D02*
X12213039Y-12892079D01*
X12213039Y-12892079D02*
X12222563Y-12873031D01*
X12222563Y-12873031D02*
X12232086Y-12863508D01*
X12232086Y-12863508D02*
X12251134Y-12853984D01*
X12403515Y-13034936D02*
X12413039Y-13044460D01*
X12413039Y-13044460D02*
X12403515Y-13053984D01*
X12403515Y-13053984D02*
X12393991Y-13044460D01*
X12393991Y-13044460D02*
X12403515Y-13034936D01*
X12403515Y-13034936D02*
X12403515Y-13053984D01*
X12536848Y-12853984D02*
X12555896Y-12853984D01*
X12555896Y-12853984D02*
X12574944Y-12863508D01*
X12574944Y-12863508D02*
X12584467Y-12873031D01*
X12584467Y-12873031D02*
X12593991Y-12892079D01*
X12593991Y-12892079D02*
X12603515Y-12930174D01*
X12603515Y-12930174D02*
X12603515Y-12977793D01*
X12603515Y-12977793D02*
X12593991Y-13015888D01*
X12593991Y-13015888D02*
X12584467Y-13034936D01*
X12584467Y-13034936D02*
X12574944Y-13044460D01*
X12574944Y-13044460D02*
X12555896Y-13053984D01*
X12555896Y-13053984D02*
X12536848Y-13053984D01*
X12536848Y-13053984D02*
X12517801Y-13044460D01*
X12517801Y-13044460D02*
X12508277Y-13034936D01*
X12508277Y-13034936D02*
X12498753Y-13015888D01*
X12498753Y-13015888D02*
X12489229Y-12977793D01*
X12489229Y-12977793D02*
X12489229Y-12930174D01*
X12489229Y-12930174D02*
X12498753Y-12892079D01*
X12498753Y-12892079D02*
X12508277Y-12873031D01*
X12508277Y-12873031D02*
X12517801Y-12863508D01*
X12517801Y-12863508D02*
X12536848Y-12853984D01*
X12670182Y-12853984D02*
X12793991Y-12853984D01*
X12793991Y-12853984D02*
X12727325Y-12930174D01*
X12727325Y-12930174D02*
X12755896Y-12930174D01*
X12755896Y-12930174D02*
X12774944Y-12939698D01*
X12774944Y-12939698D02*
X12784467Y-12949222D01*
X12784467Y-12949222D02*
X12793991Y-12968269D01*
X12793991Y-12968269D02*
X12793991Y-13015888D01*
X12793991Y-13015888D02*
X12784467Y-13034936D01*
X12784467Y-13034936D02*
X12774944Y-13044460D01*
X12774944Y-13044460D02*
X12755896Y-13053984D01*
X12755896Y-13053984D02*
X12698753Y-13053984D01*
X12698753Y-13053984D02*
X12679706Y-13044460D01*
X12679706Y-13044460D02*
X12670182Y-13034936D01*
X12889229Y-13053984D02*
X12927325Y-13053984D01*
X12927325Y-13053984D02*
X12946372Y-13044460D01*
X12946372Y-13044460D02*
X12955896Y-13034936D01*
X12955896Y-13034936D02*
X12974944Y-13006365D01*
X12974944Y-13006365D02*
X12984467Y-12968269D01*
X12984467Y-12968269D02*
X12984467Y-12892079D01*
X12984467Y-12892079D02*
X12974944Y-12873031D01*
X12974944Y-12873031D02*
X12965420Y-12863508D01*
X12965420Y-12863508D02*
X12946372Y-12853984D01*
X12946372Y-12853984D02*
X12908277Y-12853984D01*
X12908277Y-12853984D02*
X12889229Y-12863508D01*
X12889229Y-12863508D02*
X12879706Y-12873031D01*
X12879706Y-12873031D02*
X12870182Y-12892079D01*
X12870182Y-12892079D02*
X12870182Y-12939698D01*
X12870182Y-12939698D02*
X12879706Y-12958746D01*
X12879706Y-12958746D02*
X12889229Y-12968269D01*
X12889229Y-12968269D02*
X12908277Y-12977793D01*
X12908277Y-12977793D02*
X12946372Y-12977793D01*
X12946372Y-12977793D02*
X12965420Y-12968269D01*
X12965420Y-12968269D02*
X12974944Y-12958746D01*
X12974944Y-12958746D02*
X12984467Y-12939698D01*
X13155896Y-12920650D02*
X13155896Y-13053984D01*
X13108277Y-12844460D02*
X13060658Y-12987317D01*
X13060658Y-12987317D02*
X13184467Y-12987317D01*
X13251134Y-12853984D02*
X13251134Y-12892079D01*
X13327325Y-12853984D02*
X13327325Y-12892079D01*
X13622563Y-13130174D02*
X13613039Y-13120650D01*
X13613039Y-13120650D02*
X13593991Y-13092079D01*
X13593991Y-13092079D02*
X13584468Y-13073031D01*
X13584468Y-13073031D02*
X13574944Y-13044460D01*
X13574944Y-13044460D02*
X13565420Y-12996841D01*
X13565420Y-12996841D02*
X13565420Y-12958746D01*
X13565420Y-12958746D02*
X13574944Y-12911127D01*
X13574944Y-12911127D02*
X13584468Y-12882555D01*
X13584468Y-12882555D02*
X13593991Y-12863508D01*
X13593991Y-12863508D02*
X13613039Y-12834936D01*
X13613039Y-12834936D02*
X13622563Y-12825412D01*
X13679706Y-12853984D02*
X13803515Y-12853984D01*
X13803515Y-12853984D02*
X13736848Y-12930174D01*
X13736848Y-12930174D02*
X13765420Y-12930174D01*
X13765420Y-12930174D02*
X13784468Y-12939698D01*
X13784468Y-12939698D02*
X13793991Y-12949222D01*
X13793991Y-12949222D02*
X13803515Y-12968269D01*
X13803515Y-12968269D02*
X13803515Y-13015888D01*
X13803515Y-13015888D02*
X13793991Y-13034936D01*
X13793991Y-13034936D02*
X13784468Y-13044460D01*
X13784468Y-13044460D02*
X13765420Y-13053984D01*
X13765420Y-13053984D02*
X13708277Y-13053984D01*
X13708277Y-13053984D02*
X13689229Y-13044460D01*
X13689229Y-13044460D02*
X13679706Y-13034936D01*
X14041610Y-13053984D02*
X14041610Y-12853984D01*
X14127325Y-13053984D02*
X14127325Y-12949222D01*
X14127325Y-12949222D02*
X14117801Y-12930174D01*
X14117801Y-12930174D02*
X14098753Y-12920650D01*
X14098753Y-12920650D02*
X14070182Y-12920650D01*
X14070182Y-12920650D02*
X14051134Y-12930174D01*
X14051134Y-12930174D02*
X14041610Y-12939698D01*
X14251134Y-13053984D02*
X14232087Y-13044460D01*
X14232087Y-13044460D02*
X14222563Y-13034936D01*
X14222563Y-13034936D02*
X14213039Y-13015888D01*
X14213039Y-13015888D02*
X14213039Y-12958746D01*
X14213039Y-12958746D02*
X14222563Y-12939698D01*
X14222563Y-12939698D02*
X14232087Y-12930174D01*
X14232087Y-12930174D02*
X14251134Y-12920650D01*
X14251134Y-12920650D02*
X14279706Y-12920650D01*
X14279706Y-12920650D02*
X14298753Y-12930174D01*
X14298753Y-12930174D02*
X14308277Y-12939698D01*
X14308277Y-12939698D02*
X14317801Y-12958746D01*
X14317801Y-12958746D02*
X14317801Y-13015888D01*
X14317801Y-13015888D02*
X14308277Y-13034936D01*
X14308277Y-13034936D02*
X14298753Y-13044460D01*
X14298753Y-13044460D02*
X14279706Y-13053984D01*
X14279706Y-13053984D02*
X14251134Y-13053984D01*
X14432087Y-13053984D02*
X14413039Y-13044460D01*
X14413039Y-13044460D02*
X14403515Y-13025412D01*
X14403515Y-13025412D02*
X14403515Y-12853984D01*
X14584468Y-13044460D02*
X14565420Y-13053984D01*
X14565420Y-13053984D02*
X14527325Y-13053984D01*
X14527325Y-13053984D02*
X14508277Y-13044460D01*
X14508277Y-13044460D02*
X14498753Y-13025412D01*
X14498753Y-13025412D02*
X14498753Y-12949222D01*
X14498753Y-12949222D02*
X14508277Y-12930174D01*
X14508277Y-12930174D02*
X14527325Y-12920650D01*
X14527325Y-12920650D02*
X14565420Y-12920650D01*
X14565420Y-12920650D02*
X14584468Y-12930174D01*
X14584468Y-12930174D02*
X14593991Y-12949222D01*
X14593991Y-12949222D02*
X14593991Y-12968269D01*
X14593991Y-12968269D02*
X14498753Y-12987317D01*
X14670182Y-13044460D02*
X14689230Y-13053984D01*
X14689230Y-13053984D02*
X14727325Y-13053984D01*
X14727325Y-13053984D02*
X14746372Y-13044460D01*
X14746372Y-13044460D02*
X14755896Y-13025412D01*
X14755896Y-13025412D02*
X14755896Y-13015888D01*
X14755896Y-13015888D02*
X14746372Y-12996841D01*
X14746372Y-12996841D02*
X14727325Y-12987317D01*
X14727325Y-12987317D02*
X14698753Y-12987317D01*
X14698753Y-12987317D02*
X14679706Y-12977793D01*
X14679706Y-12977793D02*
X14670182Y-12958746D01*
X14670182Y-12958746D02*
X14670182Y-12949222D01*
X14670182Y-12949222D02*
X14679706Y-12930174D01*
X14679706Y-12930174D02*
X14698753Y-12920650D01*
X14698753Y-12920650D02*
X14727325Y-12920650D01*
X14727325Y-12920650D02*
X14746372Y-12930174D01*
X14822563Y-13130174D02*
X14832087Y-13120650D01*
X14832087Y-13120650D02*
X14851134Y-13092079D01*
X14851134Y-13092079D02*
X14860658Y-13073031D01*
X14860658Y-13073031D02*
X14870182Y-13044460D01*
X14870182Y-13044460D02*
X14879706Y-12996841D01*
X14879706Y-12996841D02*
X14879706Y-12958746D01*
X14879706Y-12958746D02*
X14870182Y-12911127D01*
X14870182Y-12911127D02*
X14860658Y-12882555D01*
X14860658Y-12882555D02*
X14851134Y-12863508D01*
X14851134Y-12863508D02*
X14832087Y-12834936D01*
X14832087Y-12834936D02*
X14822563Y-12825412D01*
D13*
X9945500Y-13175500D02*
X10047500Y-13277500D01*
X10047500Y-13175500D02*
X9945500Y-13277500D01*
X9996500Y-13175500D02*
X9996500Y-13277500D01*
X9945500Y-13226500D02*
X10047500Y-13226500D01*
D11*
X10413039Y-13317984D02*
X10298753Y-13317984D01*
X10355896Y-13317984D02*
X10355896Y-13117984D01*
X10355896Y-13117984D02*
X10336848Y-13146555D01*
X10336848Y-13146555D02*
X10317801Y-13165603D01*
X10317801Y-13165603D02*
X10298753Y-13175127D01*
X10498753Y-13298936D02*
X10508277Y-13308460D01*
X10508277Y-13308460D02*
X10498753Y-13317984D01*
X10498753Y-13317984D02*
X10489229Y-13308460D01*
X10489229Y-13308460D02*
X10498753Y-13298936D01*
X10498753Y-13298936D02*
X10498753Y-13317984D01*
X10632086Y-13117984D02*
X10651134Y-13117984D01*
X10651134Y-13117984D02*
X10670182Y-13127508D01*
X10670182Y-13127508D02*
X10679705Y-13137031D01*
X10679705Y-13137031D02*
X10689229Y-13156079D01*
X10689229Y-13156079D02*
X10698753Y-13194174D01*
X10698753Y-13194174D02*
X10698753Y-13241793D01*
X10698753Y-13241793D02*
X10689229Y-13279888D01*
X10689229Y-13279888D02*
X10679705Y-13298936D01*
X10679705Y-13298936D02*
X10670182Y-13308460D01*
X10670182Y-13308460D02*
X10651134Y-13317984D01*
X10651134Y-13317984D02*
X10632086Y-13317984D01*
X10632086Y-13317984D02*
X10613039Y-13308460D01*
X10613039Y-13308460D02*
X10603515Y-13298936D01*
X10603515Y-13298936D02*
X10593991Y-13279888D01*
X10593991Y-13279888D02*
X10584467Y-13241793D01*
X10584467Y-13241793D02*
X10584467Y-13194174D01*
X10584467Y-13194174D02*
X10593991Y-13156079D01*
X10593991Y-13156079D02*
X10603515Y-13137031D01*
X10603515Y-13137031D02*
X10613039Y-13127508D01*
X10613039Y-13127508D02*
X10632086Y-13117984D01*
X10774944Y-13137031D02*
X10784467Y-13127508D01*
X10784467Y-13127508D02*
X10803515Y-13117984D01*
X10803515Y-13117984D02*
X10851134Y-13117984D01*
X10851134Y-13117984D02*
X10870182Y-13127508D01*
X10870182Y-13127508D02*
X10879705Y-13137031D01*
X10879705Y-13137031D02*
X10889229Y-13156079D01*
X10889229Y-13156079D02*
X10889229Y-13175127D01*
X10889229Y-13175127D02*
X10879705Y-13203698D01*
X10879705Y-13203698D02*
X10765420Y-13317984D01*
X10765420Y-13317984D02*
X10889229Y-13317984D01*
X11013039Y-13117984D02*
X11032086Y-13117984D01*
X11032086Y-13117984D02*
X11051134Y-13127508D01*
X11051134Y-13127508D02*
X11060658Y-13137031D01*
X11060658Y-13137031D02*
X11070182Y-13156079D01*
X11070182Y-13156079D02*
X11079705Y-13194174D01*
X11079705Y-13194174D02*
X11079705Y-13241793D01*
X11079705Y-13241793D02*
X11070182Y-13279888D01*
X11070182Y-13279888D02*
X11060658Y-13298936D01*
X11060658Y-13298936D02*
X11051134Y-13308460D01*
X11051134Y-13308460D02*
X11032086Y-13317984D01*
X11032086Y-13317984D02*
X11013039Y-13317984D01*
X11013039Y-13317984D02*
X10993991Y-13308460D01*
X10993991Y-13308460D02*
X10984467Y-13298936D01*
X10984467Y-13298936D02*
X10974944Y-13279888D01*
X10974944Y-13279888D02*
X10965420Y-13241793D01*
X10965420Y-13241793D02*
X10965420Y-13194174D01*
X10965420Y-13194174D02*
X10974944Y-13156079D01*
X10974944Y-13156079D02*
X10984467Y-13137031D01*
X10984467Y-13137031D02*
X10993991Y-13127508D01*
X10993991Y-13127508D02*
X11013039Y-13117984D01*
X11165420Y-13317984D02*
X11165420Y-13184650D01*
X11165420Y-13203698D02*
X11174944Y-13194174D01*
X11174944Y-13194174D02*
X11193991Y-13184650D01*
X11193991Y-13184650D02*
X11222563Y-13184650D01*
X11222563Y-13184650D02*
X11241610Y-13194174D01*
X11241610Y-13194174D02*
X11251134Y-13213222D01*
X11251134Y-13213222D02*
X11251134Y-13317984D01*
X11251134Y-13213222D02*
X11260658Y-13194174D01*
X11260658Y-13194174D02*
X11279705Y-13184650D01*
X11279705Y-13184650D02*
X11308277Y-13184650D01*
X11308277Y-13184650D02*
X11327324Y-13194174D01*
X11327324Y-13194174D02*
X11336848Y-13213222D01*
X11336848Y-13213222D02*
X11336848Y-13317984D01*
X11432086Y-13317984D02*
X11432086Y-13184650D01*
X11432086Y-13203698D02*
X11441610Y-13194174D01*
X11441610Y-13194174D02*
X11460658Y-13184650D01*
X11460658Y-13184650D02*
X11489229Y-13184650D01*
X11489229Y-13184650D02*
X11508277Y-13194174D01*
X11508277Y-13194174D02*
X11517801Y-13213222D01*
X11517801Y-13213222D02*
X11517801Y-13317984D01*
X11517801Y-13213222D02*
X11527324Y-13194174D01*
X11527324Y-13194174D02*
X11546372Y-13184650D01*
X11546372Y-13184650D02*
X11574943Y-13184650D01*
X11574943Y-13184650D02*
X11593991Y-13194174D01*
X11593991Y-13194174D02*
X11603515Y-13213222D01*
X11603515Y-13213222D02*
X11603515Y-13317984D01*
X11993991Y-13108460D02*
X11822563Y-13365603D01*
X12251134Y-13117984D02*
X12270182Y-13117984D01*
X12270182Y-13117984D02*
X12289229Y-13127508D01*
X12289229Y-13127508D02*
X12298753Y-13137031D01*
X12298753Y-13137031D02*
X12308277Y-13156079D01*
X12308277Y-13156079D02*
X12317801Y-13194174D01*
X12317801Y-13194174D02*
X12317801Y-13241793D01*
X12317801Y-13241793D02*
X12308277Y-13279888D01*
X12308277Y-13279888D02*
X12298753Y-13298936D01*
X12298753Y-13298936D02*
X12289229Y-13308460D01*
X12289229Y-13308460D02*
X12270182Y-13317984D01*
X12270182Y-13317984D02*
X12251134Y-13317984D01*
X12251134Y-13317984D02*
X12232086Y-13308460D01*
X12232086Y-13308460D02*
X12222563Y-13298936D01*
X12222563Y-13298936D02*
X12213039Y-13279888D01*
X12213039Y-13279888D02*
X12203515Y-13241793D01*
X12203515Y-13241793D02*
X12203515Y-13194174D01*
X12203515Y-13194174D02*
X12213039Y-13156079D01*
X12213039Y-13156079D02*
X12222563Y-13137031D01*
X12222563Y-13137031D02*
X12232086Y-13127508D01*
X12232086Y-13127508D02*
X12251134Y-13117984D01*
X12403515Y-13298936D02*
X12413039Y-13308460D01*
X12413039Y-13308460D02*
X12403515Y-13317984D01*
X12403515Y-13317984D02*
X12393991Y-13308460D01*
X12393991Y-13308460D02*
X12403515Y-13298936D01*
X12403515Y-13298936D02*
X12403515Y-13317984D01*
X12536848Y-13117984D02*
X12555896Y-13117984D01*
X12555896Y-13117984D02*
X12574944Y-13127508D01*
X12574944Y-13127508D02*
X12584467Y-13137031D01*
X12584467Y-13137031D02*
X12593991Y-13156079D01*
X12593991Y-13156079D02*
X12603515Y-13194174D01*
X12603515Y-13194174D02*
X12603515Y-13241793D01*
X12603515Y-13241793D02*
X12593991Y-13279888D01*
X12593991Y-13279888D02*
X12584467Y-13298936D01*
X12584467Y-13298936D02*
X12574944Y-13308460D01*
X12574944Y-13308460D02*
X12555896Y-13317984D01*
X12555896Y-13317984D02*
X12536848Y-13317984D01*
X12536848Y-13317984D02*
X12517801Y-13308460D01*
X12517801Y-13308460D02*
X12508277Y-13298936D01*
X12508277Y-13298936D02*
X12498753Y-13279888D01*
X12498753Y-13279888D02*
X12489229Y-13241793D01*
X12489229Y-13241793D02*
X12489229Y-13194174D01*
X12489229Y-13194174D02*
X12498753Y-13156079D01*
X12498753Y-13156079D02*
X12508277Y-13137031D01*
X12508277Y-13137031D02*
X12517801Y-13127508D01*
X12517801Y-13127508D02*
X12536848Y-13117984D01*
X12774944Y-13184650D02*
X12774944Y-13317984D01*
X12727325Y-13108460D02*
X12679706Y-13251317D01*
X12679706Y-13251317D02*
X12803515Y-13251317D01*
X12917801Y-13117984D02*
X12936848Y-13117984D01*
X12936848Y-13117984D02*
X12955896Y-13127508D01*
X12955896Y-13127508D02*
X12965420Y-13137031D01*
X12965420Y-13137031D02*
X12974944Y-13156079D01*
X12974944Y-13156079D02*
X12984467Y-13194174D01*
X12984467Y-13194174D02*
X12984467Y-13241793D01*
X12984467Y-13241793D02*
X12974944Y-13279888D01*
X12974944Y-13279888D02*
X12965420Y-13298936D01*
X12965420Y-13298936D02*
X12955896Y-13308460D01*
X12955896Y-13308460D02*
X12936848Y-13317984D01*
X12936848Y-13317984D02*
X12917801Y-13317984D01*
X12917801Y-13317984D02*
X12898753Y-13308460D01*
X12898753Y-13308460D02*
X12889229Y-13298936D01*
X12889229Y-13298936D02*
X12879706Y-13279888D01*
X12879706Y-13279888D02*
X12870182Y-13241793D01*
X12870182Y-13241793D02*
X12870182Y-13194174D01*
X12870182Y-13194174D02*
X12879706Y-13156079D01*
X12879706Y-13156079D02*
X12889229Y-13137031D01*
X12889229Y-13137031D02*
X12898753Y-13127508D01*
X12898753Y-13127508D02*
X12917801Y-13117984D01*
X13060658Y-13137031D02*
X13070182Y-13127508D01*
X13070182Y-13127508D02*
X13089229Y-13117984D01*
X13089229Y-13117984D02*
X13136848Y-13117984D01*
X13136848Y-13117984D02*
X13155896Y-13127508D01*
X13155896Y-13127508D02*
X13165420Y-13137031D01*
X13165420Y-13137031D02*
X13174944Y-13156079D01*
X13174944Y-13156079D02*
X13174944Y-13175127D01*
X13174944Y-13175127D02*
X13165420Y-13203698D01*
X13165420Y-13203698D02*
X13051134Y-13317984D01*
X13051134Y-13317984D02*
X13174944Y-13317984D01*
X13251134Y-13117984D02*
X13251134Y-13156079D01*
X13327325Y-13117984D02*
X13327325Y-13156079D01*
X13622563Y-13394174D02*
X13613039Y-13384650D01*
X13613039Y-13384650D02*
X13593991Y-13356079D01*
X13593991Y-13356079D02*
X13584468Y-13337031D01*
X13584468Y-13337031D02*
X13574944Y-13308460D01*
X13574944Y-13308460D02*
X13565420Y-13260841D01*
X13565420Y-13260841D02*
X13565420Y-13222746D01*
X13565420Y-13222746D02*
X13574944Y-13175127D01*
X13574944Y-13175127D02*
X13584468Y-13146555D01*
X13584468Y-13146555D02*
X13593991Y-13127508D01*
X13593991Y-13127508D02*
X13613039Y-13098936D01*
X13613039Y-13098936D02*
X13622563Y-13089412D01*
X13784468Y-13184650D02*
X13784468Y-13317984D01*
X13736848Y-13108460D02*
X13689229Y-13251317D01*
X13689229Y-13251317D02*
X13813039Y-13251317D01*
X14041610Y-13317984D02*
X14041610Y-13117984D01*
X14127325Y-13317984D02*
X14127325Y-13213222D01*
X14127325Y-13213222D02*
X14117801Y-13194174D01*
X14117801Y-13194174D02*
X14098753Y-13184650D01*
X14098753Y-13184650D02*
X14070182Y-13184650D01*
X14070182Y-13184650D02*
X14051134Y-13194174D01*
X14051134Y-13194174D02*
X14041610Y-13203698D01*
X14251134Y-13317984D02*
X14232087Y-13308460D01*
X14232087Y-13308460D02*
X14222563Y-13298936D01*
X14222563Y-13298936D02*
X14213039Y-13279888D01*
X14213039Y-13279888D02*
X14213039Y-13222746D01*
X14213039Y-13222746D02*
X14222563Y-13203698D01*
X14222563Y-13203698D02*
X14232087Y-13194174D01*
X14232087Y-13194174D02*
X14251134Y-13184650D01*
X14251134Y-13184650D02*
X14279706Y-13184650D01*
X14279706Y-13184650D02*
X14298753Y-13194174D01*
X14298753Y-13194174D02*
X14308277Y-13203698D01*
X14308277Y-13203698D02*
X14317801Y-13222746D01*
X14317801Y-13222746D02*
X14317801Y-13279888D01*
X14317801Y-13279888D02*
X14308277Y-13298936D01*
X14308277Y-13298936D02*
X14298753Y-13308460D01*
X14298753Y-13308460D02*
X14279706Y-13317984D01*
X14279706Y-13317984D02*
X14251134Y-13317984D01*
X14432087Y-13317984D02*
X14413039Y-13308460D01*
X14413039Y-13308460D02*
X14403515Y-13289412D01*
X14403515Y-13289412D02*
X14403515Y-13117984D01*
X14584468Y-13308460D02*
X14565420Y-13317984D01*
X14565420Y-13317984D02*
X14527325Y-13317984D01*
X14527325Y-13317984D02*
X14508277Y-13308460D01*
X14508277Y-13308460D02*
X14498753Y-13289412D01*
X14498753Y-13289412D02*
X14498753Y-13213222D01*
X14498753Y-13213222D02*
X14508277Y-13194174D01*
X14508277Y-13194174D02*
X14527325Y-13184650D01*
X14527325Y-13184650D02*
X14565420Y-13184650D01*
X14565420Y-13184650D02*
X14584468Y-13194174D01*
X14584468Y-13194174D02*
X14593991Y-13213222D01*
X14593991Y-13213222D02*
X14593991Y-13232269D01*
X14593991Y-13232269D02*
X14498753Y-13251317D01*
X14670182Y-13308460D02*
X14689230Y-13317984D01*
X14689230Y-13317984D02*
X14727325Y-13317984D01*
X14727325Y-13317984D02*
X14746372Y-13308460D01*
X14746372Y-13308460D02*
X14755896Y-13289412D01*
X14755896Y-13289412D02*
X14755896Y-13279888D01*
X14755896Y-13279888D02*
X14746372Y-13260841D01*
X14746372Y-13260841D02*
X14727325Y-13251317D01*
X14727325Y-13251317D02*
X14698753Y-13251317D01*
X14698753Y-13251317D02*
X14679706Y-13241793D01*
X14679706Y-13241793D02*
X14670182Y-13222746D01*
X14670182Y-13222746D02*
X14670182Y-13213222D01*
X14670182Y-13213222D02*
X14679706Y-13194174D01*
X14679706Y-13194174D02*
X14698753Y-13184650D01*
X14698753Y-13184650D02*
X14727325Y-13184650D01*
X14727325Y-13184650D02*
X14746372Y-13194174D01*
X14822563Y-13394174D02*
X14832087Y-13384650D01*
X14832087Y-13384650D02*
X14851134Y-13356079D01*
X14851134Y-13356079D02*
X14860658Y-13337031D01*
X14860658Y-13337031D02*
X14870182Y-13308460D01*
X14870182Y-13308460D02*
X14879706Y-13260841D01*
X14879706Y-13260841D02*
X14879706Y-13222746D01*
X14879706Y-13222746D02*
X14870182Y-13175127D01*
X14870182Y-13175127D02*
X14860658Y-13146555D01*
X14860658Y-13146555D02*
X14851134Y-13127508D01*
X14851134Y-13127508D02*
X14832087Y-13098936D01*
X14832087Y-13098936D02*
X14822563Y-13089412D01*
D14*
X9917500Y-13425500D02*
X10047500Y-13555500D01*
X10047500Y-13425500D02*
X9917500Y-13555500D01*
X10028462Y-13536462D02*
X10028462Y-13444538D01*
X9936538Y-13444538D01*
X9936538Y-13536462D01*
X10028462Y-13536462D01*
D11*
X10413039Y-13581984D02*
X10298753Y-13581984D01*
X10355896Y-13581984D02*
X10355896Y-13381984D01*
X10355896Y-13381984D02*
X10336848Y-13410555D01*
X10336848Y-13410555D02*
X10317801Y-13429603D01*
X10317801Y-13429603D02*
X10298753Y-13439127D01*
X10498753Y-13562936D02*
X10508277Y-13572460D01*
X10508277Y-13572460D02*
X10498753Y-13581984D01*
X10498753Y-13581984D02*
X10489229Y-13572460D01*
X10489229Y-13572460D02*
X10498753Y-13562936D01*
X10498753Y-13562936D02*
X10498753Y-13581984D01*
X10574944Y-13381984D02*
X10698753Y-13381984D01*
X10698753Y-13381984D02*
X10632086Y-13458174D01*
X10632086Y-13458174D02*
X10660658Y-13458174D01*
X10660658Y-13458174D02*
X10679705Y-13467698D01*
X10679705Y-13467698D02*
X10689229Y-13477222D01*
X10689229Y-13477222D02*
X10698753Y-13496269D01*
X10698753Y-13496269D02*
X10698753Y-13543888D01*
X10698753Y-13543888D02*
X10689229Y-13562936D01*
X10689229Y-13562936D02*
X10679705Y-13572460D01*
X10679705Y-13572460D02*
X10660658Y-13581984D01*
X10660658Y-13581984D02*
X10603515Y-13581984D01*
X10603515Y-13581984D02*
X10584467Y-13572460D01*
X10584467Y-13572460D02*
X10574944Y-13562936D01*
X10822563Y-13381984D02*
X10841610Y-13381984D01*
X10841610Y-13381984D02*
X10860658Y-13391508D01*
X10860658Y-13391508D02*
X10870182Y-13401031D01*
X10870182Y-13401031D02*
X10879705Y-13420079D01*
X10879705Y-13420079D02*
X10889229Y-13458174D01*
X10889229Y-13458174D02*
X10889229Y-13505793D01*
X10889229Y-13505793D02*
X10879705Y-13543888D01*
X10879705Y-13543888D02*
X10870182Y-13562936D01*
X10870182Y-13562936D02*
X10860658Y-13572460D01*
X10860658Y-13572460D02*
X10841610Y-13581984D01*
X10841610Y-13581984D02*
X10822563Y-13581984D01*
X10822563Y-13581984D02*
X10803515Y-13572460D01*
X10803515Y-13572460D02*
X10793991Y-13562936D01*
X10793991Y-13562936D02*
X10784467Y-13543888D01*
X10784467Y-13543888D02*
X10774944Y-13505793D01*
X10774944Y-13505793D02*
X10774944Y-13458174D01*
X10774944Y-13458174D02*
X10784467Y-13420079D01*
X10784467Y-13420079D02*
X10793991Y-13401031D01*
X10793991Y-13401031D02*
X10803515Y-13391508D01*
X10803515Y-13391508D02*
X10822563Y-13381984D01*
X11013039Y-13381984D02*
X11032086Y-13381984D01*
X11032086Y-13381984D02*
X11051134Y-13391508D01*
X11051134Y-13391508D02*
X11060658Y-13401031D01*
X11060658Y-13401031D02*
X11070182Y-13420079D01*
X11070182Y-13420079D02*
X11079705Y-13458174D01*
X11079705Y-13458174D02*
X11079705Y-13505793D01*
X11079705Y-13505793D02*
X11070182Y-13543888D01*
X11070182Y-13543888D02*
X11060658Y-13562936D01*
X11060658Y-13562936D02*
X11051134Y-13572460D01*
X11051134Y-13572460D02*
X11032086Y-13581984D01*
X11032086Y-13581984D02*
X11013039Y-13581984D01*
X11013039Y-13581984D02*
X10993991Y-13572460D01*
X10993991Y-13572460D02*
X10984467Y-13562936D01*
X10984467Y-13562936D02*
X10974944Y-13543888D01*
X10974944Y-13543888D02*
X10965420Y-13505793D01*
X10965420Y-13505793D02*
X10965420Y-13458174D01*
X10965420Y-13458174D02*
X10974944Y-13420079D01*
X10974944Y-13420079D02*
X10984467Y-13401031D01*
X10984467Y-13401031D02*
X10993991Y-13391508D01*
X10993991Y-13391508D02*
X11013039Y-13381984D01*
X11165420Y-13581984D02*
X11165420Y-13448650D01*
X11165420Y-13467698D02*
X11174944Y-13458174D01*
X11174944Y-13458174D02*
X11193991Y-13448650D01*
X11193991Y-13448650D02*
X11222563Y-13448650D01*
X11222563Y-13448650D02*
X11241610Y-13458174D01*
X11241610Y-13458174D02*
X11251134Y-13477222D01*
X11251134Y-13477222D02*
X11251134Y-13581984D01*
X11251134Y-13477222D02*
X11260658Y-13458174D01*
X11260658Y-13458174D02*
X11279705Y-13448650D01*
X11279705Y-13448650D02*
X11308277Y-13448650D01*
X11308277Y-13448650D02*
X11327324Y-13458174D01*
X11327324Y-13458174D02*
X11336848Y-13477222D01*
X11336848Y-13477222D02*
X11336848Y-13581984D01*
X11432086Y-13581984D02*
X11432086Y-13448650D01*
X11432086Y-13467698D02*
X11441610Y-13458174D01*
X11441610Y-13458174D02*
X11460658Y-13448650D01*
X11460658Y-13448650D02*
X11489229Y-13448650D01*
X11489229Y-13448650D02*
X11508277Y-13458174D01*
X11508277Y-13458174D02*
X11517801Y-13477222D01*
X11517801Y-13477222D02*
X11517801Y-13581984D01*
X11517801Y-13477222D02*
X11527324Y-13458174D01*
X11527324Y-13458174D02*
X11546372Y-13448650D01*
X11546372Y-13448650D02*
X11574943Y-13448650D01*
X11574943Y-13448650D02*
X11593991Y-13458174D01*
X11593991Y-13458174D02*
X11603515Y-13477222D01*
X11603515Y-13477222D02*
X11603515Y-13581984D01*
X11993991Y-13372460D02*
X11822563Y-13629603D01*
X12251134Y-13381984D02*
X12270182Y-13381984D01*
X12270182Y-13381984D02*
X12289229Y-13391508D01*
X12289229Y-13391508D02*
X12298753Y-13401031D01*
X12298753Y-13401031D02*
X12308277Y-13420079D01*
X12308277Y-13420079D02*
X12317801Y-13458174D01*
X12317801Y-13458174D02*
X12317801Y-13505793D01*
X12317801Y-13505793D02*
X12308277Y-13543888D01*
X12308277Y-13543888D02*
X12298753Y-13562936D01*
X12298753Y-13562936D02*
X12289229Y-13572460D01*
X12289229Y-13572460D02*
X12270182Y-13581984D01*
X12270182Y-13581984D02*
X12251134Y-13581984D01*
X12251134Y-13581984D02*
X12232086Y-13572460D01*
X12232086Y-13572460D02*
X12222563Y-13562936D01*
X12222563Y-13562936D02*
X12213039Y-13543888D01*
X12213039Y-13543888D02*
X12203515Y-13505793D01*
X12203515Y-13505793D02*
X12203515Y-13458174D01*
X12203515Y-13458174D02*
X12213039Y-13420079D01*
X12213039Y-13420079D02*
X12222563Y-13401031D01*
X12222563Y-13401031D02*
X12232086Y-13391508D01*
X12232086Y-13391508D02*
X12251134Y-13381984D01*
X12403515Y-13562936D02*
X12413039Y-13572460D01*
X12413039Y-13572460D02*
X12403515Y-13581984D01*
X12403515Y-13581984D02*
X12393991Y-13572460D01*
X12393991Y-13572460D02*
X12403515Y-13562936D01*
X12403515Y-13562936D02*
X12403515Y-13581984D01*
X12536848Y-13381984D02*
X12555896Y-13381984D01*
X12555896Y-13381984D02*
X12574944Y-13391508D01*
X12574944Y-13391508D02*
X12584467Y-13401031D01*
X12584467Y-13401031D02*
X12593991Y-13420079D01*
X12593991Y-13420079D02*
X12603515Y-13458174D01*
X12603515Y-13458174D02*
X12603515Y-13505793D01*
X12603515Y-13505793D02*
X12593991Y-13543888D01*
X12593991Y-13543888D02*
X12584467Y-13562936D01*
X12584467Y-13562936D02*
X12574944Y-13572460D01*
X12574944Y-13572460D02*
X12555896Y-13581984D01*
X12555896Y-13581984D02*
X12536848Y-13581984D01*
X12536848Y-13581984D02*
X12517801Y-13572460D01*
X12517801Y-13572460D02*
X12508277Y-13562936D01*
X12508277Y-13562936D02*
X12498753Y-13543888D01*
X12498753Y-13543888D02*
X12489229Y-13505793D01*
X12489229Y-13505793D02*
X12489229Y-13458174D01*
X12489229Y-13458174D02*
X12498753Y-13420079D01*
X12498753Y-13420079D02*
X12508277Y-13401031D01*
X12508277Y-13401031D02*
X12517801Y-13391508D01*
X12517801Y-13391508D02*
X12536848Y-13381984D01*
X12784467Y-13381984D02*
X12689229Y-13381984D01*
X12689229Y-13381984D02*
X12679706Y-13477222D01*
X12679706Y-13477222D02*
X12689229Y-13467698D01*
X12689229Y-13467698D02*
X12708277Y-13458174D01*
X12708277Y-13458174D02*
X12755896Y-13458174D01*
X12755896Y-13458174D02*
X12774944Y-13467698D01*
X12774944Y-13467698D02*
X12784467Y-13477222D01*
X12784467Y-13477222D02*
X12793991Y-13496269D01*
X12793991Y-13496269D02*
X12793991Y-13543888D01*
X12793991Y-13543888D02*
X12784467Y-13562936D01*
X12784467Y-13562936D02*
X12774944Y-13572460D01*
X12774944Y-13572460D02*
X12755896Y-13581984D01*
X12755896Y-13581984D02*
X12708277Y-13581984D01*
X12708277Y-13581984D02*
X12689229Y-13572460D01*
X12689229Y-13572460D02*
X12679706Y-13562936D01*
X12984467Y-13581984D02*
X12870182Y-13581984D01*
X12927325Y-13581984D02*
X12927325Y-13381984D01*
X12927325Y-13381984D02*
X12908277Y-13410555D01*
X12908277Y-13410555D02*
X12889229Y-13429603D01*
X12889229Y-13429603D02*
X12870182Y-13439127D01*
X13060658Y-13401031D02*
X13070182Y-13391508D01*
X13070182Y-13391508D02*
X13089229Y-13381984D01*
X13089229Y-13381984D02*
X13136848Y-13381984D01*
X13136848Y-13381984D02*
X13155896Y-13391508D01*
X13155896Y-13391508D02*
X13165420Y-13401031D01*
X13165420Y-13401031D02*
X13174944Y-13420079D01*
X13174944Y-13420079D02*
X13174944Y-13439127D01*
X13174944Y-13439127D02*
X13165420Y-13467698D01*
X13165420Y-13467698D02*
X13051134Y-13581984D01*
X13051134Y-13581984D02*
X13174944Y-13581984D01*
X13251134Y-13381984D02*
X13251134Y-13420079D01*
X13327325Y-13381984D02*
X13327325Y-13420079D01*
X13622563Y-13658174D02*
X13613039Y-13648650D01*
X13613039Y-13648650D02*
X13593991Y-13620079D01*
X13593991Y-13620079D02*
X13584468Y-13601031D01*
X13584468Y-13601031D02*
X13574944Y-13572460D01*
X13574944Y-13572460D02*
X13565420Y-13524841D01*
X13565420Y-13524841D02*
X13565420Y-13486746D01*
X13565420Y-13486746D02*
X13574944Y-13439127D01*
X13574944Y-13439127D02*
X13584468Y-13410555D01*
X13584468Y-13410555D02*
X13593991Y-13391508D01*
X13593991Y-13391508D02*
X13613039Y-13362936D01*
X13613039Y-13362936D02*
X13622563Y-13353412D01*
X13689229Y-13401031D02*
X13698753Y-13391508D01*
X13698753Y-13391508D02*
X13717801Y-13381984D01*
X13717801Y-13381984D02*
X13765420Y-13381984D01*
X13765420Y-13381984D02*
X13784468Y-13391508D01*
X13784468Y-13391508D02*
X13793991Y-13401031D01*
X13793991Y-13401031D02*
X13803515Y-13420079D01*
X13803515Y-13420079D02*
X13803515Y-13439127D01*
X13803515Y-13439127D02*
X13793991Y-13467698D01*
X13793991Y-13467698D02*
X13679706Y-13581984D01*
X13679706Y-13581984D02*
X13803515Y-13581984D01*
X14041610Y-13581984D02*
X14041610Y-13381984D01*
X14127325Y-13581984D02*
X14127325Y-13477222D01*
X14127325Y-13477222D02*
X14117801Y-13458174D01*
X14117801Y-13458174D02*
X14098753Y-13448650D01*
X14098753Y-13448650D02*
X14070182Y-13448650D01*
X14070182Y-13448650D02*
X14051134Y-13458174D01*
X14051134Y-13458174D02*
X14041610Y-13467698D01*
X14251134Y-13581984D02*
X14232087Y-13572460D01*
X14232087Y-13572460D02*
X14222563Y-13562936D01*
X14222563Y-13562936D02*
X14213039Y-13543888D01*
X14213039Y-13543888D02*
X14213039Y-13486746D01*
X14213039Y-13486746D02*
X14222563Y-13467698D01*
X14222563Y-13467698D02*
X14232087Y-13458174D01*
X14232087Y-13458174D02*
X14251134Y-13448650D01*
X14251134Y-13448650D02*
X14279706Y-13448650D01*
X14279706Y-13448650D02*
X14298753Y-13458174D01*
X14298753Y-13458174D02*
X14308277Y-13467698D01*
X14308277Y-13467698D02*
X14317801Y-13486746D01*
X14317801Y-13486746D02*
X14317801Y-13543888D01*
X14317801Y-13543888D02*
X14308277Y-13562936D01*
X14308277Y-13562936D02*
X14298753Y-13572460D01*
X14298753Y-13572460D02*
X14279706Y-13581984D01*
X14279706Y-13581984D02*
X14251134Y-13581984D01*
X14432087Y-13581984D02*
X14413039Y-13572460D01*
X14413039Y-13572460D02*
X14403515Y-13553412D01*
X14403515Y-13553412D02*
X14403515Y-13381984D01*
X14584468Y-13572460D02*
X14565420Y-13581984D01*
X14565420Y-13581984D02*
X14527325Y-13581984D01*
X14527325Y-13581984D02*
X14508277Y-13572460D01*
X14508277Y-13572460D02*
X14498753Y-13553412D01*
X14498753Y-13553412D02*
X14498753Y-13477222D01*
X14498753Y-13477222D02*
X14508277Y-13458174D01*
X14508277Y-13458174D02*
X14527325Y-13448650D01*
X14527325Y-13448650D02*
X14565420Y-13448650D01*
X14565420Y-13448650D02*
X14584468Y-13458174D01*
X14584468Y-13458174D02*
X14593991Y-13477222D01*
X14593991Y-13477222D02*
X14593991Y-13496269D01*
X14593991Y-13496269D02*
X14498753Y-13515317D01*
X14670182Y-13572460D02*
X14689230Y-13581984D01*
X14689230Y-13581984D02*
X14727325Y-13581984D01*
X14727325Y-13581984D02*
X14746372Y-13572460D01*
X14746372Y-13572460D02*
X14755896Y-13553412D01*
X14755896Y-13553412D02*
X14755896Y-13543888D01*
X14755896Y-13543888D02*
X14746372Y-13524841D01*
X14746372Y-13524841D02*
X14727325Y-13515317D01*
X14727325Y-13515317D02*
X14698753Y-13515317D01*
X14698753Y-13515317D02*
X14679706Y-13505793D01*
X14679706Y-13505793D02*
X14670182Y-13486746D01*
X14670182Y-13486746D02*
X14670182Y-13477222D01*
X14670182Y-13477222D02*
X14679706Y-13458174D01*
X14679706Y-13458174D02*
X14698753Y-13448650D01*
X14698753Y-13448650D02*
X14727325Y-13448650D01*
X14727325Y-13448650D02*
X14746372Y-13458174D01*
X14822563Y-13658174D02*
X14832087Y-13648650D01*
X14832087Y-13648650D02*
X14851134Y-13620079D01*
X14851134Y-13620079D02*
X14860658Y-13601031D01*
X14860658Y-13601031D02*
X14870182Y-13572460D01*
X14870182Y-13572460D02*
X14879706Y-13524841D01*
X14879706Y-13524841D02*
X14879706Y-13486746D01*
X14879706Y-13486746D02*
X14870182Y-13439127D01*
X14870182Y-13439127D02*
X14860658Y-13410555D01*
X14860658Y-13410555D02*
X14851134Y-13391508D01*
X14851134Y-13391508D02*
X14832087Y-13362936D01*
X14832087Y-13362936D02*
X14822563Y-13353412D01*
D15*
X9907500Y-13684500D02*
X10047500Y-13824500D01*
X10047500Y-13684500D02*
X9907500Y-13824500D01*
X9977500Y-13824500D02*
X10047500Y-13754500D01*
X9977500Y-13684500D01*
X9907500Y-13754500D01*
X9977500Y-13824500D01*
D11*
X10413039Y-13845984D02*
X10298753Y-13845984D01*
X10355896Y-13845984D02*
X10355896Y-13645984D01*
X10355896Y-13645984D02*
X10336848Y-13674555D01*
X10336848Y-13674555D02*
X10317801Y-13693603D01*
X10317801Y-13693603D02*
X10298753Y-13703127D01*
X10498753Y-13826936D02*
X10508277Y-13836460D01*
X10508277Y-13836460D02*
X10498753Y-13845984D01*
X10498753Y-13845984D02*
X10489229Y-13836460D01*
X10489229Y-13836460D02*
X10498753Y-13826936D01*
X10498753Y-13826936D02*
X10498753Y-13845984D01*
X10679705Y-13712650D02*
X10679705Y-13845984D01*
X10632086Y-13636460D02*
X10584467Y-13779317D01*
X10584467Y-13779317D02*
X10708277Y-13779317D01*
X10822563Y-13645984D02*
X10841610Y-13645984D01*
X10841610Y-13645984D02*
X10860658Y-13655508D01*
X10860658Y-13655508D02*
X10870182Y-13665031D01*
X10870182Y-13665031D02*
X10879705Y-13684079D01*
X10879705Y-13684079D02*
X10889229Y-13722174D01*
X10889229Y-13722174D02*
X10889229Y-13769793D01*
X10889229Y-13769793D02*
X10879705Y-13807888D01*
X10879705Y-13807888D02*
X10870182Y-13826936D01*
X10870182Y-13826936D02*
X10860658Y-13836460D01*
X10860658Y-13836460D02*
X10841610Y-13845984D01*
X10841610Y-13845984D02*
X10822563Y-13845984D01*
X10822563Y-13845984D02*
X10803515Y-13836460D01*
X10803515Y-13836460D02*
X10793991Y-13826936D01*
X10793991Y-13826936D02*
X10784467Y-13807888D01*
X10784467Y-13807888D02*
X10774944Y-13769793D01*
X10774944Y-13769793D02*
X10774944Y-13722174D01*
X10774944Y-13722174D02*
X10784467Y-13684079D01*
X10784467Y-13684079D02*
X10793991Y-13665031D01*
X10793991Y-13665031D02*
X10803515Y-13655508D01*
X10803515Y-13655508D02*
X10822563Y-13645984D01*
X11013039Y-13645984D02*
X11032086Y-13645984D01*
X11032086Y-13645984D02*
X11051134Y-13655508D01*
X11051134Y-13655508D02*
X11060658Y-13665031D01*
X11060658Y-13665031D02*
X11070182Y-13684079D01*
X11070182Y-13684079D02*
X11079705Y-13722174D01*
X11079705Y-13722174D02*
X11079705Y-13769793D01*
X11079705Y-13769793D02*
X11070182Y-13807888D01*
X11070182Y-13807888D02*
X11060658Y-13826936D01*
X11060658Y-13826936D02*
X11051134Y-13836460D01*
X11051134Y-13836460D02*
X11032086Y-13845984D01*
X11032086Y-13845984D02*
X11013039Y-13845984D01*
X11013039Y-13845984D02*
X10993991Y-13836460D01*
X10993991Y-13836460D02*
X10984467Y-13826936D01*
X10984467Y-13826936D02*
X10974944Y-13807888D01*
X10974944Y-13807888D02*
X10965420Y-13769793D01*
X10965420Y-13769793D02*
X10965420Y-13722174D01*
X10965420Y-13722174D02*
X10974944Y-13684079D01*
X10974944Y-13684079D02*
X10984467Y-13665031D01*
X10984467Y-13665031D02*
X10993991Y-13655508D01*
X10993991Y-13655508D02*
X11013039Y-13645984D01*
X11165420Y-13845984D02*
X11165420Y-13712650D01*
X11165420Y-13731698D02*
X11174944Y-13722174D01*
X11174944Y-13722174D02*
X11193991Y-13712650D01*
X11193991Y-13712650D02*
X11222563Y-13712650D01*
X11222563Y-13712650D02*
X11241610Y-13722174D01*
X11241610Y-13722174D02*
X11251134Y-13741222D01*
X11251134Y-13741222D02*
X11251134Y-13845984D01*
X11251134Y-13741222D02*
X11260658Y-13722174D01*
X11260658Y-13722174D02*
X11279705Y-13712650D01*
X11279705Y-13712650D02*
X11308277Y-13712650D01*
X11308277Y-13712650D02*
X11327324Y-13722174D01*
X11327324Y-13722174D02*
X11336848Y-13741222D01*
X11336848Y-13741222D02*
X11336848Y-13845984D01*
X11432086Y-13845984D02*
X11432086Y-13712650D01*
X11432086Y-13731698D02*
X11441610Y-13722174D01*
X11441610Y-13722174D02*
X11460658Y-13712650D01*
X11460658Y-13712650D02*
X11489229Y-13712650D01*
X11489229Y-13712650D02*
X11508277Y-13722174D01*
X11508277Y-13722174D02*
X11517801Y-13741222D01*
X11517801Y-13741222D02*
X11517801Y-13845984D01*
X11517801Y-13741222D02*
X11527324Y-13722174D01*
X11527324Y-13722174D02*
X11546372Y-13712650D01*
X11546372Y-13712650D02*
X11574943Y-13712650D01*
X11574943Y-13712650D02*
X11593991Y-13722174D01*
X11593991Y-13722174D02*
X11603515Y-13741222D01*
X11603515Y-13741222D02*
X11603515Y-13845984D01*
X11993991Y-13636460D02*
X11822563Y-13893603D01*
X12251134Y-13645984D02*
X12270182Y-13645984D01*
X12270182Y-13645984D02*
X12289229Y-13655508D01*
X12289229Y-13655508D02*
X12298753Y-13665031D01*
X12298753Y-13665031D02*
X12308277Y-13684079D01*
X12308277Y-13684079D02*
X12317801Y-13722174D01*
X12317801Y-13722174D02*
X12317801Y-13769793D01*
X12317801Y-13769793D02*
X12308277Y-13807888D01*
X12308277Y-13807888D02*
X12298753Y-13826936D01*
X12298753Y-13826936D02*
X12289229Y-13836460D01*
X12289229Y-13836460D02*
X12270182Y-13845984D01*
X12270182Y-13845984D02*
X12251134Y-13845984D01*
X12251134Y-13845984D02*
X12232086Y-13836460D01*
X12232086Y-13836460D02*
X12222563Y-13826936D01*
X12222563Y-13826936D02*
X12213039Y-13807888D01*
X12213039Y-13807888D02*
X12203515Y-13769793D01*
X12203515Y-13769793D02*
X12203515Y-13722174D01*
X12203515Y-13722174D02*
X12213039Y-13684079D01*
X12213039Y-13684079D02*
X12222563Y-13665031D01*
X12222563Y-13665031D02*
X12232086Y-13655508D01*
X12232086Y-13655508D02*
X12251134Y-13645984D01*
X12403515Y-13826936D02*
X12413039Y-13836460D01*
X12413039Y-13836460D02*
X12403515Y-13845984D01*
X12403515Y-13845984D02*
X12393991Y-13836460D01*
X12393991Y-13836460D02*
X12403515Y-13826936D01*
X12403515Y-13826936D02*
X12403515Y-13845984D01*
X12536848Y-13645984D02*
X12555896Y-13645984D01*
X12555896Y-13645984D02*
X12574944Y-13655508D01*
X12574944Y-13655508D02*
X12584467Y-13665031D01*
X12584467Y-13665031D02*
X12593991Y-13684079D01*
X12593991Y-13684079D02*
X12603515Y-13722174D01*
X12603515Y-13722174D02*
X12603515Y-13769793D01*
X12603515Y-13769793D02*
X12593991Y-13807888D01*
X12593991Y-13807888D02*
X12584467Y-13826936D01*
X12584467Y-13826936D02*
X12574944Y-13836460D01*
X12574944Y-13836460D02*
X12555896Y-13845984D01*
X12555896Y-13845984D02*
X12536848Y-13845984D01*
X12536848Y-13845984D02*
X12517801Y-13836460D01*
X12517801Y-13836460D02*
X12508277Y-13826936D01*
X12508277Y-13826936D02*
X12498753Y-13807888D01*
X12498753Y-13807888D02*
X12489229Y-13769793D01*
X12489229Y-13769793D02*
X12489229Y-13722174D01*
X12489229Y-13722174D02*
X12498753Y-13684079D01*
X12498753Y-13684079D02*
X12508277Y-13665031D01*
X12508277Y-13665031D02*
X12517801Y-13655508D01*
X12517801Y-13655508D02*
X12536848Y-13645984D01*
X12784467Y-13645984D02*
X12689229Y-13645984D01*
X12689229Y-13645984D02*
X12679706Y-13741222D01*
X12679706Y-13741222D02*
X12689229Y-13731698D01*
X12689229Y-13731698D02*
X12708277Y-13722174D01*
X12708277Y-13722174D02*
X12755896Y-13722174D01*
X12755896Y-13722174D02*
X12774944Y-13731698D01*
X12774944Y-13731698D02*
X12784467Y-13741222D01*
X12784467Y-13741222D02*
X12793991Y-13760269D01*
X12793991Y-13760269D02*
X12793991Y-13807888D01*
X12793991Y-13807888D02*
X12784467Y-13826936D01*
X12784467Y-13826936D02*
X12774944Y-13836460D01*
X12774944Y-13836460D02*
X12755896Y-13845984D01*
X12755896Y-13845984D02*
X12708277Y-13845984D01*
X12708277Y-13845984D02*
X12689229Y-13836460D01*
X12689229Y-13836460D02*
X12679706Y-13826936D01*
X12974944Y-13645984D02*
X12879706Y-13645984D01*
X12879706Y-13645984D02*
X12870182Y-13741222D01*
X12870182Y-13741222D02*
X12879706Y-13731698D01*
X12879706Y-13731698D02*
X12898753Y-13722174D01*
X12898753Y-13722174D02*
X12946372Y-13722174D01*
X12946372Y-13722174D02*
X12965420Y-13731698D01*
X12965420Y-13731698D02*
X12974944Y-13741222D01*
X12974944Y-13741222D02*
X12984467Y-13760269D01*
X12984467Y-13760269D02*
X12984467Y-13807888D01*
X12984467Y-13807888D02*
X12974944Y-13826936D01*
X12974944Y-13826936D02*
X12965420Y-13836460D01*
X12965420Y-13836460D02*
X12946372Y-13845984D01*
X12946372Y-13845984D02*
X12898753Y-13845984D01*
X12898753Y-13845984D02*
X12879706Y-13836460D01*
X12879706Y-13836460D02*
X12870182Y-13826936D01*
X13174944Y-13845984D02*
X13060658Y-13845984D01*
X13117801Y-13845984D02*
X13117801Y-13645984D01*
X13117801Y-13645984D02*
X13098753Y-13674555D01*
X13098753Y-13674555D02*
X13079706Y-13693603D01*
X13079706Y-13693603D02*
X13060658Y-13703127D01*
X13251134Y-13645984D02*
X13251134Y-13684079D01*
X13327325Y-13645984D02*
X13327325Y-13684079D01*
X13622563Y-13922174D02*
X13613039Y-13912650D01*
X13613039Y-13912650D02*
X13593991Y-13884079D01*
X13593991Y-13884079D02*
X13584468Y-13865031D01*
X13584468Y-13865031D02*
X13574944Y-13836460D01*
X13574944Y-13836460D02*
X13565420Y-13788841D01*
X13565420Y-13788841D02*
X13565420Y-13750746D01*
X13565420Y-13750746D02*
X13574944Y-13703127D01*
X13574944Y-13703127D02*
X13584468Y-13674555D01*
X13584468Y-13674555D02*
X13593991Y-13655508D01*
X13593991Y-13655508D02*
X13613039Y-13626936D01*
X13613039Y-13626936D02*
X13622563Y-13617412D01*
X13689229Y-13665031D02*
X13698753Y-13655508D01*
X13698753Y-13655508D02*
X13717801Y-13645984D01*
X13717801Y-13645984D02*
X13765420Y-13645984D01*
X13765420Y-13645984D02*
X13784468Y-13655508D01*
X13784468Y-13655508D02*
X13793991Y-13665031D01*
X13793991Y-13665031D02*
X13803515Y-13684079D01*
X13803515Y-13684079D02*
X13803515Y-13703127D01*
X13803515Y-13703127D02*
X13793991Y-13731698D01*
X13793991Y-13731698D02*
X13679706Y-13845984D01*
X13679706Y-13845984D02*
X13803515Y-13845984D01*
X14041610Y-13845984D02*
X14041610Y-13645984D01*
X14127325Y-13845984D02*
X14127325Y-13741222D01*
X14127325Y-13741222D02*
X14117801Y-13722174D01*
X14117801Y-13722174D02*
X14098753Y-13712650D01*
X14098753Y-13712650D02*
X14070182Y-13712650D01*
X14070182Y-13712650D02*
X14051134Y-13722174D01*
X14051134Y-13722174D02*
X14041610Y-13731698D01*
X14251134Y-13845984D02*
X14232087Y-13836460D01*
X14232087Y-13836460D02*
X14222563Y-13826936D01*
X14222563Y-13826936D02*
X14213039Y-13807888D01*
X14213039Y-13807888D02*
X14213039Y-13750746D01*
X14213039Y-13750746D02*
X14222563Y-13731698D01*
X14222563Y-13731698D02*
X14232087Y-13722174D01*
X14232087Y-13722174D02*
X14251134Y-13712650D01*
X14251134Y-13712650D02*
X14279706Y-13712650D01*
X14279706Y-13712650D02*
X14298753Y-13722174D01*
X14298753Y-13722174D02*
X14308277Y-13731698D01*
X14308277Y-13731698D02*
X14317801Y-13750746D01*
X14317801Y-13750746D02*
X14317801Y-13807888D01*
X14317801Y-13807888D02*
X14308277Y-13826936D01*
X14308277Y-13826936D02*
X14298753Y-13836460D01*
X14298753Y-13836460D02*
X14279706Y-13845984D01*
X14279706Y-13845984D02*
X14251134Y-13845984D01*
X14432087Y-13845984D02*
X14413039Y-13836460D01*
X14413039Y-13836460D02*
X14403515Y-13817412D01*
X14403515Y-13817412D02*
X14403515Y-13645984D01*
X14584468Y-13836460D02*
X14565420Y-13845984D01*
X14565420Y-13845984D02*
X14527325Y-13845984D01*
X14527325Y-13845984D02*
X14508277Y-13836460D01*
X14508277Y-13836460D02*
X14498753Y-13817412D01*
X14498753Y-13817412D02*
X14498753Y-13741222D01*
X14498753Y-13741222D02*
X14508277Y-13722174D01*
X14508277Y-13722174D02*
X14527325Y-13712650D01*
X14527325Y-13712650D02*
X14565420Y-13712650D01*
X14565420Y-13712650D02*
X14584468Y-13722174D01*
X14584468Y-13722174D02*
X14593991Y-13741222D01*
X14593991Y-13741222D02*
X14593991Y-13760269D01*
X14593991Y-13760269D02*
X14498753Y-13779317D01*
X14670182Y-13836460D02*
X14689230Y-13845984D01*
X14689230Y-13845984D02*
X14727325Y-13845984D01*
X14727325Y-13845984D02*
X14746372Y-13836460D01*
X14746372Y-13836460D02*
X14755896Y-13817412D01*
X14755896Y-13817412D02*
X14755896Y-13807888D01*
X14755896Y-13807888D02*
X14746372Y-13788841D01*
X14746372Y-13788841D02*
X14727325Y-13779317D01*
X14727325Y-13779317D02*
X14698753Y-13779317D01*
X14698753Y-13779317D02*
X14679706Y-13769793D01*
X14679706Y-13769793D02*
X14670182Y-13750746D01*
X14670182Y-13750746D02*
X14670182Y-13741222D01*
X14670182Y-13741222D02*
X14679706Y-13722174D01*
X14679706Y-13722174D02*
X14698753Y-13712650D01*
X14698753Y-13712650D02*
X14727325Y-13712650D01*
X14727325Y-13712650D02*
X14746372Y-13722174D01*
X14822563Y-13922174D02*
X14832087Y-13912650D01*
X14832087Y-13912650D02*
X14851134Y-13884079D01*
X14851134Y-13884079D02*
X14860658Y-13865031D01*
X14860658Y-13865031D02*
X14870182Y-13836460D01*
X14870182Y-13836460D02*
X14879706Y-13788841D01*
X14879706Y-13788841D02*
X14879706Y-13750746D01*
X14879706Y-13750746D02*
X14870182Y-13703127D01*
X14870182Y-13703127D02*
X14860658Y-13674555D01*
X14860658Y-13674555D02*
X14851134Y-13655508D01*
X14851134Y-13655508D02*
X14832087Y-13626936D01*
X14832087Y-13626936D02*
X14822563Y-13617412D01*
D16*
X9967500Y-13938500D02*
X9967500Y-14098500D01*
X9887500Y-14018500D02*
X10047500Y-14018500D01*
X10047500Y-14018500D02*
G75*
G02*
X9887500Y-14018500I-80000J0D01*
G01*
X9887500Y-14018500D02*
G75*
G02*
X10047500Y-14018500I80000J0D01*
G01*
D11*
X10413039Y-14109984D02*
X10298753Y-14109984D01*
X10355896Y-14109984D02*
X10355896Y-13909984D01*
X10355896Y-13909984D02*
X10336848Y-13938555D01*
X10336848Y-13938555D02*
X10317801Y-13957603D01*
X10317801Y-13957603D02*
X10298753Y-13967127D01*
X10498753Y-14090936D02*
X10508277Y-14100460D01*
X10508277Y-14100460D02*
X10498753Y-14109984D01*
X10498753Y-14109984D02*
X10489229Y-14100460D01*
X10489229Y-14100460D02*
X10498753Y-14090936D01*
X10498753Y-14090936D02*
X10498753Y-14109984D01*
X10679705Y-13909984D02*
X10641610Y-13909984D01*
X10641610Y-13909984D02*
X10622563Y-13919508D01*
X10622563Y-13919508D02*
X10613039Y-13929031D01*
X10613039Y-13929031D02*
X10593991Y-13957603D01*
X10593991Y-13957603D02*
X10584467Y-13995698D01*
X10584467Y-13995698D02*
X10584467Y-14071888D01*
X10584467Y-14071888D02*
X10593991Y-14090936D01*
X10593991Y-14090936D02*
X10603515Y-14100460D01*
X10603515Y-14100460D02*
X10622563Y-14109984D01*
X10622563Y-14109984D02*
X10660658Y-14109984D01*
X10660658Y-14109984D02*
X10679705Y-14100460D01*
X10679705Y-14100460D02*
X10689229Y-14090936D01*
X10689229Y-14090936D02*
X10698753Y-14071888D01*
X10698753Y-14071888D02*
X10698753Y-14024269D01*
X10698753Y-14024269D02*
X10689229Y-14005222D01*
X10689229Y-14005222D02*
X10679705Y-13995698D01*
X10679705Y-13995698D02*
X10660658Y-13986174D01*
X10660658Y-13986174D02*
X10622563Y-13986174D01*
X10622563Y-13986174D02*
X10603515Y-13995698D01*
X10603515Y-13995698D02*
X10593991Y-14005222D01*
X10593991Y-14005222D02*
X10584467Y-14024269D01*
X10822563Y-13909984D02*
X10841610Y-13909984D01*
X10841610Y-13909984D02*
X10860658Y-13919508D01*
X10860658Y-13919508D02*
X10870182Y-13929031D01*
X10870182Y-13929031D02*
X10879705Y-13948079D01*
X10879705Y-13948079D02*
X10889229Y-13986174D01*
X10889229Y-13986174D02*
X10889229Y-14033793D01*
X10889229Y-14033793D02*
X10879705Y-14071888D01*
X10879705Y-14071888D02*
X10870182Y-14090936D01*
X10870182Y-14090936D02*
X10860658Y-14100460D01*
X10860658Y-14100460D02*
X10841610Y-14109984D01*
X10841610Y-14109984D02*
X10822563Y-14109984D01*
X10822563Y-14109984D02*
X10803515Y-14100460D01*
X10803515Y-14100460D02*
X10793991Y-14090936D01*
X10793991Y-14090936D02*
X10784467Y-14071888D01*
X10784467Y-14071888D02*
X10774944Y-14033793D01*
X10774944Y-14033793D02*
X10774944Y-13986174D01*
X10774944Y-13986174D02*
X10784467Y-13948079D01*
X10784467Y-13948079D02*
X10793991Y-13929031D01*
X10793991Y-13929031D02*
X10803515Y-13919508D01*
X10803515Y-13919508D02*
X10822563Y-13909984D01*
X11013039Y-13909984D02*
X11032086Y-13909984D01*
X11032086Y-13909984D02*
X11051134Y-13919508D01*
X11051134Y-13919508D02*
X11060658Y-13929031D01*
X11060658Y-13929031D02*
X11070182Y-13948079D01*
X11070182Y-13948079D02*
X11079705Y-13986174D01*
X11079705Y-13986174D02*
X11079705Y-14033793D01*
X11079705Y-14033793D02*
X11070182Y-14071888D01*
X11070182Y-14071888D02*
X11060658Y-14090936D01*
X11060658Y-14090936D02*
X11051134Y-14100460D01*
X11051134Y-14100460D02*
X11032086Y-14109984D01*
X11032086Y-14109984D02*
X11013039Y-14109984D01*
X11013039Y-14109984D02*
X10993991Y-14100460D01*
X10993991Y-14100460D02*
X10984467Y-14090936D01*
X10984467Y-14090936D02*
X10974944Y-14071888D01*
X10974944Y-14071888D02*
X10965420Y-14033793D01*
X10965420Y-14033793D02*
X10965420Y-13986174D01*
X10965420Y-13986174D02*
X10974944Y-13948079D01*
X10974944Y-13948079D02*
X10984467Y-13929031D01*
X10984467Y-13929031D02*
X10993991Y-13919508D01*
X10993991Y-13919508D02*
X11013039Y-13909984D01*
X11165420Y-14109984D02*
X11165420Y-13976650D01*
X11165420Y-13995698D02*
X11174944Y-13986174D01*
X11174944Y-13986174D02*
X11193991Y-13976650D01*
X11193991Y-13976650D02*
X11222563Y-13976650D01*
X11222563Y-13976650D02*
X11241610Y-13986174D01*
X11241610Y-13986174D02*
X11251134Y-14005222D01*
X11251134Y-14005222D02*
X11251134Y-14109984D01*
X11251134Y-14005222D02*
X11260658Y-13986174D01*
X11260658Y-13986174D02*
X11279705Y-13976650D01*
X11279705Y-13976650D02*
X11308277Y-13976650D01*
X11308277Y-13976650D02*
X11327324Y-13986174D01*
X11327324Y-13986174D02*
X11336848Y-14005222D01*
X11336848Y-14005222D02*
X11336848Y-14109984D01*
X11432086Y-14109984D02*
X11432086Y-13976650D01*
X11432086Y-13995698D02*
X11441610Y-13986174D01*
X11441610Y-13986174D02*
X11460658Y-13976650D01*
X11460658Y-13976650D02*
X11489229Y-13976650D01*
X11489229Y-13976650D02*
X11508277Y-13986174D01*
X11508277Y-13986174D02*
X11517801Y-14005222D01*
X11517801Y-14005222D02*
X11517801Y-14109984D01*
X11517801Y-14005222D02*
X11527324Y-13986174D01*
X11527324Y-13986174D02*
X11546372Y-13976650D01*
X11546372Y-13976650D02*
X11574943Y-13976650D01*
X11574943Y-13976650D02*
X11593991Y-13986174D01*
X11593991Y-13986174D02*
X11603515Y-14005222D01*
X11603515Y-14005222D02*
X11603515Y-14109984D01*
X11993991Y-13900460D02*
X11822563Y-14157603D01*
X12251134Y-13909984D02*
X12270182Y-13909984D01*
X12270182Y-13909984D02*
X12289229Y-13919508D01*
X12289229Y-13919508D02*
X12298753Y-13929031D01*
X12298753Y-13929031D02*
X12308277Y-13948079D01*
X12308277Y-13948079D02*
X12317801Y-13986174D01*
X12317801Y-13986174D02*
X12317801Y-14033793D01*
X12317801Y-14033793D02*
X12308277Y-14071888D01*
X12308277Y-14071888D02*
X12298753Y-14090936D01*
X12298753Y-14090936D02*
X12289229Y-14100460D01*
X12289229Y-14100460D02*
X12270182Y-14109984D01*
X12270182Y-14109984D02*
X12251134Y-14109984D01*
X12251134Y-14109984D02*
X12232086Y-14100460D01*
X12232086Y-14100460D02*
X12222563Y-14090936D01*
X12222563Y-14090936D02*
X12213039Y-14071888D01*
X12213039Y-14071888D02*
X12203515Y-14033793D01*
X12203515Y-14033793D02*
X12203515Y-13986174D01*
X12203515Y-13986174D02*
X12213039Y-13948079D01*
X12213039Y-13948079D02*
X12222563Y-13929031D01*
X12222563Y-13929031D02*
X12232086Y-13919508D01*
X12232086Y-13919508D02*
X12251134Y-13909984D01*
X12403515Y-14090936D02*
X12413039Y-14100460D01*
X12413039Y-14100460D02*
X12403515Y-14109984D01*
X12403515Y-14109984D02*
X12393991Y-14100460D01*
X12393991Y-14100460D02*
X12403515Y-14090936D01*
X12403515Y-14090936D02*
X12403515Y-14109984D01*
X12536848Y-13909984D02*
X12555896Y-13909984D01*
X12555896Y-13909984D02*
X12574944Y-13919508D01*
X12574944Y-13919508D02*
X12584467Y-13929031D01*
X12584467Y-13929031D02*
X12593991Y-13948079D01*
X12593991Y-13948079D02*
X12603515Y-13986174D01*
X12603515Y-13986174D02*
X12603515Y-14033793D01*
X12603515Y-14033793D02*
X12593991Y-14071888D01*
X12593991Y-14071888D02*
X12584467Y-14090936D01*
X12584467Y-14090936D02*
X12574944Y-14100460D01*
X12574944Y-14100460D02*
X12555896Y-14109984D01*
X12555896Y-14109984D02*
X12536848Y-14109984D01*
X12536848Y-14109984D02*
X12517801Y-14100460D01*
X12517801Y-14100460D02*
X12508277Y-14090936D01*
X12508277Y-14090936D02*
X12498753Y-14071888D01*
X12498753Y-14071888D02*
X12489229Y-14033793D01*
X12489229Y-14033793D02*
X12489229Y-13986174D01*
X12489229Y-13986174D02*
X12498753Y-13948079D01*
X12498753Y-13948079D02*
X12508277Y-13929031D01*
X12508277Y-13929031D02*
X12517801Y-13919508D01*
X12517801Y-13919508D02*
X12536848Y-13909984D01*
X12774944Y-13909984D02*
X12736848Y-13909984D01*
X12736848Y-13909984D02*
X12717801Y-13919508D01*
X12717801Y-13919508D02*
X12708277Y-13929031D01*
X12708277Y-13929031D02*
X12689229Y-13957603D01*
X12689229Y-13957603D02*
X12679706Y-13995698D01*
X12679706Y-13995698D02*
X12679706Y-14071888D01*
X12679706Y-14071888D02*
X12689229Y-14090936D01*
X12689229Y-14090936D02*
X12698753Y-14100460D01*
X12698753Y-14100460D02*
X12717801Y-14109984D01*
X12717801Y-14109984D02*
X12755896Y-14109984D01*
X12755896Y-14109984D02*
X12774944Y-14100460D01*
X12774944Y-14100460D02*
X12784467Y-14090936D01*
X12784467Y-14090936D02*
X12793991Y-14071888D01*
X12793991Y-14071888D02*
X12793991Y-14024269D01*
X12793991Y-14024269D02*
X12784467Y-14005222D01*
X12784467Y-14005222D02*
X12774944Y-13995698D01*
X12774944Y-13995698D02*
X12755896Y-13986174D01*
X12755896Y-13986174D02*
X12717801Y-13986174D01*
X12717801Y-13986174D02*
X12698753Y-13995698D01*
X12698753Y-13995698D02*
X12689229Y-14005222D01*
X12689229Y-14005222D02*
X12679706Y-14024269D01*
X12860658Y-13909984D02*
X12984467Y-13909984D01*
X12984467Y-13909984D02*
X12917801Y-13986174D01*
X12917801Y-13986174D02*
X12946372Y-13986174D01*
X12946372Y-13986174D02*
X12965420Y-13995698D01*
X12965420Y-13995698D02*
X12974944Y-14005222D01*
X12974944Y-14005222D02*
X12984467Y-14024269D01*
X12984467Y-14024269D02*
X12984467Y-14071888D01*
X12984467Y-14071888D02*
X12974944Y-14090936D01*
X12974944Y-14090936D02*
X12965420Y-14100460D01*
X12965420Y-14100460D02*
X12946372Y-14109984D01*
X12946372Y-14109984D02*
X12889229Y-14109984D01*
X12889229Y-14109984D02*
X12870182Y-14100460D01*
X12870182Y-14100460D02*
X12860658Y-14090936D01*
X13108277Y-13909984D02*
X13127325Y-13909984D01*
X13127325Y-13909984D02*
X13146372Y-13919508D01*
X13146372Y-13919508D02*
X13155896Y-13929031D01*
X13155896Y-13929031D02*
X13165420Y-13948079D01*
X13165420Y-13948079D02*
X13174944Y-13986174D01*
X13174944Y-13986174D02*
X13174944Y-14033793D01*
X13174944Y-14033793D02*
X13165420Y-14071888D01*
X13165420Y-14071888D02*
X13155896Y-14090936D01*
X13155896Y-14090936D02*
X13146372Y-14100460D01*
X13146372Y-14100460D02*
X13127325Y-14109984D01*
X13127325Y-14109984D02*
X13108277Y-14109984D01*
X13108277Y-14109984D02*
X13089229Y-14100460D01*
X13089229Y-14100460D02*
X13079706Y-14090936D01*
X13079706Y-14090936D02*
X13070182Y-14071888D01*
X13070182Y-14071888D02*
X13060658Y-14033793D01*
X13060658Y-14033793D02*
X13060658Y-13986174D01*
X13060658Y-13986174D02*
X13070182Y-13948079D01*
X13070182Y-13948079D02*
X13079706Y-13929031D01*
X13079706Y-13929031D02*
X13089229Y-13919508D01*
X13089229Y-13919508D02*
X13108277Y-13909984D01*
X13251134Y-13909984D02*
X13251134Y-13948079D01*
X13327325Y-13909984D02*
X13327325Y-13948079D01*
X13622563Y-14186174D02*
X13613039Y-14176650D01*
X13613039Y-14176650D02*
X13593991Y-14148079D01*
X13593991Y-14148079D02*
X13584468Y-14129031D01*
X13584468Y-14129031D02*
X13574944Y-14100460D01*
X13574944Y-14100460D02*
X13565420Y-14052841D01*
X13565420Y-14052841D02*
X13565420Y-14014746D01*
X13565420Y-14014746D02*
X13574944Y-13967127D01*
X13574944Y-13967127D02*
X13584468Y-13938555D01*
X13584468Y-13938555D02*
X13593991Y-13919508D01*
X13593991Y-13919508D02*
X13613039Y-13890936D01*
X13613039Y-13890936D02*
X13622563Y-13881412D01*
X13689229Y-13929031D02*
X13698753Y-13919508D01*
X13698753Y-13919508D02*
X13717801Y-13909984D01*
X13717801Y-13909984D02*
X13765420Y-13909984D01*
X13765420Y-13909984D02*
X13784468Y-13919508D01*
X13784468Y-13919508D02*
X13793991Y-13929031D01*
X13793991Y-13929031D02*
X13803515Y-13948079D01*
X13803515Y-13948079D02*
X13803515Y-13967127D01*
X13803515Y-13967127D02*
X13793991Y-13995698D01*
X13793991Y-13995698D02*
X13679706Y-14109984D01*
X13679706Y-14109984D02*
X13803515Y-14109984D01*
X14041610Y-14109984D02*
X14041610Y-13909984D01*
X14127325Y-14109984D02*
X14127325Y-14005222D01*
X14127325Y-14005222D02*
X14117801Y-13986174D01*
X14117801Y-13986174D02*
X14098753Y-13976650D01*
X14098753Y-13976650D02*
X14070182Y-13976650D01*
X14070182Y-13976650D02*
X14051134Y-13986174D01*
X14051134Y-13986174D02*
X14041610Y-13995698D01*
X14251134Y-14109984D02*
X14232087Y-14100460D01*
X14232087Y-14100460D02*
X14222563Y-14090936D01*
X14222563Y-14090936D02*
X14213039Y-14071888D01*
X14213039Y-14071888D02*
X14213039Y-14014746D01*
X14213039Y-14014746D02*
X14222563Y-13995698D01*
X14222563Y-13995698D02*
X14232087Y-13986174D01*
X14232087Y-13986174D02*
X14251134Y-13976650D01*
X14251134Y-13976650D02*
X14279706Y-13976650D01*
X14279706Y-13976650D02*
X14298753Y-13986174D01*
X14298753Y-13986174D02*
X14308277Y-13995698D01*
X14308277Y-13995698D02*
X14317801Y-14014746D01*
X14317801Y-14014746D02*
X14317801Y-14071888D01*
X14317801Y-14071888D02*
X14308277Y-14090936D01*
X14308277Y-14090936D02*
X14298753Y-14100460D01*
X14298753Y-14100460D02*
X14279706Y-14109984D01*
X14279706Y-14109984D02*
X14251134Y-14109984D01*
X14432087Y-14109984D02*
X14413039Y-14100460D01*
X14413039Y-14100460D02*
X14403515Y-14081412D01*
X14403515Y-14081412D02*
X14403515Y-13909984D01*
X14584468Y-14100460D02*
X14565420Y-14109984D01*
X14565420Y-14109984D02*
X14527325Y-14109984D01*
X14527325Y-14109984D02*
X14508277Y-14100460D01*
X14508277Y-14100460D02*
X14498753Y-14081412D01*
X14498753Y-14081412D02*
X14498753Y-14005222D01*
X14498753Y-14005222D02*
X14508277Y-13986174D01*
X14508277Y-13986174D02*
X14527325Y-13976650D01*
X14527325Y-13976650D02*
X14565420Y-13976650D01*
X14565420Y-13976650D02*
X14584468Y-13986174D01*
X14584468Y-13986174D02*
X14593991Y-14005222D01*
X14593991Y-14005222D02*
X14593991Y-14024269D01*
X14593991Y-14024269D02*
X14498753Y-14043317D01*
X14670182Y-14100460D02*
X14689230Y-14109984D01*
X14689230Y-14109984D02*
X14727325Y-14109984D01*
X14727325Y-14109984D02*
X14746372Y-14100460D01*
X14746372Y-14100460D02*
X14755896Y-14081412D01*
X14755896Y-14081412D02*
X14755896Y-14071888D01*
X14755896Y-14071888D02*
X14746372Y-14052841D01*
X14746372Y-14052841D02*
X14727325Y-14043317D01*
X14727325Y-14043317D02*
X14698753Y-14043317D01*
X14698753Y-14043317D02*
X14679706Y-14033793D01*
X14679706Y-14033793D02*
X14670182Y-14014746D01*
X14670182Y-14014746D02*
X14670182Y-14005222D01*
X14670182Y-14005222D02*
X14679706Y-13986174D01*
X14679706Y-13986174D02*
X14698753Y-13976650D01*
X14698753Y-13976650D02*
X14727325Y-13976650D01*
X14727325Y-13976650D02*
X14746372Y-13986174D01*
X14822563Y-14186174D02*
X14832087Y-14176650D01*
X14832087Y-14176650D02*
X14851134Y-14148079D01*
X14851134Y-14148079D02*
X14860658Y-14129031D01*
X14860658Y-14129031D02*
X14870182Y-14100460D01*
X14870182Y-14100460D02*
X14879706Y-14052841D01*
X14879706Y-14052841D02*
X14879706Y-14014746D01*
X14879706Y-14014746D02*
X14870182Y-13967127D01*
X14870182Y-13967127D02*
X14860658Y-13938555D01*
X14860658Y-13938555D02*
X14851134Y-13919508D01*
X14851134Y-13919508D02*
X14832087Y-13890936D01*
X14832087Y-13890936D02*
X14822563Y-13881412D01*
X10018211Y-14369211D02*
X10018211Y-14227789D01*
X9876789Y-14227789D01*
X9876789Y-14369211D01*
X10018211Y-14369211D01*
X10047500Y-14298500D02*
G75*
G02*
X9847500Y-14298500I-100000J0D01*
G01*
X9847500Y-14298500D02*
G75*
G02*
X10047500Y-14298500I100000J0D01*
G01*
X10289229Y-14189984D02*
X10413039Y-14189984D01*
X10413039Y-14189984D02*
X10346372Y-14266174D01*
X10346372Y-14266174D02*
X10374944Y-14266174D01*
X10374944Y-14266174D02*
X10393991Y-14275698D01*
X10393991Y-14275698D02*
X10403515Y-14285222D01*
X10403515Y-14285222D02*
X10413039Y-14304269D01*
X10413039Y-14304269D02*
X10413039Y-14351888D01*
X10413039Y-14351888D02*
X10403515Y-14370936D01*
X10403515Y-14370936D02*
X10393991Y-14380460D01*
X10393991Y-14380460D02*
X10374944Y-14389984D01*
X10374944Y-14389984D02*
X10317801Y-14389984D01*
X10317801Y-14389984D02*
X10298753Y-14380460D01*
X10298753Y-14380460D02*
X10289229Y-14370936D01*
X10498753Y-14370936D02*
X10508277Y-14380460D01*
X10508277Y-14380460D02*
X10498753Y-14389984D01*
X10498753Y-14389984D02*
X10489229Y-14380460D01*
X10489229Y-14380460D02*
X10498753Y-14370936D01*
X10498753Y-14370936D02*
X10498753Y-14389984D01*
X10698753Y-14389984D02*
X10584467Y-14389984D01*
X10641610Y-14389984D02*
X10641610Y-14189984D01*
X10641610Y-14189984D02*
X10622563Y-14218555D01*
X10622563Y-14218555D02*
X10603515Y-14237603D01*
X10603515Y-14237603D02*
X10584467Y-14247127D01*
X10813039Y-14275698D02*
X10793991Y-14266174D01*
X10793991Y-14266174D02*
X10784467Y-14256650D01*
X10784467Y-14256650D02*
X10774944Y-14237603D01*
X10774944Y-14237603D02*
X10774944Y-14228079D01*
X10774944Y-14228079D02*
X10784467Y-14209031D01*
X10784467Y-14209031D02*
X10793991Y-14199508D01*
X10793991Y-14199508D02*
X10813039Y-14189984D01*
X10813039Y-14189984D02*
X10851134Y-14189984D01*
X10851134Y-14189984D02*
X10870182Y-14199508D01*
X10870182Y-14199508D02*
X10879705Y-14209031D01*
X10879705Y-14209031D02*
X10889229Y-14228079D01*
X10889229Y-14228079D02*
X10889229Y-14237603D01*
X10889229Y-14237603D02*
X10879705Y-14256650D01*
X10879705Y-14256650D02*
X10870182Y-14266174D01*
X10870182Y-14266174D02*
X10851134Y-14275698D01*
X10851134Y-14275698D02*
X10813039Y-14275698D01*
X10813039Y-14275698D02*
X10793991Y-14285222D01*
X10793991Y-14285222D02*
X10784467Y-14294746D01*
X10784467Y-14294746D02*
X10774944Y-14313793D01*
X10774944Y-14313793D02*
X10774944Y-14351888D01*
X10774944Y-14351888D02*
X10784467Y-14370936D01*
X10784467Y-14370936D02*
X10793991Y-14380460D01*
X10793991Y-14380460D02*
X10813039Y-14389984D01*
X10813039Y-14389984D02*
X10851134Y-14389984D01*
X10851134Y-14389984D02*
X10870182Y-14380460D01*
X10870182Y-14380460D02*
X10879705Y-14370936D01*
X10879705Y-14370936D02*
X10889229Y-14351888D01*
X10889229Y-14351888D02*
X10889229Y-14313793D01*
X10889229Y-14313793D02*
X10879705Y-14294746D01*
X10879705Y-14294746D02*
X10870182Y-14285222D01*
X10870182Y-14285222D02*
X10851134Y-14275698D01*
X11013039Y-14189984D02*
X11032086Y-14189984D01*
X11032086Y-14189984D02*
X11051134Y-14199508D01*
X11051134Y-14199508D02*
X11060658Y-14209031D01*
X11060658Y-14209031D02*
X11070182Y-14228079D01*
X11070182Y-14228079D02*
X11079705Y-14266174D01*
X11079705Y-14266174D02*
X11079705Y-14313793D01*
X11079705Y-14313793D02*
X11070182Y-14351888D01*
X11070182Y-14351888D02*
X11060658Y-14370936D01*
X11060658Y-14370936D02*
X11051134Y-14380460D01*
X11051134Y-14380460D02*
X11032086Y-14389984D01*
X11032086Y-14389984D02*
X11013039Y-14389984D01*
X11013039Y-14389984D02*
X10993991Y-14380460D01*
X10993991Y-14380460D02*
X10984467Y-14370936D01*
X10984467Y-14370936D02*
X10974944Y-14351888D01*
X10974944Y-14351888D02*
X10965420Y-14313793D01*
X10965420Y-14313793D02*
X10965420Y-14266174D01*
X10965420Y-14266174D02*
X10974944Y-14228079D01*
X10974944Y-14228079D02*
X10984467Y-14209031D01*
X10984467Y-14209031D02*
X10993991Y-14199508D01*
X10993991Y-14199508D02*
X11013039Y-14189984D01*
X11165420Y-14389984D02*
X11165420Y-14256650D01*
X11165420Y-14275698D02*
X11174944Y-14266174D01*
X11174944Y-14266174D02*
X11193991Y-14256650D01*
X11193991Y-14256650D02*
X11222563Y-14256650D01*
X11222563Y-14256650D02*
X11241610Y-14266174D01*
X11241610Y-14266174D02*
X11251134Y-14285222D01*
X11251134Y-14285222D02*
X11251134Y-14389984D01*
X11251134Y-14285222D02*
X11260658Y-14266174D01*
X11260658Y-14266174D02*
X11279705Y-14256650D01*
X11279705Y-14256650D02*
X11308277Y-14256650D01*
X11308277Y-14256650D02*
X11327324Y-14266174D01*
X11327324Y-14266174D02*
X11336848Y-14285222D01*
X11336848Y-14285222D02*
X11336848Y-14389984D01*
X11432086Y-14389984D02*
X11432086Y-14256650D01*
X11432086Y-14275698D02*
X11441610Y-14266174D01*
X11441610Y-14266174D02*
X11460658Y-14256650D01*
X11460658Y-14256650D02*
X11489229Y-14256650D01*
X11489229Y-14256650D02*
X11508277Y-14266174D01*
X11508277Y-14266174D02*
X11517801Y-14285222D01*
X11517801Y-14285222D02*
X11517801Y-14389984D01*
X11517801Y-14285222D02*
X11527324Y-14266174D01*
X11527324Y-14266174D02*
X11546372Y-14256650D01*
X11546372Y-14256650D02*
X11574943Y-14256650D01*
X11574943Y-14256650D02*
X11593991Y-14266174D01*
X11593991Y-14266174D02*
X11603515Y-14285222D01*
X11603515Y-14285222D02*
X11603515Y-14389984D01*
X11993991Y-14180460D02*
X11822563Y-14437603D01*
X12251134Y-14189984D02*
X12270182Y-14189984D01*
X12270182Y-14189984D02*
X12289229Y-14199508D01*
X12289229Y-14199508D02*
X12298753Y-14209031D01*
X12298753Y-14209031D02*
X12308277Y-14228079D01*
X12308277Y-14228079D02*
X12317801Y-14266174D01*
X12317801Y-14266174D02*
X12317801Y-14313793D01*
X12317801Y-14313793D02*
X12308277Y-14351888D01*
X12308277Y-14351888D02*
X12298753Y-14370936D01*
X12298753Y-14370936D02*
X12289229Y-14380460D01*
X12289229Y-14380460D02*
X12270182Y-14389984D01*
X12270182Y-14389984D02*
X12251134Y-14389984D01*
X12251134Y-14389984D02*
X12232086Y-14380460D01*
X12232086Y-14380460D02*
X12222563Y-14370936D01*
X12222563Y-14370936D02*
X12213039Y-14351888D01*
X12213039Y-14351888D02*
X12203515Y-14313793D01*
X12203515Y-14313793D02*
X12203515Y-14266174D01*
X12203515Y-14266174D02*
X12213039Y-14228079D01*
X12213039Y-14228079D02*
X12222563Y-14209031D01*
X12222563Y-14209031D02*
X12232086Y-14199508D01*
X12232086Y-14199508D02*
X12251134Y-14189984D01*
X12403515Y-14370936D02*
X12413039Y-14380460D01*
X12413039Y-14380460D02*
X12403515Y-14389984D01*
X12403515Y-14389984D02*
X12393991Y-14380460D01*
X12393991Y-14380460D02*
X12403515Y-14370936D01*
X12403515Y-14370936D02*
X12403515Y-14389984D01*
X12603515Y-14389984D02*
X12489229Y-14389984D01*
X12546372Y-14389984D02*
X12546372Y-14189984D01*
X12546372Y-14189984D02*
X12527325Y-14218555D01*
X12527325Y-14218555D02*
X12508277Y-14237603D01*
X12508277Y-14237603D02*
X12489229Y-14247127D01*
X12679706Y-14209031D02*
X12689229Y-14199508D01*
X12689229Y-14199508D02*
X12708277Y-14189984D01*
X12708277Y-14189984D02*
X12755896Y-14189984D01*
X12755896Y-14189984D02*
X12774944Y-14199508D01*
X12774944Y-14199508D02*
X12784467Y-14209031D01*
X12784467Y-14209031D02*
X12793991Y-14228079D01*
X12793991Y-14228079D02*
X12793991Y-14247127D01*
X12793991Y-14247127D02*
X12784467Y-14275698D01*
X12784467Y-14275698D02*
X12670182Y-14389984D01*
X12670182Y-14389984D02*
X12793991Y-14389984D01*
X12974944Y-14189984D02*
X12879706Y-14189984D01*
X12879706Y-14189984D02*
X12870182Y-14285222D01*
X12870182Y-14285222D02*
X12879706Y-14275698D01*
X12879706Y-14275698D02*
X12898753Y-14266174D01*
X12898753Y-14266174D02*
X12946372Y-14266174D01*
X12946372Y-14266174D02*
X12965420Y-14275698D01*
X12965420Y-14275698D02*
X12974944Y-14285222D01*
X12974944Y-14285222D02*
X12984467Y-14304269D01*
X12984467Y-14304269D02*
X12984467Y-14351888D01*
X12984467Y-14351888D02*
X12974944Y-14370936D01*
X12974944Y-14370936D02*
X12965420Y-14380460D01*
X12965420Y-14380460D02*
X12946372Y-14389984D01*
X12946372Y-14389984D02*
X12898753Y-14389984D01*
X12898753Y-14389984D02*
X12879706Y-14380460D01*
X12879706Y-14380460D02*
X12870182Y-14370936D01*
X13060658Y-14209031D02*
X13070182Y-14199508D01*
X13070182Y-14199508D02*
X13089229Y-14189984D01*
X13089229Y-14189984D02*
X13136848Y-14189984D01*
X13136848Y-14189984D02*
X13155896Y-14199508D01*
X13155896Y-14199508D02*
X13165420Y-14209031D01*
X13165420Y-14209031D02*
X13174944Y-14228079D01*
X13174944Y-14228079D02*
X13174944Y-14247127D01*
X13174944Y-14247127D02*
X13165420Y-14275698D01*
X13165420Y-14275698D02*
X13051134Y-14389984D01*
X13051134Y-14389984D02*
X13174944Y-14389984D01*
X13251134Y-14189984D02*
X13251134Y-14228079D01*
X13327325Y-14189984D02*
X13327325Y-14228079D01*
X13622563Y-14466174D02*
X13613039Y-14456650D01*
X13613039Y-14456650D02*
X13593991Y-14428079D01*
X13593991Y-14428079D02*
X13584468Y-14409031D01*
X13584468Y-14409031D02*
X13574944Y-14380460D01*
X13574944Y-14380460D02*
X13565420Y-14332841D01*
X13565420Y-14332841D02*
X13565420Y-14294746D01*
X13565420Y-14294746D02*
X13574944Y-14247127D01*
X13574944Y-14247127D02*
X13584468Y-14218555D01*
X13584468Y-14218555D02*
X13593991Y-14199508D01*
X13593991Y-14199508D02*
X13613039Y-14170936D01*
X13613039Y-14170936D02*
X13622563Y-14161412D01*
X13689229Y-14209031D02*
X13698753Y-14199508D01*
X13698753Y-14199508D02*
X13717801Y-14189984D01*
X13717801Y-14189984D02*
X13765420Y-14189984D01*
X13765420Y-14189984D02*
X13784468Y-14199508D01*
X13784468Y-14199508D02*
X13793991Y-14209031D01*
X13793991Y-14209031D02*
X13803515Y-14228079D01*
X13803515Y-14228079D02*
X13803515Y-14247127D01*
X13803515Y-14247127D02*
X13793991Y-14275698D01*
X13793991Y-14275698D02*
X13679706Y-14389984D01*
X13679706Y-14389984D02*
X13803515Y-14389984D01*
X14041610Y-14389984D02*
X14041610Y-14189984D01*
X14127325Y-14389984D02*
X14127325Y-14285222D01*
X14127325Y-14285222D02*
X14117801Y-14266174D01*
X14117801Y-14266174D02*
X14098753Y-14256650D01*
X14098753Y-14256650D02*
X14070182Y-14256650D01*
X14070182Y-14256650D02*
X14051134Y-14266174D01*
X14051134Y-14266174D02*
X14041610Y-14275698D01*
X14251134Y-14389984D02*
X14232087Y-14380460D01*
X14232087Y-14380460D02*
X14222563Y-14370936D01*
X14222563Y-14370936D02*
X14213039Y-14351888D01*
X14213039Y-14351888D02*
X14213039Y-14294746D01*
X14213039Y-14294746D02*
X14222563Y-14275698D01*
X14222563Y-14275698D02*
X14232087Y-14266174D01*
X14232087Y-14266174D02*
X14251134Y-14256650D01*
X14251134Y-14256650D02*
X14279706Y-14256650D01*
X14279706Y-14256650D02*
X14298753Y-14266174D01*
X14298753Y-14266174D02*
X14308277Y-14275698D01*
X14308277Y-14275698D02*
X14317801Y-14294746D01*
X14317801Y-14294746D02*
X14317801Y-14351888D01*
X14317801Y-14351888D02*
X14308277Y-14370936D01*
X14308277Y-14370936D02*
X14298753Y-14380460D01*
X14298753Y-14380460D02*
X14279706Y-14389984D01*
X14279706Y-14389984D02*
X14251134Y-14389984D01*
X14432087Y-14389984D02*
X14413039Y-14380460D01*
X14413039Y-14380460D02*
X14403515Y-14361412D01*
X14403515Y-14361412D02*
X14403515Y-14189984D01*
X14584468Y-14380460D02*
X14565420Y-14389984D01*
X14565420Y-14389984D02*
X14527325Y-14389984D01*
X14527325Y-14389984D02*
X14508277Y-14380460D01*
X14508277Y-14380460D02*
X14498753Y-14361412D01*
X14498753Y-14361412D02*
X14498753Y-14285222D01*
X14498753Y-14285222D02*
X14508277Y-14266174D01*
X14508277Y-14266174D02*
X14527325Y-14256650D01*
X14527325Y-14256650D02*
X14565420Y-14256650D01*
X14565420Y-14256650D02*
X14584468Y-14266174D01*
X14584468Y-14266174D02*
X14593991Y-14285222D01*
X14593991Y-14285222D02*
X14593991Y-14304269D01*
X14593991Y-14304269D02*
X14498753Y-14323317D01*
X14670182Y-14380460D02*
X14689230Y-14389984D01*
X14689230Y-14389984D02*
X14727325Y-14389984D01*
X14727325Y-14389984D02*
X14746372Y-14380460D01*
X14746372Y-14380460D02*
X14755896Y-14361412D01*
X14755896Y-14361412D02*
X14755896Y-14351888D01*
X14755896Y-14351888D02*
X14746372Y-14332841D01*
X14746372Y-14332841D02*
X14727325Y-14323317D01*
X14727325Y-14323317D02*
X14698753Y-14323317D01*
X14698753Y-14323317D02*
X14679706Y-14313793D01*
X14679706Y-14313793D02*
X14670182Y-14294746D01*
X14670182Y-14294746D02*
X14670182Y-14285222D01*
X14670182Y-14285222D02*
X14679706Y-14266174D01*
X14679706Y-14266174D02*
X14698753Y-14256650D01*
X14698753Y-14256650D02*
X14727325Y-14256650D01*
X14727325Y-14256650D02*
X14746372Y-14266174D01*
X14822563Y-14466174D02*
X14832087Y-14456650D01*
X14832087Y-14456650D02*
X14851134Y-14428079D01*
X14851134Y-14428079D02*
X14860658Y-14409031D01*
X14860658Y-14409031D02*
X14870182Y-14380460D01*
X14870182Y-14380460D02*
X14879706Y-14332841D01*
X14879706Y-14332841D02*
X14879706Y-14294746D01*
X14879706Y-14294746D02*
X14870182Y-14247127D01*
X14870182Y-14247127D02*
X14860658Y-14218555D01*
X14860658Y-14218555D02*
X14851134Y-14199508D01*
X14851134Y-14199508D02*
X14832087Y-14170936D01*
X14832087Y-14170936D02*
X14822563Y-14161412D01*
X9947500Y-14718500D02*
X10047500Y-14618500D01*
X9947500Y-14518500D01*
X9847500Y-14618500D01*
X9947500Y-14718500D01*
X10047500Y-14618500D02*
G75*
G02*
X9847500Y-14618500I-100000J0D01*
G01*
X9847500Y-14618500D02*
G75*
G02*
X10047500Y-14618500I100000J0D01*
G01*
X10289229Y-14509984D02*
X10413039Y-14509984D01*
X10413039Y-14509984D02*
X10346372Y-14586174D01*
X10346372Y-14586174D02*
X10374944Y-14586174D01*
X10374944Y-14586174D02*
X10393991Y-14595698D01*
X10393991Y-14595698D02*
X10403515Y-14605222D01*
X10403515Y-14605222D02*
X10413039Y-14624269D01*
X10413039Y-14624269D02*
X10413039Y-14671888D01*
X10413039Y-14671888D02*
X10403515Y-14690936D01*
X10403515Y-14690936D02*
X10393991Y-14700460D01*
X10393991Y-14700460D02*
X10374944Y-14709984D01*
X10374944Y-14709984D02*
X10317801Y-14709984D01*
X10317801Y-14709984D02*
X10298753Y-14700460D01*
X10298753Y-14700460D02*
X10289229Y-14690936D01*
X10498753Y-14690936D02*
X10508277Y-14700460D01*
X10508277Y-14700460D02*
X10498753Y-14709984D01*
X10498753Y-14709984D02*
X10489229Y-14700460D01*
X10489229Y-14700460D02*
X10498753Y-14690936D01*
X10498753Y-14690936D02*
X10498753Y-14709984D01*
X10584467Y-14529031D02*
X10593991Y-14519508D01*
X10593991Y-14519508D02*
X10613039Y-14509984D01*
X10613039Y-14509984D02*
X10660658Y-14509984D01*
X10660658Y-14509984D02*
X10679705Y-14519508D01*
X10679705Y-14519508D02*
X10689229Y-14529031D01*
X10689229Y-14529031D02*
X10698753Y-14548079D01*
X10698753Y-14548079D02*
X10698753Y-14567127D01*
X10698753Y-14567127D02*
X10689229Y-14595698D01*
X10689229Y-14595698D02*
X10574944Y-14709984D01*
X10574944Y-14709984D02*
X10698753Y-14709984D01*
X10822563Y-14509984D02*
X10841610Y-14509984D01*
X10841610Y-14509984D02*
X10860658Y-14519508D01*
X10860658Y-14519508D02*
X10870182Y-14529031D01*
X10870182Y-14529031D02*
X10879705Y-14548079D01*
X10879705Y-14548079D02*
X10889229Y-14586174D01*
X10889229Y-14586174D02*
X10889229Y-14633793D01*
X10889229Y-14633793D02*
X10879705Y-14671888D01*
X10879705Y-14671888D02*
X10870182Y-14690936D01*
X10870182Y-14690936D02*
X10860658Y-14700460D01*
X10860658Y-14700460D02*
X10841610Y-14709984D01*
X10841610Y-14709984D02*
X10822563Y-14709984D01*
X10822563Y-14709984D02*
X10803515Y-14700460D01*
X10803515Y-14700460D02*
X10793991Y-14690936D01*
X10793991Y-14690936D02*
X10784467Y-14671888D01*
X10784467Y-14671888D02*
X10774944Y-14633793D01*
X10774944Y-14633793D02*
X10774944Y-14586174D01*
X10774944Y-14586174D02*
X10784467Y-14548079D01*
X10784467Y-14548079D02*
X10793991Y-14529031D01*
X10793991Y-14529031D02*
X10803515Y-14519508D01*
X10803515Y-14519508D02*
X10822563Y-14509984D01*
X11013039Y-14509984D02*
X11032086Y-14509984D01*
X11032086Y-14509984D02*
X11051134Y-14519508D01*
X11051134Y-14519508D02*
X11060658Y-14529031D01*
X11060658Y-14529031D02*
X11070182Y-14548079D01*
X11070182Y-14548079D02*
X11079705Y-14586174D01*
X11079705Y-14586174D02*
X11079705Y-14633793D01*
X11079705Y-14633793D02*
X11070182Y-14671888D01*
X11070182Y-14671888D02*
X11060658Y-14690936D01*
X11060658Y-14690936D02*
X11051134Y-14700460D01*
X11051134Y-14700460D02*
X11032086Y-14709984D01*
X11032086Y-14709984D02*
X11013039Y-14709984D01*
X11013039Y-14709984D02*
X10993991Y-14700460D01*
X10993991Y-14700460D02*
X10984467Y-14690936D01*
X10984467Y-14690936D02*
X10974944Y-14671888D01*
X10974944Y-14671888D02*
X10965420Y-14633793D01*
X10965420Y-14633793D02*
X10965420Y-14586174D01*
X10965420Y-14586174D02*
X10974944Y-14548079D01*
X10974944Y-14548079D02*
X10984467Y-14529031D01*
X10984467Y-14529031D02*
X10993991Y-14519508D01*
X10993991Y-14519508D02*
X11013039Y-14509984D01*
X11165420Y-14709984D02*
X11165420Y-14576650D01*
X11165420Y-14595698D02*
X11174944Y-14586174D01*
X11174944Y-14586174D02*
X11193991Y-14576650D01*
X11193991Y-14576650D02*
X11222563Y-14576650D01*
X11222563Y-14576650D02*
X11241610Y-14586174D01*
X11241610Y-14586174D02*
X11251134Y-14605222D01*
X11251134Y-14605222D02*
X11251134Y-14709984D01*
X11251134Y-14605222D02*
X11260658Y-14586174D01*
X11260658Y-14586174D02*
X11279705Y-14576650D01*
X11279705Y-14576650D02*
X11308277Y-14576650D01*
X11308277Y-14576650D02*
X11327324Y-14586174D01*
X11327324Y-14586174D02*
X11336848Y-14605222D01*
X11336848Y-14605222D02*
X11336848Y-14709984D01*
X11432086Y-14709984D02*
X11432086Y-14576650D01*
X11432086Y-14595698D02*
X11441610Y-14586174D01*
X11441610Y-14586174D02*
X11460658Y-14576650D01*
X11460658Y-14576650D02*
X11489229Y-14576650D01*
X11489229Y-14576650D02*
X11508277Y-14586174D01*
X11508277Y-14586174D02*
X11517801Y-14605222D01*
X11517801Y-14605222D02*
X11517801Y-14709984D01*
X11517801Y-14605222D02*
X11527324Y-14586174D01*
X11527324Y-14586174D02*
X11546372Y-14576650D01*
X11546372Y-14576650D02*
X11574943Y-14576650D01*
X11574943Y-14576650D02*
X11593991Y-14586174D01*
X11593991Y-14586174D02*
X11603515Y-14605222D01*
X11603515Y-14605222D02*
X11603515Y-14709984D01*
X11993991Y-14500460D02*
X11822563Y-14757603D01*
X12251134Y-14509984D02*
X12270182Y-14509984D01*
X12270182Y-14509984D02*
X12289229Y-14519508D01*
X12289229Y-14519508D02*
X12298753Y-14529031D01*
X12298753Y-14529031D02*
X12308277Y-14548079D01*
X12308277Y-14548079D02*
X12317801Y-14586174D01*
X12317801Y-14586174D02*
X12317801Y-14633793D01*
X12317801Y-14633793D02*
X12308277Y-14671888D01*
X12308277Y-14671888D02*
X12298753Y-14690936D01*
X12298753Y-14690936D02*
X12289229Y-14700460D01*
X12289229Y-14700460D02*
X12270182Y-14709984D01*
X12270182Y-14709984D02*
X12251134Y-14709984D01*
X12251134Y-14709984D02*
X12232086Y-14700460D01*
X12232086Y-14700460D02*
X12222563Y-14690936D01*
X12222563Y-14690936D02*
X12213039Y-14671888D01*
X12213039Y-14671888D02*
X12203515Y-14633793D01*
X12203515Y-14633793D02*
X12203515Y-14586174D01*
X12203515Y-14586174D02*
X12213039Y-14548079D01*
X12213039Y-14548079D02*
X12222563Y-14529031D01*
X12222563Y-14529031D02*
X12232086Y-14519508D01*
X12232086Y-14519508D02*
X12251134Y-14509984D01*
X12403515Y-14690936D02*
X12413039Y-14700460D01*
X12413039Y-14700460D02*
X12403515Y-14709984D01*
X12403515Y-14709984D02*
X12393991Y-14700460D01*
X12393991Y-14700460D02*
X12403515Y-14690936D01*
X12403515Y-14690936D02*
X12403515Y-14709984D01*
X12603515Y-14709984D02*
X12489229Y-14709984D01*
X12546372Y-14709984D02*
X12546372Y-14509984D01*
X12546372Y-14509984D02*
X12527325Y-14538555D01*
X12527325Y-14538555D02*
X12508277Y-14557603D01*
X12508277Y-14557603D02*
X12489229Y-14567127D01*
X12679706Y-14529031D02*
X12689229Y-14519508D01*
X12689229Y-14519508D02*
X12708277Y-14509984D01*
X12708277Y-14509984D02*
X12755896Y-14509984D01*
X12755896Y-14509984D02*
X12774944Y-14519508D01*
X12774944Y-14519508D02*
X12784467Y-14529031D01*
X12784467Y-14529031D02*
X12793991Y-14548079D01*
X12793991Y-14548079D02*
X12793991Y-14567127D01*
X12793991Y-14567127D02*
X12784467Y-14595698D01*
X12784467Y-14595698D02*
X12670182Y-14709984D01*
X12670182Y-14709984D02*
X12793991Y-14709984D01*
X12965420Y-14509984D02*
X12927325Y-14509984D01*
X12927325Y-14509984D02*
X12908277Y-14519508D01*
X12908277Y-14519508D02*
X12898753Y-14529031D01*
X12898753Y-14529031D02*
X12879706Y-14557603D01*
X12879706Y-14557603D02*
X12870182Y-14595698D01*
X12870182Y-14595698D02*
X12870182Y-14671888D01*
X12870182Y-14671888D02*
X12879706Y-14690936D01*
X12879706Y-14690936D02*
X12889229Y-14700460D01*
X12889229Y-14700460D02*
X12908277Y-14709984D01*
X12908277Y-14709984D02*
X12946372Y-14709984D01*
X12946372Y-14709984D02*
X12965420Y-14700460D01*
X12965420Y-14700460D02*
X12974944Y-14690936D01*
X12974944Y-14690936D02*
X12984467Y-14671888D01*
X12984467Y-14671888D02*
X12984467Y-14624269D01*
X12984467Y-14624269D02*
X12974944Y-14605222D01*
X12974944Y-14605222D02*
X12965420Y-14595698D01*
X12965420Y-14595698D02*
X12946372Y-14586174D01*
X12946372Y-14586174D02*
X12908277Y-14586174D01*
X12908277Y-14586174D02*
X12889229Y-14595698D01*
X12889229Y-14595698D02*
X12879706Y-14605222D01*
X12879706Y-14605222D02*
X12870182Y-14624269D01*
X13108277Y-14509984D02*
X13127325Y-14509984D01*
X13127325Y-14509984D02*
X13146372Y-14519508D01*
X13146372Y-14519508D02*
X13155896Y-14529031D01*
X13155896Y-14529031D02*
X13165420Y-14548079D01*
X13165420Y-14548079D02*
X13174944Y-14586174D01*
X13174944Y-14586174D02*
X13174944Y-14633793D01*
X13174944Y-14633793D02*
X13165420Y-14671888D01*
X13165420Y-14671888D02*
X13155896Y-14690936D01*
X13155896Y-14690936D02*
X13146372Y-14700460D01*
X13146372Y-14700460D02*
X13127325Y-14709984D01*
X13127325Y-14709984D02*
X13108277Y-14709984D01*
X13108277Y-14709984D02*
X13089229Y-14700460D01*
X13089229Y-14700460D02*
X13079706Y-14690936D01*
X13079706Y-14690936D02*
X13070182Y-14671888D01*
X13070182Y-14671888D02*
X13060658Y-14633793D01*
X13060658Y-14633793D02*
X13060658Y-14586174D01*
X13060658Y-14586174D02*
X13070182Y-14548079D01*
X13070182Y-14548079D02*
X13079706Y-14529031D01*
X13079706Y-14529031D02*
X13089229Y-14519508D01*
X13089229Y-14519508D02*
X13108277Y-14509984D01*
X13251134Y-14509984D02*
X13251134Y-14548079D01*
X13327325Y-14509984D02*
X13327325Y-14548079D01*
X13622563Y-14786174D02*
X13613039Y-14776650D01*
X13613039Y-14776650D02*
X13593991Y-14748079D01*
X13593991Y-14748079D02*
X13584468Y-14729031D01*
X13584468Y-14729031D02*
X13574944Y-14700460D01*
X13574944Y-14700460D02*
X13565420Y-14652841D01*
X13565420Y-14652841D02*
X13565420Y-14614746D01*
X13565420Y-14614746D02*
X13574944Y-14567127D01*
X13574944Y-14567127D02*
X13584468Y-14538555D01*
X13584468Y-14538555D02*
X13593991Y-14519508D01*
X13593991Y-14519508D02*
X13613039Y-14490936D01*
X13613039Y-14490936D02*
X13622563Y-14481412D01*
X13689229Y-14529031D02*
X13698753Y-14519508D01*
X13698753Y-14519508D02*
X13717801Y-14509984D01*
X13717801Y-14509984D02*
X13765420Y-14509984D01*
X13765420Y-14509984D02*
X13784468Y-14519508D01*
X13784468Y-14519508D02*
X13793991Y-14529031D01*
X13793991Y-14529031D02*
X13803515Y-14548079D01*
X13803515Y-14548079D02*
X13803515Y-14567127D01*
X13803515Y-14567127D02*
X13793991Y-14595698D01*
X13793991Y-14595698D02*
X13679706Y-14709984D01*
X13679706Y-14709984D02*
X13803515Y-14709984D01*
X14041610Y-14709984D02*
X14041610Y-14509984D01*
X14127325Y-14709984D02*
X14127325Y-14605222D01*
X14127325Y-14605222D02*
X14117801Y-14586174D01*
X14117801Y-14586174D02*
X14098753Y-14576650D01*
X14098753Y-14576650D02*
X14070182Y-14576650D01*
X14070182Y-14576650D02*
X14051134Y-14586174D01*
X14051134Y-14586174D02*
X14041610Y-14595698D01*
X14251134Y-14709984D02*
X14232087Y-14700460D01*
X14232087Y-14700460D02*
X14222563Y-14690936D01*
X14222563Y-14690936D02*
X14213039Y-14671888D01*
X14213039Y-14671888D02*
X14213039Y-14614746D01*
X14213039Y-14614746D02*
X14222563Y-14595698D01*
X14222563Y-14595698D02*
X14232087Y-14586174D01*
X14232087Y-14586174D02*
X14251134Y-14576650D01*
X14251134Y-14576650D02*
X14279706Y-14576650D01*
X14279706Y-14576650D02*
X14298753Y-14586174D01*
X14298753Y-14586174D02*
X14308277Y-14595698D01*
X14308277Y-14595698D02*
X14317801Y-14614746D01*
X14317801Y-14614746D02*
X14317801Y-14671888D01*
X14317801Y-14671888D02*
X14308277Y-14690936D01*
X14308277Y-14690936D02*
X14298753Y-14700460D01*
X14298753Y-14700460D02*
X14279706Y-14709984D01*
X14279706Y-14709984D02*
X14251134Y-14709984D01*
X14432087Y-14709984D02*
X14413039Y-14700460D01*
X14413039Y-14700460D02*
X14403515Y-14681412D01*
X14403515Y-14681412D02*
X14403515Y-14509984D01*
X14584468Y-14700460D02*
X14565420Y-14709984D01*
X14565420Y-14709984D02*
X14527325Y-14709984D01*
X14527325Y-14709984D02*
X14508277Y-14700460D01*
X14508277Y-14700460D02*
X14498753Y-14681412D01*
X14498753Y-14681412D02*
X14498753Y-14605222D01*
X14498753Y-14605222D02*
X14508277Y-14586174D01*
X14508277Y-14586174D02*
X14527325Y-14576650D01*
X14527325Y-14576650D02*
X14565420Y-14576650D01*
X14565420Y-14576650D02*
X14584468Y-14586174D01*
X14584468Y-14586174D02*
X14593991Y-14605222D01*
X14593991Y-14605222D02*
X14593991Y-14624269D01*
X14593991Y-14624269D02*
X14498753Y-14643317D01*
X14670182Y-14700460D02*
X14689230Y-14709984D01*
X14689230Y-14709984D02*
X14727325Y-14709984D01*
X14727325Y-14709984D02*
X14746372Y-14700460D01*
X14746372Y-14700460D02*
X14755896Y-14681412D01*
X14755896Y-14681412D02*
X14755896Y-14671888D01*
X14755896Y-14671888D02*
X14746372Y-14652841D01*
X14746372Y-14652841D02*
X14727325Y-14643317D01*
X14727325Y-14643317D02*
X14698753Y-14643317D01*
X14698753Y-14643317D02*
X14679706Y-14633793D01*
X14679706Y-14633793D02*
X14670182Y-14614746D01*
X14670182Y-14614746D02*
X14670182Y-14605222D01*
X14670182Y-14605222D02*
X14679706Y-14586174D01*
X14679706Y-14586174D02*
X14698753Y-14576650D01*
X14698753Y-14576650D02*
X14727325Y-14576650D01*
X14727325Y-14576650D02*
X14746372Y-14586174D01*
X14822563Y-14786174D02*
X14832087Y-14776650D01*
X14832087Y-14776650D02*
X14851134Y-14748079D01*
X14851134Y-14748079D02*
X14860658Y-14729031D01*
X14860658Y-14729031D02*
X14870182Y-14700460D01*
X14870182Y-14700460D02*
X14879706Y-14652841D01*
X14879706Y-14652841D02*
X14879706Y-14614746D01*
X14879706Y-14614746D02*
X14870182Y-14567127D01*
X14870182Y-14567127D02*
X14860658Y-14538555D01*
X14860658Y-14538555D02*
X14851134Y-14519508D01*
X14851134Y-14519508D02*
X14832087Y-14490936D01*
X14832087Y-14490936D02*
X14822563Y-14481412D01*
M02*
