G04 #@! TF.GenerationSoftware,KiCad,Pcbnew,8.0.1*
G04 #@! TF.CreationDate,2024-04-28T13:44:54+02:00*
G04 #@! TF.ProjectId,ETH1ISO224,45544831-4953-44f3-9232-342e6b696361,rev?*
G04 #@! TF.SameCoordinates,Original*
G04 #@! TF.FileFunction,Copper,L3,Inr*
G04 #@! TF.FilePolarity,Positive*
%FSLAX46Y46*%
G04 Gerber Fmt 4.6, Leading zero omitted, Abs format (unit mm)*
G04 Created by KiCad (PCBNEW 8.0.1) date 2024-04-28 13:44:54*
%MOMM*%
%LPD*%
G01*
G04 APERTURE LIST*
G04 Aperture macros list*
%AMRoundRect*
0 Rectangle with rounded corners*
0 $1 Rounding radius*
0 $2 $3 $4 $5 $6 $7 $8 $9 X,Y pos of 4 corners*
0 Add a 4 corners polygon primitive as box body*
4,1,4,$2,$3,$4,$5,$6,$7,$8,$9,$2,$3,0*
0 Add four circle primitives for the rounded corners*
1,1,$1+$1,$2,$3*
1,1,$1+$1,$4,$5*
1,1,$1+$1,$6,$7*
1,1,$1+$1,$8,$9*
0 Add four rect primitives between the rounded corners*
20,1,$1+$1,$2,$3,$4,$5,0*
20,1,$1+$1,$4,$5,$6,$7,0*
20,1,$1+$1,$6,$7,$8,$9,0*
20,1,$1+$1,$8,$9,$2,$3,0*%
G04 Aperture macros list end*
%ADD10C,0.200000*%
G04 #@! TA.AperFunction,NonConductor*
%ADD11C,0.200000*%
G04 #@! TD*
G04 #@! TA.AperFunction,ComponentPad*
%ADD12R,2.600000X2.600000*%
G04 #@! TD*
G04 #@! TA.AperFunction,ComponentPad*
%ADD13C,2.600000*%
G04 #@! TD*
G04 #@! TA.AperFunction,ComponentPad*
%ADD14C,4.000000*%
G04 #@! TD*
G04 #@! TA.AperFunction,ComponentPad*
%ADD15C,1.400000*%
G04 #@! TD*
G04 #@! TA.AperFunction,ComponentPad*
%ADD16R,1.400000X1.400000*%
G04 #@! TD*
G04 #@! TA.AperFunction,ComponentPad*
%ADD17C,1.600000*%
G04 #@! TD*
G04 #@! TA.AperFunction,ComponentPad*
%ADD18RoundRect,0.222222X-0.577778X0.577778X-0.577778X-0.577778X0.577778X-0.577778X0.577778X0.577778X0*%
G04 #@! TD*
G04 #@! TA.AperFunction,ComponentPad*
%ADD19R,1.000000X1.000000*%
G04 #@! TD*
G04 #@! TA.AperFunction,ComponentPad*
%ADD20O,1.000000X1.000000*%
G04 #@! TD*
G04 #@! TA.AperFunction,ComponentPad*
%ADD21RoundRect,0.248000X0.552000X-0.552000X0.552000X0.552000X-0.552000X0.552000X-0.552000X-0.552000X0*%
G04 #@! TD*
G04 #@! TA.AperFunction,ComponentPad*
%ADD22C,1.720000*%
G04 #@! TD*
G04 #@! TA.AperFunction,ComponentPad*
%ADD23C,2.200000*%
G04 #@! TD*
G04 #@! TA.AperFunction,ComponentPad*
%ADD24R,1.500000X2.500000*%
G04 #@! TD*
G04 #@! TA.AperFunction,ComponentPad*
%ADD25O,1.500000X2.500000*%
G04 #@! TD*
G04 #@! TA.AperFunction,ComponentPad*
%ADD26R,3.000000X3.000000*%
G04 #@! TD*
G04 #@! TA.AperFunction,ComponentPad*
%ADD27C,3.000000*%
G04 #@! TD*
G04 #@! TA.AperFunction,ComponentPad*
%ADD28C,5.600000*%
G04 #@! TD*
G04 #@! TA.AperFunction,HeatsinkPad*
%ADD29C,0.500000*%
G04 #@! TD*
G04 #@! TA.AperFunction,ViaPad*
%ADD30C,0.500000*%
G04 #@! TD*
G04 #@! TA.AperFunction,Conductor*
%ADD31C,0.635000*%
G04 #@! TD*
G04 #@! TA.AperFunction,Conductor*
%ADD32C,0.127000*%
G04 #@! TD*
G04 #@! TA.AperFunction,Conductor*
%ADD33C,0.381000*%
G04 #@! TD*
G04 #@! TA.AperFunction,Conductor*
%ADD34C,0.508000*%
G04 #@! TD*
G04 APERTURE END LIST*
D10*
D11*
X188515667Y-107910219D02*
X189134714Y-107910219D01*
X189134714Y-107910219D02*
X188801381Y-108291171D01*
X188801381Y-108291171D02*
X188944238Y-108291171D01*
X188944238Y-108291171D02*
X189039476Y-108338790D01*
X189039476Y-108338790D02*
X189087095Y-108386409D01*
X189087095Y-108386409D02*
X189134714Y-108481647D01*
X189134714Y-108481647D02*
X189134714Y-108719742D01*
X189134714Y-108719742D02*
X189087095Y-108814980D01*
X189087095Y-108814980D02*
X189039476Y-108862600D01*
X189039476Y-108862600D02*
X188944238Y-108910219D01*
X188944238Y-108910219D02*
X188658524Y-108910219D01*
X188658524Y-108910219D02*
X188563286Y-108862600D01*
X188563286Y-108862600D02*
X188515667Y-108814980D01*
D12*
G04 #@! TO.N,Net-(J301-Pin_1)*
G04 #@! TO.C,J301*
X195250000Y-98893000D03*
D13*
G04 #@! TO.N,GND*
X195250000Y-93893000D03*
G04 #@! TD*
D14*
G04 #@! TO.N,N/C*
G04 #@! TO.C,HS101*
X159863000Y-101552000D03*
X147223000Y-75232000D03*
G04 #@! TD*
D15*
G04 #@! TO.N,+15V*
G04 #@! TO.C,U202*
X118618000Y-107366000D03*
G04 #@! TO.N,GND1*
X123698000Y-107366000D03*
G04 #@! TO.N,GND*
X131318000Y-107366000D03*
D16*
G04 #@! TO.N,+5VA*
X133858000Y-107366000D03*
G04 #@! TD*
D17*
G04 #@! TO.N,GND1*
G04 #@! TO.C,RN201*
X116713000Y-100076000D03*
G04 #@! TO.N,unconnected-(RN201-R4-Pad5)*
X116713000Y-97536000D03*
G04 #@! TO.N,unconnected-(RN201-R3-Pad4)*
X116713000Y-94996000D03*
G04 #@! TO.N,Net-(RN201-R2)*
X116713000Y-92456000D03*
G04 #@! TO.N,unconnected-(RN201-R1-Pad2)*
X116713000Y-89916000D03*
D18*
G04 #@! TO.N,Net-(RN201-common)*
X116713000Y-77216000D03*
G04 #@! TD*
D19*
G04 #@! TO.N,+3.3V*
G04 #@! TO.C,J401*
X145151000Y-102733000D03*
D20*
G04 #@! TO.N,/MCU/TMS_SWDIO*
X145151000Y-101463000D03*
G04 #@! TO.N,GND*
X146421000Y-102733000D03*
G04 #@! TO.N,/MCU/TCK_SWCLK*
X146421000Y-101463000D03*
G04 #@! TO.N,GND*
X147691000Y-102733000D03*
G04 #@! TO.N,unconnected-(J401-Pin_6-Pad6)*
X147691000Y-101463000D03*
G04 #@! TO.N,unconnected-(J401-Pin_7-Pad7)*
X148961000Y-102733000D03*
G04 #@! TO.N,unconnected-(J401-Pin_8-Pad8)*
X148961000Y-101463000D03*
G04 #@! TO.N,unconnected-(J401-Pin_9-Pad9)*
X150231000Y-102733000D03*
G04 #@! TO.N,/MCU/NRST*
X150231000Y-101463000D03*
G04 #@! TD*
D21*
G04 #@! TO.N,/Ethernet/ETH_TXP*
G04 #@! TO.C,J501*
X180452000Y-76708000D03*
D17*
G04 #@! TO.N,VCCQ*
X182992000Y-77978000D03*
G04 #@! TO.N,/Ethernet/ETH_TXN*
X180452000Y-79248000D03*
G04 #@! TO.N,/Ethernet/ETH_RXP*
X182992000Y-80518000D03*
G04 #@! TO.N,VCCQ*
X180452000Y-81788000D03*
G04 #@! TO.N,/Ethernet/ETH_RXN*
X182992000Y-83058000D03*
G04 #@! TO.N,unconnected-(J501-NC-Pad7)*
X180452000Y-84328000D03*
G04 #@! TO.N,Earth*
X182992000Y-85598000D03*
D22*
G04 #@! TO.N,Net-(J501-Pad9)*
X175622000Y-75688000D03*
G04 #@! TO.N,/Ethernet/LED1*
X175622000Y-78228000D03*
G04 #@! TO.N,Net-(J501-Pad11)*
X175622000Y-84078000D03*
G04 #@! TO.N,/Ethernet/LED2*
X175622000Y-86618000D03*
D23*
G04 #@! TO.N,Earth*
X186292000Y-73253000D03*
X186292000Y-89053000D03*
G04 #@! TD*
D24*
G04 #@! TO.N,Net-(D301-K)*
G04 #@! TO.C,U301*
X185566500Y-93948500D03*
D25*
G04 #@! TO.N,GND*
X183026500Y-93948500D03*
G04 #@! TO.N,+5V*
X180486500Y-93948500D03*
G04 #@! TD*
D26*
G04 #@! TO.N,Net-(J201-Pin_1)*
G04 #@! TO.C,J201*
X109170000Y-82740000D03*
D27*
G04 #@! TO.N,GND1*
X109170000Y-92260000D03*
G04 #@! TD*
D28*
G04 #@! TO.N,N/C*
G04 #@! TO.C,H104*
X197000000Y-106500000D03*
G04 #@! TD*
G04 #@! TO.N,N/C*
G04 #@! TO.C,H103*
X197000000Y-68500000D03*
G04 #@! TD*
D29*
G04 #@! TO.N,GND*
G04 #@! TO.C,U501*
X171180000Y-80026000D03*
X170180000Y-80026000D03*
X169180000Y-80026000D03*
X171180000Y-81026000D03*
X170180000Y-81026000D03*
X169180000Y-81026000D03*
X171180000Y-82026000D03*
X170180000Y-82026000D03*
X169180000Y-82026000D03*
G04 #@! TD*
D30*
G04 #@! TO.N,GND*
X160909000Y-78867000D03*
G04 #@! TO.N,Net-(D201-A)*
X152527000Y-68834000D03*
G04 #@! TO.N,+5VA*
X161351000Y-68646000D03*
G04 #@! TO.N,GND*
X146685000Y-69596000D03*
G04 #@! TO.N,VCOM*
X155956000Y-71247000D03*
G04 #@! TO.N,GND*
X136779000Y-68326000D03*
X143891000Y-68326000D03*
G04 #@! TO.N,Net-(U208--)*
X155956000Y-68961000D03*
G04 #@! TO.N,GND*
X161417000Y-69596000D03*
G04 #@! TO.N,GND1*
X123825000Y-72771000D03*
X123825000Y-84522000D03*
G04 #@! TO.N,+5V*
X143510000Y-107061000D03*
X175387000Y-102362000D03*
X143510000Y-107950000D03*
X143510000Y-106172000D03*
X175387000Y-103251000D03*
X175387000Y-104140000D03*
G04 #@! TO.N,GND*
X147193000Y-82296000D03*
X144145000Y-93853000D03*
X156845000Y-74422000D03*
X151257000Y-72263000D03*
X138176000Y-74295000D03*
X140970000Y-82804000D03*
X169418000Y-97536000D03*
X169418000Y-96647000D03*
X151003000Y-75946000D03*
X163830000Y-76200000D03*
X159258000Y-94488000D03*
X134125500Y-96520000D03*
X155043000Y-79629000D03*
X142240000Y-91567000D03*
X154432000Y-104521000D03*
X169418000Y-95758000D03*
X151709000Y-89606000D03*
X155448000Y-82169000D03*
X149860000Y-82677000D03*
X161290000Y-74422000D03*
X159329000Y-74239000D03*
X159043000Y-97536000D03*
X171704000Y-71755000D03*
X170434000Y-97536000D03*
X140335000Y-81407000D03*
X145288000Y-78359000D03*
X170434000Y-95758000D03*
X167640000Y-71755000D03*
X148209000Y-90805000D03*
X170434000Y-96647000D03*
X157429200Y-83210400D03*
G04 #@! TO.N,Net-(C209-Pad2)*
X136017000Y-98298000D03*
X137984000Y-93026000D03*
G04 #@! TO.N,Net-(U205A--)*
X138938000Y-91440000D03*
X137867000Y-95559000D03*
G04 #@! TO.N,Net-(C419-Pad1)*
X148209000Y-93218000D03*
G04 #@! TO.N,Net-(U205A-+)*
X142185000Y-95559000D03*
G04 #@! TO.N,+5VA*
X135509000Y-91948000D03*
X148677500Y-68646000D03*
X138430000Y-105918000D03*
X139319000Y-105918000D03*
X138811000Y-68326000D03*
X140208000Y-105918000D03*
X138430000Y-89281000D03*
X142213500Y-82830500D03*
X162240000Y-73980000D03*
G04 #@! TO.N,Net-(C420-Pad1)*
X157988000Y-94615000D03*
G04 #@! TO.N,Net-(D301-K)*
X184912000Y-100584000D03*
X184023000Y-100584000D03*
X185801000Y-100584000D03*
G04 #@! TO.N,+3.3V*
X147447000Y-83312000D03*
X142240000Y-80010000D03*
X165989000Y-90932000D03*
X160147000Y-96139000D03*
X157583000Y-104545000D03*
X167767000Y-91821000D03*
X166878000Y-91821000D03*
X141605000Y-68326000D03*
X156845000Y-81915000D03*
X161218000Y-81860000D03*
X152908000Y-103124000D03*
X146304000Y-94996000D03*
X166878000Y-90932000D03*
X167445481Y-80716519D03*
X154559000Y-81915000D03*
X164846000Y-75057000D03*
X167767000Y-90932000D03*
X165989000Y-91821000D03*
G04 #@! TO.N,+3.3VADC*
X160340000Y-73853000D03*
X154940000Y-74385000D03*
X156822828Y-73589000D03*
G04 #@! TO.N,/MCU/NRST*
X169926000Y-83693000D03*
X153035000Y-81788000D03*
G04 #@! TO.N,Net-(U403-PH0)*
X154559000Y-82998500D03*
G04 #@! TO.N,Net-(U403-PH1)*
X153035000Y-82998500D03*
G04 #@! TO.N,VDDA*
X148844000Y-79057500D03*
G04 #@! TO.N,Net-(U501-XTAL1{slash}CLKIN)*
X167640000Y-75438000D03*
G04 #@! TO.N,Net-(U501-VDDCR)*
X166751000Y-77216000D03*
G04 #@! TO.N,Net-(U501-XTAL2)*
X171704000Y-75438000D03*
G04 #@! TO.N,VCCQ*
X172212000Y-87503000D03*
X171704000Y-78232000D03*
X173355000Y-82423000D03*
X171323000Y-86614000D03*
X171323000Y-87503000D03*
X172212000Y-86614000D03*
G04 #@! TO.N,Net-(D301-A)*
X178435000Y-106426000D03*
G04 #@! TO.N,Net-(D302-K)*
X181422000Y-102936000D03*
G04 #@! TO.N,Net-(Q301-D)*
X190373000Y-102743000D03*
X191262000Y-102743000D03*
X189484000Y-102743000D03*
G04 #@! TO.N,/Ethernet/ETH_TXP*
X175165956Y-81589935D03*
G04 #@! TO.N,/Ethernet/LED2*
X174117000Y-77978000D03*
G04 #@! TO.N,/Ethernet/ETH_TXN*
X175165956Y-82339935D03*
G04 #@! TO.N,/MCU/MCU_DEF*
X164846000Y-71882000D03*
G04 #@! TO.N,Net-(R213-Pad1)*
X138430000Y-80010000D03*
G04 #@! TO.N,Net-(R216-Pad2)*
X141671500Y-73345500D03*
G04 #@! TO.N,Net-(R217-Pad2)*
X138811000Y-73345500D03*
G04 #@! TO.N,VCOM*
X141224000Y-97028000D03*
X160340000Y-74869000D03*
X155011000Y-73589000D03*
G04 #@! TO.N,Net-(U403-BOOT0)*
X159952500Y-85392000D03*
G04 #@! TO.N,/MCU/I2C1_SDA*
X156591000Y-87884000D03*
G04 #@! TO.N,/MCU/I2C1_SCL*
X158115000Y-87884000D03*
G04 #@! TO.N,/Ethernet/RMII_MDIO*
X167312500Y-82476500D03*
X159893000Y-84582000D03*
G04 #@! TO.N,Net-(U501-RBIAS)*
X173926500Y-79184500D03*
G04 #@! TO.N,/Ethernet/REF_CLK*
X159893000Y-83820000D03*
X163427790Y-82358914D03*
G04 #@! TO.N,/Ethernet/REFCLK0*
X165950000Y-82550000D03*
G04 #@! TO.N,/Ethernet/RMII_CRS_DV*
X159004000Y-84836000D03*
X162941000Y-81299000D03*
G04 #@! TO.N,/Ethernet/MODE1*
X166624000Y-80468000D03*
G04 #@! TO.N,/Ethernet/MODE2*
X166497000Y-81349000D03*
G04 #@! TO.N,/Ethernet/RMII_RXD1*
X157861000Y-85598000D03*
X162941000Y-80499000D03*
G04 #@! TO.N,/Ethernet/RMII_RXD0*
X157453902Y-85063902D03*
X162814000Y-79699000D03*
G04 #@! TO.N,/Ethernet/MODE0*
X166624000Y-79699000D03*
G04 #@! TO.N,/Analog/MCU_G1*
X138060000Y-75311000D03*
X147320000Y-84201000D03*
G04 #@! TO.N,/Ethernet/RMII_TXEN*
X155702000Y-91694000D03*
X170307000Y-84328000D03*
G04 #@! TO.N,/Ethernet/RMII_TXD1*
X171430000Y-84328000D03*
X155575000Y-93091000D03*
G04 #@! TO.N,/MCU/EEPROM_nWP*
X159258000Y-87884000D03*
G04 #@! TO.N,/Ethernet/RMII_TXD0*
X170930000Y-83808000D03*
X155067000Y-92456000D03*
G04 #@! TO.N,/Ethernet/RMII_MDC*
X159893000Y-82296000D03*
X168930000Y-83546000D03*
G04 #@! TO.N,Net-(R204-Pad2)*
X123317000Y-68834000D03*
G04 #@! TO.N,Net-(R216-Pad1)*
X139700000Y-87122000D03*
X139360000Y-75373500D03*
G04 #@! TO.N,Net-(U201-OUT+)*
X142809000Y-98364000D03*
G04 #@! TO.N,Net-(U201-OUT-)*
X139126000Y-98232000D03*
G04 #@! TD*
D31*
G04 #@! TO.N,+3.3VADC*
X154940000Y-74385000D02*
X155612000Y-74385000D01*
X155612000Y-74385000D02*
X156408000Y-73589000D01*
X156408000Y-73589000D02*
X156822828Y-73589000D01*
G04 #@! TO.N,VCOM*
X160340000Y-74869000D02*
X159390000Y-75819000D01*
X154435086Y-73589000D02*
X155011000Y-73589000D01*
X159390000Y-75819000D02*
X154305000Y-75819000D01*
X153924000Y-75438000D02*
X153924000Y-74100086D01*
X154305000Y-75819000D02*
X153924000Y-75438000D01*
X153924000Y-74100086D02*
X154435086Y-73589000D01*
D32*
G04 #@! TO.N,*
X191135000Y-109347000D02*
X185039000Y-109347000D01*
X185039000Y-107569000D02*
X191135000Y-107569000D01*
X186563000Y-109347000D02*
X186563000Y-107569000D01*
X185039000Y-109347000D02*
X185039000Y-107569000D01*
X188087000Y-107569000D02*
X188087000Y-109347000D01*
X191135000Y-109347000D02*
X191135000Y-107569000D01*
X189611000Y-107569000D02*
X189611000Y-109347000D01*
D33*
G04 #@! TO.N,VCCQ*
X181737000Y-80503000D02*
X181737000Y-79233000D01*
D34*
X176530000Y-80391000D02*
X173736000Y-80391000D01*
D33*
X180452000Y-81788000D02*
X181737000Y-80503000D01*
D34*
X173736000Y-80391000D02*
X173355000Y-80772000D01*
X173355000Y-80772000D02*
X173355000Y-82423000D01*
D33*
X181737000Y-79233000D02*
X182992000Y-77978000D01*
D34*
X177927000Y-81788000D02*
X176530000Y-80391000D01*
X180452000Y-81788000D02*
X177927000Y-81788000D01*
G04 #@! TD*
G04 #@! TA.AperFunction,Conductor*
G04 #@! TO.N,+5V*
G36*
X181501306Y-92220306D02*
G01*
X181718694Y-92437694D01*
X181737000Y-92481888D01*
X181737000Y-102424277D01*
X181718694Y-102468471D01*
X181674500Y-102486777D01*
X181640712Y-102476857D01*
X181633729Y-102472369D01*
X181494538Y-102431500D01*
X181494536Y-102431500D01*
X181349464Y-102431500D01*
X181349462Y-102431500D01*
X181210272Y-102472369D01*
X181210263Y-102472373D01*
X181088226Y-102550801D01*
X180993225Y-102660438D01*
X180993222Y-102660443D01*
X180932958Y-102792402D01*
X180932957Y-102792405D01*
X180912312Y-102936000D01*
X180932957Y-103079594D01*
X180932958Y-103079597D01*
X180993222Y-103211556D01*
X180993225Y-103211561D01*
X181088226Y-103321198D01*
X181210263Y-103399626D01*
X181210268Y-103399629D01*
X181349461Y-103440499D01*
X181349463Y-103440500D01*
X181349464Y-103440500D01*
X181494537Y-103440500D01*
X181494537Y-103440499D01*
X181633732Y-103399629D01*
X181640708Y-103395145D01*
X181687781Y-103386649D01*
X181727076Y-103413928D01*
X181737000Y-103447722D01*
X181737000Y-108940112D01*
X181718694Y-108984306D01*
X181501306Y-109201694D01*
X181457112Y-109220000D01*
X141757888Y-109220000D01*
X141713694Y-109201694D01*
X141496306Y-108984306D01*
X141478000Y-108940112D01*
X141478000Y-106426000D01*
X177925312Y-106426000D01*
X177945957Y-106569594D01*
X177945958Y-106569597D01*
X178006222Y-106701556D01*
X178006225Y-106701561D01*
X178101226Y-106811198D01*
X178223263Y-106889626D01*
X178223268Y-106889629D01*
X178362461Y-106930499D01*
X178362463Y-106930500D01*
X178362464Y-106930500D01*
X178507537Y-106930500D01*
X178507537Y-106930499D01*
X178646732Y-106889629D01*
X178692535Y-106860192D01*
X178768773Y-106811198D01*
X178863774Y-106701561D01*
X178863777Y-106701558D01*
X178924042Y-106569596D01*
X178944688Y-106426000D01*
X178924042Y-106282404D01*
X178863777Y-106150442D01*
X178863774Y-106150438D01*
X178768773Y-106040801D01*
X178646736Y-105962373D01*
X178646727Y-105962369D01*
X178507538Y-105921500D01*
X178507536Y-105921500D01*
X178362464Y-105921500D01*
X178362462Y-105921500D01*
X178223272Y-105962369D01*
X178223263Y-105962373D01*
X178101226Y-106040801D01*
X178006225Y-106150438D01*
X178006222Y-106150443D01*
X177945958Y-106282402D01*
X177945957Y-106282405D01*
X177925312Y-106426000D01*
X141478000Y-106426000D01*
X141478000Y-105689888D01*
X141496306Y-105645694D01*
X141713694Y-105428306D01*
X141757888Y-105410000D01*
X172339000Y-105410000D01*
X172593000Y-105410000D01*
X172593000Y-92481888D01*
X172611306Y-92437694D01*
X172828694Y-92220306D01*
X172872888Y-92202000D01*
X181457112Y-92202000D01*
X181501306Y-92220306D01*
G37*
G04 #@! TD.AperFunction*
G04 #@! TD*
G04 #@! TA.AperFunction,Conductor*
G04 #@! TO.N,+5VA*
G36*
X163594306Y-65804306D02*
G01*
X163811694Y-66021694D01*
X163830000Y-66065888D01*
X163830000Y-74650112D01*
X163811694Y-74694306D01*
X163594306Y-74911694D01*
X163550112Y-74930000D01*
X161645545Y-74930000D01*
X161601351Y-74911694D01*
X161583045Y-74867500D01*
X161601351Y-74823306D01*
X161611755Y-74814922D01*
X161623773Y-74807198D01*
X161624378Y-74806500D01*
X161718777Y-74697558D01*
X161779042Y-74565596D01*
X161799688Y-74422000D01*
X161779042Y-74278404D01*
X161718777Y-74146442D01*
X161718774Y-74146438D01*
X161623773Y-74036801D01*
X161501736Y-73958373D01*
X161501727Y-73958369D01*
X161362538Y-73917500D01*
X161362536Y-73917500D01*
X161352500Y-73917500D01*
X161308306Y-73899194D01*
X161290000Y-73855000D01*
X161290000Y-71755000D01*
X161290000Y-71501000D01*
X161036000Y-71501000D01*
X156491874Y-71501000D01*
X156447680Y-71482694D01*
X156429374Y-71438500D01*
X156435022Y-71412537D01*
X156436767Y-71408714D01*
X156445042Y-71390596D01*
X156465688Y-71247000D01*
X156445042Y-71103404D01*
X156384777Y-70971442D01*
X156384774Y-70971438D01*
X156289773Y-70861801D01*
X156167736Y-70783373D01*
X156167727Y-70783369D01*
X156028538Y-70742500D01*
X156028536Y-70742500D01*
X155883464Y-70742500D01*
X155883462Y-70742500D01*
X155744272Y-70783369D01*
X155744263Y-70783373D01*
X155622226Y-70861801D01*
X155527225Y-70971438D01*
X155527222Y-70971443D01*
X155466958Y-71103402D01*
X155466957Y-71103405D01*
X155446312Y-71247000D01*
X155466957Y-71390594D01*
X155466958Y-71390597D01*
X155476978Y-71412537D01*
X155478685Y-71460342D01*
X155446089Y-71495352D01*
X155420126Y-71501000D01*
X141478000Y-71501000D01*
X141224000Y-71501000D01*
X141224000Y-71755000D01*
X141224000Y-73097343D01*
X141218352Y-73123306D01*
X141182458Y-73201902D01*
X141182457Y-73201905D01*
X141161812Y-73345500D01*
X141182457Y-73489094D01*
X141182458Y-73489097D01*
X141218352Y-73567693D01*
X141224000Y-73593656D01*
X141224000Y-82042000D01*
X142849112Y-82042000D01*
X142893306Y-82060306D01*
X143110694Y-82277694D01*
X143129000Y-82321888D01*
X143129000Y-97855490D01*
X143110694Y-97899684D01*
X143066500Y-97917990D01*
X143032710Y-97908069D01*
X143020732Y-97900371D01*
X143020729Y-97900370D01*
X143020727Y-97900369D01*
X142881538Y-97859500D01*
X142881536Y-97859500D01*
X142736464Y-97859500D01*
X142736462Y-97859500D01*
X142597272Y-97900369D01*
X142597263Y-97900373D01*
X142475226Y-97978801D01*
X142380225Y-98088438D01*
X142380222Y-98088443D01*
X142319958Y-98220402D01*
X142319957Y-98220405D01*
X142299312Y-98364000D01*
X142319957Y-98507594D01*
X142319958Y-98507597D01*
X142380222Y-98639556D01*
X142380225Y-98639561D01*
X142475226Y-98749198D01*
X142585291Y-98819932D01*
X142597268Y-98827629D01*
X142635031Y-98838717D01*
X142736461Y-98868499D01*
X142736463Y-98868500D01*
X142736464Y-98868500D01*
X142881537Y-98868500D01*
X142881537Y-98868499D01*
X143020732Y-98827629D01*
X143032708Y-98819931D01*
X143079783Y-98811437D01*
X143119077Y-98838717D01*
X143129000Y-98872509D01*
X143129000Y-104749112D01*
X143110694Y-104793306D01*
X142893306Y-105010694D01*
X142849112Y-105029000D01*
X140970000Y-105029000D01*
X140970000Y-105283000D01*
X140970000Y-108940112D01*
X140951694Y-108984306D01*
X140734306Y-109201694D01*
X140690112Y-109220000D01*
X132867888Y-109220000D01*
X132823694Y-109201694D01*
X132606306Y-108984306D01*
X132588000Y-108940112D01*
X132588000Y-104038888D01*
X132606306Y-103994694D01*
X132823694Y-103777306D01*
X132867888Y-103759000D01*
X133223000Y-103759000D01*
X133477000Y-103759000D01*
X133477000Y-98298000D01*
X135507312Y-98298000D01*
X135527957Y-98441594D01*
X135527958Y-98441597D01*
X135588222Y-98573556D01*
X135588225Y-98573561D01*
X135683226Y-98683198D01*
X135785925Y-98749198D01*
X135805268Y-98761629D01*
X135944461Y-98802499D01*
X135944463Y-98802500D01*
X135944464Y-98802500D01*
X136089537Y-98802500D01*
X136089537Y-98802499D01*
X136228732Y-98761629D01*
X136274535Y-98732192D01*
X136350773Y-98683198D01*
X136388585Y-98639561D01*
X136445777Y-98573558D01*
X136506042Y-98441596D01*
X136526688Y-98298000D01*
X136517199Y-98232000D01*
X138616312Y-98232000D01*
X138636957Y-98375594D01*
X138636958Y-98375597D01*
X138697222Y-98507556D01*
X138697225Y-98507561D01*
X138792226Y-98617198D01*
X138894925Y-98683198D01*
X138914268Y-98695629D01*
X139053461Y-98736499D01*
X139053463Y-98736500D01*
X139053464Y-98736500D01*
X139198537Y-98736500D01*
X139198537Y-98736499D01*
X139337732Y-98695629D01*
X139424975Y-98639561D01*
X139459773Y-98617198D01*
X139497585Y-98573561D01*
X139554777Y-98507558D01*
X139615042Y-98375596D01*
X139635688Y-98232000D01*
X139615042Y-98088404D01*
X139554777Y-97956442D01*
X139554774Y-97956438D01*
X139459773Y-97846801D01*
X139337736Y-97768373D01*
X139337727Y-97768369D01*
X139198538Y-97727500D01*
X139198536Y-97727500D01*
X139053464Y-97727500D01*
X139053462Y-97727500D01*
X138914272Y-97768369D01*
X138914263Y-97768373D01*
X138792226Y-97846801D01*
X138697225Y-97956438D01*
X138697222Y-97956443D01*
X138636958Y-98088402D01*
X138636957Y-98088405D01*
X138616312Y-98232000D01*
X136517199Y-98232000D01*
X136506042Y-98154404D01*
X136445777Y-98022442D01*
X136445774Y-98022438D01*
X136350773Y-97912801D01*
X136228736Y-97834373D01*
X136228727Y-97834369D01*
X136089538Y-97793500D01*
X136089536Y-97793500D01*
X135944464Y-97793500D01*
X135944462Y-97793500D01*
X135805272Y-97834369D01*
X135805263Y-97834373D01*
X135683226Y-97912801D01*
X135588225Y-98022438D01*
X135588222Y-98022443D01*
X135527958Y-98154402D01*
X135527957Y-98154405D01*
X135507312Y-98298000D01*
X133477000Y-98298000D01*
X133477000Y-97028000D01*
X140714312Y-97028000D01*
X140734957Y-97171594D01*
X140734958Y-97171597D01*
X140795222Y-97303556D01*
X140795225Y-97303561D01*
X140890226Y-97413198D01*
X141012263Y-97491626D01*
X141012268Y-97491629D01*
X141151461Y-97532499D01*
X141151463Y-97532500D01*
X141151464Y-97532500D01*
X141296537Y-97532500D01*
X141296537Y-97532499D01*
X141435732Y-97491629D01*
X141481535Y-97462192D01*
X141557773Y-97413198D01*
X141652774Y-97303561D01*
X141652777Y-97303558D01*
X141713042Y-97171596D01*
X141733688Y-97028000D01*
X141713042Y-96884404D01*
X141652777Y-96752442D01*
X141652774Y-96752438D01*
X141557773Y-96642801D01*
X141435736Y-96564373D01*
X141435727Y-96564369D01*
X141296538Y-96523500D01*
X141296536Y-96523500D01*
X141151464Y-96523500D01*
X141151462Y-96523500D01*
X141012272Y-96564369D01*
X141012263Y-96564373D01*
X140890226Y-96642801D01*
X140795225Y-96752438D01*
X140795222Y-96752443D01*
X140734958Y-96884402D01*
X140734957Y-96884405D01*
X140714312Y-97028000D01*
X133477000Y-97028000D01*
X133477000Y-96520000D01*
X133615812Y-96520000D01*
X133636457Y-96663594D01*
X133636458Y-96663597D01*
X133696722Y-96795556D01*
X133696725Y-96795561D01*
X133791726Y-96905198D01*
X133913763Y-96983626D01*
X133913768Y-96983629D01*
X134052961Y-97024499D01*
X134052963Y-97024500D01*
X134052964Y-97024500D01*
X134198037Y-97024500D01*
X134198037Y-97024499D01*
X134337232Y-96983629D01*
X134383035Y-96954192D01*
X134459273Y-96905198D01*
X134459275Y-96905196D01*
X134554277Y-96795558D01*
X134614542Y-96663596D01*
X134635188Y-96520000D01*
X134614542Y-96376404D01*
X134554277Y-96244442D01*
X134462911Y-96139000D01*
X134459273Y-96134801D01*
X134337236Y-96056373D01*
X134337227Y-96056369D01*
X134198038Y-96015500D01*
X134198036Y-96015500D01*
X134052964Y-96015500D01*
X134052962Y-96015500D01*
X133913772Y-96056369D01*
X133913763Y-96056373D01*
X133791726Y-96134801D01*
X133696725Y-96244438D01*
X133696722Y-96244443D01*
X133636458Y-96376402D01*
X133636457Y-96376405D01*
X133615812Y-96520000D01*
X133477000Y-96520000D01*
X133477000Y-95559000D01*
X137357312Y-95559000D01*
X137377957Y-95702594D01*
X137377958Y-95702597D01*
X137438222Y-95834556D01*
X137438225Y-95834561D01*
X137533226Y-95944198D01*
X137612905Y-95995404D01*
X137655268Y-96022629D01*
X137794461Y-96063499D01*
X137794463Y-96063500D01*
X137794464Y-96063500D01*
X137939537Y-96063500D01*
X137939537Y-96063499D01*
X138078732Y-96022629D01*
X138124535Y-95993192D01*
X138200773Y-95944198D01*
X138200775Y-95944196D01*
X138295777Y-95834558D01*
X138356042Y-95702596D01*
X138376688Y-95559000D01*
X141675312Y-95559000D01*
X141695957Y-95702594D01*
X141695958Y-95702597D01*
X141756222Y-95834556D01*
X141756225Y-95834561D01*
X141851226Y-95944198D01*
X141930905Y-95995404D01*
X141973268Y-96022629D01*
X142112461Y-96063499D01*
X142112463Y-96063500D01*
X142112464Y-96063500D01*
X142257537Y-96063500D01*
X142257537Y-96063499D01*
X142396732Y-96022629D01*
X142442535Y-95993192D01*
X142518773Y-95944198D01*
X142518775Y-95944196D01*
X142613777Y-95834558D01*
X142674042Y-95702596D01*
X142694688Y-95559000D01*
X142674042Y-95415404D01*
X142613777Y-95283442D01*
X142613774Y-95283438D01*
X142518773Y-95173801D01*
X142396736Y-95095373D01*
X142396727Y-95095369D01*
X142257538Y-95054500D01*
X142257536Y-95054500D01*
X142112464Y-95054500D01*
X142112462Y-95054500D01*
X141973272Y-95095369D01*
X141973263Y-95095373D01*
X141851226Y-95173801D01*
X141756225Y-95283438D01*
X141756222Y-95283443D01*
X141695958Y-95415402D01*
X141695957Y-95415405D01*
X141675312Y-95559000D01*
X138376688Y-95559000D01*
X138356042Y-95415404D01*
X138295777Y-95283442D01*
X138295774Y-95283438D01*
X138200773Y-95173801D01*
X138078736Y-95095373D01*
X138078727Y-95095369D01*
X137939538Y-95054500D01*
X137939536Y-95054500D01*
X137794464Y-95054500D01*
X137794462Y-95054500D01*
X137655272Y-95095369D01*
X137655263Y-95095373D01*
X137533226Y-95173801D01*
X137438225Y-95283438D01*
X137438222Y-95283443D01*
X137377958Y-95415402D01*
X137377957Y-95415405D01*
X137357312Y-95559000D01*
X133477000Y-95559000D01*
X133477000Y-93026000D01*
X137474312Y-93026000D01*
X137494957Y-93169594D01*
X137494958Y-93169597D01*
X137555222Y-93301556D01*
X137555225Y-93301561D01*
X137650226Y-93411198D01*
X137772263Y-93489626D01*
X137772268Y-93489629D01*
X137911461Y-93530499D01*
X137911463Y-93530500D01*
X137911464Y-93530500D01*
X138056537Y-93530500D01*
X138056537Y-93530499D01*
X138195732Y-93489629D01*
X138241535Y-93460192D01*
X138317773Y-93411198D01*
X138356454Y-93366558D01*
X138412777Y-93301558D01*
X138473042Y-93169596D01*
X138493688Y-93026000D01*
X138473042Y-92882404D01*
X138412777Y-92750442D01*
X138374098Y-92705804D01*
X138317773Y-92640801D01*
X138195736Y-92562373D01*
X138195727Y-92562369D01*
X138056538Y-92521500D01*
X138056536Y-92521500D01*
X137911464Y-92521500D01*
X137911462Y-92521500D01*
X137772272Y-92562369D01*
X137772263Y-92562373D01*
X137650226Y-92640801D01*
X137555225Y-92750438D01*
X137555222Y-92750443D01*
X137494958Y-92882402D01*
X137494957Y-92882405D01*
X137474312Y-93026000D01*
X133477000Y-93026000D01*
X133477000Y-91440000D01*
X138428312Y-91440000D01*
X138448957Y-91583594D01*
X138448958Y-91583597D01*
X138509222Y-91715556D01*
X138509225Y-91715561D01*
X138604226Y-91825198D01*
X138726263Y-91903626D01*
X138726268Y-91903629D01*
X138858653Y-91942500D01*
X138865461Y-91944499D01*
X138865463Y-91944500D01*
X138865464Y-91944500D01*
X139010537Y-91944500D01*
X139010537Y-91944499D01*
X139149732Y-91903629D01*
X139195535Y-91874192D01*
X139271773Y-91825198D01*
X139366774Y-91715561D01*
X139366777Y-91715558D01*
X139427042Y-91583596D01*
X139429428Y-91567000D01*
X141730312Y-91567000D01*
X141750957Y-91710594D01*
X141750958Y-91710597D01*
X141811222Y-91842556D01*
X141811225Y-91842561D01*
X141906226Y-91952198D01*
X142028263Y-92030626D01*
X142028268Y-92030629D01*
X142049326Y-92036812D01*
X142167461Y-92071499D01*
X142167463Y-92071500D01*
X142167464Y-92071500D01*
X142312537Y-92071500D01*
X142312537Y-92071499D01*
X142451732Y-92030629D01*
X142511262Y-91992371D01*
X142573773Y-91952198D01*
X142574378Y-91951500D01*
X142668777Y-91842558D01*
X142729042Y-91710596D01*
X142749688Y-91567000D01*
X142729042Y-91423404D01*
X142668777Y-91291442D01*
X142668774Y-91291438D01*
X142573773Y-91181801D01*
X142451736Y-91103373D01*
X142451727Y-91103369D01*
X142312538Y-91062500D01*
X142312536Y-91062500D01*
X142167464Y-91062500D01*
X142167462Y-91062500D01*
X142028272Y-91103369D01*
X142028263Y-91103373D01*
X141906226Y-91181801D01*
X141811225Y-91291438D01*
X141811222Y-91291443D01*
X141750958Y-91423402D01*
X141750957Y-91423405D01*
X141730312Y-91567000D01*
X139429428Y-91567000D01*
X139447688Y-91440000D01*
X139427042Y-91296404D01*
X139366777Y-91164442D01*
X139366774Y-91164438D01*
X139271773Y-91054801D01*
X139149736Y-90976373D01*
X139149727Y-90976369D01*
X139010538Y-90935500D01*
X139010536Y-90935500D01*
X138865464Y-90935500D01*
X138865462Y-90935500D01*
X138726272Y-90976369D01*
X138726263Y-90976373D01*
X138604226Y-91054801D01*
X138509225Y-91164438D01*
X138509222Y-91164443D01*
X138448958Y-91296402D01*
X138448957Y-91296405D01*
X138428312Y-91440000D01*
X133477000Y-91440000D01*
X133477000Y-87122000D01*
X139190312Y-87122000D01*
X139210957Y-87265594D01*
X139210958Y-87265597D01*
X139271222Y-87397556D01*
X139271225Y-87397561D01*
X139366226Y-87507198D01*
X139488263Y-87585626D01*
X139488268Y-87585629D01*
X139627461Y-87626499D01*
X139627463Y-87626500D01*
X139627464Y-87626500D01*
X139772537Y-87626500D01*
X139772537Y-87626499D01*
X139911732Y-87585629D01*
X139957535Y-87556192D01*
X140033773Y-87507198D01*
X140033775Y-87507196D01*
X140128777Y-87397558D01*
X140189042Y-87265596D01*
X140209688Y-87122000D01*
X140189042Y-86978404D01*
X140128777Y-86846442D01*
X140128774Y-86846438D01*
X140033773Y-86736801D01*
X139911736Y-86658373D01*
X139911727Y-86658369D01*
X139772538Y-86617500D01*
X139772536Y-86617500D01*
X139627464Y-86617500D01*
X139627462Y-86617500D01*
X139488272Y-86658369D01*
X139488263Y-86658373D01*
X139366226Y-86736801D01*
X139271225Y-86846438D01*
X139271222Y-86846443D01*
X139210958Y-86978402D01*
X139210957Y-86978405D01*
X139190312Y-87122000D01*
X133477000Y-87122000D01*
X133477000Y-82804000D01*
X140460312Y-82804000D01*
X140480957Y-82947594D01*
X140480958Y-82947597D01*
X140541222Y-83079556D01*
X140541225Y-83079561D01*
X140636226Y-83189198D01*
X140758263Y-83267626D01*
X140758268Y-83267629D01*
X140780164Y-83274058D01*
X140897461Y-83308499D01*
X140897463Y-83308500D01*
X140897464Y-83308500D01*
X141042537Y-83308500D01*
X141042537Y-83308499D01*
X141181732Y-83267629D01*
X141227535Y-83238192D01*
X141303773Y-83189198D01*
X141303775Y-83189196D01*
X141398777Y-83079558D01*
X141459042Y-82947596D01*
X141479688Y-82804000D01*
X141459042Y-82660404D01*
X141398777Y-82528442D01*
X141368933Y-82494000D01*
X141303773Y-82418801D01*
X141181736Y-82340373D01*
X141181727Y-82340369D01*
X141042538Y-82299500D01*
X141042536Y-82299500D01*
X140897464Y-82299500D01*
X140897462Y-82299500D01*
X140758272Y-82340369D01*
X140758263Y-82340373D01*
X140636226Y-82418801D01*
X140541225Y-82528438D01*
X140541222Y-82528443D01*
X140480958Y-82660402D01*
X140480957Y-82660405D01*
X140460312Y-82804000D01*
X133477000Y-82804000D01*
X133477000Y-81407000D01*
X139825312Y-81407000D01*
X139845957Y-81550594D01*
X139845958Y-81550597D01*
X139906222Y-81682556D01*
X139906225Y-81682561D01*
X140001226Y-81792198D01*
X140098037Y-81854414D01*
X140123268Y-81870629D01*
X140207240Y-81895285D01*
X140262461Y-81911499D01*
X140262463Y-81911500D01*
X140262464Y-81911500D01*
X140407537Y-81911500D01*
X140407537Y-81911499D01*
X140546732Y-81870629D01*
X140606262Y-81832371D01*
X140668773Y-81792198D01*
X140672411Y-81788000D01*
X140763777Y-81682558D01*
X140824042Y-81550596D01*
X140844688Y-81407000D01*
X140824042Y-81263404D01*
X140763777Y-81131442D01*
X140763774Y-81131438D01*
X140668773Y-81021801D01*
X140546736Y-80943373D01*
X140546727Y-80943369D01*
X140407538Y-80902500D01*
X140407536Y-80902500D01*
X140262464Y-80902500D01*
X140262462Y-80902500D01*
X140123272Y-80943369D01*
X140123263Y-80943373D01*
X140001226Y-81021801D01*
X139906225Y-81131438D01*
X139906222Y-81131443D01*
X139845958Y-81263402D01*
X139845957Y-81263405D01*
X139825312Y-81407000D01*
X133477000Y-81407000D01*
X133477000Y-80010000D01*
X137920312Y-80010000D01*
X137940957Y-80153594D01*
X137940958Y-80153597D01*
X138001222Y-80285556D01*
X138001225Y-80285561D01*
X138096226Y-80395198D01*
X138218263Y-80473626D01*
X138218268Y-80473629D01*
X138357461Y-80514499D01*
X138357463Y-80514500D01*
X138357464Y-80514500D01*
X138502537Y-80514500D01*
X138502537Y-80514499D01*
X138641732Y-80473629D01*
X138687535Y-80444192D01*
X138763773Y-80395198D01*
X138858774Y-80285561D01*
X138858777Y-80285558D01*
X138919042Y-80153596D01*
X138939688Y-80010000D01*
X138919042Y-79866404D01*
X138858777Y-79734442D01*
X138858774Y-79734438D01*
X138763773Y-79624801D01*
X138641736Y-79546373D01*
X138641727Y-79546369D01*
X138502538Y-79505500D01*
X138502536Y-79505500D01*
X138357464Y-79505500D01*
X138357462Y-79505500D01*
X138218272Y-79546369D01*
X138218263Y-79546373D01*
X138096226Y-79624801D01*
X138001225Y-79734438D01*
X138001222Y-79734443D01*
X137940958Y-79866402D01*
X137940957Y-79866405D01*
X137920312Y-80010000D01*
X133477000Y-80010000D01*
X133477000Y-75311000D01*
X137550312Y-75311000D01*
X137570957Y-75454594D01*
X137570958Y-75454597D01*
X137631222Y-75586556D01*
X137631225Y-75586561D01*
X137726226Y-75696198D01*
X137848263Y-75774626D01*
X137848268Y-75774629D01*
X137985094Y-75814804D01*
X137987461Y-75815499D01*
X137987463Y-75815500D01*
X137987464Y-75815500D01*
X138132537Y-75815500D01*
X138132537Y-75815499D01*
X138271732Y-75774629D01*
X138331262Y-75736371D01*
X138393773Y-75696198D01*
X138416091Y-75670442D01*
X138488777Y-75586558D01*
X138549042Y-75454596D01*
X138560702Y-75373500D01*
X138850312Y-75373500D01*
X138870957Y-75517094D01*
X138870958Y-75517097D01*
X138931222Y-75649056D01*
X138931225Y-75649061D01*
X139026226Y-75758698D01*
X139148263Y-75837126D01*
X139148268Y-75837129D01*
X139287461Y-75877999D01*
X139287463Y-75878000D01*
X139287464Y-75878000D01*
X139432537Y-75878000D01*
X139432537Y-75877999D01*
X139571732Y-75837129D01*
X139625765Y-75802404D01*
X139693773Y-75758698D01*
X139693775Y-75758696D01*
X139788777Y-75649058D01*
X139849042Y-75517096D01*
X139869688Y-75373500D01*
X139849042Y-75229904D01*
X139788777Y-75097942D01*
X139788774Y-75097938D01*
X139693773Y-74988301D01*
X139571736Y-74909873D01*
X139571727Y-74909869D01*
X139432538Y-74869000D01*
X139432536Y-74869000D01*
X139287464Y-74869000D01*
X139287462Y-74869000D01*
X139148272Y-74909869D01*
X139148263Y-74909873D01*
X139026226Y-74988301D01*
X138931225Y-75097938D01*
X138931222Y-75097943D01*
X138870958Y-75229902D01*
X138870957Y-75229905D01*
X138850312Y-75373500D01*
X138560702Y-75373500D01*
X138569688Y-75311000D01*
X138549042Y-75167404D01*
X138488777Y-75035442D01*
X138447932Y-74988304D01*
X138393773Y-74925801D01*
X138328460Y-74883827D01*
X138301178Y-74844534D01*
X138309672Y-74797459D01*
X138344641Y-74771281D01*
X138387732Y-74758629D01*
X138474869Y-74702629D01*
X138509773Y-74680198D01*
X138509775Y-74680196D01*
X138604777Y-74570558D01*
X138665042Y-74438596D01*
X138685688Y-74295000D01*
X138665042Y-74151404D01*
X138604777Y-74019442D01*
X138556253Y-73963442D01*
X138509773Y-73909801D01*
X138387736Y-73831373D01*
X138387727Y-73831369D01*
X138248538Y-73790500D01*
X138248536Y-73790500D01*
X138103464Y-73790500D01*
X138103462Y-73790500D01*
X137964272Y-73831369D01*
X137964263Y-73831373D01*
X137842226Y-73909801D01*
X137747225Y-74019438D01*
X137747222Y-74019443D01*
X137686958Y-74151402D01*
X137686957Y-74151405D01*
X137666312Y-74295000D01*
X137686957Y-74438594D01*
X137686958Y-74438597D01*
X137747222Y-74570556D01*
X137747225Y-74570561D01*
X137842226Y-74680198D01*
X137907539Y-74722172D01*
X137934821Y-74761465D01*
X137926327Y-74808540D01*
X137891358Y-74834718D01*
X137848270Y-74847370D01*
X137848263Y-74847373D01*
X137726226Y-74925801D01*
X137631225Y-75035438D01*
X137631222Y-75035443D01*
X137570958Y-75167402D01*
X137570957Y-75167405D01*
X137550312Y-75311000D01*
X133477000Y-75311000D01*
X133477000Y-73345500D01*
X138301312Y-73345500D01*
X138321957Y-73489094D01*
X138321958Y-73489097D01*
X138382222Y-73621056D01*
X138382225Y-73621061D01*
X138477226Y-73730698D01*
X138599263Y-73809126D01*
X138599268Y-73809129D01*
X138738461Y-73849999D01*
X138738463Y-73850000D01*
X138738464Y-73850000D01*
X138883537Y-73850000D01*
X138883537Y-73849999D01*
X139022732Y-73809129D01*
X139075260Y-73775371D01*
X139144773Y-73730698D01*
X139144775Y-73730696D01*
X139239777Y-73621058D01*
X139300042Y-73489096D01*
X139320688Y-73345500D01*
X139300042Y-73201904D01*
X139239777Y-73069942D01*
X139227680Y-73055981D01*
X139144773Y-72960301D01*
X139022736Y-72881873D01*
X139022727Y-72881869D01*
X138883538Y-72841000D01*
X138883536Y-72841000D01*
X138738464Y-72841000D01*
X138738462Y-72841000D01*
X138599272Y-72881869D01*
X138599263Y-72881873D01*
X138477226Y-72960301D01*
X138382225Y-73069938D01*
X138382222Y-73069943D01*
X138321958Y-73201902D01*
X138321957Y-73201905D01*
X138301312Y-73345500D01*
X133477000Y-73345500D01*
X133477000Y-69596000D01*
X146175312Y-69596000D01*
X146195957Y-69739594D01*
X146195958Y-69739597D01*
X146256222Y-69871556D01*
X146256225Y-69871561D01*
X146351226Y-69981198D01*
X146473263Y-70059626D01*
X146473268Y-70059629D01*
X146612461Y-70100499D01*
X146612463Y-70100500D01*
X146612464Y-70100500D01*
X146757537Y-70100500D01*
X146757537Y-70100499D01*
X146896732Y-70059629D01*
X146942535Y-70030192D01*
X147018773Y-69981198D01*
X147113774Y-69871561D01*
X147113777Y-69871558D01*
X147174042Y-69739596D01*
X147194688Y-69596000D01*
X160907312Y-69596000D01*
X160927957Y-69739594D01*
X160927958Y-69739597D01*
X160988222Y-69871556D01*
X160988225Y-69871561D01*
X161083226Y-69981198D01*
X161205263Y-70059626D01*
X161205268Y-70059629D01*
X161344461Y-70100499D01*
X161344463Y-70100500D01*
X161344464Y-70100500D01*
X161489537Y-70100500D01*
X161489537Y-70100499D01*
X161628732Y-70059629D01*
X161674535Y-70030192D01*
X161750773Y-69981198D01*
X161845774Y-69871561D01*
X161845777Y-69871558D01*
X161906042Y-69739596D01*
X161926688Y-69596000D01*
X161906042Y-69452404D01*
X161845777Y-69320442D01*
X161845774Y-69320438D01*
X161750773Y-69210801D01*
X161628736Y-69132373D01*
X161628727Y-69132369D01*
X161489538Y-69091500D01*
X161489536Y-69091500D01*
X161344464Y-69091500D01*
X161344462Y-69091500D01*
X161205272Y-69132369D01*
X161205263Y-69132373D01*
X161083226Y-69210801D01*
X160988225Y-69320438D01*
X160988222Y-69320443D01*
X160927958Y-69452402D01*
X160927957Y-69452405D01*
X160907312Y-69596000D01*
X147194688Y-69596000D01*
X147174042Y-69452404D01*
X147113777Y-69320442D01*
X147113774Y-69320438D01*
X147018773Y-69210801D01*
X146896736Y-69132373D01*
X146896727Y-69132369D01*
X146757538Y-69091500D01*
X146757536Y-69091500D01*
X146612464Y-69091500D01*
X146612462Y-69091500D01*
X146473272Y-69132369D01*
X146473263Y-69132373D01*
X146351226Y-69210801D01*
X146256225Y-69320438D01*
X146256222Y-69320443D01*
X146195958Y-69452402D01*
X146195957Y-69452405D01*
X146175312Y-69596000D01*
X133477000Y-69596000D01*
X133477000Y-68834000D01*
X152017312Y-68834000D01*
X152037957Y-68977594D01*
X152037958Y-68977597D01*
X152098222Y-69109556D01*
X152098225Y-69109561D01*
X152193226Y-69219198D01*
X152315263Y-69297626D01*
X152315268Y-69297629D01*
X152392967Y-69320443D01*
X152454461Y-69338499D01*
X152454463Y-69338500D01*
X152454464Y-69338500D01*
X152599537Y-69338500D01*
X152599537Y-69338499D01*
X152738732Y-69297629D01*
X152784535Y-69268192D01*
X152860773Y-69219198D01*
X152860775Y-69219196D01*
X152955777Y-69109558D01*
X153016042Y-68977596D01*
X153018428Y-68961000D01*
X155446312Y-68961000D01*
X155466957Y-69104594D01*
X155466958Y-69104597D01*
X155527222Y-69236556D01*
X155527225Y-69236561D01*
X155622226Y-69346198D01*
X155744263Y-69424626D01*
X155744268Y-69424629D01*
X155838866Y-69452405D01*
X155883461Y-69465499D01*
X155883463Y-69465500D01*
X155883464Y-69465500D01*
X156028537Y-69465500D01*
X156028537Y-69465499D01*
X156167732Y-69424629D01*
X156213535Y-69395192D01*
X156289773Y-69346198D01*
X156289775Y-69346196D01*
X156384777Y-69236558D01*
X156445042Y-69104596D01*
X156465688Y-68961000D01*
X156445042Y-68817404D01*
X156384777Y-68685442D01*
X156312094Y-68601561D01*
X156289773Y-68575801D01*
X156167736Y-68497373D01*
X156167727Y-68497369D01*
X156028538Y-68456500D01*
X156028536Y-68456500D01*
X155883464Y-68456500D01*
X155883462Y-68456500D01*
X155744272Y-68497369D01*
X155744263Y-68497373D01*
X155622226Y-68575801D01*
X155527225Y-68685438D01*
X155527222Y-68685443D01*
X155466958Y-68817402D01*
X155466957Y-68817405D01*
X155446312Y-68961000D01*
X153018428Y-68961000D01*
X153036688Y-68834000D01*
X153016042Y-68690404D01*
X152955777Y-68558442D01*
X152955774Y-68558438D01*
X152860773Y-68448801D01*
X152738736Y-68370373D01*
X152738727Y-68370369D01*
X152599538Y-68329500D01*
X152599536Y-68329500D01*
X152454464Y-68329500D01*
X152454462Y-68329500D01*
X152315272Y-68370369D01*
X152315263Y-68370373D01*
X152193226Y-68448801D01*
X152098225Y-68558438D01*
X152098222Y-68558443D01*
X152037958Y-68690402D01*
X152037957Y-68690405D01*
X152017312Y-68834000D01*
X133477000Y-68834000D01*
X133477000Y-68326000D01*
X136269312Y-68326000D01*
X136289957Y-68469594D01*
X136289958Y-68469597D01*
X136350222Y-68601556D01*
X136350225Y-68601561D01*
X136445226Y-68711198D01*
X136567263Y-68789626D01*
X136567268Y-68789629D01*
X136661866Y-68817405D01*
X136706461Y-68830499D01*
X136706463Y-68830500D01*
X136706464Y-68830500D01*
X136851537Y-68830500D01*
X136851537Y-68830499D01*
X136990732Y-68789629D01*
X137036535Y-68760192D01*
X137112773Y-68711198D01*
X137112775Y-68711196D01*
X137207777Y-68601558D01*
X137268042Y-68469596D01*
X137288688Y-68326000D01*
X141095312Y-68326000D01*
X141115957Y-68469594D01*
X141115958Y-68469597D01*
X141176222Y-68601556D01*
X141176225Y-68601561D01*
X141271226Y-68711198D01*
X141393263Y-68789626D01*
X141393268Y-68789629D01*
X141487866Y-68817405D01*
X141532461Y-68830499D01*
X141532463Y-68830500D01*
X141532464Y-68830500D01*
X141677537Y-68830500D01*
X141677537Y-68830499D01*
X141816732Y-68789629D01*
X141862535Y-68760192D01*
X141938773Y-68711198D01*
X141938775Y-68711196D01*
X142033777Y-68601558D01*
X142094042Y-68469596D01*
X142114688Y-68326000D01*
X143381312Y-68326000D01*
X143401957Y-68469594D01*
X143401958Y-68469597D01*
X143462222Y-68601556D01*
X143462225Y-68601561D01*
X143557226Y-68711198D01*
X143679263Y-68789626D01*
X143679268Y-68789629D01*
X143773866Y-68817405D01*
X143818461Y-68830499D01*
X143818463Y-68830500D01*
X143818464Y-68830500D01*
X143963537Y-68830500D01*
X143963537Y-68830499D01*
X144102732Y-68789629D01*
X144148535Y-68760192D01*
X144224773Y-68711198D01*
X144224775Y-68711196D01*
X144319777Y-68601558D01*
X144380042Y-68469596D01*
X144400688Y-68326000D01*
X144380042Y-68182404D01*
X144319777Y-68050442D01*
X144319774Y-68050438D01*
X144224773Y-67940801D01*
X144102736Y-67862373D01*
X144102727Y-67862369D01*
X143963538Y-67821500D01*
X143963536Y-67821500D01*
X143818464Y-67821500D01*
X143818462Y-67821500D01*
X143679272Y-67862369D01*
X143679263Y-67862373D01*
X143557226Y-67940801D01*
X143462225Y-68050438D01*
X143462222Y-68050443D01*
X143401958Y-68182402D01*
X143401957Y-68182405D01*
X143381312Y-68326000D01*
X142114688Y-68326000D01*
X142094042Y-68182404D01*
X142033777Y-68050442D01*
X142033774Y-68050438D01*
X141938773Y-67940801D01*
X141816736Y-67862373D01*
X141816727Y-67862369D01*
X141677538Y-67821500D01*
X141677536Y-67821500D01*
X141532464Y-67821500D01*
X141532462Y-67821500D01*
X141393272Y-67862369D01*
X141393263Y-67862373D01*
X141271226Y-67940801D01*
X141176225Y-68050438D01*
X141176222Y-68050443D01*
X141115958Y-68182402D01*
X141115957Y-68182405D01*
X141095312Y-68326000D01*
X137288688Y-68326000D01*
X137268042Y-68182404D01*
X137207777Y-68050442D01*
X137207774Y-68050438D01*
X137112773Y-67940801D01*
X136990736Y-67862373D01*
X136990727Y-67862369D01*
X136851538Y-67821500D01*
X136851536Y-67821500D01*
X136706464Y-67821500D01*
X136706462Y-67821500D01*
X136567272Y-67862369D01*
X136567263Y-67862373D01*
X136445226Y-67940801D01*
X136350225Y-68050438D01*
X136350222Y-68050443D01*
X136289958Y-68182402D01*
X136289957Y-68182405D01*
X136269312Y-68326000D01*
X133477000Y-68326000D01*
X133477000Y-66065888D01*
X133495306Y-66021694D01*
X133712694Y-65804306D01*
X133756888Y-65786000D01*
X163550112Y-65786000D01*
X163594306Y-65804306D01*
G37*
G04 #@! TD.AperFunction*
G04 #@! TD*
G04 #@! TA.AperFunction,Conductor*
G04 #@! TO.N,+3.3V*
G36*
X150826926Y-71900306D02*
G01*
X150845232Y-71944500D01*
X150830624Y-71983668D01*
X150830641Y-71983679D01*
X150830590Y-71983757D01*
X150829968Y-71985427D01*
X150828225Y-71987438D01*
X150828222Y-71987443D01*
X150767958Y-72119402D01*
X150767957Y-72119405D01*
X150747312Y-72263000D01*
X150767957Y-72406594D01*
X150767958Y-72406597D01*
X150828222Y-72538556D01*
X150828225Y-72538561D01*
X150923226Y-72648198D01*
X151045263Y-72726626D01*
X151045268Y-72726629D01*
X151184461Y-72767499D01*
X151184463Y-72767500D01*
X151184464Y-72767500D01*
X151329537Y-72767500D01*
X151329537Y-72767499D01*
X151468732Y-72726629D01*
X151514535Y-72697192D01*
X151590773Y-72648198D01*
X151685774Y-72538561D01*
X151685777Y-72538558D01*
X151746042Y-72406596D01*
X151766688Y-72263000D01*
X151746042Y-72119404D01*
X151685777Y-71987442D01*
X151685774Y-71987438D01*
X151684032Y-71985427D01*
X151683548Y-71983973D01*
X151683359Y-71983679D01*
X151683434Y-71983630D01*
X151668927Y-71940039D01*
X151690341Y-71897264D01*
X151731268Y-71882000D01*
X160629112Y-71882000D01*
X160673306Y-71900306D01*
X160890694Y-72117694D01*
X160909000Y-72161888D01*
X160909000Y-73597179D01*
X160890694Y-73641373D01*
X160846500Y-73659679D01*
X160802306Y-73641373D01*
X160789648Y-73623143D01*
X160768776Y-73577440D01*
X160768774Y-73577438D01*
X160673773Y-73467801D01*
X160551736Y-73389373D01*
X160551727Y-73389369D01*
X160412538Y-73348500D01*
X160412536Y-73348500D01*
X160267464Y-73348500D01*
X160267462Y-73348500D01*
X160128272Y-73389369D01*
X160128263Y-73389373D01*
X160006226Y-73467801D01*
X159911225Y-73577438D01*
X159911222Y-73577443D01*
X159850958Y-73709402D01*
X159850957Y-73709405D01*
X159835618Y-73816097D01*
X159830744Y-73849999D01*
X159830312Y-73853001D01*
X159833487Y-73875088D01*
X159821656Y-73921437D01*
X159780516Y-73945845D01*
X159734167Y-73934014D01*
X159724389Y-73924910D01*
X159662773Y-73853801D01*
X159540736Y-73775373D01*
X159540727Y-73775369D01*
X159401538Y-73734500D01*
X159401536Y-73734500D01*
X159256464Y-73734500D01*
X159256462Y-73734500D01*
X159117272Y-73775369D01*
X159117263Y-73775373D01*
X158995226Y-73853801D01*
X158900225Y-73963438D01*
X158900222Y-73963443D01*
X158839958Y-74095402D01*
X158839957Y-74095405D01*
X158819312Y-74239000D01*
X158839957Y-74382594D01*
X158839958Y-74382597D01*
X158900222Y-74514556D01*
X158900225Y-74514561D01*
X158995226Y-74624198D01*
X159109374Y-74697556D01*
X159117268Y-74702629D01*
X159231657Y-74736216D01*
X159256461Y-74743499D01*
X159256463Y-74743500D01*
X159256464Y-74743500D01*
X159401536Y-74743500D01*
X159527629Y-74706476D01*
X159575189Y-74711589D01*
X159605204Y-74748835D01*
X159600091Y-74796397D01*
X159589430Y-74810638D01*
X159171376Y-75228694D01*
X159127182Y-75247000D01*
X154567818Y-75247000D01*
X154523624Y-75228694D01*
X154514306Y-75219376D01*
X154496000Y-75175182D01*
X154496000Y-74897398D01*
X154514306Y-74853204D01*
X154558500Y-74834898D01*
X154589747Y-74843270D01*
X154719216Y-74918019D01*
X154719219Y-74918020D01*
X154776992Y-74933500D01*
X154864695Y-74957000D01*
X154864696Y-74957000D01*
X155687304Y-74957000D01*
X155687305Y-74957000D01*
X155832784Y-74918019D01*
X155963216Y-74842714D01*
X156069714Y-74736216D01*
X156256058Y-74549871D01*
X156300250Y-74531566D01*
X156344444Y-74549872D01*
X156357102Y-74568102D01*
X156416223Y-74697559D01*
X156416225Y-74697561D01*
X156511226Y-74807198D01*
X156633263Y-74885626D01*
X156633268Y-74885629D01*
X156772461Y-74926499D01*
X156772463Y-74926500D01*
X156772464Y-74926500D01*
X156917537Y-74926500D01*
X156917537Y-74926499D01*
X157056732Y-74885629D01*
X157122642Y-74843271D01*
X157178773Y-74807198D01*
X157188132Y-74796397D01*
X157273777Y-74697558D01*
X157334042Y-74565596D01*
X157354688Y-74422000D01*
X157334042Y-74278404D01*
X157273777Y-74146442D01*
X157219284Y-74083554D01*
X157204178Y-74038167D01*
X157222326Y-73998431D01*
X157249023Y-73971735D01*
X157280542Y-73940216D01*
X157355847Y-73809784D01*
X157394828Y-73664305D01*
X157394828Y-73513695D01*
X157374960Y-73439547D01*
X157355848Y-73368219D01*
X157355847Y-73368216D01*
X157342731Y-73345498D01*
X157280542Y-73237784D01*
X157280540Y-73237782D01*
X157280537Y-73237778D01*
X157174049Y-73131290D01*
X157174045Y-73131287D01*
X157174044Y-73131286D01*
X157108828Y-73093633D01*
X157043611Y-73055980D01*
X157043608Y-73055979D01*
X156898139Y-73017001D01*
X156898134Y-73017000D01*
X156898133Y-73017000D01*
X156332695Y-73017000D01*
X156332694Y-73017000D01*
X156332688Y-73017001D01*
X156187219Y-73055979D01*
X156187216Y-73055980D01*
X156137820Y-73084500D01*
X156137819Y-73084499D01*
X156056787Y-73131283D01*
X156056778Y-73131290D01*
X155678856Y-73509213D01*
X155634662Y-73527519D01*
X155590468Y-73509213D01*
X155574292Y-73481195D01*
X155544020Y-73368219D01*
X155544019Y-73368216D01*
X155530903Y-73345498D01*
X155468714Y-73237784D01*
X155468712Y-73237782D01*
X155468709Y-73237778D01*
X155362221Y-73131290D01*
X155362217Y-73131287D01*
X155362216Y-73131286D01*
X155297000Y-73093633D01*
X155231783Y-73055980D01*
X155231780Y-73055979D01*
X155086311Y-73017001D01*
X155086306Y-73017000D01*
X155086305Y-73017000D01*
X154359781Y-73017000D01*
X154359780Y-73017000D01*
X154359774Y-73017001D01*
X154214305Y-73055979D01*
X154214302Y-73055980D01*
X154164906Y-73084500D01*
X154164905Y-73084499D01*
X154083873Y-73131283D01*
X154083864Y-73131290D01*
X153572784Y-73642372D01*
X153466290Y-73748864D01*
X153466287Y-73748868D01*
X153390980Y-73879302D01*
X153390979Y-73879305D01*
X153352001Y-74024774D01*
X153352000Y-74024782D01*
X153352000Y-75513303D01*
X153352001Y-75513311D01*
X153390979Y-75658780D01*
X153390980Y-75658783D01*
X153460590Y-75779350D01*
X153466287Y-75789217D01*
X153466290Y-75789221D01*
X153847286Y-76170216D01*
X153953778Y-76276709D01*
X153953787Y-76276716D01*
X154013016Y-76310912D01*
X154013017Y-76310912D01*
X154084216Y-76352019D01*
X154229694Y-76391000D01*
X154229695Y-76391000D01*
X159465304Y-76391000D01*
X159465305Y-76391000D01*
X159610784Y-76352019D01*
X159741216Y-76276714D01*
X159817930Y-76200000D01*
X163320312Y-76200000D01*
X163340957Y-76343594D01*
X163340958Y-76343597D01*
X163401222Y-76475556D01*
X163401225Y-76475561D01*
X163496226Y-76585198D01*
X163618263Y-76663626D01*
X163618268Y-76663629D01*
X163757461Y-76704499D01*
X163757463Y-76704500D01*
X163757464Y-76704500D01*
X163902537Y-76704500D01*
X163902537Y-76704499D01*
X164041732Y-76663629D01*
X164087535Y-76634192D01*
X164163773Y-76585198D01*
X164258774Y-76475561D01*
X164258777Y-76475558D01*
X164319042Y-76343596D01*
X164339688Y-76200000D01*
X164319042Y-76056404D01*
X164258777Y-75924442D01*
X164258774Y-75924438D01*
X164163773Y-75814801D01*
X164041736Y-75736373D01*
X164041727Y-75736369D01*
X163902538Y-75695500D01*
X163902536Y-75695500D01*
X163757464Y-75695500D01*
X163757462Y-75695500D01*
X163618272Y-75736369D01*
X163618263Y-75736373D01*
X163496226Y-75814801D01*
X163401225Y-75924438D01*
X163401222Y-75924443D01*
X163340958Y-76056402D01*
X163340957Y-76056405D01*
X163320312Y-76200000D01*
X159817930Y-76200000D01*
X159847714Y-76170216D01*
X160579930Y-75438000D01*
X167130312Y-75438000D01*
X167150957Y-75581594D01*
X167150958Y-75581597D01*
X167211222Y-75713556D01*
X167211225Y-75713561D01*
X167306226Y-75823198D01*
X167428263Y-75901626D01*
X167428268Y-75901629D01*
X167505967Y-75924443D01*
X167567461Y-75942499D01*
X167567463Y-75942500D01*
X167567464Y-75942500D01*
X167712537Y-75942500D01*
X167712537Y-75942499D01*
X167851732Y-75901629D01*
X167897535Y-75872192D01*
X167973773Y-75823198D01*
X167979352Y-75816760D01*
X168068777Y-75713558D01*
X168129042Y-75581596D01*
X168149688Y-75438000D01*
X168129042Y-75294404D01*
X168068777Y-75162442D01*
X168059244Y-75151440D01*
X167973773Y-75052801D01*
X167851736Y-74974373D01*
X167851727Y-74974369D01*
X167712538Y-74933500D01*
X167712536Y-74933500D01*
X167567464Y-74933500D01*
X167567462Y-74933500D01*
X167428272Y-74974369D01*
X167428263Y-74974373D01*
X167306226Y-75052801D01*
X167211225Y-75162438D01*
X167211222Y-75162443D01*
X167150958Y-75294402D01*
X167150957Y-75294405D01*
X167130312Y-75438000D01*
X160579930Y-75438000D01*
X160797714Y-75220216D01*
X160857463Y-75116725D01*
X160895412Y-75087607D01*
X160909000Y-75089395D01*
X160909000Y-75311000D01*
X163957000Y-75311000D01*
X164211000Y-75311000D01*
X164211000Y-73177888D01*
X164229306Y-73133694D01*
X164446694Y-72916306D01*
X164490888Y-72898000D01*
X168249112Y-72898000D01*
X168293306Y-72916306D01*
X168510694Y-73133694D01*
X168529000Y-73177888D01*
X168529000Y-83215074D01*
X168513735Y-83256002D01*
X168501225Y-83270439D01*
X168501223Y-83270441D01*
X168440957Y-83402405D01*
X168420312Y-83546000D01*
X168440957Y-83689594D01*
X168440958Y-83689597D01*
X168443406Y-83694957D01*
X168501223Y-83821558D01*
X168501225Y-83821560D01*
X168513734Y-83835996D01*
X168529000Y-83876925D01*
X168529000Y-89916000D01*
X171932112Y-89916000D01*
X171976306Y-89934306D01*
X172193694Y-90151694D01*
X172212000Y-90195888D01*
X172212000Y-104749112D01*
X172193694Y-104793306D01*
X171976306Y-105010694D01*
X171932112Y-105029000D01*
X154787545Y-105029000D01*
X154743351Y-105010694D01*
X154725045Y-104966500D01*
X154743351Y-104922306D01*
X154753755Y-104913922D01*
X154765773Y-104906198D01*
X154765775Y-104906196D01*
X154860777Y-104796558D01*
X154921042Y-104664596D01*
X154941688Y-104521000D01*
X154921042Y-104377404D01*
X154860777Y-104245442D01*
X154860774Y-104245438D01*
X154765773Y-104135801D01*
X154643736Y-104057373D01*
X154643727Y-104057369D01*
X154504538Y-104016500D01*
X154504536Y-104016500D01*
X154359464Y-104016500D01*
X154359462Y-104016500D01*
X154220272Y-104057369D01*
X154220263Y-104057373D01*
X154098226Y-104135801D01*
X154003225Y-104245438D01*
X154003222Y-104245443D01*
X153942958Y-104377402D01*
X153942957Y-104377405D01*
X153922312Y-104521000D01*
X153942957Y-104664594D01*
X153942958Y-104664597D01*
X154003222Y-104796556D01*
X154003225Y-104796561D01*
X154098226Y-104906198D01*
X154110245Y-104913922D01*
X154137527Y-104953215D01*
X154129033Y-105000290D01*
X154089740Y-105027572D01*
X154076455Y-105029000D01*
X143789888Y-105029000D01*
X143745694Y-105010694D01*
X143528306Y-104793306D01*
X143510000Y-104749112D01*
X143510000Y-101463000D01*
X144391726Y-101463000D01*
X144410762Y-101631950D01*
X144410763Y-101631954D01*
X144466919Y-101792439D01*
X144466921Y-101792443D01*
X144557374Y-101936398D01*
X144677601Y-102056625D01*
X144821556Y-102147078D01*
X144821559Y-102147079D01*
X144821563Y-102147082D01*
X144982046Y-102203237D01*
X145151000Y-102222274D01*
X145319954Y-102203237D01*
X145480437Y-102147082D01*
X145624400Y-102056624D01*
X145741806Y-101939218D01*
X145786000Y-101920912D01*
X145830194Y-101939218D01*
X145944782Y-102053806D01*
X145963088Y-102098000D01*
X145944782Y-102142194D01*
X145827375Y-102259600D01*
X145827374Y-102259601D01*
X145736921Y-102403556D01*
X145736919Y-102403560D01*
X145680763Y-102564045D01*
X145680762Y-102564049D01*
X145661726Y-102733000D01*
X145680762Y-102901950D01*
X145680763Y-102901954D01*
X145736919Y-103062439D01*
X145736921Y-103062443D01*
X145827374Y-103206398D01*
X145947601Y-103326625D01*
X146091556Y-103417078D01*
X146091559Y-103417079D01*
X146091563Y-103417082D01*
X146252046Y-103473237D01*
X146421000Y-103492274D01*
X146589954Y-103473237D01*
X146750437Y-103417082D01*
X146894400Y-103326624D01*
X147011806Y-103209218D01*
X147056000Y-103190912D01*
X147100194Y-103209218D01*
X147217601Y-103326625D01*
X147361556Y-103417078D01*
X147361559Y-103417079D01*
X147361563Y-103417082D01*
X147522046Y-103473237D01*
X147691000Y-103492274D01*
X147859954Y-103473237D01*
X148020437Y-103417082D01*
X148164400Y-103326624D01*
X148281806Y-103209218D01*
X148326000Y-103190912D01*
X148370194Y-103209218D01*
X148487601Y-103326625D01*
X148631556Y-103417078D01*
X148631559Y-103417079D01*
X148631563Y-103417082D01*
X148792046Y-103473237D01*
X148961000Y-103492274D01*
X149129954Y-103473237D01*
X149290437Y-103417082D01*
X149434400Y-103326624D01*
X149551806Y-103209218D01*
X149596000Y-103190912D01*
X149640194Y-103209218D01*
X149757601Y-103326625D01*
X149901556Y-103417078D01*
X149901559Y-103417079D01*
X149901563Y-103417082D01*
X150062046Y-103473237D01*
X150231000Y-103492274D01*
X150399954Y-103473237D01*
X150560437Y-103417082D01*
X150704400Y-103326624D01*
X150824624Y-103206400D01*
X150915082Y-103062437D01*
X150971237Y-102901954D01*
X150990274Y-102733000D01*
X150971237Y-102564046D01*
X150915082Y-102403563D01*
X150824624Y-102259600D01*
X150707218Y-102142194D01*
X150688912Y-102098000D01*
X150707218Y-102053806D01*
X150824624Y-101936400D01*
X150915082Y-101792437D01*
X150971237Y-101631954D01*
X150980246Y-101552002D01*
X157603663Y-101552002D01*
X157622991Y-101846894D01*
X157622993Y-101846911D01*
X157680648Y-102136760D01*
X157684152Y-102147082D01*
X157775645Y-102416611D01*
X157850192Y-102567778D01*
X157906358Y-102681671D01*
X158070549Y-102927400D01*
X158139246Y-103005734D01*
X158265407Y-103149593D01*
X158333397Y-103209218D01*
X158487599Y-103344450D01*
X158487601Y-103344451D01*
X158487603Y-103344453D01*
X158733331Y-103508643D01*
X158998389Y-103639355D01*
X159278241Y-103734352D01*
X159568097Y-103792008D01*
X159804019Y-103807471D01*
X159862998Y-103811337D01*
X159863000Y-103811337D01*
X159863002Y-103811337D01*
X159916618Y-103807822D01*
X160157903Y-103792008D01*
X160447759Y-103734352D01*
X160727611Y-103639355D01*
X160992669Y-103508643D01*
X161238397Y-103344453D01*
X161460593Y-103149593D01*
X161655453Y-102927397D01*
X161819643Y-102681669D01*
X161950355Y-102416611D01*
X162045352Y-102136759D01*
X162103008Y-101846903D01*
X162122337Y-101552000D01*
X162103008Y-101257097D01*
X162045352Y-100967241D01*
X161950355Y-100687389D01*
X161819643Y-100422332D01*
X161655453Y-100176603D01*
X161655451Y-100176601D01*
X161655450Y-100176599D01*
X161589817Y-100101759D01*
X161460593Y-99954407D01*
X161331367Y-99841079D01*
X161238400Y-99759549D01*
X160992671Y-99595358D01*
X160992669Y-99595357D01*
X160727611Y-99464645D01*
X160713246Y-99459768D01*
X160447760Y-99369648D01*
X160157911Y-99311993D01*
X160157894Y-99311991D01*
X159863002Y-99292663D01*
X159862998Y-99292663D01*
X159568105Y-99311991D01*
X159568088Y-99311993D01*
X159278239Y-99369648D01*
X158998391Y-99464644D01*
X158733329Y-99595358D01*
X158487599Y-99759549D01*
X158265407Y-99954407D01*
X158070549Y-100176599D01*
X157906358Y-100422329D01*
X157775644Y-100687391D01*
X157680648Y-100967239D01*
X157622993Y-101257088D01*
X157622991Y-101257105D01*
X157603663Y-101551997D01*
X157603663Y-101552002D01*
X150980246Y-101552002D01*
X150990274Y-101463000D01*
X150971237Y-101294046D01*
X150915082Y-101133563D01*
X150824624Y-100989600D01*
X150704400Y-100869376D01*
X150704398Y-100869374D01*
X150560443Y-100778921D01*
X150560439Y-100778919D01*
X150560438Y-100778918D01*
X150560437Y-100778918D01*
X150399954Y-100722763D01*
X150399950Y-100722762D01*
X150231000Y-100703726D01*
X150062049Y-100722762D01*
X150062045Y-100722763D01*
X149901560Y-100778919D01*
X149901556Y-100778921D01*
X149757601Y-100869374D01*
X149757600Y-100869375D01*
X149640194Y-100986782D01*
X149596000Y-101005088D01*
X149551806Y-100986782D01*
X149434398Y-100869374D01*
X149290443Y-100778921D01*
X149290439Y-100778919D01*
X149290438Y-100778918D01*
X149290437Y-100778918D01*
X149129954Y-100722763D01*
X149129950Y-100722762D01*
X148961000Y-100703726D01*
X148792049Y-100722762D01*
X148792045Y-100722763D01*
X148631560Y-100778919D01*
X148631556Y-100778921D01*
X148487601Y-100869374D01*
X148487600Y-100869375D01*
X148370194Y-100986782D01*
X148326000Y-101005088D01*
X148281806Y-100986782D01*
X148164398Y-100869374D01*
X148020443Y-100778921D01*
X148020439Y-100778919D01*
X148020438Y-100778918D01*
X148020437Y-100778918D01*
X147859954Y-100722763D01*
X147859950Y-100722762D01*
X147691000Y-100703726D01*
X147522049Y-100722762D01*
X147522045Y-100722763D01*
X147361560Y-100778919D01*
X147361556Y-100778921D01*
X147217601Y-100869374D01*
X147217600Y-100869375D01*
X147100194Y-100986782D01*
X147056000Y-101005088D01*
X147011806Y-100986782D01*
X146894398Y-100869374D01*
X146750443Y-100778921D01*
X146750439Y-100778919D01*
X146750438Y-100778918D01*
X146750437Y-100778918D01*
X146589954Y-100722763D01*
X146589950Y-100722762D01*
X146421000Y-100703726D01*
X146252049Y-100722762D01*
X146252045Y-100722763D01*
X146091560Y-100778919D01*
X146091556Y-100778921D01*
X145947601Y-100869374D01*
X145947600Y-100869375D01*
X145830194Y-100986782D01*
X145786000Y-101005088D01*
X145741806Y-100986782D01*
X145624398Y-100869374D01*
X145480443Y-100778921D01*
X145480439Y-100778919D01*
X145480438Y-100778918D01*
X145480437Y-100778918D01*
X145319954Y-100722763D01*
X145319950Y-100722762D01*
X145151000Y-100703726D01*
X144982049Y-100722762D01*
X144982045Y-100722763D01*
X144821560Y-100778919D01*
X144821556Y-100778921D01*
X144677601Y-100869374D01*
X144557374Y-100989601D01*
X144466921Y-101133556D01*
X144466919Y-101133560D01*
X144410763Y-101294045D01*
X144410762Y-101294049D01*
X144391726Y-101463000D01*
X143510000Y-101463000D01*
X143510000Y-97536000D01*
X158533312Y-97536000D01*
X158553957Y-97679594D01*
X158553958Y-97679597D01*
X158614222Y-97811556D01*
X158614225Y-97811561D01*
X158709226Y-97921198D01*
X158830275Y-97998991D01*
X158831268Y-97999629D01*
X158970461Y-98040499D01*
X158970463Y-98040500D01*
X158970464Y-98040500D01*
X159115537Y-98040500D01*
X159115537Y-98040499D01*
X159254732Y-97999629D01*
X159300535Y-97970192D01*
X159376773Y-97921198D01*
X159376775Y-97921196D01*
X159471777Y-97811558D01*
X159532042Y-97679596D01*
X159552688Y-97536000D01*
X168908312Y-97536000D01*
X168928957Y-97679594D01*
X168928958Y-97679597D01*
X168989222Y-97811556D01*
X168989225Y-97811561D01*
X169084226Y-97921198D01*
X169205275Y-97998991D01*
X169206268Y-97999629D01*
X169345461Y-98040499D01*
X169345463Y-98040500D01*
X169345464Y-98040500D01*
X169490537Y-98040500D01*
X169490537Y-98040499D01*
X169629732Y-97999629D01*
X169675535Y-97970192D01*
X169751773Y-97921198D01*
X169751775Y-97921196D01*
X169846777Y-97811558D01*
X169869148Y-97762571D01*
X169904158Y-97729976D01*
X169951963Y-97731683D01*
X169982852Y-97762572D01*
X170005222Y-97811556D01*
X170005225Y-97811561D01*
X170100226Y-97921198D01*
X170221275Y-97998991D01*
X170222268Y-97999629D01*
X170361461Y-98040499D01*
X170361463Y-98040500D01*
X170361464Y-98040500D01*
X170506537Y-98040500D01*
X170506537Y-98040499D01*
X170645732Y-97999629D01*
X170691535Y-97970192D01*
X170767773Y-97921198D01*
X170767775Y-97921196D01*
X170862777Y-97811558D01*
X170923042Y-97679596D01*
X170943688Y-97536000D01*
X170923042Y-97392404D01*
X170862777Y-97260442D01*
X170862774Y-97260438D01*
X170767774Y-97150802D01*
X170757311Y-97144079D01*
X170730029Y-97104787D01*
X170738521Y-97057711D01*
X170757311Y-97038921D01*
X170767774Y-97032197D01*
X170768378Y-97031500D01*
X170862777Y-96922558D01*
X170923042Y-96790596D01*
X170943688Y-96647000D01*
X170923042Y-96503404D01*
X170862777Y-96371442D01*
X170862774Y-96371438D01*
X170767774Y-96261802D01*
X170757311Y-96255079D01*
X170730029Y-96215787D01*
X170738521Y-96168711D01*
X170757311Y-96149921D01*
X170767774Y-96143197D01*
X170862774Y-96033561D01*
X170862777Y-96033558D01*
X170923042Y-95901596D01*
X170943688Y-95758000D01*
X170923042Y-95614404D01*
X170862777Y-95482442D01*
X170862774Y-95482438D01*
X170767773Y-95372801D01*
X170645736Y-95294373D01*
X170645727Y-95294369D01*
X170506538Y-95253500D01*
X170506536Y-95253500D01*
X170361464Y-95253500D01*
X170361462Y-95253500D01*
X170222272Y-95294369D01*
X170222263Y-95294373D01*
X170100226Y-95372801D01*
X170005225Y-95482438D01*
X170005222Y-95482443D01*
X169982852Y-95531427D01*
X169947842Y-95564023D01*
X169900037Y-95562316D01*
X169869148Y-95531427D01*
X169846777Y-95482443D01*
X169846777Y-95482442D01*
X169846774Y-95482438D01*
X169751773Y-95372801D01*
X169629736Y-95294373D01*
X169629727Y-95294369D01*
X169490538Y-95253500D01*
X169490536Y-95253500D01*
X169345464Y-95253500D01*
X169345462Y-95253500D01*
X169206272Y-95294369D01*
X169206263Y-95294373D01*
X169084226Y-95372801D01*
X168989225Y-95482438D01*
X168989222Y-95482443D01*
X168928958Y-95614402D01*
X168928957Y-95614405D01*
X168908312Y-95758000D01*
X168928957Y-95901594D01*
X168928958Y-95901597D01*
X168989222Y-96033556D01*
X168989225Y-96033561D01*
X169084224Y-96143195D01*
X169084228Y-96143198D01*
X169094691Y-96149923D01*
X169121972Y-96189216D01*
X169113477Y-96236291D01*
X169094691Y-96255077D01*
X169084228Y-96261801D01*
X169084224Y-96261804D01*
X168989225Y-96371438D01*
X168989222Y-96371443D01*
X168928958Y-96503402D01*
X168928957Y-96503405D01*
X168908312Y-96647000D01*
X168928957Y-96790594D01*
X168928958Y-96790597D01*
X168989222Y-96922556D01*
X168989225Y-96922561D01*
X169084224Y-97032195D01*
X169084228Y-97032198D01*
X169094691Y-97038923D01*
X169121972Y-97078216D01*
X169113477Y-97125291D01*
X169094691Y-97144077D01*
X169084228Y-97150801D01*
X169084224Y-97150804D01*
X168989225Y-97260438D01*
X168989222Y-97260443D01*
X168928958Y-97392402D01*
X168928957Y-97392405D01*
X168908312Y-97536000D01*
X159552688Y-97536000D01*
X159532042Y-97392404D01*
X159471777Y-97260442D01*
X159471774Y-97260438D01*
X159376773Y-97150801D01*
X159254736Y-97072373D01*
X159254727Y-97072369D01*
X159115538Y-97031500D01*
X159115536Y-97031500D01*
X158970464Y-97031500D01*
X158970462Y-97031500D01*
X158831272Y-97072369D01*
X158831263Y-97072373D01*
X158709226Y-97150801D01*
X158614225Y-97260438D01*
X158614222Y-97260443D01*
X158553958Y-97392402D01*
X158553957Y-97392405D01*
X158533312Y-97536000D01*
X143510000Y-97536000D01*
X143510000Y-94615000D01*
X157478312Y-94615000D01*
X157498957Y-94758594D01*
X157498958Y-94758597D01*
X157559222Y-94890556D01*
X157559225Y-94890561D01*
X157654226Y-95000198D01*
X157776263Y-95078626D01*
X157776268Y-95078629D01*
X157915461Y-95119499D01*
X157915463Y-95119500D01*
X157915464Y-95119500D01*
X158060537Y-95119500D01*
X158060537Y-95119499D01*
X158199732Y-95078629D01*
X158245535Y-95049192D01*
X158321773Y-95000198D01*
X158321775Y-95000196D01*
X158416777Y-94890558D01*
X158477042Y-94758596D01*
X158497688Y-94615000D01*
X158479428Y-94488000D01*
X158748312Y-94488000D01*
X158768957Y-94631594D01*
X158768958Y-94631597D01*
X158829222Y-94763556D01*
X158829225Y-94763561D01*
X158924226Y-94873198D01*
X159046263Y-94951626D01*
X159046268Y-94951629D01*
X159185461Y-94992499D01*
X159185463Y-94992500D01*
X159185464Y-94992500D01*
X159330537Y-94992500D01*
X159330537Y-94992499D01*
X159469732Y-94951629D01*
X159515535Y-94922192D01*
X159591773Y-94873198D01*
X159686774Y-94763561D01*
X159686777Y-94763558D01*
X159747042Y-94631596D01*
X159767688Y-94488000D01*
X159747042Y-94344404D01*
X159686777Y-94212442D01*
X159686774Y-94212438D01*
X159591773Y-94102801D01*
X159469736Y-94024373D01*
X159469727Y-94024369D01*
X159330538Y-93983500D01*
X159330536Y-93983500D01*
X159185464Y-93983500D01*
X159185462Y-93983500D01*
X159046272Y-94024369D01*
X159046263Y-94024373D01*
X158924226Y-94102801D01*
X158829225Y-94212438D01*
X158829222Y-94212443D01*
X158768958Y-94344402D01*
X158768957Y-94344405D01*
X158748312Y-94488000D01*
X158479428Y-94488000D01*
X158477042Y-94471404D01*
X158416777Y-94339442D01*
X158416774Y-94339438D01*
X158321773Y-94229801D01*
X158199736Y-94151373D01*
X158199727Y-94151369D01*
X158060538Y-94110500D01*
X158060536Y-94110500D01*
X157915464Y-94110500D01*
X157915462Y-94110500D01*
X157776272Y-94151369D01*
X157776263Y-94151373D01*
X157654226Y-94229801D01*
X157559225Y-94339438D01*
X157559222Y-94339443D01*
X157498958Y-94471402D01*
X157498957Y-94471405D01*
X157478312Y-94615000D01*
X143510000Y-94615000D01*
X143510000Y-93853000D01*
X143635312Y-93853000D01*
X143655957Y-93996594D01*
X143655958Y-93996597D01*
X143716222Y-94128556D01*
X143716225Y-94128561D01*
X143811226Y-94238198D01*
X143933263Y-94316626D01*
X143933268Y-94316629D01*
X144027866Y-94344405D01*
X144072461Y-94357499D01*
X144072463Y-94357500D01*
X144072464Y-94357500D01*
X144217537Y-94357500D01*
X144217537Y-94357499D01*
X144356732Y-94316629D01*
X144402535Y-94287192D01*
X144478773Y-94238198D01*
X144478775Y-94238196D01*
X144573777Y-94128558D01*
X144634042Y-93996596D01*
X144654688Y-93853000D01*
X144634042Y-93709404D01*
X144573777Y-93577442D01*
X144573774Y-93577438D01*
X144478773Y-93467801D01*
X144356736Y-93389373D01*
X144356727Y-93389369D01*
X144217538Y-93348500D01*
X144217536Y-93348500D01*
X144072464Y-93348500D01*
X144072462Y-93348500D01*
X143933272Y-93389369D01*
X143933263Y-93389373D01*
X143811226Y-93467801D01*
X143716225Y-93577438D01*
X143716222Y-93577443D01*
X143655958Y-93709402D01*
X143655957Y-93709405D01*
X143635312Y-93853000D01*
X143510000Y-93853000D01*
X143510000Y-93218000D01*
X147699312Y-93218000D01*
X147719957Y-93361594D01*
X147719958Y-93361597D01*
X147780222Y-93493556D01*
X147780225Y-93493561D01*
X147875226Y-93603198D01*
X147997263Y-93681626D01*
X147997268Y-93681629D01*
X148091866Y-93709405D01*
X148136461Y-93722499D01*
X148136463Y-93722500D01*
X148136464Y-93722500D01*
X148281537Y-93722500D01*
X148281537Y-93722499D01*
X148420732Y-93681629D01*
X148466535Y-93652192D01*
X148542773Y-93603198D01*
X148542775Y-93603196D01*
X148637777Y-93493558D01*
X148698042Y-93361596D01*
X148718688Y-93218000D01*
X148698042Y-93074404D01*
X148637777Y-92942442D01*
X148637774Y-92942438D01*
X148542773Y-92832801D01*
X148420736Y-92754373D01*
X148420727Y-92754369D01*
X148281538Y-92713500D01*
X148281536Y-92713500D01*
X148136464Y-92713500D01*
X148136462Y-92713500D01*
X147997272Y-92754369D01*
X147997263Y-92754373D01*
X147875226Y-92832801D01*
X147780225Y-92942438D01*
X147780222Y-92942443D01*
X147719958Y-93074402D01*
X147719957Y-93074405D01*
X147699312Y-93218000D01*
X143510000Y-93218000D01*
X143510000Y-92456000D01*
X154557312Y-92456000D01*
X154577957Y-92599594D01*
X154577958Y-92599597D01*
X154638222Y-92731556D01*
X154638225Y-92731561D01*
X154733226Y-92841198D01*
X154855263Y-92919626D01*
X154855268Y-92919629D01*
X154994461Y-92960499D01*
X154994463Y-92960500D01*
X154994464Y-92960500D01*
X155011946Y-92960500D01*
X155056140Y-92978806D01*
X155074446Y-93023000D01*
X155073810Y-93031894D01*
X155065312Y-93090999D01*
X155085957Y-93234594D01*
X155085958Y-93234597D01*
X155146222Y-93366556D01*
X155146225Y-93366561D01*
X155241226Y-93476198D01*
X155363263Y-93554626D01*
X155363268Y-93554629D01*
X155440967Y-93577443D01*
X155502461Y-93595499D01*
X155502463Y-93595500D01*
X155502464Y-93595500D01*
X155647537Y-93595500D01*
X155647537Y-93595499D01*
X155786732Y-93554629D01*
X155832535Y-93525192D01*
X155908773Y-93476198D01*
X155908775Y-93476196D01*
X156003777Y-93366558D01*
X156064042Y-93234596D01*
X156084688Y-93091000D01*
X156064042Y-92947404D01*
X156003777Y-92815442D01*
X156003774Y-92815438D01*
X155908773Y-92705801D01*
X155786736Y-92627373D01*
X155786727Y-92627369D01*
X155647538Y-92586500D01*
X155647536Y-92586500D01*
X155630054Y-92586500D01*
X155585860Y-92568194D01*
X155567554Y-92524000D01*
X155568190Y-92515106D01*
X155569163Y-92508337D01*
X155576688Y-92456000D01*
X155556042Y-92312404D01*
X155541450Y-92280451D01*
X155539743Y-92232646D01*
X155572339Y-92197636D01*
X155615909Y-92194520D01*
X155629464Y-92198500D01*
X155629466Y-92198500D01*
X155774537Y-92198500D01*
X155774537Y-92198499D01*
X155913732Y-92157629D01*
X155959535Y-92128192D01*
X156035773Y-92079198D01*
X156035775Y-92079196D01*
X156130777Y-91969558D01*
X156191042Y-91837596D01*
X156211688Y-91694000D01*
X156191042Y-91550404D01*
X156130777Y-91418442D01*
X156130774Y-91418438D01*
X156035773Y-91308801D01*
X155913736Y-91230373D01*
X155913727Y-91230369D01*
X155774538Y-91189500D01*
X155774536Y-91189500D01*
X155629464Y-91189500D01*
X155629462Y-91189500D01*
X155490272Y-91230369D01*
X155490263Y-91230373D01*
X155368226Y-91308801D01*
X155273225Y-91418438D01*
X155273222Y-91418443D01*
X155212958Y-91550402D01*
X155212957Y-91550405D01*
X155192312Y-91694000D01*
X155212957Y-91837594D01*
X155227550Y-91869549D01*
X155229256Y-91917354D01*
X155196659Y-91952364D01*
X155153088Y-91955479D01*
X155139537Y-91951500D01*
X155139536Y-91951500D01*
X154994464Y-91951500D01*
X154994462Y-91951500D01*
X154855272Y-91992369D01*
X154855263Y-91992373D01*
X154733226Y-92070801D01*
X154638225Y-92180438D01*
X154638222Y-92180443D01*
X154577958Y-92312402D01*
X154577957Y-92312405D01*
X154557312Y-92456000D01*
X143510000Y-92456000D01*
X143510000Y-90805000D01*
X147699312Y-90805000D01*
X147719957Y-90948594D01*
X147719958Y-90948597D01*
X147780222Y-91080556D01*
X147780225Y-91080561D01*
X147875226Y-91190198D01*
X147997263Y-91268626D01*
X147997268Y-91268629D01*
X148134094Y-91308804D01*
X148136461Y-91309499D01*
X148136463Y-91309500D01*
X148136464Y-91309500D01*
X148281537Y-91309500D01*
X148281537Y-91309499D01*
X148420732Y-91268629D01*
X148480265Y-91230369D01*
X148542773Y-91190198D01*
X148637774Y-91080561D01*
X148637777Y-91080558D01*
X148698042Y-90948596D01*
X148718688Y-90805000D01*
X148698042Y-90661404D01*
X148637777Y-90529442D01*
X148637774Y-90529438D01*
X148542773Y-90419801D01*
X148420736Y-90341373D01*
X148420727Y-90341369D01*
X148281538Y-90300500D01*
X148281536Y-90300500D01*
X148136464Y-90300500D01*
X148136462Y-90300500D01*
X147997272Y-90341369D01*
X147997263Y-90341373D01*
X147875226Y-90419801D01*
X147780225Y-90529438D01*
X147780222Y-90529443D01*
X147719958Y-90661402D01*
X147719957Y-90661405D01*
X147699312Y-90805000D01*
X143510000Y-90805000D01*
X143510000Y-89606000D01*
X151199312Y-89606000D01*
X151219957Y-89749594D01*
X151219958Y-89749597D01*
X151280222Y-89881556D01*
X151280225Y-89881561D01*
X151375226Y-89991198D01*
X151497263Y-90069626D01*
X151497268Y-90069629D01*
X151636461Y-90110499D01*
X151636463Y-90110500D01*
X151636464Y-90110500D01*
X151781537Y-90110500D01*
X151781537Y-90110499D01*
X151920732Y-90069629D01*
X151966535Y-90040192D01*
X152042773Y-89991198D01*
X152042775Y-89991196D01*
X152137777Y-89881558D01*
X152198042Y-89749596D01*
X152218688Y-89606000D01*
X152198042Y-89462404D01*
X152137777Y-89330442D01*
X152137774Y-89330438D01*
X152042773Y-89220801D01*
X151920736Y-89142373D01*
X151920727Y-89142369D01*
X151781538Y-89101500D01*
X151781536Y-89101500D01*
X151636464Y-89101500D01*
X151636462Y-89101500D01*
X151497272Y-89142369D01*
X151497263Y-89142373D01*
X151375226Y-89220801D01*
X151280225Y-89330438D01*
X151280222Y-89330443D01*
X151219958Y-89462402D01*
X151219957Y-89462405D01*
X151199312Y-89606000D01*
X143510000Y-89606000D01*
X143510000Y-87884000D01*
X156081312Y-87884000D01*
X156101957Y-88027594D01*
X156101958Y-88027597D01*
X156162222Y-88159556D01*
X156162225Y-88159561D01*
X156257226Y-88269198D01*
X156379263Y-88347626D01*
X156379268Y-88347629D01*
X156518461Y-88388499D01*
X156518463Y-88388500D01*
X156518464Y-88388500D01*
X156663537Y-88388500D01*
X156663537Y-88388499D01*
X156802732Y-88347629D01*
X156848535Y-88318192D01*
X156924773Y-88269198D01*
X157019774Y-88159561D01*
X157019777Y-88159558D01*
X157080042Y-88027596D01*
X157100688Y-87884000D01*
X157605312Y-87884000D01*
X157625957Y-88027594D01*
X157625958Y-88027597D01*
X157686222Y-88159556D01*
X157686225Y-88159561D01*
X157781226Y-88269198D01*
X157903263Y-88347626D01*
X157903268Y-88347629D01*
X158042461Y-88388499D01*
X158042463Y-88388500D01*
X158042464Y-88388500D01*
X158187537Y-88388500D01*
X158187537Y-88388499D01*
X158326732Y-88347629D01*
X158372535Y-88318192D01*
X158448773Y-88269198D01*
X158543774Y-88159561D01*
X158543777Y-88159558D01*
X158604042Y-88027596D01*
X158624636Y-87884359D01*
X158624811Y-87884063D01*
X158624758Y-87883935D01*
X158748188Y-87883935D01*
X158748364Y-87884360D01*
X158768957Y-88027594D01*
X158768958Y-88027597D01*
X158829222Y-88159556D01*
X158829225Y-88159561D01*
X158924226Y-88269198D01*
X159046263Y-88347626D01*
X159046268Y-88347629D01*
X159185461Y-88388499D01*
X159185463Y-88388500D01*
X159185464Y-88388500D01*
X159330537Y-88388500D01*
X159330537Y-88388499D01*
X159469732Y-88347629D01*
X159515535Y-88318192D01*
X159591773Y-88269198D01*
X159686774Y-88159561D01*
X159686777Y-88159558D01*
X159747042Y-88027596D01*
X159767688Y-87884000D01*
X159747042Y-87740404D01*
X159686777Y-87608442D01*
X159686774Y-87608438D01*
X159591773Y-87498801D01*
X159469736Y-87420373D01*
X159469727Y-87420369D01*
X159330538Y-87379500D01*
X159330536Y-87379500D01*
X159185464Y-87379500D01*
X159185462Y-87379500D01*
X159046272Y-87420369D01*
X159046263Y-87420373D01*
X158924226Y-87498801D01*
X158829225Y-87608438D01*
X158829222Y-87608443D01*
X158768958Y-87740402D01*
X158768957Y-87740405D01*
X158748364Y-87883639D01*
X158748188Y-87883935D01*
X158624758Y-87883935D01*
X158624636Y-87883639D01*
X158604042Y-87740405D01*
X158604041Y-87740402D01*
X158543777Y-87608443D01*
X158543777Y-87608442D01*
X158543774Y-87608438D01*
X158448773Y-87498801D01*
X158326736Y-87420373D01*
X158326727Y-87420369D01*
X158187538Y-87379500D01*
X158187536Y-87379500D01*
X158042464Y-87379500D01*
X158042462Y-87379500D01*
X157903272Y-87420369D01*
X157903263Y-87420373D01*
X157781226Y-87498801D01*
X157686225Y-87608438D01*
X157686222Y-87608443D01*
X157625958Y-87740402D01*
X157625957Y-87740405D01*
X157605312Y-87884000D01*
X157100688Y-87884000D01*
X157080042Y-87740404D01*
X157019777Y-87608442D01*
X157019774Y-87608438D01*
X156924773Y-87498801D01*
X156802736Y-87420373D01*
X156802727Y-87420369D01*
X156663538Y-87379500D01*
X156663536Y-87379500D01*
X156518464Y-87379500D01*
X156518462Y-87379500D01*
X156379272Y-87420369D01*
X156379263Y-87420373D01*
X156257226Y-87498801D01*
X156162225Y-87608438D01*
X156162222Y-87608443D01*
X156101958Y-87740402D01*
X156101957Y-87740405D01*
X156081312Y-87884000D01*
X143510000Y-87884000D01*
X143510000Y-85063902D01*
X156944214Y-85063902D01*
X156964859Y-85207496D01*
X156964860Y-85207499D01*
X157025124Y-85339458D01*
X157025127Y-85339463D01*
X157120128Y-85449100D01*
X157242165Y-85527528D01*
X157242170Y-85527531D01*
X157307004Y-85546567D01*
X157344250Y-85576581D01*
X157351260Y-85597640D01*
X157371957Y-85741594D01*
X157371958Y-85741597D01*
X157432222Y-85873556D01*
X157432225Y-85873561D01*
X157527226Y-85983198D01*
X157649263Y-86061626D01*
X157649268Y-86061629D01*
X157788461Y-86102499D01*
X157788463Y-86102500D01*
X157788464Y-86102500D01*
X157933537Y-86102500D01*
X157933537Y-86102499D01*
X158072732Y-86061629D01*
X158118535Y-86032192D01*
X158194773Y-85983198D01*
X158194775Y-85983196D01*
X158289777Y-85873558D01*
X158350042Y-85741596D01*
X158370688Y-85598000D01*
X158350042Y-85454404D01*
X158289777Y-85322442D01*
X158289774Y-85322438D01*
X158194773Y-85212801D01*
X158072736Y-85134373D01*
X158072733Y-85134371D01*
X158072732Y-85134371D01*
X158072729Y-85134370D01*
X158007896Y-85115333D01*
X157970650Y-85085318D01*
X157963641Y-85064259D01*
X157956587Y-85015200D01*
X157942944Y-84920306D01*
X157904443Y-84836000D01*
X158494312Y-84836000D01*
X158514957Y-84979594D01*
X158514958Y-84979597D01*
X158575222Y-85111556D01*
X158575225Y-85111561D01*
X158670226Y-85221198D01*
X158792263Y-85299626D01*
X158792268Y-85299629D01*
X158931461Y-85340499D01*
X158931463Y-85340500D01*
X158931464Y-85340500D01*
X159076537Y-85340500D01*
X159076537Y-85340499D01*
X159215732Y-85299629D01*
X159337775Y-85221196D01*
X159353760Y-85202747D01*
X159396533Y-85181335D01*
X159441921Y-85196440D01*
X159463335Y-85239215D01*
X159462858Y-85252570D01*
X159442812Y-85391999D01*
X159463457Y-85535594D01*
X159463458Y-85535597D01*
X159523722Y-85667556D01*
X159523725Y-85667561D01*
X159618726Y-85777198D01*
X159740763Y-85855626D01*
X159740768Y-85855629D01*
X159801823Y-85873556D01*
X159879961Y-85896499D01*
X159879963Y-85896500D01*
X159879964Y-85896500D01*
X160025037Y-85896500D01*
X160025037Y-85896499D01*
X160164232Y-85855629D01*
X160210035Y-85826192D01*
X160286273Y-85777198D01*
X160286275Y-85777196D01*
X160381277Y-85667558D01*
X160441542Y-85535596D01*
X160462188Y-85392000D01*
X160441542Y-85248404D01*
X160381277Y-85116442D01*
X160380316Y-85115333D01*
X160286275Y-85006804D01*
X160282898Y-85003878D01*
X160283772Y-85002869D01*
X160259408Y-84967774D01*
X160267905Y-84920700D01*
X160273247Y-84913564D01*
X160321774Y-84857561D01*
X160321777Y-84857558D01*
X160382042Y-84725596D01*
X160402688Y-84582000D01*
X160382042Y-84438404D01*
X160321777Y-84306442D01*
X160265874Y-84241927D01*
X160250768Y-84196542D01*
X160265874Y-84160072D01*
X160321777Y-84095558D01*
X160382042Y-83963596D01*
X160402688Y-83820000D01*
X160382042Y-83676404D01*
X160321777Y-83544442D01*
X160321774Y-83544438D01*
X160226773Y-83434801D01*
X160104736Y-83356373D01*
X160104727Y-83356369D01*
X159965538Y-83315500D01*
X159965536Y-83315500D01*
X159820464Y-83315500D01*
X159820462Y-83315500D01*
X159681272Y-83356369D01*
X159681263Y-83356373D01*
X159559226Y-83434801D01*
X159464225Y-83544438D01*
X159464222Y-83544443D01*
X159403958Y-83676402D01*
X159403957Y-83676405D01*
X159383312Y-83820000D01*
X159403957Y-83963594D01*
X159403958Y-83963597D01*
X159464222Y-84095556D01*
X159464225Y-84095561D01*
X159520123Y-84160071D01*
X159535230Y-84205459D01*
X159520123Y-84241929D01*
X159464225Y-84306438D01*
X159464223Y-84306440D01*
X159414526Y-84415262D01*
X159379515Y-84447857D01*
X159331710Y-84446150D01*
X159323884Y-84441876D01*
X159215736Y-84372373D01*
X159215727Y-84372369D01*
X159076538Y-84331500D01*
X159076536Y-84331500D01*
X158931464Y-84331500D01*
X158931462Y-84331500D01*
X158792272Y-84372369D01*
X158792263Y-84372373D01*
X158670226Y-84450801D01*
X158575225Y-84560438D01*
X158575222Y-84560443D01*
X158514958Y-84692402D01*
X158514957Y-84692405D01*
X158494312Y-84836000D01*
X157904443Y-84836000D01*
X157882679Y-84788344D01*
X157882676Y-84788340D01*
X157787675Y-84678703D01*
X157665638Y-84600275D01*
X157665629Y-84600271D01*
X157526440Y-84559402D01*
X157526438Y-84559402D01*
X157381366Y-84559402D01*
X157381364Y-84559402D01*
X157242174Y-84600271D01*
X157242165Y-84600275D01*
X157120128Y-84678703D01*
X157025127Y-84788340D01*
X157025124Y-84788345D01*
X156964860Y-84920304D01*
X156964859Y-84920307D01*
X156944214Y-85063902D01*
X143510000Y-85063902D01*
X143510000Y-84201000D01*
X146810312Y-84201000D01*
X146830957Y-84344594D01*
X146830958Y-84344597D01*
X146891222Y-84476556D01*
X146891225Y-84476561D01*
X146986226Y-84586198D01*
X147108263Y-84664626D01*
X147108268Y-84664629D01*
X147202866Y-84692405D01*
X147247461Y-84705499D01*
X147247463Y-84705500D01*
X147247464Y-84705500D01*
X147392537Y-84705500D01*
X147392537Y-84705499D01*
X147531732Y-84664629D01*
X147577535Y-84635192D01*
X147653773Y-84586198D01*
X147748774Y-84476561D01*
X147748777Y-84476558D01*
X147809042Y-84344596D01*
X147829688Y-84201000D01*
X147809042Y-84057404D01*
X147748777Y-83925442D01*
X147748774Y-83925438D01*
X147653773Y-83815801D01*
X147531736Y-83737373D01*
X147531727Y-83737369D01*
X147392538Y-83696500D01*
X147392536Y-83696500D01*
X147247464Y-83696500D01*
X147247462Y-83696500D01*
X147108272Y-83737369D01*
X147108263Y-83737373D01*
X146986226Y-83815801D01*
X146891225Y-83925438D01*
X146891222Y-83925443D01*
X146830958Y-84057402D01*
X146830957Y-84057405D01*
X146810312Y-84201000D01*
X143510000Y-84201000D01*
X143510000Y-82296000D01*
X146683312Y-82296000D01*
X146703957Y-82439594D01*
X146703958Y-82439597D01*
X146764222Y-82571556D01*
X146764225Y-82571561D01*
X146859226Y-82681198D01*
X146969484Y-82752056D01*
X146981268Y-82759629D01*
X147120461Y-82800499D01*
X147120463Y-82800500D01*
X147120464Y-82800500D01*
X147265537Y-82800500D01*
X147265537Y-82800499D01*
X147404732Y-82759629D01*
X147461824Y-82722938D01*
X147526773Y-82681198D01*
X147530411Y-82677000D01*
X149350312Y-82677000D01*
X149370957Y-82820594D01*
X149370958Y-82820597D01*
X149431222Y-82952556D01*
X149431225Y-82952561D01*
X149526226Y-83062198D01*
X149648263Y-83140626D01*
X149648268Y-83140629D01*
X149653268Y-83142097D01*
X149787461Y-83181499D01*
X149787463Y-83181500D01*
X149787464Y-83181500D01*
X149932537Y-83181500D01*
X149932537Y-83181499D01*
X150071732Y-83140629D01*
X150117535Y-83111192D01*
X150193773Y-83062198D01*
X150193775Y-83062196D01*
X150248968Y-82998500D01*
X152525312Y-82998500D01*
X152545957Y-83142094D01*
X152545958Y-83142097D01*
X152606222Y-83274056D01*
X152606225Y-83274061D01*
X152701226Y-83383698D01*
X152823263Y-83462126D01*
X152823268Y-83462129D01*
X152904434Y-83485961D01*
X152962461Y-83502999D01*
X152962463Y-83503000D01*
X152962464Y-83503000D01*
X153107537Y-83503000D01*
X153107537Y-83502999D01*
X153246732Y-83462129D01*
X153292535Y-83432692D01*
X153368773Y-83383698D01*
X153368775Y-83383696D01*
X153463777Y-83274058D01*
X153524042Y-83142096D01*
X153544688Y-82998500D01*
X154049312Y-82998500D01*
X154069957Y-83142094D01*
X154069958Y-83142097D01*
X154130222Y-83274056D01*
X154130225Y-83274061D01*
X154225226Y-83383698D01*
X154347263Y-83462126D01*
X154347268Y-83462129D01*
X154428434Y-83485961D01*
X154486461Y-83502999D01*
X154486463Y-83503000D01*
X154486464Y-83503000D01*
X154631537Y-83503000D01*
X154631537Y-83502999D01*
X154770732Y-83462129D01*
X154816535Y-83432692D01*
X154892773Y-83383698D01*
X154892775Y-83383696D01*
X154987777Y-83274058D01*
X155016849Y-83210400D01*
X156919512Y-83210400D01*
X156940157Y-83353994D01*
X156940158Y-83353997D01*
X157000422Y-83485956D01*
X157000425Y-83485961D01*
X157095426Y-83595598D01*
X157202491Y-83664404D01*
X157217468Y-83674029D01*
X157356661Y-83714899D01*
X157356663Y-83714900D01*
X157356664Y-83714900D01*
X157501737Y-83714900D01*
X157501737Y-83714899D01*
X157640932Y-83674029D01*
X157686735Y-83644592D01*
X157762973Y-83595598D01*
X157762975Y-83595596D01*
X157857977Y-83485958D01*
X157918242Y-83353996D01*
X157938888Y-83210400D01*
X157918242Y-83066804D01*
X157857977Y-82934842D01*
X157857974Y-82934838D01*
X157762973Y-82825201D01*
X157640936Y-82746773D01*
X157640927Y-82746769D01*
X157501738Y-82705900D01*
X157501736Y-82705900D01*
X157356664Y-82705900D01*
X157356662Y-82705900D01*
X157217472Y-82746769D01*
X157217463Y-82746773D01*
X157095426Y-82825201D01*
X157000425Y-82934838D01*
X157000422Y-82934843D01*
X156940158Y-83066802D01*
X156940157Y-83066805D01*
X156919512Y-83210400D01*
X155016849Y-83210400D01*
X155048042Y-83142096D01*
X155068688Y-82998500D01*
X155048042Y-82854904D01*
X154987777Y-82722942D01*
X154973010Y-82705900D01*
X154892773Y-82613301D01*
X154770736Y-82534873D01*
X154770727Y-82534869D01*
X154631538Y-82494000D01*
X154631536Y-82494000D01*
X154486464Y-82494000D01*
X154486462Y-82494000D01*
X154347272Y-82534869D01*
X154347263Y-82534873D01*
X154225226Y-82613301D01*
X154130225Y-82722938D01*
X154130222Y-82722943D01*
X154069958Y-82854902D01*
X154069957Y-82854905D01*
X154049312Y-82998500D01*
X153544688Y-82998500D01*
X153524042Y-82854904D01*
X153463777Y-82722942D01*
X153449010Y-82705900D01*
X153368773Y-82613301D01*
X153246736Y-82534873D01*
X153246727Y-82534869D01*
X153107538Y-82494000D01*
X153107536Y-82494000D01*
X152962464Y-82494000D01*
X152962462Y-82494000D01*
X152823272Y-82534869D01*
X152823263Y-82534873D01*
X152701226Y-82613301D01*
X152606225Y-82722938D01*
X152606222Y-82722943D01*
X152545958Y-82854902D01*
X152545957Y-82854905D01*
X152525312Y-82998500D01*
X150248968Y-82998500D01*
X150288777Y-82952558D01*
X150349042Y-82820596D01*
X150369688Y-82677000D01*
X150349042Y-82533404D01*
X150288777Y-82401442D01*
X150288774Y-82401438D01*
X150193773Y-82291801D01*
X150071736Y-82213373D01*
X150071727Y-82213369D01*
X149932538Y-82172500D01*
X149932536Y-82172500D01*
X149787464Y-82172500D01*
X149787462Y-82172500D01*
X149648272Y-82213369D01*
X149648263Y-82213373D01*
X149526226Y-82291801D01*
X149431225Y-82401438D01*
X149431222Y-82401443D01*
X149370958Y-82533402D01*
X149370957Y-82533405D01*
X149350312Y-82677000D01*
X147530411Y-82677000D01*
X147621777Y-82571558D01*
X147682042Y-82439596D01*
X147702688Y-82296000D01*
X147682042Y-82152404D01*
X147621777Y-82020442D01*
X147621774Y-82020438D01*
X147526773Y-81910801D01*
X147404736Y-81832373D01*
X147404727Y-81832369D01*
X147265538Y-81791500D01*
X147265536Y-81791500D01*
X147120464Y-81791500D01*
X147120462Y-81791500D01*
X146981272Y-81832369D01*
X146981263Y-81832373D01*
X146859226Y-81910801D01*
X146764225Y-82020438D01*
X146764222Y-82020443D01*
X146703958Y-82152402D01*
X146703957Y-82152405D01*
X146683312Y-82296000D01*
X143510000Y-82296000D01*
X143510000Y-81915000D01*
X143510000Y-81788000D01*
X152525312Y-81788000D01*
X152545957Y-81931594D01*
X152545958Y-81931597D01*
X152606222Y-82063556D01*
X152606225Y-82063561D01*
X152701226Y-82173198D01*
X152823263Y-82251626D01*
X152823268Y-82251629D01*
X152960094Y-82291804D01*
X152962461Y-82292499D01*
X152962463Y-82292500D01*
X152962464Y-82292500D01*
X153107537Y-82292500D01*
X153107537Y-82292499D01*
X153246732Y-82251629D01*
X153303231Y-82215319D01*
X153368773Y-82173198D01*
X153372411Y-82169000D01*
X154938312Y-82169000D01*
X154958957Y-82312594D01*
X154958958Y-82312597D01*
X155019222Y-82444556D01*
X155019225Y-82444561D01*
X155114226Y-82554198D01*
X155236263Y-82632626D01*
X155236268Y-82632629D01*
X155375461Y-82673499D01*
X155375463Y-82673500D01*
X155375464Y-82673500D01*
X155520537Y-82673500D01*
X155520537Y-82673499D01*
X155659732Y-82632629D01*
X155705535Y-82603192D01*
X155781773Y-82554198D01*
X155798522Y-82534869D01*
X155876777Y-82444558D01*
X155937042Y-82312596D01*
X155939428Y-82296000D01*
X159383312Y-82296000D01*
X159403957Y-82439594D01*
X159403958Y-82439597D01*
X159464222Y-82571556D01*
X159464225Y-82571561D01*
X159559226Y-82681198D01*
X159669484Y-82752056D01*
X159681268Y-82759629D01*
X159820461Y-82800499D01*
X159820463Y-82800500D01*
X159820464Y-82800500D01*
X159965537Y-82800500D01*
X159965537Y-82800499D01*
X160104732Y-82759629D01*
X160161824Y-82722938D01*
X160226773Y-82681198D01*
X160230411Y-82677000D01*
X160321777Y-82571558D01*
X160382042Y-82439596D01*
X160393642Y-82358914D01*
X162918102Y-82358914D01*
X162938747Y-82502508D01*
X162938748Y-82502511D01*
X162999012Y-82634470D01*
X162999015Y-82634475D01*
X163094016Y-82744112D01*
X163213025Y-82820594D01*
X163216058Y-82822543D01*
X163326275Y-82854905D01*
X163355251Y-82863413D01*
X163355253Y-82863414D01*
X163355254Y-82863414D01*
X163500327Y-82863414D01*
X163500327Y-82863413D01*
X163639522Y-82822543D01*
X163737416Y-82759630D01*
X163761563Y-82744112D01*
X163779907Y-82722942D01*
X163856567Y-82634472D01*
X163895144Y-82550000D01*
X165440312Y-82550000D01*
X165460957Y-82693594D01*
X165460958Y-82693597D01*
X165521222Y-82825556D01*
X165521225Y-82825561D01*
X165616226Y-82935198D01*
X165738263Y-83013626D01*
X165738268Y-83013629D01*
X165877461Y-83054499D01*
X165877463Y-83054500D01*
X165877464Y-83054500D01*
X166022537Y-83054500D01*
X166022537Y-83054499D01*
X166161732Y-83013629D01*
X166212505Y-82980999D01*
X166283773Y-82935198D01*
X166284081Y-82934843D01*
X166378777Y-82825558D01*
X166439042Y-82693596D01*
X166459688Y-82550000D01*
X166449120Y-82476500D01*
X166802812Y-82476500D01*
X166823457Y-82620094D01*
X166823458Y-82620097D01*
X166883722Y-82752056D01*
X166883725Y-82752061D01*
X166978726Y-82861698D01*
X167093092Y-82935196D01*
X167100768Y-82940129D01*
X167239961Y-82980999D01*
X167239963Y-82981000D01*
X167239964Y-82981000D01*
X167385037Y-82981000D01*
X167385037Y-82980999D01*
X167524232Y-82940129D01*
X167570035Y-82910692D01*
X167646273Y-82861698D01*
X167677586Y-82825561D01*
X167741277Y-82752058D01*
X167801542Y-82620096D01*
X167822188Y-82476500D01*
X167801542Y-82332904D01*
X167741277Y-82200942D01*
X167716632Y-82172500D01*
X167646273Y-82091301D01*
X167524236Y-82012873D01*
X167524227Y-82012869D01*
X167385038Y-81972000D01*
X167385036Y-81972000D01*
X167239964Y-81972000D01*
X167239962Y-81972000D01*
X167100772Y-82012869D01*
X167100763Y-82012873D01*
X166978726Y-82091301D01*
X166883725Y-82200938D01*
X166883722Y-82200943D01*
X166823458Y-82332902D01*
X166823457Y-82332905D01*
X166802812Y-82476500D01*
X166449120Y-82476500D01*
X166439042Y-82406404D01*
X166378777Y-82274442D01*
X166378774Y-82274438D01*
X166283773Y-82164801D01*
X166161736Y-82086373D01*
X166161727Y-82086369D01*
X166022538Y-82045500D01*
X166022536Y-82045500D01*
X165877464Y-82045500D01*
X165877462Y-82045500D01*
X165738272Y-82086369D01*
X165738263Y-82086373D01*
X165616226Y-82164801D01*
X165521225Y-82274438D01*
X165521222Y-82274443D01*
X165460958Y-82406402D01*
X165460957Y-82406405D01*
X165440312Y-82550000D01*
X163895144Y-82550000D01*
X163916832Y-82502510D01*
X163937478Y-82358914D01*
X163916832Y-82215318D01*
X163856567Y-82083356D01*
X163839412Y-82063558D01*
X163761563Y-81973715D01*
X163639526Y-81895287D01*
X163639517Y-81895283D01*
X163500328Y-81854414D01*
X163500326Y-81854414D01*
X163355254Y-81854414D01*
X163355252Y-81854414D01*
X163216062Y-81895283D01*
X163216053Y-81895287D01*
X163094016Y-81973715D01*
X162999015Y-82083352D01*
X162999012Y-82083357D01*
X162938748Y-82215316D01*
X162938747Y-82215319D01*
X162918102Y-82358914D01*
X160393642Y-82358914D01*
X160402688Y-82296000D01*
X160382042Y-82152404D01*
X160321777Y-82020442D01*
X160321774Y-82020438D01*
X160226773Y-81910801D01*
X160104736Y-81832373D01*
X160104727Y-81832369D01*
X159965538Y-81791500D01*
X159965536Y-81791500D01*
X159820464Y-81791500D01*
X159820462Y-81791500D01*
X159681272Y-81832369D01*
X159681263Y-81832373D01*
X159559226Y-81910801D01*
X159464225Y-82020438D01*
X159464222Y-82020443D01*
X159403958Y-82152402D01*
X159403957Y-82152405D01*
X159383312Y-82296000D01*
X155939428Y-82296000D01*
X155957688Y-82169000D01*
X155937042Y-82025404D01*
X155876777Y-81893442D01*
X155862367Y-81876812D01*
X155781773Y-81783801D01*
X155659736Y-81705373D01*
X155659727Y-81705369D01*
X155520538Y-81664500D01*
X155520536Y-81664500D01*
X155375464Y-81664500D01*
X155375462Y-81664500D01*
X155236272Y-81705369D01*
X155236263Y-81705373D01*
X155114226Y-81783801D01*
X155019225Y-81893438D01*
X155019222Y-81893443D01*
X154958958Y-82025402D01*
X154958957Y-82025405D01*
X154938312Y-82169000D01*
X153372411Y-82169000D01*
X153463777Y-82063558D01*
X153524042Y-81931596D01*
X153544688Y-81788000D01*
X153524042Y-81644404D01*
X153463777Y-81512442D01*
X153463774Y-81512438D01*
X153368773Y-81402801D01*
X153246736Y-81324373D01*
X153246727Y-81324369D01*
X153107538Y-81283500D01*
X153107536Y-81283500D01*
X152962464Y-81283500D01*
X152962462Y-81283500D01*
X152823272Y-81324369D01*
X152823263Y-81324373D01*
X152701226Y-81402801D01*
X152606225Y-81512438D01*
X152606222Y-81512443D01*
X152545958Y-81644402D01*
X152545957Y-81644405D01*
X152525312Y-81788000D01*
X143510000Y-81788000D01*
X143510000Y-81661000D01*
X143256000Y-81661000D01*
X141884888Y-81661000D01*
X141840694Y-81642694D01*
X141623306Y-81425306D01*
X141605000Y-81381112D01*
X141605000Y-79629000D01*
X154533312Y-79629000D01*
X154553957Y-79772594D01*
X154553958Y-79772597D01*
X154614222Y-79904556D01*
X154614225Y-79904561D01*
X154709226Y-80014198D01*
X154818146Y-80084196D01*
X154831268Y-80092629D01*
X154939571Y-80124429D01*
X154970461Y-80133499D01*
X154970463Y-80133500D01*
X154970464Y-80133500D01*
X155115537Y-80133500D01*
X155115537Y-80133499D01*
X155254732Y-80092629D01*
X155300535Y-80063192D01*
X155376773Y-80014198D01*
X155380411Y-80010000D01*
X155471777Y-79904558D01*
X155532042Y-79772596D01*
X155542624Y-79699000D01*
X162304312Y-79699000D01*
X162324957Y-79842594D01*
X162324958Y-79842597D01*
X162385222Y-79974556D01*
X162385225Y-79974561D01*
X162479622Y-80083500D01*
X162480225Y-80084196D01*
X162517599Y-80108215D01*
X162544880Y-80147508D01*
X162536386Y-80194584D01*
X162531044Y-80201720D01*
X162512223Y-80223441D01*
X162512221Y-80223444D01*
X162451958Y-80355402D01*
X162451957Y-80355405D01*
X162431312Y-80499000D01*
X162451957Y-80642594D01*
X162451958Y-80642597D01*
X162512222Y-80774556D01*
X162512225Y-80774561D01*
X162584587Y-80858071D01*
X162599694Y-80903458D01*
X162584587Y-80939929D01*
X162512225Y-81023438D01*
X162512222Y-81023443D01*
X162451958Y-81155402D01*
X162451957Y-81155405D01*
X162431312Y-81299000D01*
X162451957Y-81442594D01*
X162451958Y-81442597D01*
X162512222Y-81574556D01*
X162512225Y-81574561D01*
X162607226Y-81684198D01*
X162729263Y-81762626D01*
X162729268Y-81762629D01*
X162868461Y-81803499D01*
X162868463Y-81803500D01*
X162868464Y-81803500D01*
X163013537Y-81803500D01*
X163013537Y-81803499D01*
X163152732Y-81762629D01*
X163198535Y-81733192D01*
X163274773Y-81684198D01*
X163274775Y-81684196D01*
X163369777Y-81574558D01*
X163430042Y-81442596D01*
X163443499Y-81349000D01*
X165987312Y-81349000D01*
X166007957Y-81492594D01*
X166007958Y-81492597D01*
X166068222Y-81624556D01*
X166068225Y-81624561D01*
X166163226Y-81734198D01*
X166271063Y-81803500D01*
X166285268Y-81812629D01*
X166352511Y-81832373D01*
X166424461Y-81853499D01*
X166424463Y-81853500D01*
X166424464Y-81853500D01*
X166569537Y-81853500D01*
X166569537Y-81853499D01*
X166708732Y-81812629D01*
X166755613Y-81782500D01*
X166830773Y-81734198D01*
X166855752Y-81705371D01*
X166925777Y-81624558D01*
X166986042Y-81492596D01*
X167006688Y-81349000D01*
X166986042Y-81205404D01*
X166925777Y-81073442D01*
X166884668Y-81026000D01*
X166861875Y-80999695D01*
X166846768Y-80954308D01*
X166868180Y-80911532D01*
X166875319Y-80906188D01*
X166957773Y-80853198D01*
X166957775Y-80853196D01*
X167052777Y-80743558D01*
X167113042Y-80611596D01*
X167133688Y-80468000D01*
X167113042Y-80324404D01*
X167052777Y-80192442D01*
X166993842Y-80124428D01*
X166978736Y-80079042D01*
X166993843Y-80042571D01*
X167008202Y-80026000D01*
X167052777Y-79974558D01*
X167113042Y-79842596D01*
X167133688Y-79699000D01*
X167113042Y-79555404D01*
X167052777Y-79423442D01*
X167007769Y-79371500D01*
X166957773Y-79313801D01*
X166835736Y-79235373D01*
X166835727Y-79235369D01*
X166696538Y-79194500D01*
X166696536Y-79194500D01*
X166551464Y-79194500D01*
X166551462Y-79194500D01*
X166412272Y-79235369D01*
X166412263Y-79235373D01*
X166290226Y-79313801D01*
X166195225Y-79423438D01*
X166195222Y-79423443D01*
X166134958Y-79555402D01*
X166134957Y-79555405D01*
X166114312Y-79699000D01*
X166134957Y-79842594D01*
X166134958Y-79842597D01*
X166195221Y-79974555D01*
X166195223Y-79974558D01*
X166254156Y-80042572D01*
X166269262Y-80087959D01*
X166254156Y-80124428D01*
X166195223Y-80192441D01*
X166195221Y-80192444D01*
X166134958Y-80324402D01*
X166134957Y-80324405D01*
X166114312Y-80468000D01*
X166134957Y-80611594D01*
X166134958Y-80611597D01*
X166195222Y-80743556D01*
X166195225Y-80743561D01*
X166259124Y-80817304D01*
X166274231Y-80862691D01*
X166252819Y-80905467D01*
X166245681Y-80910811D01*
X166163225Y-80963803D01*
X166068225Y-81073438D01*
X166068222Y-81073443D01*
X166007958Y-81205402D01*
X166007957Y-81205405D01*
X165987312Y-81349000D01*
X163443499Y-81349000D01*
X163450688Y-81299000D01*
X163430042Y-81155404D01*
X163369777Y-81023442D01*
X163297411Y-80939928D01*
X163282305Y-80894542D01*
X163297412Y-80858071D01*
X163301635Y-80853198D01*
X163369777Y-80774558D01*
X163430042Y-80642596D01*
X163450688Y-80499000D01*
X163430042Y-80355404D01*
X163369777Y-80223442D01*
X163346921Y-80197065D01*
X163274776Y-80113805D01*
X163274775Y-80113804D01*
X163237398Y-80089783D01*
X163210118Y-80050491D01*
X163218612Y-80003415D01*
X163223951Y-79996283D01*
X163242777Y-79974558D01*
X163303042Y-79842596D01*
X163323688Y-79699000D01*
X163303042Y-79555404D01*
X163242777Y-79423442D01*
X163197769Y-79371500D01*
X163147773Y-79313801D01*
X163025736Y-79235373D01*
X163025727Y-79235369D01*
X162886538Y-79194500D01*
X162886536Y-79194500D01*
X162741464Y-79194500D01*
X162741462Y-79194500D01*
X162602272Y-79235369D01*
X162602263Y-79235373D01*
X162480226Y-79313801D01*
X162385225Y-79423438D01*
X162385222Y-79423443D01*
X162324958Y-79555402D01*
X162324957Y-79555405D01*
X162304312Y-79699000D01*
X155542624Y-79699000D01*
X155552688Y-79629000D01*
X155532042Y-79485404D01*
X155471777Y-79353442D01*
X155454117Y-79333061D01*
X155376773Y-79243801D01*
X155254736Y-79165373D01*
X155254727Y-79165369D01*
X155115538Y-79124500D01*
X155115536Y-79124500D01*
X154970464Y-79124500D01*
X154970462Y-79124500D01*
X154831272Y-79165369D01*
X154831263Y-79165373D01*
X154709226Y-79243801D01*
X154614225Y-79353438D01*
X154614222Y-79353443D01*
X154553958Y-79485402D01*
X154553957Y-79485405D01*
X154533312Y-79629000D01*
X141605000Y-79629000D01*
X141605000Y-79057500D01*
X148334312Y-79057500D01*
X148354957Y-79201094D01*
X148354958Y-79201097D01*
X148415222Y-79333056D01*
X148415225Y-79333061D01*
X148510226Y-79442698D01*
X148632263Y-79521126D01*
X148632268Y-79521129D01*
X148771461Y-79561999D01*
X148771463Y-79562000D01*
X148771464Y-79562000D01*
X148916537Y-79562000D01*
X148916537Y-79561999D01*
X149055732Y-79521129D01*
X149111324Y-79485402D01*
X149177773Y-79442698D01*
X149194458Y-79423443D01*
X149272777Y-79333058D01*
X149333042Y-79201096D01*
X149353688Y-79057500D01*
X149333042Y-78913904D01*
X149311622Y-78867000D01*
X160399312Y-78867000D01*
X160419957Y-79010594D01*
X160419958Y-79010597D01*
X160480222Y-79142556D01*
X160480225Y-79142561D01*
X160575226Y-79252198D01*
X160697263Y-79330626D01*
X160697268Y-79330629D01*
X160774967Y-79353443D01*
X160836461Y-79371499D01*
X160836463Y-79371500D01*
X160836464Y-79371500D01*
X160981537Y-79371500D01*
X160981537Y-79371499D01*
X161120732Y-79330629D01*
X161166535Y-79301192D01*
X161242773Y-79252198D01*
X161242775Y-79252196D01*
X161337777Y-79142558D01*
X161398042Y-79010596D01*
X161418688Y-78867000D01*
X161398042Y-78723404D01*
X161337777Y-78591442D01*
X161304467Y-78553000D01*
X161242773Y-78481801D01*
X161120736Y-78403373D01*
X161120727Y-78403369D01*
X160981538Y-78362500D01*
X160981536Y-78362500D01*
X160836464Y-78362500D01*
X160836462Y-78362500D01*
X160697272Y-78403369D01*
X160697263Y-78403373D01*
X160575226Y-78481801D01*
X160480225Y-78591438D01*
X160480222Y-78591443D01*
X160419958Y-78723402D01*
X160419957Y-78723405D01*
X160399312Y-78867000D01*
X149311622Y-78867000D01*
X149272777Y-78781942D01*
X149272774Y-78781938D01*
X149177773Y-78672301D01*
X149055736Y-78593873D01*
X149055727Y-78593869D01*
X148916538Y-78553000D01*
X148916536Y-78553000D01*
X148771464Y-78553000D01*
X148771462Y-78553000D01*
X148632272Y-78593869D01*
X148632263Y-78593873D01*
X148510226Y-78672301D01*
X148415225Y-78781938D01*
X148415222Y-78781943D01*
X148354958Y-78913902D01*
X148354957Y-78913905D01*
X148334312Y-79057500D01*
X141605000Y-79057500D01*
X141605000Y-78359000D01*
X144778312Y-78359000D01*
X144798957Y-78502594D01*
X144798958Y-78502597D01*
X144859222Y-78634556D01*
X144859225Y-78634561D01*
X144954226Y-78744198D01*
X145076263Y-78822626D01*
X145076268Y-78822629D01*
X145215461Y-78863499D01*
X145215463Y-78863500D01*
X145215464Y-78863500D01*
X145360537Y-78863500D01*
X145360537Y-78863499D01*
X145499732Y-78822629D01*
X145563048Y-78781938D01*
X145621773Y-78744198D01*
X145621775Y-78744196D01*
X145716777Y-78634558D01*
X145777042Y-78502596D01*
X145797688Y-78359000D01*
X145777042Y-78215404D01*
X145716777Y-78083442D01*
X145685836Y-78047734D01*
X145621773Y-77973801D01*
X145499736Y-77895373D01*
X145499727Y-77895369D01*
X145360538Y-77854500D01*
X145360536Y-77854500D01*
X145215464Y-77854500D01*
X145215462Y-77854500D01*
X145076272Y-77895369D01*
X145076263Y-77895373D01*
X144954226Y-77973801D01*
X144859225Y-78083438D01*
X144859222Y-78083443D01*
X144798958Y-78215402D01*
X144798957Y-78215405D01*
X144778312Y-78359000D01*
X141605000Y-78359000D01*
X141605000Y-75232002D01*
X144963663Y-75232002D01*
X144982991Y-75526894D01*
X144982993Y-75526911D01*
X145040648Y-75816760D01*
X145069456Y-75901626D01*
X145135645Y-76096611D01*
X145251329Y-76331196D01*
X145266358Y-76361671D01*
X145430549Y-76607400D01*
X145479858Y-76663626D01*
X145625407Y-76829593D01*
X145751808Y-76940443D01*
X145847599Y-77024450D01*
X145847601Y-77024451D01*
X145847603Y-77024453D01*
X146093331Y-77188643D01*
X146358389Y-77319355D01*
X146638241Y-77414352D01*
X146928097Y-77472008D01*
X147164019Y-77487471D01*
X147222998Y-77491337D01*
X147223000Y-77491337D01*
X147223002Y-77491337D01*
X147276618Y-77487822D01*
X147517903Y-77472008D01*
X147807759Y-77414352D01*
X148087611Y-77319355D01*
X148297194Y-77216000D01*
X166241312Y-77216000D01*
X166261957Y-77359594D01*
X166261958Y-77359597D01*
X166322222Y-77491556D01*
X166322225Y-77491561D01*
X166417226Y-77601198D01*
X166539263Y-77679626D01*
X166539268Y-77679629D01*
X166678461Y-77720499D01*
X166678463Y-77720500D01*
X166678464Y-77720500D01*
X166823537Y-77720500D01*
X166823537Y-77720499D01*
X166962732Y-77679629D01*
X167008535Y-77650192D01*
X167084773Y-77601198D01*
X167087305Y-77598276D01*
X167179777Y-77491558D01*
X167240042Y-77359596D01*
X167260688Y-77216000D01*
X167240042Y-77072404D01*
X167179777Y-76940442D01*
X167179774Y-76940438D01*
X167084773Y-76830801D01*
X166962736Y-76752373D01*
X166962727Y-76752369D01*
X166823538Y-76711500D01*
X166823536Y-76711500D01*
X166678464Y-76711500D01*
X166678462Y-76711500D01*
X166539272Y-76752369D01*
X166539263Y-76752373D01*
X166417226Y-76830801D01*
X166322225Y-76940438D01*
X166322222Y-76940443D01*
X166261958Y-77072402D01*
X166261957Y-77072405D01*
X166241312Y-77216000D01*
X148297194Y-77216000D01*
X148352669Y-77188643D01*
X148598397Y-77024453D01*
X148820593Y-76829593D01*
X149015453Y-76607397D01*
X149179643Y-76361669D01*
X149310355Y-76096611D01*
X149361481Y-75946000D01*
X150493312Y-75946000D01*
X150513957Y-76089594D01*
X150513958Y-76089597D01*
X150574222Y-76221556D01*
X150574225Y-76221561D01*
X150669226Y-76331198D01*
X150791263Y-76409626D01*
X150791268Y-76409629D01*
X150930461Y-76450499D01*
X150930463Y-76450500D01*
X150930464Y-76450500D01*
X151075537Y-76450500D01*
X151075537Y-76450499D01*
X151214732Y-76409629D01*
X151260535Y-76380192D01*
X151336773Y-76331198D01*
X151383984Y-76276714D01*
X151431777Y-76221558D01*
X151492042Y-76089596D01*
X151512688Y-75946000D01*
X151492042Y-75802404D01*
X151431777Y-75670442D01*
X151431774Y-75670438D01*
X151336773Y-75560801D01*
X151214736Y-75482373D01*
X151214727Y-75482369D01*
X151075538Y-75441500D01*
X151075536Y-75441500D01*
X150930464Y-75441500D01*
X150930462Y-75441500D01*
X150791272Y-75482369D01*
X150791263Y-75482373D01*
X150669226Y-75560801D01*
X150574225Y-75670438D01*
X150574222Y-75670443D01*
X150513958Y-75802402D01*
X150513957Y-75802405D01*
X150493312Y-75946000D01*
X149361481Y-75946000D01*
X149405352Y-75816759D01*
X149463008Y-75526903D01*
X149482337Y-75232000D01*
X149482120Y-75228694D01*
X149473370Y-75095187D01*
X149463008Y-74937097D01*
X149405352Y-74647241D01*
X149310355Y-74367389D01*
X149179643Y-74102332D01*
X149015453Y-73856603D01*
X149015451Y-73856601D01*
X149015450Y-73856599D01*
X148908372Y-73734500D01*
X148820593Y-73634407D01*
X148643750Y-73479320D01*
X148598400Y-73439549D01*
X148352671Y-73275358D01*
X148276466Y-73237778D01*
X148087611Y-73144645D01*
X148055350Y-73133694D01*
X147807760Y-73049648D01*
X147517911Y-72991993D01*
X147517894Y-72991991D01*
X147223002Y-72972663D01*
X147222998Y-72972663D01*
X146928105Y-72991991D01*
X146928088Y-72991993D01*
X146638239Y-73049648D01*
X146358391Y-73144644D01*
X146093329Y-73275358D01*
X145847599Y-73439549D01*
X145625407Y-73634407D01*
X145430549Y-73856599D01*
X145266358Y-74102329D01*
X145135644Y-74367391D01*
X145040648Y-74647239D01*
X144982993Y-74937088D01*
X144982991Y-74937105D01*
X144963663Y-75231997D01*
X144963663Y-75232002D01*
X141605000Y-75232002D01*
X141605000Y-73912500D01*
X141623306Y-73868306D01*
X141667500Y-73850000D01*
X141744037Y-73850000D01*
X141744037Y-73849999D01*
X141883232Y-73809129D01*
X141935763Y-73775369D01*
X142005273Y-73730698D01*
X142005275Y-73730696D01*
X142100277Y-73621058D01*
X142160542Y-73489096D01*
X142181188Y-73345500D01*
X142160542Y-73201904D01*
X142100277Y-73069942D01*
X142088178Y-73055979D01*
X142005273Y-72960301D01*
X141883236Y-72881873D01*
X141883227Y-72881869D01*
X141744038Y-72841000D01*
X141744036Y-72841000D01*
X141667500Y-72841000D01*
X141623306Y-72822694D01*
X141605000Y-72778500D01*
X141605000Y-72161888D01*
X141623306Y-72117694D01*
X141840694Y-71900306D01*
X141884888Y-71882000D01*
X150782732Y-71882000D01*
X150826926Y-71900306D01*
G37*
G04 #@! TD.AperFunction*
G04 #@! TD*
G04 #@! TA.AperFunction,Conductor*
G04 #@! TO.N,VCCQ*
G36*
X173754306Y-77234306D02*
G01*
X173930581Y-77410581D01*
X173948887Y-77454775D01*
X173930581Y-77498969D01*
X173908999Y-77511778D01*
X173909335Y-77512513D01*
X173905267Y-77514370D01*
X173783226Y-77592801D01*
X173688225Y-77702438D01*
X173688222Y-77702443D01*
X173627958Y-77834402D01*
X173627957Y-77834405D01*
X173607312Y-77978000D01*
X173627957Y-78121594D01*
X173627958Y-78121597D01*
X173688222Y-78253556D01*
X173688225Y-78253561D01*
X173783226Y-78363198D01*
X173892877Y-78433666D01*
X173905268Y-78441629D01*
X173945108Y-78453327D01*
X173982354Y-78483339D01*
X173990000Y-78513294D01*
X173990000Y-78617500D01*
X173971694Y-78661694D01*
X173927500Y-78680000D01*
X173853962Y-78680000D01*
X173714772Y-78720869D01*
X173714763Y-78720873D01*
X173592726Y-78799301D01*
X173497725Y-78908938D01*
X173497722Y-78908943D01*
X173437458Y-79040902D01*
X173437457Y-79040905D01*
X173416812Y-79184500D01*
X173437457Y-79328094D01*
X173437458Y-79328097D01*
X173497722Y-79460056D01*
X173497725Y-79460061D01*
X173592726Y-79569698D01*
X173703370Y-79640804D01*
X173714768Y-79648129D01*
X173853961Y-79688999D01*
X173853963Y-79689000D01*
X173927500Y-79689000D01*
X173971694Y-79707306D01*
X173990000Y-79751500D01*
X173990000Y-89128112D01*
X173971694Y-89172306D01*
X173754306Y-89389694D01*
X173710112Y-89408000D01*
X169316888Y-89408000D01*
X169272694Y-89389694D01*
X169055306Y-89172306D01*
X169037000Y-89128112D01*
X169037000Y-85242888D01*
X169055306Y-85198694D01*
X169272694Y-84981306D01*
X169316888Y-84963000D01*
X171704000Y-84963000D01*
X171958000Y-84963000D01*
X171958000Y-79375000D01*
X171704000Y-79375000D01*
X171094888Y-79375000D01*
X171050694Y-79356694D01*
X170833306Y-79139306D01*
X170815000Y-79095112D01*
X170815000Y-77495888D01*
X170833306Y-77451694D01*
X171050694Y-77234306D01*
X171094888Y-77216000D01*
X173710112Y-77216000D01*
X173754306Y-77234306D01*
G37*
G04 #@! TD.AperFunction*
G04 #@! TD*
G04 #@! TA.AperFunction,Conductor*
G04 #@! TO.N,VCCQ*
G36*
X181450438Y-80524905D02*
G01*
X181454144Y-80527404D01*
X181712595Y-80785855D01*
X181716022Y-80794128D01*
X181715168Y-80798515D01*
X181195522Y-82083222D01*
X181189243Y-82089607D01*
X181180289Y-82089681D01*
X181180230Y-82089657D01*
X180866289Y-81960043D01*
X180455787Y-81790562D01*
X180449448Y-81784237D01*
X180449437Y-81784212D01*
X180150349Y-81059785D01*
X180150360Y-81050833D01*
X180156697Y-81044509D01*
X181441484Y-80524831D01*
X181450438Y-80524905D01*
G37*
G04 #@! TD.AperFunction*
G04 #@! TD*
G04 #@! TA.AperFunction,Conductor*
G04 #@! TO.N,VCCQ*
G36*
X182263729Y-77676325D02*
G01*
X182988212Y-77975437D01*
X182994551Y-77981762D01*
X182994562Y-77981787D01*
X183293650Y-78706211D01*
X183293639Y-78715166D01*
X183287300Y-78721491D01*
X183287222Y-78721522D01*
X182002515Y-79241168D01*
X181993561Y-79241094D01*
X181989855Y-79238595D01*
X181731404Y-78980144D01*
X181727977Y-78971871D01*
X181728831Y-78967484D01*
X182127542Y-77981762D01*
X182248477Y-77682776D01*
X182254756Y-77676392D01*
X182263710Y-77676318D01*
X182263729Y-77676325D01*
G37*
G04 #@! TD.AperFunction*
G04 #@! TD*
G04 #@! TA.AperFunction,Conductor*
G04 #@! TO.N,VCCQ*
G36*
X180144225Y-81053165D02*
G01*
X180150187Y-81059326D01*
X180451134Y-81783510D01*
X180451144Y-81792463D01*
X180451135Y-81792485D01*
X180451134Y-81792490D01*
X180150187Y-82516673D01*
X180143848Y-82522998D01*
X180135276Y-82523138D01*
X178859593Y-82044846D01*
X178853049Y-82038733D01*
X178852000Y-82033891D01*
X178852000Y-81542108D01*
X178855427Y-81533835D01*
X178859593Y-81531153D01*
X180135277Y-81052861D01*
X180144225Y-81053165D01*
G37*
G04 #@! TD.AperFunction*
G04 #@! TD*
M02*
