M48
; DRILL file {KiCad 8.0.1} date 2024-04-28T13:44:50+0200
; FORMAT={-:-/ absolute / inch / decimal}
; #@! TF.CreationDate,2024-04-28T13:44:50+02:00
; #@! TF.GenerationSoftware,Kicad,Pcbnew,8.0.1
; #@! TF.FileFunction,Plated,1,4,PTH
FMAT,2
INCH
; #@! TA.AperFunction,Plated,PTH,ViaDrill
T1C0.0079
; #@! TA.AperFunction,Plated,PTH,ComponentDrill
T2C0.0079
; #@! TA.AperFunction,Plated,PTH,ComponentDrill
T3C0.0256
; #@! TA.AperFunction,Plated,PTH,ComponentDrill
T4C0.0315
; #@! TA.AperFunction,Plated,PTH,ComponentDrill
T5C0.0354
; #@! TA.AperFunction,Plated,PTH,ComponentDrill
T6C0.0394
; #@! TA.AperFunction,Plated,PTH,ComponentDrill
T7C0.0402
; #@! TA.AperFunction,Plated,PTH,ComponentDrill
T8C0.0512
; #@! TA.AperFunction,Plated,PTH,ComponentDrill
T9C0.0551
; #@! TA.AperFunction,Plated,PTH,ComponentDrill
T10C0.0630
; #@! TA.AperFunction,Plated,PTH,ComponentDrill
T11C0.1252
; #@! TA.AperFunction,Plated,PTH,ComponentDrill
T12C0.1260
%
G90
G05
T1
X4.855Y-2.71
X4.875Y-2.865
X4.875Y-3.3276
X5.2805Y-3.8
X5.335Y-3.62
X5.355Y-3.87
X5.385Y-2.69
X5.4278Y-3.7622
X5.4324Y-3.6624
X5.4354Y-2.965
X5.44Y-2.925
X5.45Y-3.15
X5.45Y-3.515
X5.45Y-4.17
X5.465Y-2.69
X5.465Y-2.8876
X5.47Y-3.6
X5.4774Y-3.8674
X5.485Y-4.17
X5.4866Y-2.9675
X5.5Y-3.43
X5.52Y-4.17
X5.525Y-3.205
X5.55Y-3.26
X5.56Y-3.82
X5.575Y-2.69
X5.5776Y-2.8876
X5.5978Y-3.7622
X5.599Y-3.261
X5.6Y-3.15
X5.6Y-3.605
X5.6224Y-3.8726
X5.65Y-4.18
X5.65Y-4.215
X5.65Y-4.25
X5.665Y-2.69
X5.675Y-3.695
X5.72Y-3.085
X5.76Y-3.74
X5.775Y-2.74
X5.795Y-3.24
X5.8Y-3.315
X5.805Y-3.28
X5.835Y-3.575
X5.835Y-3.67
X5.8534Y-2.7026
X5.86Y-3.1125
X5.9Y-3.255
X5.945Y-2.99
X5.955Y-2.845
X5.9728Y-3.5278
X6.005Y-2.71
X6.02Y-4.06
X6.025Y-3.22
X6.025Y-3.2677
X6.08Y-4.115
X6.085Y-3.225
X6.085Y-3.2677
X6.1Y-2.9285
X6.1028Y-2.8972
X6.1041Y-3.135
X6.105Y-3.64
X6.12Y-3.235
X6.125Y-3.665
X6.13Y-3.61
X6.14Y-2.715
X6.14Y-2.805
X6.165Y-3.46
X6.1741Y-2.8972
X6.175Y-2.93
X6.175Y-3.225
X6.198Y-3.276
X6.199Y-3.349
X6.2041Y-4.1159
X6.215Y-3.37
X6.22Y-3.725
X6.225Y-3.46
X6.26Y-3.34
X6.2615Y-3.84
X6.27Y-3.46
X6.27Y-3.72
X6.2728Y-2.9228
X6.295Y-3.24
X6.295Y-3.3
X6.295Y-3.33
X6.2973Y-3.3619
X6.305Y-3.785
X6.3126Y-2.9076
X6.3126Y-2.9476
X6.335Y-3.105
X6.3472Y-3.2228
X6.35Y-2.93
X6.3524Y-2.7026
X6.355Y-2.74
X6.3874Y-2.9126
X6.41Y-3.1378
X6.415Y-3.1693
X6.415Y-3.2007
X6.4342Y-3.2425
X6.45Y-3.0
X6.49Y-2.83
X6.49Y-2.955
X6.5335Y-3.25
X6.535Y-3.58
X6.535Y-3.615
X6.555Y-3.2027
X6.56Y-3.1378
X6.56Y-3.168
X6.565Y-3.04
X6.57Y-3.58
X6.57Y-3.615
X6.5871Y-3.2471
X6.5923Y-3.1778
X6.6Y-2.825
X6.6Y-2.97
X6.605Y-3.58
X6.605Y-3.615
X6.6508Y-3.2892
X6.67Y-3.77
X6.67Y-3.805
X6.67Y-3.84
X6.69Y-3.295
X6.705Y-3.32
X6.71Y-3.77
X6.71Y-3.805
X6.71Y-3.84
X6.7295Y-3.2995
X6.745Y-3.41
X6.745Y-3.445
X6.7492Y-3.32
X6.76Y-2.825
X6.76Y-2.97
X6.76Y-3.08
X6.78Y-3.41
X6.78Y-3.445
X6.825Y-3.245
X6.8475Y-3.1175
X6.855Y-3.07
X6.8963Y-3.2122
X6.8963Y-3.2417
X6.905Y-4.03
X6.905Y-4.065
X6.905Y-4.1
X7.025Y-4.19
X7.1426Y-4.0526
X7.245Y-3.96
X7.28Y-3.96
X7.315Y-3.96
X7.46Y-4.045
X7.495Y-4.045
X7.53Y-4.045
T2
X6.6606Y-3.1506
X6.6606Y-3.19
X6.6606Y-3.2294
X6.7Y-3.1506
X6.7Y-3.19
X6.7Y-3.2294
X6.7394Y-3.1506
X6.7394Y-3.19
X6.7394Y-3.2294
T3
X5.7146Y-3.9946
X5.7146Y-4.0446
X5.7646Y-3.9946
X5.7646Y-4.0446
X5.8146Y-3.9946
X5.8146Y-4.0446
X5.8646Y-3.9946
X5.8646Y-4.0446
X5.9146Y-3.9946
X5.9146Y-4.0446
T4
X4.595Y-3.04
X4.595Y-3.54
X4.595Y-3.64
X4.595Y-3.74
X4.595Y-3.84
X4.595Y-3.94
X4.67Y-4.227
X4.87Y-4.227
X5.17Y-4.227
X5.27Y-4.227
T5
X7.1044Y-3.02
X7.1044Y-3.12
X7.1044Y-3.22
X7.1044Y-3.32
X7.2044Y-3.07
X7.2044Y-3.17
X7.2044Y-3.27
X7.2044Y-3.37
T6
X7.1058Y-3.6988
X7.2058Y-3.6988
X7.3058Y-3.6988
T7
X6.9143Y-2.9798
X6.9143Y-3.0798
X6.9143Y-3.3102
X6.9143Y-3.4102
T8
X7.687Y-3.6966
X7.687Y-3.8934
T9
X4.298Y-3.2575
X4.298Y-3.6323
T10
X7.3343Y-2.884
X7.3343Y-3.506
T11
X5.7962Y-2.9619
X6.2938Y-3.9981
T12
X7.7559Y-2.6969
X7.7559Y-4.1929
M30
