G04 #@! TF.GenerationSoftware,KiCad,Pcbnew,8.0.1*
G04 #@! TF.CreationDate,2024-04-28T13:44:55+02:00*
G04 #@! TF.ProjectId,ETH1ISO224,45544831-4953-44f3-9232-342e6b696361,rev?*
G04 #@! TF.SameCoordinates,Original*
G04 #@! TF.FileFunction,Soldermask,Bot*
G04 #@! TF.FilePolarity,Negative*
%FSLAX46Y46*%
G04 Gerber Fmt 4.6, Leading zero omitted, Abs format (unit mm)*
G04 Created by KiCad (PCBNEW 8.0.1) date 2024-04-28 13:44:55*
%MOMM*%
%LPD*%
G01*
G04 APERTURE LIST*
G04 Aperture macros list*
%AMRoundRect*
0 Rectangle with rounded corners*
0 $1 Rounding radius*
0 $2 $3 $4 $5 $6 $7 $8 $9 X,Y pos of 4 corners*
0 Add a 4 corners polygon primitive as box body*
4,1,4,$2,$3,$4,$5,$6,$7,$8,$9,$2,$3,0*
0 Add four circle primitives for the rounded corners*
1,1,$1+$1,$2,$3*
1,1,$1+$1,$4,$5*
1,1,$1+$1,$6,$7*
1,1,$1+$1,$8,$9*
0 Add four rect primitives between the rounded corners*
20,1,$1+$1,$2,$3,$4,$5,0*
20,1,$1+$1,$4,$5,$6,$7,0*
20,1,$1+$1,$6,$7,$8,$9,0*
20,1,$1+$1,$8,$9,$2,$3,0*%
%AMFreePoly0*
4,1,29,0.178017,0.779942,0.347107,0.720775,0.498792,0.625465,0.625465,0.498792,0.720775,0.347107,0.779942,0.178017,0.800000,0.000000,0.779942,-0.178017,0.720775,-0.347107,0.625465,-0.498792,0.498792,-0.625465,0.347107,-0.720775,0.178017,-0.779942,0.000000,-0.800000,-0.178017,-0.779942,-0.347107,-0.720775,-0.498792,-0.625465,-0.625465,-0.498792,-0.720775,-0.347107,-0.779942,-0.178017,
-0.800000,0.000000,-0.779942,0.178017,-0.720775,0.347107,-0.625465,0.498792,-0.498792,0.625465,-0.347107,0.720775,-0.178017,0.779942,0.000000,0.800000,0.178017,0.779942,0.178017,0.779942,$1*%
G04 Aperture macros list end*
%ADD10RoundRect,0.237500X0.237500X-0.250000X0.237500X0.250000X-0.237500X0.250000X-0.237500X-0.250000X0*%
%ADD11RoundRect,0.237500X-0.237500X0.300000X-0.237500X-0.300000X0.237500X-0.300000X0.237500X0.300000X0*%
%ADD12R,2.600000X2.600000*%
%ADD13C,2.600000*%
%ADD14C,4.000000*%
%ADD15C,1.400000*%
%ADD16R,1.400000X1.400000*%
%ADD17C,1.600000*%
%ADD18RoundRect,0.222222X-0.577778X0.577778X-0.577778X-0.577778X0.577778X-0.577778X0.577778X0.577778X0*%
%ADD19R,1.000000X1.000000*%
%ADD20O,1.000000X1.000000*%
%ADD21C,3.250000*%
%ADD22RoundRect,0.248000X0.552000X-0.552000X0.552000X0.552000X-0.552000X0.552000X-0.552000X-0.552000X0*%
%ADD23C,1.720000*%
%ADD24C,2.200000*%
%ADD25C,3.200000*%
%ADD26R,1.500000X2.500000*%
%ADD27O,1.500000X2.500000*%
%ADD28FreePoly0,270.000000*%
%ADD29R,3.000000X3.000000*%
%ADD30C,3.000000*%
%ADD31C,5.600000*%
%ADD32RoundRect,0.237500X0.237500X-0.300000X0.237500X0.300000X-0.237500X0.300000X-0.237500X-0.300000X0*%
%ADD33RoundRect,0.237500X-0.237500X0.250000X-0.237500X-0.250000X0.237500X-0.250000X0.237500X0.250000X0*%
%ADD34R,3.400000X1.300000*%
%ADD35RoundRect,0.237500X0.300000X0.237500X-0.300000X0.237500X-0.300000X-0.237500X0.300000X-0.237500X0*%
%ADD36RoundRect,0.237500X-0.250000X-0.237500X0.250000X-0.237500X0.250000X0.237500X-0.250000X0.237500X0*%
%ADD37RoundRect,0.250000X-0.412500X-0.650000X0.412500X-0.650000X0.412500X0.650000X-0.412500X0.650000X0*%
%ADD38R,0.900000X0.400000*%
%ADD39R,2.000000X2.400000*%
%ADD40RoundRect,0.250000X-1.450000X0.400000X-1.450000X-0.400000X1.450000X-0.400000X1.450000X0.400000X0*%
%ADD41RoundRect,0.250000X0.625000X-0.400000X0.625000X0.400000X-0.625000X0.400000X-0.625000X-0.400000X0*%
%ADD42RoundRect,0.237500X-0.300000X-0.237500X0.300000X-0.237500X0.300000X0.237500X-0.300000X0.237500X0*%
%ADD43RoundRect,0.237500X0.250000X0.237500X-0.250000X0.237500X-0.250000X-0.237500X0.250000X-0.237500X0*%
%ADD44RoundRect,0.250000X-0.625000X0.400000X-0.625000X-0.400000X0.625000X-0.400000X0.625000X0.400000X0*%
%ADD45RoundRect,0.250000X0.412500X0.650000X-0.412500X0.650000X-0.412500X-0.650000X0.412500X-0.650000X0*%
%ADD46RoundRect,0.225000X-0.225000X-0.375000X0.225000X-0.375000X0.225000X0.375000X-0.225000X0.375000X0*%
%ADD47RoundRect,0.100000X-0.712500X-0.100000X0.712500X-0.100000X0.712500X0.100000X-0.712500X0.100000X0*%
%ADD48RoundRect,0.150000X0.150000X-0.587500X0.150000X0.587500X-0.150000X0.587500X-0.150000X-0.587500X0*%
%ADD49RoundRect,0.250000X0.275000X0.350000X-0.275000X0.350000X-0.275000X-0.350000X0.275000X-0.350000X0*%
G04 APERTURE END LIST*
D10*
G04 #@! TO.C,R221*
X152908000Y-68683500D03*
X152908000Y-70508500D03*
G04 #@! TD*
D11*
G04 #@! TO.C,C211*
X160274000Y-68225500D03*
X160274000Y-69950500D03*
G04 #@! TD*
D12*
G04 #@! TO.C,J301*
X195250000Y-98893000D03*
D13*
X195250000Y-93893000D03*
G04 #@! TD*
D14*
G04 #@! TO.C,HS101*
X159863000Y-101552000D03*
X147223000Y-75232000D03*
G04 #@! TD*
D15*
G04 #@! TO.C,U202*
X118618000Y-107366000D03*
X123698000Y-107366000D03*
X131318000Y-107366000D03*
D16*
X133858000Y-107366000D03*
G04 #@! TD*
D17*
G04 #@! TO.C,RN201*
X116713000Y-100076000D03*
X116713000Y-97536000D03*
X116713000Y-94996000D03*
X116713000Y-92456000D03*
X116713000Y-89916000D03*
D18*
X116713000Y-77216000D03*
G04 #@! TD*
D19*
G04 #@! TO.C,J401*
X145151000Y-102733000D03*
D20*
X145151000Y-101463000D03*
X146421000Y-102733000D03*
X146421000Y-101463000D03*
X147691000Y-102733000D03*
X147691000Y-101463000D03*
X148961000Y-102733000D03*
X148961000Y-101463000D03*
X150231000Y-102733000D03*
X150231000Y-101463000D03*
G04 #@! TD*
D21*
G04 #@! TO.C,J501*
X189342000Y-75438000D03*
X189342000Y-86868000D03*
D22*
X180452000Y-76708000D03*
D17*
X182992000Y-77978000D03*
X180452000Y-79248000D03*
X182992000Y-80518000D03*
X180452000Y-81788000D03*
X182992000Y-83058000D03*
X180452000Y-84328000D03*
X182992000Y-85598000D03*
D23*
X175622000Y-75688000D03*
X175622000Y-78228000D03*
X175622000Y-84078000D03*
X175622000Y-86618000D03*
D24*
X186292000Y-73253000D03*
X186292000Y-89053000D03*
G04 #@! TD*
D25*
G04 #@! TO.C,H102*
X104000000Y-106500000D03*
G04 #@! TD*
G04 #@! TO.C,H101*
X104000000Y-68500000D03*
G04 #@! TD*
D26*
G04 #@! TO.C,U301*
X185566500Y-93948500D03*
D27*
X183026500Y-93948500D03*
X180486500Y-93948500D03*
G04 #@! TD*
D28*
G04 #@! TO.C,J201*
X112770000Y-87500000D03*
X102270000Y-87500000D03*
D29*
X109170000Y-82740000D03*
D30*
X109170000Y-92260000D03*
G04 #@! TD*
D31*
G04 #@! TO.C,H104*
X197000000Y-106500000D03*
G04 #@! TD*
G04 #@! TO.C,H103*
X197000000Y-68500000D03*
G04 #@! TD*
D32*
G04 #@! TO.C,C509*
X171831000Y-78713500D03*
X171831000Y-76988500D03*
G04 #@! TD*
D33*
G04 #@! TO.C,R402*
X164846000Y-72493500D03*
X164846000Y-74318500D03*
G04 #@! TD*
D32*
G04 #@! TO.C,C504*
X171704000Y-74649500D03*
X171704000Y-72924500D03*
G04 #@! TD*
D34*
G04 #@! TO.C,L201*
X109220000Y-79663000D03*
X109220000Y-77563000D03*
G04 #@! TD*
D35*
G04 #@! TO.C,C215*
X142213500Y-83947000D03*
X140488500Y-83947000D03*
G04 #@! TD*
D11*
G04 #@! TO.C,C510*
X173355000Y-82957500D03*
X173355000Y-84682500D03*
G04 #@! TD*
G04 #@! TO.C,C209*
X136017000Y-95657500D03*
X136017000Y-97382500D03*
G04 #@! TD*
D36*
G04 #@! TO.C,R218*
X139422500Y-71755000D03*
X141247500Y-71755000D03*
G04 #@! TD*
D37*
G04 #@! TO.C,C301*
X189064500Y-95552000D03*
X192189500Y-95552000D03*
G04 #@! TD*
D38*
G04 #@! TO.C,RN502*
X165950000Y-79699000D03*
X165950000Y-80499000D03*
X165950000Y-81299000D03*
X165950000Y-82099000D03*
X164250000Y-82099000D03*
X164250000Y-81299000D03*
X164250000Y-80499000D03*
X164250000Y-79699000D03*
G04 #@! TD*
D35*
G04 #@! TO.C,C417*
X152754500Y-86741000D03*
X151029500Y-86741000D03*
G04 #@! TD*
D33*
G04 #@! TO.C,R504*
X173482000Y-76938500D03*
X173482000Y-78763500D03*
G04 #@! TD*
D39*
G04 #@! TO.C,Y401*
X155797000Y-84201000D03*
X151797000Y-84201000D03*
G04 #@! TD*
D40*
G04 #@! TO.C,F301*
X190373000Y-99375000D03*
X190373000Y-103825000D03*
G04 #@! TD*
D38*
G04 #@! TO.C,RN503*
X185713000Y-81337000D03*
X185713000Y-80537000D03*
X185713000Y-79737000D03*
X185713000Y-78937000D03*
X187413000Y-78937000D03*
X187413000Y-79737000D03*
X187413000Y-80537000D03*
X187413000Y-81337000D03*
G04 #@! TD*
D10*
G04 #@! TO.C,R211*
X141224000Y-97432500D03*
X141224000Y-95607500D03*
G04 #@! TD*
D41*
G04 #@! TO.C,R207*
X120396000Y-96165000D03*
X120396000Y-93065000D03*
G04 #@! TD*
D42*
G04 #@! TO.C,C414*
X157760500Y-80645000D03*
X159485500Y-80645000D03*
G04 #@! TD*
D43*
G04 #@! TO.C,R217*
X141247500Y-73345500D03*
X139422500Y-73345500D03*
G04 #@! TD*
D32*
G04 #@! TO.C,C501*
X167640000Y-74649500D03*
X167640000Y-72924500D03*
G04 #@! TD*
D42*
G04 #@! TO.C,C422*
X151664500Y-92075000D03*
X153389500Y-92075000D03*
G04 #@! TD*
G04 #@! TO.C,C408*
X160808500Y-96139000D03*
X162533500Y-96139000D03*
G04 #@! TD*
D30*
G04 #@! TO.C,FID104*
X190500000Y-68453000D03*
G04 #@! TD*
D10*
G04 #@! TO.C,R209*
X142748000Y-97432500D03*
X142748000Y-95607500D03*
G04 #@! TD*
D44*
G04 #@! TO.C,R205*
X123825000Y-69189000D03*
X123825000Y-72289000D03*
G04 #@! TD*
D11*
G04 #@! TO.C,C207*
X136144000Y-105817500D03*
X136144000Y-107542500D03*
G04 #@! TD*
D10*
G04 #@! TO.C,R210*
X139065000Y-97432500D03*
X139065000Y-95607500D03*
G04 #@! TD*
D41*
G04 #@! TO.C,R202*
X120142000Y-84100000D03*
X120142000Y-81000000D03*
G04 #@! TD*
D32*
G04 #@! TO.C,C402*
X162560000Y-73252500D03*
X162560000Y-71527500D03*
G04 #@! TD*
D41*
G04 #@! TO.C,R201*
X122047000Y-79147000D03*
X122047000Y-76047000D03*
G04 #@! TD*
D42*
G04 #@! TO.C,C421*
X149886500Y-80772000D03*
X151611500Y-80772000D03*
G04 #@! TD*
D35*
G04 #@! TO.C,C203*
X118210500Y-104140000D03*
X116485500Y-104140000D03*
G04 #@! TD*
D32*
G04 #@! TO.C,C406*
X160274000Y-73252500D03*
X160274000Y-71527500D03*
G04 #@! TD*
G04 #@! TO.C,C505*
X168529000Y-78713500D03*
X168529000Y-76988500D03*
G04 #@! TD*
D41*
G04 #@! TO.C,R203*
X120142000Y-89053000D03*
X120142000Y-85953000D03*
G04 #@! TD*
D33*
G04 #@! TO.C,R503*
X177546000Y-87606500D03*
X177546000Y-89431500D03*
G04 #@! TD*
D11*
G04 #@! TO.C,C511*
X180467000Y-87656500D03*
X180467000Y-89381500D03*
G04 #@! TD*
D10*
G04 #@! TO.C,R407*
X156591000Y-90193500D03*
X156591000Y-88368500D03*
G04 #@! TD*
D33*
G04 #@! TO.C,R406*
X161544000Y-86336500D03*
X161544000Y-88161500D03*
G04 #@! TD*
D32*
G04 #@! TO.C,C512*
X183007000Y-75538500D03*
X183007000Y-73813500D03*
G04 #@! TD*
D45*
G04 #@! TO.C,C206*
X134404500Y-105029000D03*
X131279500Y-105029000D03*
G04 #@! TD*
D35*
G04 #@! TO.C,C204*
X118210500Y-105664000D03*
X116485500Y-105664000D03*
G04 #@! TD*
D46*
G04 #@! TO.C,D302*
X182500000Y-97663000D03*
X185800000Y-97663000D03*
G04 #@! TD*
D47*
G04 #@! TO.C,U404*
X150414500Y-90256000D03*
X150414500Y-89606000D03*
X150414500Y-88956000D03*
X150414500Y-88306000D03*
X154639500Y-88306000D03*
X154639500Y-88956000D03*
X154639500Y-89606000D03*
X154639500Y-90256000D03*
G04 #@! TD*
D35*
G04 #@! TO.C,C506*
X165962500Y-77216000D03*
X164237500Y-77216000D03*
G04 #@! TD*
G04 #@! TO.C,C217*
X142213500Y-78994000D03*
X140488500Y-78994000D03*
G04 #@! TD*
D41*
G04 #@! TO.C,R208*
X120396000Y-101118000D03*
X120396000Y-98018000D03*
G04 #@! TD*
D33*
G04 #@! TO.C,R505*
X177546000Y-84050500D03*
X177546000Y-85875500D03*
G04 #@! TD*
D48*
G04 #@! TO.C,D301*
X185227000Y-103934500D03*
X183327000Y-103934500D03*
X184277000Y-102059500D03*
G04 #@! TD*
D30*
G04 #@! TO.C,FID102*
X109474000Y-107950000D03*
G04 #@! TD*
D32*
G04 #@! TO.C,C403*
X158750000Y-73252500D03*
X158750000Y-71527500D03*
G04 #@! TD*
D42*
G04 #@! TO.C,C418*
X149886500Y-79121000D03*
X151611500Y-79121000D03*
G04 #@! TD*
D11*
G04 #@! TO.C,C405*
X162560000Y-75337500D03*
X162560000Y-77062500D03*
G04 #@! TD*
G04 #@! TO.C,C401*
X145669000Y-82830500D03*
X145669000Y-84555500D03*
G04 #@! TD*
D33*
G04 #@! TO.C,R212*
X137541000Y-95607500D03*
X137541000Y-97432500D03*
G04 #@! TD*
D43*
G04 #@! TO.C,R302*
X180744500Y-97663000D03*
X178919500Y-97663000D03*
G04 #@! TD*
D11*
G04 #@! TO.C,C411*
X160274000Y-75591500D03*
X160274000Y-77316500D03*
G04 #@! TD*
D45*
G04 #@! TO.C,C304*
X173774500Y-103251000D03*
X170649500Y-103251000D03*
G04 #@! TD*
D37*
G04 #@! TO.C,C302*
X189064500Y-93218000D03*
X192189500Y-93218000D03*
G04 #@! TD*
D42*
G04 #@! TO.C,C410*
X154204500Y-80645000D03*
X155929500Y-80645000D03*
G04 #@! TD*
G04 #@! TO.C,C416*
X154839500Y-86741000D03*
X156564500Y-86741000D03*
G04 #@! TD*
D11*
G04 #@! TO.C,C214*
X137668000Y-89688500D03*
X137668000Y-91413500D03*
G04 #@! TD*
D36*
G04 #@! TO.C,R502*
X164187500Y-84074000D03*
X166012500Y-84074000D03*
G04 #@! TD*
D33*
G04 #@! TO.C,R213*
X138430000Y-80635000D03*
X138430000Y-82460000D03*
G04 #@! TD*
D32*
G04 #@! TO.C,C419*
X148209000Y-93826500D03*
X148209000Y-92101500D03*
G04 #@! TD*
G04 #@! TO.C,C502*
X170053000Y-78713500D03*
X170053000Y-76988500D03*
G04 #@! TD*
G04 #@! TO.C,C208*
X136144000Y-104240500D03*
X136144000Y-102515500D03*
G04 #@! TD*
G04 #@! TO.C,C218*
X139319000Y-103732500D03*
X139319000Y-102007500D03*
G04 #@! TD*
D37*
G04 #@! TO.C,C202*
X120484500Y-104775000D03*
X123609500Y-104775000D03*
G04 #@! TD*
D35*
G04 #@! TO.C,C420*
X158088500Y-96139000D03*
X156363500Y-96139000D03*
G04 #@! TD*
D11*
G04 #@! TO.C,C212*
X149098000Y-68733500D03*
X149098000Y-70458500D03*
G04 #@! TD*
D41*
G04 #@! TO.C,R206*
X123190000Y-93117000D03*
X123190000Y-90017000D03*
G04 #@! TD*
D32*
G04 #@! TO.C,C404*
X146304000Y-93826500D03*
X146304000Y-92101500D03*
G04 #@! TD*
D11*
G04 #@! TO.C,C210*
X144272000Y-95657500D03*
X144272000Y-97382500D03*
G04 #@! TD*
D36*
G04 #@! TO.C,R216*
X139422500Y-74930000D03*
X141247500Y-74930000D03*
G04 #@! TD*
D11*
G04 #@! TO.C,C412*
X161544000Y-82703500D03*
X161544000Y-84428500D03*
G04 #@! TD*
D10*
G04 #@! TO.C,R506*
X177546000Y-75588500D03*
X177546000Y-73763500D03*
G04 #@! TD*
G04 #@! TO.C,R408*
X158115000Y-90193500D03*
X158115000Y-88368500D03*
G04 #@! TD*
D11*
G04 #@! TO.C,C409*
X158750000Y-75591500D03*
X158750000Y-77316500D03*
G04 #@! TD*
D49*
G04 #@! TO.C,FB401*
X147962000Y-80772000D03*
X145662000Y-80772000D03*
G04 #@! TD*
M02*
